G04 #@! TF.GenerationSoftware,KiCad,Pcbnew,5.0.2-bee76a0~70~ubuntu18.04.1*
G04 #@! TF.CreationDate,2018-12-10T15:17:23+01:00*
G04 #@! TF.ProjectId,sammyultra,73616d6d-7975-46c7-9472-612e6b696361,rev?*
G04 #@! TF.SameCoordinates,Original*
G04 #@! TF.FileFunction,Soldermask,Bot*
G04 #@! TF.FilePolarity,Negative*
%FSLAX46Y46*%
G04 Gerber Fmt 4.6, Leading zero omitted, Abs format (unit mm)*
G04 Created by KiCad (PCBNEW 5.0.2-bee76a0~70~ubuntu18.04.1) date 2018-12-10T15:17:23 CET*
%MOMM*%
%LPD*%
G01*
G04 APERTURE LIST*
%ADD10C,0.100000*%
G04 APERTURE END LIST*
D10*
G36*
X113668707Y-114257596D02*
X113745836Y-114265193D01*
X113877787Y-114305220D01*
X113943763Y-114325233D01*
X114126172Y-114422733D01*
X114286054Y-114553946D01*
X114417267Y-114713828D01*
X114514767Y-114896237D01*
X114514767Y-114896238D01*
X114574807Y-115094164D01*
X114595080Y-115300000D01*
X114574807Y-115505836D01*
X114534780Y-115637787D01*
X114514767Y-115703763D01*
X114417267Y-115886172D01*
X114286054Y-116046054D01*
X114126172Y-116177267D01*
X113943763Y-116274767D01*
X113877787Y-116294780D01*
X113745836Y-116334807D01*
X113668707Y-116342404D01*
X113591580Y-116350000D01*
X113488420Y-116350000D01*
X113411293Y-116342404D01*
X113334164Y-116334807D01*
X113202213Y-116294780D01*
X113136237Y-116274767D01*
X112953828Y-116177267D01*
X112793946Y-116046054D01*
X112662733Y-115886172D01*
X112565233Y-115703763D01*
X112545220Y-115637787D01*
X112505193Y-115505836D01*
X112484920Y-115300000D01*
X112505193Y-115094164D01*
X112565233Y-114896238D01*
X112565233Y-114896237D01*
X112662733Y-114713828D01*
X112793946Y-114553946D01*
X112953828Y-114422733D01*
X113136237Y-114325233D01*
X113202213Y-114305220D01*
X113334164Y-114265193D01*
X113411293Y-114257596D01*
X113488420Y-114250000D01*
X113591580Y-114250000D01*
X113668707Y-114257596D01*
X113668707Y-114257596D01*
G37*
G36*
X78128707Y-114257596D02*
X78205836Y-114265193D01*
X78337787Y-114305220D01*
X78403763Y-114325233D01*
X78586172Y-114422733D01*
X78746054Y-114553946D01*
X78877267Y-114713828D01*
X78974767Y-114896237D01*
X78974767Y-114896238D01*
X79034807Y-115094164D01*
X79055080Y-115300000D01*
X79034807Y-115505836D01*
X78994780Y-115637787D01*
X78974767Y-115703763D01*
X78877267Y-115886172D01*
X78746054Y-116046054D01*
X78586172Y-116177267D01*
X78403763Y-116274767D01*
X78337787Y-116294780D01*
X78205836Y-116334807D01*
X78128707Y-116342404D01*
X78051580Y-116350000D01*
X77948420Y-116350000D01*
X77871293Y-116342404D01*
X77794164Y-116334807D01*
X77662213Y-116294780D01*
X77596237Y-116274767D01*
X77413828Y-116177267D01*
X77253946Y-116046054D01*
X77122733Y-115886172D01*
X77025233Y-115703763D01*
X77005220Y-115637787D01*
X76965193Y-115505836D01*
X76944920Y-115300000D01*
X76965193Y-115094164D01*
X77025233Y-114896238D01*
X77025233Y-114896237D01*
X77122733Y-114713828D01*
X77253946Y-114553946D01*
X77413828Y-114422733D01*
X77596237Y-114325233D01*
X77662213Y-114305220D01*
X77794164Y-114265193D01*
X77871293Y-114257596D01*
X77948420Y-114250000D01*
X78051580Y-114250000D01*
X78128707Y-114257596D01*
X78128707Y-114257596D01*
G37*
G36*
X80668707Y-114257596D02*
X80745836Y-114265193D01*
X80877787Y-114305220D01*
X80943763Y-114325233D01*
X81126172Y-114422733D01*
X81286054Y-114553946D01*
X81417267Y-114713828D01*
X81514767Y-114896237D01*
X81514767Y-114896238D01*
X81574807Y-115094164D01*
X81595080Y-115300000D01*
X81574807Y-115505836D01*
X81534780Y-115637787D01*
X81514767Y-115703763D01*
X81417267Y-115886172D01*
X81286054Y-116046054D01*
X81126172Y-116177267D01*
X80943763Y-116274767D01*
X80877787Y-116294780D01*
X80745836Y-116334807D01*
X80668707Y-116342404D01*
X80591580Y-116350000D01*
X80488420Y-116350000D01*
X80411293Y-116342404D01*
X80334164Y-116334807D01*
X80202213Y-116294780D01*
X80136237Y-116274767D01*
X79953828Y-116177267D01*
X79793946Y-116046054D01*
X79662733Y-115886172D01*
X79565233Y-115703763D01*
X79545220Y-115637787D01*
X79505193Y-115505836D01*
X79484920Y-115300000D01*
X79505193Y-115094164D01*
X79565233Y-114896238D01*
X79565233Y-114896237D01*
X79662733Y-114713828D01*
X79793946Y-114553946D01*
X79953828Y-114422733D01*
X80136237Y-114325233D01*
X80202213Y-114305220D01*
X80334164Y-114265193D01*
X80411293Y-114257596D01*
X80488420Y-114250000D01*
X80591580Y-114250000D01*
X80668707Y-114257596D01*
X80668707Y-114257596D01*
G37*
G36*
X111128707Y-114257596D02*
X111205836Y-114265193D01*
X111337787Y-114305220D01*
X111403763Y-114325233D01*
X111586172Y-114422733D01*
X111746054Y-114553946D01*
X111877267Y-114713828D01*
X111974767Y-114896237D01*
X111974767Y-114896238D01*
X112034807Y-115094164D01*
X112055080Y-115300000D01*
X112034807Y-115505836D01*
X111994780Y-115637787D01*
X111974767Y-115703763D01*
X111877267Y-115886172D01*
X111746054Y-116046054D01*
X111586172Y-116177267D01*
X111403763Y-116274767D01*
X111337787Y-116294780D01*
X111205836Y-116334807D01*
X111128707Y-116342404D01*
X111051580Y-116350000D01*
X110948420Y-116350000D01*
X110871293Y-116342404D01*
X110794164Y-116334807D01*
X110662213Y-116294780D01*
X110596237Y-116274767D01*
X110413828Y-116177267D01*
X110253946Y-116046054D01*
X110122733Y-115886172D01*
X110025233Y-115703763D01*
X110005220Y-115637787D01*
X109965193Y-115505836D01*
X109944920Y-115300000D01*
X109965193Y-115094164D01*
X110025233Y-114896238D01*
X110025233Y-114896237D01*
X110122733Y-114713828D01*
X110253946Y-114553946D01*
X110413828Y-114422733D01*
X110596237Y-114325233D01*
X110662213Y-114305220D01*
X110794164Y-114265193D01*
X110871293Y-114257596D01*
X110948420Y-114250000D01*
X111051580Y-114250000D01*
X111128707Y-114257596D01*
X111128707Y-114257596D01*
G37*
G36*
X104250000Y-113902400D02*
X104252402Y-113926786D01*
X104259515Y-113950235D01*
X104271066Y-113971846D01*
X104286612Y-113990788D01*
X104305554Y-114006334D01*
X104327165Y-114017885D01*
X104350614Y-114024998D01*
X104375000Y-114027400D01*
X104399386Y-114024998D01*
X104433924Y-114012640D01*
X104474806Y-113990788D01*
X104550825Y-113950155D01*
X104682776Y-113910128D01*
X104785610Y-113900000D01*
X104854390Y-113900000D01*
X104957224Y-113910128D01*
X105089175Y-113950155D01*
X105210781Y-114015155D01*
X105317370Y-114102630D01*
X105358380Y-114152601D01*
X105375701Y-114169922D01*
X105396076Y-114183536D01*
X105418715Y-114192914D01*
X105442748Y-114197694D01*
X105467252Y-114197694D01*
X105491286Y-114192913D01*
X105513925Y-114183536D01*
X105534299Y-114169922D01*
X105551620Y-114152601D01*
X105592630Y-114102630D01*
X105699219Y-114015155D01*
X105820825Y-113950155D01*
X105952776Y-113910128D01*
X106055610Y-113900000D01*
X106124390Y-113900000D01*
X106227224Y-113910128D01*
X106359175Y-113950155D01*
X106480781Y-114015155D01*
X106587370Y-114102630D01*
X106628380Y-114152601D01*
X106645701Y-114169922D01*
X106666076Y-114183536D01*
X106688715Y-114192914D01*
X106712748Y-114197694D01*
X106737252Y-114197694D01*
X106761286Y-114192913D01*
X106783925Y-114183536D01*
X106804299Y-114169922D01*
X106821620Y-114152601D01*
X106862630Y-114102630D01*
X106969219Y-114015155D01*
X107090825Y-113950155D01*
X107222776Y-113910128D01*
X107325610Y-113900000D01*
X107394390Y-113900000D01*
X107497224Y-113910128D01*
X107629175Y-113950155D01*
X107750781Y-114015155D01*
X107857370Y-114102630D01*
X107944845Y-114209219D01*
X108009845Y-114330825D01*
X108049872Y-114462776D01*
X108063387Y-114600000D01*
X108049872Y-114737224D01*
X108009845Y-114869175D01*
X107944845Y-114990781D01*
X107857370Y-115097370D01*
X107750781Y-115184845D01*
X107629175Y-115249845D01*
X107497224Y-115289872D01*
X107394390Y-115300000D01*
X107325610Y-115300000D01*
X107222776Y-115289872D01*
X107090825Y-115249845D01*
X106969219Y-115184845D01*
X106862630Y-115097370D01*
X106821620Y-115047399D01*
X106804299Y-115030078D01*
X106783924Y-115016464D01*
X106761285Y-115007086D01*
X106737252Y-115002306D01*
X106712748Y-115002306D01*
X106688714Y-115007087D01*
X106666075Y-115016464D01*
X106645701Y-115030078D01*
X106628380Y-115047399D01*
X106587370Y-115097370D01*
X106480781Y-115184845D01*
X106359175Y-115249845D01*
X106227224Y-115289872D01*
X106124390Y-115300000D01*
X106055610Y-115300000D01*
X105952776Y-115289872D01*
X105820825Y-115249845D01*
X105699219Y-115184845D01*
X105592630Y-115097370D01*
X105551620Y-115047399D01*
X105534299Y-115030078D01*
X105513924Y-115016464D01*
X105491285Y-115007086D01*
X105467252Y-115002306D01*
X105442748Y-115002306D01*
X105418714Y-115007087D01*
X105396075Y-115016464D01*
X105375701Y-115030078D01*
X105358380Y-115047399D01*
X105317370Y-115097370D01*
X105210781Y-115184845D01*
X105089175Y-115249845D01*
X104957224Y-115289872D01*
X104854390Y-115300000D01*
X104785610Y-115300000D01*
X104682776Y-115289872D01*
X104550825Y-115249845D01*
X104433925Y-115187360D01*
X104411285Y-115177982D01*
X104387252Y-115173202D01*
X104362747Y-115173202D01*
X104338714Y-115177983D01*
X104316075Y-115187360D01*
X104295700Y-115200974D01*
X104278373Y-115218301D01*
X104264760Y-115238676D01*
X104255382Y-115261315D01*
X104250000Y-115297600D01*
X104250000Y-115300000D01*
X102850000Y-115300000D01*
X102850000Y-113900000D01*
X104250000Y-113900000D01*
X104250000Y-113902400D01*
X104250000Y-113902400D01*
G37*
G36*
X111128707Y-111717596D02*
X111205836Y-111725193D01*
X111337787Y-111765220D01*
X111403763Y-111785233D01*
X111586172Y-111882733D01*
X111746054Y-112013946D01*
X111877267Y-112173828D01*
X111974767Y-112356237D01*
X111974767Y-112356238D01*
X112034807Y-112554164D01*
X112055080Y-112760000D01*
X112034807Y-112965836D01*
X111994780Y-113097787D01*
X111974767Y-113163763D01*
X111877267Y-113346172D01*
X111746054Y-113506054D01*
X111586172Y-113637267D01*
X111403763Y-113734767D01*
X111337787Y-113754780D01*
X111205836Y-113794807D01*
X111128707Y-113802403D01*
X111051580Y-113810000D01*
X110948420Y-113810000D01*
X110871293Y-113802403D01*
X110794164Y-113794807D01*
X110662213Y-113754780D01*
X110596237Y-113734767D01*
X110413828Y-113637267D01*
X110253946Y-113506054D01*
X110122733Y-113346172D01*
X110025233Y-113163763D01*
X110005220Y-113097787D01*
X109965193Y-112965836D01*
X109944920Y-112760000D01*
X109965193Y-112554164D01*
X110025233Y-112356238D01*
X110025233Y-112356237D01*
X110122733Y-112173828D01*
X110253946Y-112013946D01*
X110413828Y-111882733D01*
X110596237Y-111785233D01*
X110662213Y-111765220D01*
X110794164Y-111725193D01*
X110871293Y-111717596D01*
X110948420Y-111710000D01*
X111051580Y-111710000D01*
X111128707Y-111717596D01*
X111128707Y-111717596D01*
G37*
G36*
X78128707Y-111717596D02*
X78205836Y-111725193D01*
X78337787Y-111765220D01*
X78403763Y-111785233D01*
X78586172Y-111882733D01*
X78746054Y-112013946D01*
X78877267Y-112173828D01*
X78974767Y-112356237D01*
X78974767Y-112356238D01*
X79034807Y-112554164D01*
X79055080Y-112760000D01*
X79034807Y-112965836D01*
X78994780Y-113097787D01*
X78974767Y-113163763D01*
X78877267Y-113346172D01*
X78746054Y-113506054D01*
X78586172Y-113637267D01*
X78403763Y-113734767D01*
X78337787Y-113754780D01*
X78205836Y-113794807D01*
X78128707Y-113802403D01*
X78051580Y-113810000D01*
X77948420Y-113810000D01*
X77871293Y-113802403D01*
X77794164Y-113794807D01*
X77662213Y-113754780D01*
X77596237Y-113734767D01*
X77413828Y-113637267D01*
X77253946Y-113506054D01*
X77122733Y-113346172D01*
X77025233Y-113163763D01*
X77005220Y-113097787D01*
X76965193Y-112965836D01*
X76944920Y-112760000D01*
X76965193Y-112554164D01*
X77025233Y-112356238D01*
X77025233Y-112356237D01*
X77122733Y-112173828D01*
X77253946Y-112013946D01*
X77413828Y-111882733D01*
X77596237Y-111785233D01*
X77662213Y-111765220D01*
X77794164Y-111725193D01*
X77871293Y-111717596D01*
X77948420Y-111710000D01*
X78051580Y-111710000D01*
X78128707Y-111717596D01*
X78128707Y-111717596D01*
G37*
G36*
X80668707Y-111717596D02*
X80745836Y-111725193D01*
X80877787Y-111765220D01*
X80943763Y-111785233D01*
X81126172Y-111882733D01*
X81286054Y-112013946D01*
X81417267Y-112173828D01*
X81514767Y-112356237D01*
X81514767Y-112356238D01*
X81574807Y-112554164D01*
X81595080Y-112760000D01*
X81574807Y-112965836D01*
X81534780Y-113097787D01*
X81514767Y-113163763D01*
X81417267Y-113346172D01*
X81286054Y-113506054D01*
X81126172Y-113637267D01*
X80943763Y-113734767D01*
X80877787Y-113754780D01*
X80745836Y-113794807D01*
X80668707Y-113802403D01*
X80591580Y-113810000D01*
X80488420Y-113810000D01*
X80411293Y-113802403D01*
X80334164Y-113794807D01*
X80202213Y-113754780D01*
X80136237Y-113734767D01*
X79953828Y-113637267D01*
X79793946Y-113506054D01*
X79662733Y-113346172D01*
X79565233Y-113163763D01*
X79545220Y-113097787D01*
X79505193Y-112965836D01*
X79484920Y-112760000D01*
X79505193Y-112554164D01*
X79565233Y-112356238D01*
X79565233Y-112356237D01*
X79662733Y-112173828D01*
X79793946Y-112013946D01*
X79953828Y-111882733D01*
X80136237Y-111785233D01*
X80202213Y-111765220D01*
X80334164Y-111725193D01*
X80411293Y-111717596D01*
X80488420Y-111710000D01*
X80591580Y-111710000D01*
X80668707Y-111717596D01*
X80668707Y-111717596D01*
G37*
G36*
X113668707Y-111717596D02*
X113745836Y-111725193D01*
X113877787Y-111765220D01*
X113943763Y-111785233D01*
X114126172Y-111882733D01*
X114286054Y-112013946D01*
X114417267Y-112173828D01*
X114514767Y-112356237D01*
X114514767Y-112356238D01*
X114574807Y-112554164D01*
X114595080Y-112760000D01*
X114574807Y-112965836D01*
X114534780Y-113097787D01*
X114514767Y-113163763D01*
X114417267Y-113346172D01*
X114286054Y-113506054D01*
X114126172Y-113637267D01*
X113943763Y-113734767D01*
X113877787Y-113754780D01*
X113745836Y-113794807D01*
X113668707Y-113802403D01*
X113591580Y-113810000D01*
X113488420Y-113810000D01*
X113411293Y-113802403D01*
X113334164Y-113794807D01*
X113202213Y-113754780D01*
X113136237Y-113734767D01*
X112953828Y-113637267D01*
X112793946Y-113506054D01*
X112662733Y-113346172D01*
X112565233Y-113163763D01*
X112545220Y-113097787D01*
X112505193Y-112965836D01*
X112484920Y-112760000D01*
X112505193Y-112554164D01*
X112565233Y-112356238D01*
X112565233Y-112356237D01*
X112662733Y-112173828D01*
X112793946Y-112013946D01*
X112953828Y-111882733D01*
X113136237Y-111785233D01*
X113202213Y-111765220D01*
X113334164Y-111725193D01*
X113411293Y-111717596D01*
X113488420Y-111710000D01*
X113591580Y-111710000D01*
X113668707Y-111717596D01*
X113668707Y-111717596D01*
G37*
G36*
X93104183Y-111426900D02*
X93231574Y-111479668D01*
X93346225Y-111556275D01*
X93443725Y-111653775D01*
X93520332Y-111768426D01*
X93573100Y-111895817D01*
X93600000Y-112031055D01*
X93600000Y-112168945D01*
X93573100Y-112304183D01*
X93520332Y-112431574D01*
X93443725Y-112546225D01*
X93346225Y-112643725D01*
X93231574Y-112720332D01*
X93104183Y-112773100D01*
X92968945Y-112800000D01*
X92831055Y-112800000D01*
X92695817Y-112773100D01*
X92568426Y-112720332D01*
X92453775Y-112643725D01*
X92356275Y-112546225D01*
X92279668Y-112431574D01*
X92226900Y-112304183D01*
X92200000Y-112168945D01*
X92200000Y-112031055D01*
X92226900Y-111895817D01*
X92279668Y-111768426D01*
X92356275Y-111653775D01*
X92453775Y-111556275D01*
X92568426Y-111479668D01*
X92695817Y-111426900D01*
X92831055Y-111400000D01*
X92968945Y-111400000D01*
X93104183Y-111426900D01*
X93104183Y-111426900D01*
G37*
G36*
X78128707Y-109177597D02*
X78205836Y-109185193D01*
X78337787Y-109225220D01*
X78403763Y-109245233D01*
X78586172Y-109342733D01*
X78746054Y-109473946D01*
X78877267Y-109633828D01*
X78974767Y-109816237D01*
X78974767Y-109816238D01*
X79034807Y-110014164D01*
X79055080Y-110220000D01*
X79034807Y-110425836D01*
X78994780Y-110557787D01*
X78974767Y-110623763D01*
X78877267Y-110806172D01*
X78746054Y-110966054D01*
X78586172Y-111097267D01*
X78403763Y-111194767D01*
X78337787Y-111214780D01*
X78205836Y-111254807D01*
X78128707Y-111262403D01*
X78051580Y-111270000D01*
X77948420Y-111270000D01*
X77871293Y-111262403D01*
X77794164Y-111254807D01*
X77662213Y-111214780D01*
X77596237Y-111194767D01*
X77413828Y-111097267D01*
X77253946Y-110966054D01*
X77122733Y-110806172D01*
X77025233Y-110623763D01*
X77005220Y-110557787D01*
X76965193Y-110425836D01*
X76944920Y-110220000D01*
X76965193Y-110014164D01*
X77025233Y-109816238D01*
X77025233Y-109816237D01*
X77122733Y-109633828D01*
X77253946Y-109473946D01*
X77413828Y-109342733D01*
X77596237Y-109245233D01*
X77662213Y-109225220D01*
X77794164Y-109185193D01*
X77871293Y-109177597D01*
X77948420Y-109170000D01*
X78051580Y-109170000D01*
X78128707Y-109177597D01*
X78128707Y-109177597D01*
G37*
G36*
X113668707Y-109177597D02*
X113745836Y-109185193D01*
X113877787Y-109225220D01*
X113943763Y-109245233D01*
X114126172Y-109342733D01*
X114286054Y-109473946D01*
X114417267Y-109633828D01*
X114514767Y-109816237D01*
X114514767Y-109816238D01*
X114574807Y-110014164D01*
X114595080Y-110220000D01*
X114574807Y-110425836D01*
X114534780Y-110557787D01*
X114514767Y-110623763D01*
X114417267Y-110806172D01*
X114286054Y-110966054D01*
X114126172Y-111097267D01*
X113943763Y-111194767D01*
X113877787Y-111214780D01*
X113745836Y-111254807D01*
X113668707Y-111262403D01*
X113591580Y-111270000D01*
X113488420Y-111270000D01*
X113411293Y-111262403D01*
X113334164Y-111254807D01*
X113202213Y-111214780D01*
X113136237Y-111194767D01*
X112953828Y-111097267D01*
X112793946Y-110966054D01*
X112662733Y-110806172D01*
X112565233Y-110623763D01*
X112545220Y-110557787D01*
X112505193Y-110425836D01*
X112484920Y-110220000D01*
X112505193Y-110014164D01*
X112565233Y-109816238D01*
X112565233Y-109816237D01*
X112662733Y-109633828D01*
X112793946Y-109473946D01*
X112953828Y-109342733D01*
X113136237Y-109245233D01*
X113202213Y-109225220D01*
X113334164Y-109185193D01*
X113411293Y-109177597D01*
X113488420Y-109170000D01*
X113591580Y-109170000D01*
X113668707Y-109177597D01*
X113668707Y-109177597D01*
G37*
G36*
X111128707Y-109177597D02*
X111205836Y-109185193D01*
X111337787Y-109225220D01*
X111403763Y-109245233D01*
X111586172Y-109342733D01*
X111746054Y-109473946D01*
X111877267Y-109633828D01*
X111974767Y-109816237D01*
X111974767Y-109816238D01*
X112034807Y-110014164D01*
X112055080Y-110220000D01*
X112034807Y-110425836D01*
X111994780Y-110557787D01*
X111974767Y-110623763D01*
X111877267Y-110806172D01*
X111746054Y-110966054D01*
X111586172Y-111097267D01*
X111403763Y-111194767D01*
X111337787Y-111214780D01*
X111205836Y-111254807D01*
X111128707Y-111262403D01*
X111051580Y-111270000D01*
X110948420Y-111270000D01*
X110871293Y-111262403D01*
X110794164Y-111254807D01*
X110662213Y-111214780D01*
X110596237Y-111194767D01*
X110413828Y-111097267D01*
X110253946Y-110966054D01*
X110122733Y-110806172D01*
X110025233Y-110623763D01*
X110005220Y-110557787D01*
X109965193Y-110425836D01*
X109944920Y-110220000D01*
X109965193Y-110014164D01*
X110025233Y-109816238D01*
X110025233Y-109816237D01*
X110122733Y-109633828D01*
X110253946Y-109473946D01*
X110413828Y-109342733D01*
X110596237Y-109245233D01*
X110662213Y-109225220D01*
X110794164Y-109185193D01*
X110871293Y-109177597D01*
X110948420Y-109170000D01*
X111051580Y-109170000D01*
X111128707Y-109177597D01*
X111128707Y-109177597D01*
G37*
G36*
X80668707Y-109177597D02*
X80745836Y-109185193D01*
X80877787Y-109225220D01*
X80943763Y-109245233D01*
X81126172Y-109342733D01*
X81286054Y-109473946D01*
X81417267Y-109633828D01*
X81514767Y-109816237D01*
X81514767Y-109816238D01*
X81574807Y-110014164D01*
X81595080Y-110220000D01*
X81574807Y-110425836D01*
X81534780Y-110557787D01*
X81514767Y-110623763D01*
X81417267Y-110806172D01*
X81286054Y-110966054D01*
X81126172Y-111097267D01*
X80943763Y-111194767D01*
X80877787Y-111214780D01*
X80745836Y-111254807D01*
X80668707Y-111262403D01*
X80591580Y-111270000D01*
X80488420Y-111270000D01*
X80411293Y-111262403D01*
X80334164Y-111254807D01*
X80202213Y-111214780D01*
X80136237Y-111194767D01*
X79953828Y-111097267D01*
X79793946Y-110966054D01*
X79662733Y-110806172D01*
X79565233Y-110623763D01*
X79545220Y-110557787D01*
X79505193Y-110425836D01*
X79484920Y-110220000D01*
X79505193Y-110014164D01*
X79565233Y-109816238D01*
X79565233Y-109816237D01*
X79662733Y-109633828D01*
X79793946Y-109473946D01*
X79953828Y-109342733D01*
X80136237Y-109245233D01*
X80202213Y-109225220D01*
X80334164Y-109185193D01*
X80411293Y-109177597D01*
X80488420Y-109170000D01*
X80591580Y-109170000D01*
X80668707Y-109177597D01*
X80668707Y-109177597D01*
G37*
G36*
X98304183Y-108526900D02*
X98431574Y-108579668D01*
X98546224Y-108656274D01*
X98643726Y-108753776D01*
X98671817Y-108795818D01*
X98720332Y-108868426D01*
X98773100Y-108995817D01*
X98800000Y-109131055D01*
X98800000Y-109268945D01*
X98773100Y-109404183D01*
X98720332Y-109531574D01*
X98652009Y-109633828D01*
X98643725Y-109646225D01*
X98546225Y-109743725D01*
X98431574Y-109820332D01*
X98304183Y-109873100D01*
X98168945Y-109900000D01*
X98031055Y-109900000D01*
X97895817Y-109873100D01*
X97768426Y-109820332D01*
X97653775Y-109743725D01*
X97556275Y-109646225D01*
X97547992Y-109633828D01*
X97479668Y-109531574D01*
X97426900Y-109404183D01*
X97400000Y-109268945D01*
X97400000Y-109131055D01*
X97426900Y-108995817D01*
X97479668Y-108868426D01*
X97528183Y-108795818D01*
X97556274Y-108753776D01*
X97653776Y-108656274D01*
X97768426Y-108579668D01*
X97895817Y-108526900D01*
X98031055Y-108500000D01*
X98168945Y-108500000D01*
X98304183Y-108526900D01*
X98304183Y-108526900D01*
G37*
G36*
X92504183Y-108326900D02*
X92631574Y-108379668D01*
X92746224Y-108456274D01*
X92843726Y-108553776D01*
X92911205Y-108654767D01*
X92920332Y-108668426D01*
X92973100Y-108795817D01*
X93000000Y-108931055D01*
X93000000Y-109068945D01*
X92973100Y-109204183D01*
X92946274Y-109268945D01*
X92920332Y-109331574D01*
X92871817Y-109404183D01*
X92843725Y-109446225D01*
X92746225Y-109543725D01*
X92631574Y-109620332D01*
X92504183Y-109673100D01*
X92368945Y-109700000D01*
X92231055Y-109700000D01*
X92095817Y-109673100D01*
X91968426Y-109620332D01*
X91853775Y-109543725D01*
X91756275Y-109446225D01*
X91728184Y-109404183D01*
X91679668Y-109331574D01*
X91653726Y-109268945D01*
X91626900Y-109204183D01*
X91600000Y-109068945D01*
X91600000Y-108931055D01*
X91626900Y-108795817D01*
X91679668Y-108668426D01*
X91688795Y-108654767D01*
X91756274Y-108553776D01*
X91853776Y-108456274D01*
X91968426Y-108379668D01*
X92095817Y-108326900D01*
X92231055Y-108300000D01*
X92368945Y-108300000D01*
X92504183Y-108326900D01*
X92504183Y-108326900D01*
G37*
G36*
X80668707Y-106637596D02*
X80745836Y-106645193D01*
X80877787Y-106685220D01*
X80943763Y-106705233D01*
X81126172Y-106802733D01*
X81286054Y-106933946D01*
X81417267Y-107093828D01*
X81514767Y-107276237D01*
X81534780Y-107342213D01*
X81574807Y-107474164D01*
X81595080Y-107680000D01*
X81574807Y-107885836D01*
X81549596Y-107968945D01*
X81514767Y-108083763D01*
X81417267Y-108266172D01*
X81286054Y-108426054D01*
X81126172Y-108557267D01*
X80943763Y-108654767D01*
X80898734Y-108668426D01*
X80745836Y-108714807D01*
X80668707Y-108722404D01*
X80591580Y-108730000D01*
X80488420Y-108730000D01*
X80411293Y-108722404D01*
X80334164Y-108714807D01*
X80181266Y-108668426D01*
X80136237Y-108654767D01*
X79953828Y-108557267D01*
X79793946Y-108426054D01*
X79662733Y-108266172D01*
X79565233Y-108083763D01*
X79530404Y-107968945D01*
X79505193Y-107885836D01*
X79484920Y-107680000D01*
X79505193Y-107474164D01*
X79545220Y-107342213D01*
X79565233Y-107276237D01*
X79662733Y-107093828D01*
X79793946Y-106933946D01*
X79953828Y-106802733D01*
X80136237Y-106705233D01*
X80202213Y-106685220D01*
X80334164Y-106645193D01*
X80411293Y-106637596D01*
X80488420Y-106630000D01*
X80591580Y-106630000D01*
X80668707Y-106637596D01*
X80668707Y-106637596D01*
G37*
G36*
X113668707Y-106637596D02*
X113745836Y-106645193D01*
X113877787Y-106685220D01*
X113943763Y-106705233D01*
X114126172Y-106802733D01*
X114286054Y-106933946D01*
X114417267Y-107093828D01*
X114514767Y-107276237D01*
X114534780Y-107342213D01*
X114574807Y-107474164D01*
X114595080Y-107680000D01*
X114574807Y-107885836D01*
X114549596Y-107968945D01*
X114514767Y-108083763D01*
X114417267Y-108266172D01*
X114286054Y-108426054D01*
X114126172Y-108557267D01*
X113943763Y-108654767D01*
X113898734Y-108668426D01*
X113745836Y-108714807D01*
X113668707Y-108722404D01*
X113591580Y-108730000D01*
X113488420Y-108730000D01*
X113411293Y-108722404D01*
X113334164Y-108714807D01*
X113181266Y-108668426D01*
X113136237Y-108654767D01*
X112953828Y-108557267D01*
X112793946Y-108426054D01*
X112662733Y-108266172D01*
X112565233Y-108083763D01*
X112530404Y-107968945D01*
X112505193Y-107885836D01*
X112484920Y-107680000D01*
X112505193Y-107474164D01*
X112545220Y-107342213D01*
X112565233Y-107276237D01*
X112662733Y-107093828D01*
X112793946Y-106933946D01*
X112953828Y-106802733D01*
X113136237Y-106705233D01*
X113202213Y-106685220D01*
X113334164Y-106645193D01*
X113411293Y-106637596D01*
X113488420Y-106630000D01*
X113591580Y-106630000D01*
X113668707Y-106637596D01*
X113668707Y-106637596D01*
G37*
G36*
X78128707Y-106637596D02*
X78205836Y-106645193D01*
X78337787Y-106685220D01*
X78403763Y-106705233D01*
X78586172Y-106802733D01*
X78746054Y-106933946D01*
X78877267Y-107093828D01*
X78974767Y-107276237D01*
X78994780Y-107342213D01*
X79034807Y-107474164D01*
X79055080Y-107680000D01*
X79034807Y-107885836D01*
X79009596Y-107968945D01*
X78974767Y-108083763D01*
X78877267Y-108266172D01*
X78746054Y-108426054D01*
X78586172Y-108557267D01*
X78403763Y-108654767D01*
X78358734Y-108668426D01*
X78205836Y-108714807D01*
X78128707Y-108722404D01*
X78051580Y-108730000D01*
X77948420Y-108730000D01*
X77871293Y-108722404D01*
X77794164Y-108714807D01*
X77641266Y-108668426D01*
X77596237Y-108654767D01*
X77413828Y-108557267D01*
X77253946Y-108426054D01*
X77122733Y-108266172D01*
X77025233Y-108083763D01*
X76990404Y-107968945D01*
X76965193Y-107885836D01*
X76944920Y-107680000D01*
X76965193Y-107474164D01*
X77005220Y-107342213D01*
X77025233Y-107276237D01*
X77122733Y-107093828D01*
X77253946Y-106933946D01*
X77413828Y-106802733D01*
X77596237Y-106705233D01*
X77662213Y-106685220D01*
X77794164Y-106645193D01*
X77871293Y-106637596D01*
X77948420Y-106630000D01*
X78051580Y-106630000D01*
X78128707Y-106637596D01*
X78128707Y-106637596D01*
G37*
G36*
X111128707Y-106637596D02*
X111205836Y-106645193D01*
X111337787Y-106685220D01*
X111403763Y-106705233D01*
X111586172Y-106802733D01*
X111746054Y-106933946D01*
X111877267Y-107093828D01*
X111974767Y-107276237D01*
X111994780Y-107342213D01*
X112034807Y-107474164D01*
X112055080Y-107680000D01*
X112034807Y-107885836D01*
X112009596Y-107968945D01*
X111974767Y-108083763D01*
X111877267Y-108266172D01*
X111746054Y-108426054D01*
X111586172Y-108557267D01*
X111403763Y-108654767D01*
X111358734Y-108668426D01*
X111205836Y-108714807D01*
X111128707Y-108722404D01*
X111051580Y-108730000D01*
X110948420Y-108730000D01*
X110871293Y-108722404D01*
X110794164Y-108714807D01*
X110641266Y-108668426D01*
X110596237Y-108654767D01*
X110413828Y-108557267D01*
X110253946Y-108426054D01*
X110122733Y-108266172D01*
X110025233Y-108083763D01*
X109990404Y-107968945D01*
X109965193Y-107885836D01*
X109944920Y-107680000D01*
X109965193Y-107474164D01*
X110005220Y-107342213D01*
X110025233Y-107276237D01*
X110122733Y-107093828D01*
X110253946Y-106933946D01*
X110413828Y-106802733D01*
X110596237Y-106705233D01*
X110662213Y-106685220D01*
X110794164Y-106645193D01*
X110871293Y-106637596D01*
X110948420Y-106630000D01*
X111051580Y-106630000D01*
X111128707Y-106637596D01*
X111128707Y-106637596D01*
G37*
G36*
X95204183Y-107226900D02*
X95323291Y-107276237D01*
X95331574Y-107279668D01*
X95446224Y-107356274D01*
X95543726Y-107453776D01*
X95557350Y-107474166D01*
X95620332Y-107568426D01*
X95673100Y-107695817D01*
X95700000Y-107831055D01*
X95700000Y-107968945D01*
X95673100Y-108104183D01*
X95620332Y-108231574D01*
X95556638Y-108326900D01*
X95543725Y-108346225D01*
X95446225Y-108443725D01*
X95331574Y-108520332D01*
X95204183Y-108573100D01*
X95068945Y-108600000D01*
X94931055Y-108600000D01*
X94795817Y-108573100D01*
X94668426Y-108520332D01*
X94553775Y-108443725D01*
X94456275Y-108346225D01*
X94443363Y-108326900D01*
X94379668Y-108231574D01*
X94326900Y-108104183D01*
X94300000Y-107968945D01*
X94300000Y-107831055D01*
X94326900Y-107695817D01*
X94379668Y-107568426D01*
X94442650Y-107474166D01*
X94456274Y-107453776D01*
X94553776Y-107356274D01*
X94668426Y-107279668D01*
X94676709Y-107276237D01*
X94795817Y-107226900D01*
X94931055Y-107200000D01*
X95068945Y-107200000D01*
X95204183Y-107226900D01*
X95204183Y-107226900D01*
G37*
G36*
X99204183Y-105826900D02*
X99331574Y-105879668D01*
X99446224Y-105956274D01*
X99543726Y-106053776D01*
X99620332Y-106168426D01*
X99673100Y-106295817D01*
X99700000Y-106431055D01*
X99700000Y-106568945D01*
X99673100Y-106704183D01*
X99620332Y-106831574D01*
X99543725Y-106946225D01*
X99446225Y-107043725D01*
X99331574Y-107120332D01*
X99204183Y-107173100D01*
X99068945Y-107200000D01*
X98931055Y-107200000D01*
X98795817Y-107173100D01*
X98668426Y-107120332D01*
X98553775Y-107043725D01*
X98456275Y-106946225D01*
X98379668Y-106831574D01*
X98326900Y-106704183D01*
X98300000Y-106568945D01*
X98300000Y-106431055D01*
X98326900Y-106295817D01*
X98379668Y-106168426D01*
X98456274Y-106053776D01*
X98553776Y-105956274D01*
X98668426Y-105879668D01*
X98795817Y-105826900D01*
X98931055Y-105800000D01*
X99068945Y-105800000D01*
X99204183Y-105826900D01*
X99204183Y-105826900D01*
G37*
G36*
X113668707Y-104097597D02*
X113745836Y-104105193D01*
X113877787Y-104145220D01*
X113943763Y-104165233D01*
X114126172Y-104262733D01*
X114286054Y-104393946D01*
X114417267Y-104553828D01*
X114514767Y-104736237D01*
X114514767Y-104736238D01*
X114574807Y-104934164D01*
X114595080Y-105140000D01*
X114574807Y-105345836D01*
X114548799Y-105431574D01*
X114514767Y-105543763D01*
X114417267Y-105726172D01*
X114286054Y-105886054D01*
X114126172Y-106017267D01*
X113943763Y-106114767D01*
X113877787Y-106134780D01*
X113745836Y-106174807D01*
X113668707Y-106182404D01*
X113591580Y-106190000D01*
X113488420Y-106190000D01*
X113411293Y-106182404D01*
X113334164Y-106174807D01*
X113202213Y-106134780D01*
X113136237Y-106114767D01*
X112953828Y-106017267D01*
X112793946Y-105886054D01*
X112662733Y-105726172D01*
X112565233Y-105543763D01*
X112531201Y-105431574D01*
X112505193Y-105345836D01*
X112484920Y-105140000D01*
X112505193Y-104934164D01*
X112565233Y-104736238D01*
X112565233Y-104736237D01*
X112662733Y-104553828D01*
X112793946Y-104393946D01*
X112953828Y-104262733D01*
X113136237Y-104165233D01*
X113202213Y-104145220D01*
X113334164Y-104105193D01*
X113411293Y-104097597D01*
X113488420Y-104090000D01*
X113591580Y-104090000D01*
X113668707Y-104097597D01*
X113668707Y-104097597D01*
G37*
G36*
X111128707Y-104097597D02*
X111205836Y-104105193D01*
X111337787Y-104145220D01*
X111403763Y-104165233D01*
X111586172Y-104262733D01*
X111746054Y-104393946D01*
X111877267Y-104553828D01*
X111974767Y-104736237D01*
X111974767Y-104736238D01*
X112034807Y-104934164D01*
X112055080Y-105140000D01*
X112034807Y-105345836D01*
X112008799Y-105431574D01*
X111974767Y-105543763D01*
X111877267Y-105726172D01*
X111746054Y-105886054D01*
X111586172Y-106017267D01*
X111403763Y-106114767D01*
X111337787Y-106134780D01*
X111205836Y-106174807D01*
X111128707Y-106182404D01*
X111051580Y-106190000D01*
X110948420Y-106190000D01*
X110871293Y-106182404D01*
X110794164Y-106174807D01*
X110662213Y-106134780D01*
X110596237Y-106114767D01*
X110413828Y-106017267D01*
X110253946Y-105886054D01*
X110122733Y-105726172D01*
X110025233Y-105543763D01*
X109991201Y-105431574D01*
X109965193Y-105345836D01*
X109944920Y-105140000D01*
X109965193Y-104934164D01*
X110025233Y-104736238D01*
X110025233Y-104736237D01*
X110122733Y-104553828D01*
X110253946Y-104393946D01*
X110413828Y-104262733D01*
X110596237Y-104165233D01*
X110662213Y-104145220D01*
X110794164Y-104105193D01*
X110871293Y-104097597D01*
X110948420Y-104090000D01*
X111051580Y-104090000D01*
X111128707Y-104097597D01*
X111128707Y-104097597D01*
G37*
G36*
X80668707Y-104097597D02*
X80745836Y-104105193D01*
X80877787Y-104145220D01*
X80943763Y-104165233D01*
X81126172Y-104262733D01*
X81286054Y-104393946D01*
X81417267Y-104553828D01*
X81514767Y-104736237D01*
X81514767Y-104736238D01*
X81574807Y-104934164D01*
X81595080Y-105140000D01*
X81574807Y-105345836D01*
X81548799Y-105431574D01*
X81514767Y-105543763D01*
X81417267Y-105726172D01*
X81286054Y-105886054D01*
X81126172Y-106017267D01*
X80943763Y-106114767D01*
X80877787Y-106134780D01*
X80745836Y-106174807D01*
X80668707Y-106182404D01*
X80591580Y-106190000D01*
X80488420Y-106190000D01*
X80411293Y-106182404D01*
X80334164Y-106174807D01*
X80202213Y-106134780D01*
X80136237Y-106114767D01*
X79953828Y-106017267D01*
X79793946Y-105886054D01*
X79662733Y-105726172D01*
X79565233Y-105543763D01*
X79531201Y-105431574D01*
X79505193Y-105345836D01*
X79484920Y-105140000D01*
X79505193Y-104934164D01*
X79565233Y-104736238D01*
X79565233Y-104736237D01*
X79662733Y-104553828D01*
X79793946Y-104393946D01*
X79953828Y-104262733D01*
X80136237Y-104165233D01*
X80202213Y-104145220D01*
X80334164Y-104105193D01*
X80411293Y-104097597D01*
X80488420Y-104090000D01*
X80591580Y-104090000D01*
X80668707Y-104097597D01*
X80668707Y-104097597D01*
G37*
G36*
X78128707Y-104097597D02*
X78205836Y-104105193D01*
X78337787Y-104145220D01*
X78403763Y-104165233D01*
X78586172Y-104262733D01*
X78746054Y-104393946D01*
X78877267Y-104553828D01*
X78974767Y-104736237D01*
X78974767Y-104736238D01*
X79034807Y-104934164D01*
X79055080Y-105140000D01*
X79034807Y-105345836D01*
X79008799Y-105431574D01*
X78974767Y-105543763D01*
X78877267Y-105726172D01*
X78746054Y-105886054D01*
X78586172Y-106017267D01*
X78403763Y-106114767D01*
X78337787Y-106134780D01*
X78205836Y-106174807D01*
X78128707Y-106182404D01*
X78051580Y-106190000D01*
X77948420Y-106190000D01*
X77871293Y-106182404D01*
X77794164Y-106174807D01*
X77662213Y-106134780D01*
X77596237Y-106114767D01*
X77413828Y-106017267D01*
X77253946Y-105886054D01*
X77122733Y-105726172D01*
X77025233Y-105543763D01*
X76991201Y-105431574D01*
X76965193Y-105345836D01*
X76944920Y-105140000D01*
X76965193Y-104934164D01*
X77025233Y-104736238D01*
X77025233Y-104736237D01*
X77122733Y-104553828D01*
X77253946Y-104393946D01*
X77413828Y-104262733D01*
X77596237Y-104165233D01*
X77662213Y-104145220D01*
X77794164Y-104105193D01*
X77871293Y-104097597D01*
X77948420Y-104090000D01*
X78051580Y-104090000D01*
X78128707Y-104097597D01*
X78128707Y-104097597D01*
G37*
G36*
X94004183Y-104426900D02*
X94131574Y-104479668D01*
X94242565Y-104553829D01*
X94246225Y-104556275D01*
X94343725Y-104653775D01*
X94420332Y-104768426D01*
X94473100Y-104895817D01*
X94500000Y-105031055D01*
X94500000Y-105168945D01*
X94473100Y-105304183D01*
X94420332Y-105431574D01*
X94343725Y-105546225D01*
X94246225Y-105643725D01*
X94131574Y-105720332D01*
X94004183Y-105773100D01*
X93868945Y-105800000D01*
X93731055Y-105800000D01*
X93595817Y-105773100D01*
X93468426Y-105720332D01*
X93353775Y-105643725D01*
X93256275Y-105546225D01*
X93179668Y-105431574D01*
X93126900Y-105304183D01*
X93100000Y-105168945D01*
X93100000Y-105031055D01*
X93126900Y-104895817D01*
X93179668Y-104768426D01*
X93256275Y-104653775D01*
X93353775Y-104556275D01*
X93357436Y-104553829D01*
X93468426Y-104479668D01*
X93595817Y-104426900D01*
X93731055Y-104400000D01*
X93868945Y-104400000D01*
X94004183Y-104426900D01*
X94004183Y-104426900D01*
G37*
G36*
X111128707Y-101557596D02*
X111205836Y-101565193D01*
X111337787Y-101605220D01*
X111403763Y-101625233D01*
X111586172Y-101722733D01*
X111746054Y-101853946D01*
X111877267Y-102013828D01*
X111974767Y-102196237D01*
X111974767Y-102196238D01*
X112034807Y-102394164D01*
X112055080Y-102600000D01*
X112034807Y-102805836D01*
X111994780Y-102937787D01*
X111974767Y-103003763D01*
X111877267Y-103186172D01*
X111746054Y-103346054D01*
X111586172Y-103477267D01*
X111403763Y-103574767D01*
X111337787Y-103594780D01*
X111205836Y-103634807D01*
X111128707Y-103642404D01*
X111051580Y-103650000D01*
X110948420Y-103650000D01*
X110871293Y-103642404D01*
X110794164Y-103634807D01*
X110662213Y-103594780D01*
X110596237Y-103574767D01*
X110413828Y-103477267D01*
X110253946Y-103346054D01*
X110122733Y-103186172D01*
X110025233Y-103003763D01*
X110005220Y-102937787D01*
X109965193Y-102805836D01*
X109944920Y-102600000D01*
X109965193Y-102394164D01*
X110025233Y-102196238D01*
X110025233Y-102196237D01*
X110122733Y-102013828D01*
X110253946Y-101853946D01*
X110413828Y-101722733D01*
X110596237Y-101625233D01*
X110662213Y-101605220D01*
X110794164Y-101565193D01*
X110871293Y-101557596D01*
X110948420Y-101550000D01*
X111051580Y-101550000D01*
X111128707Y-101557596D01*
X111128707Y-101557596D01*
G37*
G36*
X113668707Y-101557596D02*
X113745836Y-101565193D01*
X113877787Y-101605220D01*
X113943763Y-101625233D01*
X114126172Y-101722733D01*
X114286054Y-101853946D01*
X114417267Y-102013828D01*
X114514767Y-102196237D01*
X114514767Y-102196238D01*
X114574807Y-102394164D01*
X114595080Y-102600000D01*
X114574807Y-102805836D01*
X114534780Y-102937787D01*
X114514767Y-103003763D01*
X114417267Y-103186172D01*
X114286054Y-103346054D01*
X114126172Y-103477267D01*
X113943763Y-103574767D01*
X113877787Y-103594780D01*
X113745836Y-103634807D01*
X113668707Y-103642404D01*
X113591580Y-103650000D01*
X113488420Y-103650000D01*
X113411293Y-103642404D01*
X113334164Y-103634807D01*
X113202213Y-103594780D01*
X113136237Y-103574767D01*
X112953828Y-103477267D01*
X112793946Y-103346054D01*
X112662733Y-103186172D01*
X112565233Y-103003763D01*
X112545220Y-102937787D01*
X112505193Y-102805836D01*
X112484920Y-102600000D01*
X112505193Y-102394164D01*
X112565233Y-102196238D01*
X112565233Y-102196237D01*
X112662733Y-102013828D01*
X112793946Y-101853946D01*
X112953828Y-101722733D01*
X113136237Y-101625233D01*
X113202213Y-101605220D01*
X113334164Y-101565193D01*
X113411293Y-101557596D01*
X113488420Y-101550000D01*
X113591580Y-101550000D01*
X113668707Y-101557596D01*
X113668707Y-101557596D01*
G37*
G36*
X80668707Y-101557596D02*
X80745836Y-101565193D01*
X80877787Y-101605220D01*
X80943763Y-101625233D01*
X81126172Y-101722733D01*
X81286054Y-101853946D01*
X81417267Y-102013828D01*
X81514767Y-102196237D01*
X81514767Y-102196238D01*
X81574807Y-102394164D01*
X81595080Y-102600000D01*
X81574807Y-102805836D01*
X81534780Y-102937787D01*
X81514767Y-103003763D01*
X81417267Y-103186172D01*
X81286054Y-103346054D01*
X81126172Y-103477267D01*
X80943763Y-103574767D01*
X80877787Y-103594780D01*
X80745836Y-103634807D01*
X80668707Y-103642404D01*
X80591580Y-103650000D01*
X80488420Y-103650000D01*
X80411293Y-103642404D01*
X80334164Y-103634807D01*
X80202213Y-103594780D01*
X80136237Y-103574767D01*
X79953828Y-103477267D01*
X79793946Y-103346054D01*
X79662733Y-103186172D01*
X79565233Y-103003763D01*
X79545220Y-102937787D01*
X79505193Y-102805836D01*
X79484920Y-102600000D01*
X79505193Y-102394164D01*
X79565233Y-102196238D01*
X79565233Y-102196237D01*
X79662733Y-102013828D01*
X79793946Y-101853946D01*
X79953828Y-101722733D01*
X80136237Y-101625233D01*
X80202213Y-101605220D01*
X80334164Y-101565193D01*
X80411293Y-101557596D01*
X80488420Y-101550000D01*
X80591580Y-101550000D01*
X80668707Y-101557596D01*
X80668707Y-101557596D01*
G37*
G36*
X78128707Y-101557596D02*
X78205836Y-101565193D01*
X78337787Y-101605220D01*
X78403763Y-101625233D01*
X78586172Y-101722733D01*
X78746054Y-101853946D01*
X78877267Y-102013828D01*
X78974767Y-102196237D01*
X78974767Y-102196238D01*
X79034807Y-102394164D01*
X79055080Y-102600000D01*
X79034807Y-102805836D01*
X78994780Y-102937787D01*
X78974767Y-103003763D01*
X78877267Y-103186172D01*
X78746054Y-103346054D01*
X78586172Y-103477267D01*
X78403763Y-103574767D01*
X78337787Y-103594780D01*
X78205836Y-103634807D01*
X78128707Y-103642404D01*
X78051580Y-103650000D01*
X77948420Y-103650000D01*
X77871293Y-103642404D01*
X77794164Y-103634807D01*
X77662213Y-103594780D01*
X77596237Y-103574767D01*
X77413828Y-103477267D01*
X77253946Y-103346054D01*
X77122733Y-103186172D01*
X77025233Y-103003763D01*
X77005220Y-102937787D01*
X76965193Y-102805836D01*
X76944920Y-102600000D01*
X76965193Y-102394164D01*
X77025233Y-102196238D01*
X77025233Y-102196237D01*
X77122733Y-102013828D01*
X77253946Y-101853946D01*
X77413828Y-101722733D01*
X77596237Y-101625233D01*
X77662213Y-101605220D01*
X77794164Y-101565193D01*
X77871293Y-101557596D01*
X77948420Y-101550000D01*
X78051580Y-101550000D01*
X78128707Y-101557596D01*
X78128707Y-101557596D01*
G37*
G36*
X80668707Y-99017596D02*
X80745836Y-99025193D01*
X80877787Y-99065220D01*
X80943763Y-99085233D01*
X81126172Y-99182733D01*
X81286054Y-99313946D01*
X81417267Y-99473828D01*
X81514767Y-99656237D01*
X81514767Y-99656238D01*
X81574807Y-99854164D01*
X81595080Y-100060000D01*
X81574807Y-100265836D01*
X81549422Y-100349518D01*
X81514767Y-100463763D01*
X81417267Y-100646172D01*
X81286054Y-100806054D01*
X81126172Y-100937267D01*
X80943763Y-101034767D01*
X80877787Y-101054780D01*
X80745836Y-101094807D01*
X80668707Y-101102404D01*
X80591580Y-101110000D01*
X80488420Y-101110000D01*
X80411293Y-101102404D01*
X80334164Y-101094807D01*
X80202213Y-101054780D01*
X80136237Y-101034767D01*
X79953828Y-100937267D01*
X79793946Y-100806054D01*
X79662733Y-100646172D01*
X79565233Y-100463763D01*
X79530578Y-100349518D01*
X79505193Y-100265836D01*
X79484920Y-100060000D01*
X79505193Y-99854164D01*
X79565233Y-99656238D01*
X79565233Y-99656237D01*
X79662733Y-99473828D01*
X79793946Y-99313946D01*
X79953828Y-99182733D01*
X80136237Y-99085233D01*
X80202213Y-99065220D01*
X80334164Y-99025193D01*
X80411293Y-99017596D01*
X80488420Y-99010000D01*
X80591580Y-99010000D01*
X80668707Y-99017596D01*
X80668707Y-99017596D01*
G37*
G36*
X78128707Y-99017596D02*
X78205836Y-99025193D01*
X78337787Y-99065220D01*
X78403763Y-99085233D01*
X78586172Y-99182733D01*
X78746054Y-99313946D01*
X78877267Y-99473828D01*
X78974767Y-99656237D01*
X78974767Y-99656238D01*
X79034807Y-99854164D01*
X79055080Y-100060000D01*
X79034807Y-100265836D01*
X79009422Y-100349518D01*
X78974767Y-100463763D01*
X78877267Y-100646172D01*
X78746054Y-100806054D01*
X78586172Y-100937267D01*
X78403763Y-101034767D01*
X78337787Y-101054780D01*
X78205836Y-101094807D01*
X78128707Y-101102404D01*
X78051580Y-101110000D01*
X77948420Y-101110000D01*
X77871293Y-101102404D01*
X77794164Y-101094807D01*
X77662213Y-101054780D01*
X77596237Y-101034767D01*
X77413828Y-100937267D01*
X77253946Y-100806054D01*
X77122733Y-100646172D01*
X77025233Y-100463763D01*
X76990578Y-100349518D01*
X76965193Y-100265836D01*
X76944920Y-100060000D01*
X76965193Y-99854164D01*
X77025233Y-99656238D01*
X77025233Y-99656237D01*
X77122733Y-99473828D01*
X77253946Y-99313946D01*
X77413828Y-99182733D01*
X77596237Y-99085233D01*
X77662213Y-99065220D01*
X77794164Y-99025193D01*
X77871293Y-99017596D01*
X77948420Y-99010000D01*
X78051580Y-99010000D01*
X78128707Y-99017596D01*
X78128707Y-99017596D01*
G37*
G36*
X111128707Y-99017596D02*
X111205836Y-99025193D01*
X111337787Y-99065220D01*
X111403763Y-99085233D01*
X111586172Y-99182733D01*
X111746054Y-99313946D01*
X111877267Y-99473828D01*
X111974767Y-99656237D01*
X111974767Y-99656238D01*
X112034807Y-99854164D01*
X112055080Y-100060000D01*
X112034807Y-100265836D01*
X112009422Y-100349518D01*
X111974767Y-100463763D01*
X111877267Y-100646172D01*
X111746054Y-100806054D01*
X111586172Y-100937267D01*
X111403763Y-101034767D01*
X111337787Y-101054780D01*
X111205836Y-101094807D01*
X111128707Y-101102404D01*
X111051580Y-101110000D01*
X110948420Y-101110000D01*
X110871293Y-101102404D01*
X110794164Y-101094807D01*
X110662213Y-101054780D01*
X110596237Y-101034767D01*
X110413828Y-100937267D01*
X110253946Y-100806054D01*
X110122733Y-100646172D01*
X110025233Y-100463763D01*
X109990578Y-100349518D01*
X109965193Y-100265836D01*
X109944920Y-100060000D01*
X109965193Y-99854164D01*
X110025233Y-99656238D01*
X110025233Y-99656237D01*
X110122733Y-99473828D01*
X110253946Y-99313946D01*
X110413828Y-99182733D01*
X110596237Y-99085233D01*
X110662213Y-99065220D01*
X110794164Y-99025193D01*
X110871293Y-99017596D01*
X110948420Y-99010000D01*
X111051580Y-99010000D01*
X111128707Y-99017596D01*
X111128707Y-99017596D01*
G37*
G36*
X113668707Y-99017596D02*
X113745836Y-99025193D01*
X113877787Y-99065220D01*
X113943763Y-99085233D01*
X114126172Y-99182733D01*
X114286054Y-99313946D01*
X114417267Y-99473828D01*
X114514767Y-99656237D01*
X114514767Y-99656238D01*
X114574807Y-99854164D01*
X114595080Y-100060000D01*
X114574807Y-100265836D01*
X114549422Y-100349518D01*
X114514767Y-100463763D01*
X114417267Y-100646172D01*
X114286054Y-100806054D01*
X114126172Y-100937267D01*
X113943763Y-101034767D01*
X113877787Y-101054780D01*
X113745836Y-101094807D01*
X113668707Y-101102404D01*
X113591580Y-101110000D01*
X113488420Y-101110000D01*
X113411293Y-101102404D01*
X113334164Y-101094807D01*
X113202213Y-101054780D01*
X113136237Y-101034767D01*
X112953828Y-100937267D01*
X112793946Y-100806054D01*
X112662733Y-100646172D01*
X112565233Y-100463763D01*
X112530578Y-100349518D01*
X112505193Y-100265836D01*
X112484920Y-100060000D01*
X112505193Y-99854164D01*
X112565233Y-99656238D01*
X112565233Y-99656237D01*
X112662733Y-99473828D01*
X112793946Y-99313946D01*
X112953828Y-99182733D01*
X113136237Y-99085233D01*
X113202213Y-99065220D01*
X113334164Y-99025193D01*
X113411293Y-99017596D01*
X113488420Y-99010000D01*
X113591580Y-99010000D01*
X113668707Y-99017596D01*
X113668707Y-99017596D01*
G37*
G36*
X98668622Y-99155517D02*
X98716585Y-99170066D01*
X98760775Y-99193686D01*
X98799518Y-99225482D01*
X98831314Y-99264225D01*
X98854934Y-99308415D01*
X98869483Y-99356378D01*
X98875000Y-99412391D01*
X98875000Y-100162609D01*
X98869483Y-100218622D01*
X98854934Y-100266585D01*
X98831314Y-100310775D01*
X98799518Y-100349518D01*
X98760775Y-100381314D01*
X98716585Y-100404934D01*
X98668622Y-100419483D01*
X98612609Y-100425000D01*
X97787391Y-100425000D01*
X97731378Y-100419483D01*
X97683415Y-100404934D01*
X97639225Y-100381314D01*
X97600482Y-100349518D01*
X97568686Y-100310775D01*
X97545066Y-100266585D01*
X97530517Y-100218622D01*
X97525000Y-100162609D01*
X97525000Y-99412391D01*
X97530517Y-99356378D01*
X97545066Y-99308415D01*
X97568686Y-99264225D01*
X97600482Y-99225482D01*
X97639225Y-99193686D01*
X97683415Y-99170066D01*
X97731378Y-99155517D01*
X97787391Y-99150000D01*
X98612609Y-99150000D01*
X98668622Y-99155517D01*
X98668622Y-99155517D01*
G37*
G36*
X99860974Y-97184148D02*
X99895568Y-97194642D01*
X99935128Y-97215787D01*
X99941069Y-97219757D01*
X99963708Y-97229136D01*
X99987741Y-97233917D01*
X100012245Y-97233919D01*
X100036279Y-97229140D01*
X100058918Y-97219763D01*
X100064858Y-97215795D01*
X100104432Y-97194642D01*
X100139026Y-97184148D01*
X100181141Y-97180000D01*
X100788859Y-97180000D01*
X100830974Y-97184148D01*
X100865568Y-97194642D01*
X100897441Y-97211678D01*
X100925387Y-97234613D01*
X100948322Y-97262559D01*
X100965358Y-97294432D01*
X100975852Y-97329026D01*
X100980000Y-97371141D01*
X100980000Y-98028859D01*
X100975852Y-98070974D01*
X100965358Y-98105568D01*
X100948322Y-98137441D01*
X100925387Y-98165387D01*
X100897441Y-98188322D01*
X100865568Y-98205358D01*
X100830974Y-98215852D01*
X100788859Y-98220000D01*
X100181141Y-98220000D01*
X100139026Y-98215852D01*
X100104432Y-98205358D01*
X100064872Y-98184213D01*
X100058931Y-98180243D01*
X100036292Y-98170864D01*
X100012259Y-98166083D01*
X99987755Y-98166081D01*
X99963721Y-98170860D01*
X99941082Y-98180237D01*
X99935142Y-98184205D01*
X99895568Y-98205358D01*
X99860974Y-98215852D01*
X99818859Y-98220000D01*
X99211141Y-98220000D01*
X99169026Y-98215852D01*
X99134432Y-98205358D01*
X99102558Y-98188322D01*
X99079301Y-98169234D01*
X99058926Y-98155620D01*
X99036288Y-98146242D01*
X99012254Y-98141461D01*
X98987750Y-98141461D01*
X98963716Y-98146241D01*
X98941077Y-98155618D01*
X98920702Y-98169231D01*
X98903375Y-98186558D01*
X98889761Y-98206933D01*
X98880383Y-98229571D01*
X98875602Y-98253605D01*
X98875000Y-98265859D01*
X98875000Y-98587609D01*
X98869483Y-98643622D01*
X98854934Y-98691585D01*
X98831314Y-98735775D01*
X98799518Y-98774518D01*
X98760775Y-98806314D01*
X98716585Y-98829934D01*
X98668622Y-98844483D01*
X98612609Y-98850000D01*
X97787391Y-98850000D01*
X97731378Y-98844483D01*
X97683415Y-98829934D01*
X97639225Y-98806314D01*
X97600482Y-98774518D01*
X97568686Y-98735775D01*
X97545066Y-98691585D01*
X97530517Y-98643622D01*
X97525000Y-98587609D01*
X97525000Y-97837391D01*
X97530517Y-97781378D01*
X97545066Y-97733415D01*
X97568686Y-97689225D01*
X97600482Y-97650482D01*
X97639225Y-97618686D01*
X97683415Y-97595066D01*
X97731378Y-97580517D01*
X97787391Y-97575000D01*
X98612609Y-97575000D01*
X98668622Y-97580517D01*
X98716585Y-97595066D01*
X98760775Y-97618686D01*
X98800915Y-97651628D01*
X98815704Y-97666417D01*
X98836079Y-97680030D01*
X98858718Y-97689407D01*
X98882752Y-97694186D01*
X98907256Y-97694186D01*
X98931290Y-97689404D01*
X98953928Y-97680026D01*
X98974302Y-97666412D01*
X98991629Y-97649084D01*
X99005242Y-97628709D01*
X99014619Y-97606070D01*
X99020000Y-97569788D01*
X99020000Y-97371141D01*
X99024148Y-97329026D01*
X99034642Y-97294432D01*
X99051678Y-97262559D01*
X99074613Y-97234613D01*
X99102559Y-97211678D01*
X99134432Y-97194642D01*
X99169026Y-97184148D01*
X99211141Y-97180000D01*
X99818859Y-97180000D01*
X99860974Y-97184148D01*
X99860974Y-97184148D01*
G37*
G36*
X80668707Y-96477596D02*
X80745836Y-96485193D01*
X80877787Y-96525220D01*
X80943763Y-96545233D01*
X81126172Y-96642733D01*
X81286054Y-96773946D01*
X81417267Y-96933828D01*
X81514767Y-97116237D01*
X81514767Y-97116238D01*
X81574807Y-97314164D01*
X81595080Y-97520000D01*
X81574807Y-97725836D01*
X81540967Y-97837391D01*
X81514767Y-97923763D01*
X81417267Y-98106172D01*
X81286054Y-98266054D01*
X81126172Y-98397267D01*
X80943763Y-98494767D01*
X80877787Y-98514780D01*
X80745836Y-98554807D01*
X80668707Y-98562404D01*
X80591580Y-98570000D01*
X80488420Y-98570000D01*
X80411293Y-98562404D01*
X80334164Y-98554807D01*
X80202213Y-98514780D01*
X80136237Y-98494767D01*
X79953828Y-98397267D01*
X79793946Y-98266054D01*
X79662733Y-98106172D01*
X79565233Y-97923763D01*
X79539033Y-97837391D01*
X79505193Y-97725836D01*
X79484920Y-97520000D01*
X79505193Y-97314164D01*
X79565233Y-97116238D01*
X79565233Y-97116237D01*
X79662733Y-96933828D01*
X79793946Y-96773946D01*
X79953828Y-96642733D01*
X80136237Y-96545233D01*
X80202213Y-96525220D01*
X80334164Y-96485193D01*
X80411293Y-96477596D01*
X80488420Y-96470000D01*
X80591580Y-96470000D01*
X80668707Y-96477596D01*
X80668707Y-96477596D01*
G37*
G36*
X78128707Y-96477596D02*
X78205836Y-96485193D01*
X78337787Y-96525220D01*
X78403763Y-96545233D01*
X78586172Y-96642733D01*
X78746054Y-96773946D01*
X78877267Y-96933828D01*
X78974767Y-97116237D01*
X78974767Y-97116238D01*
X79034807Y-97314164D01*
X79055080Y-97520000D01*
X79034807Y-97725836D01*
X79000967Y-97837391D01*
X78974767Y-97923763D01*
X78877267Y-98106172D01*
X78746054Y-98266054D01*
X78586172Y-98397267D01*
X78403763Y-98494767D01*
X78337787Y-98514780D01*
X78205836Y-98554807D01*
X78128707Y-98562404D01*
X78051580Y-98570000D01*
X77948420Y-98570000D01*
X77871293Y-98562404D01*
X77794164Y-98554807D01*
X77662213Y-98514780D01*
X77596237Y-98494767D01*
X77413828Y-98397267D01*
X77253946Y-98266054D01*
X77122733Y-98106172D01*
X77025233Y-97923763D01*
X76999033Y-97837391D01*
X76965193Y-97725836D01*
X76944920Y-97520000D01*
X76965193Y-97314164D01*
X77025233Y-97116238D01*
X77025233Y-97116237D01*
X77122733Y-96933828D01*
X77253946Y-96773946D01*
X77413828Y-96642733D01*
X77596237Y-96545233D01*
X77662213Y-96525220D01*
X77794164Y-96485193D01*
X77871293Y-96477596D01*
X77948420Y-96470000D01*
X78051580Y-96470000D01*
X78128707Y-96477596D01*
X78128707Y-96477596D01*
G37*
G36*
X113668707Y-96477596D02*
X113745836Y-96485193D01*
X113877787Y-96525220D01*
X113943763Y-96545233D01*
X114126172Y-96642733D01*
X114286054Y-96773946D01*
X114417267Y-96933828D01*
X114514767Y-97116237D01*
X114514767Y-97116238D01*
X114574807Y-97314164D01*
X114595080Y-97520000D01*
X114574807Y-97725836D01*
X114540967Y-97837391D01*
X114514767Y-97923763D01*
X114417267Y-98106172D01*
X114286054Y-98266054D01*
X114126172Y-98397267D01*
X113943763Y-98494767D01*
X113877787Y-98514780D01*
X113745836Y-98554807D01*
X113668707Y-98562404D01*
X113591580Y-98570000D01*
X113488420Y-98570000D01*
X113411293Y-98562404D01*
X113334164Y-98554807D01*
X113202213Y-98514780D01*
X113136237Y-98494767D01*
X112953828Y-98397267D01*
X112793946Y-98266054D01*
X112662733Y-98106172D01*
X112565233Y-97923763D01*
X112539033Y-97837391D01*
X112505193Y-97725836D01*
X112484920Y-97520000D01*
X112505193Y-97314164D01*
X112565233Y-97116238D01*
X112565233Y-97116237D01*
X112662733Y-96933828D01*
X112793946Y-96773946D01*
X112953828Y-96642733D01*
X113136237Y-96545233D01*
X113202213Y-96525220D01*
X113334164Y-96485193D01*
X113411293Y-96477597D01*
X113488420Y-96470000D01*
X113591580Y-96470000D01*
X113668707Y-96477596D01*
X113668707Y-96477596D01*
G37*
G36*
X111128707Y-96477596D02*
X111205836Y-96485193D01*
X111337787Y-96525220D01*
X111403763Y-96545233D01*
X111586172Y-96642733D01*
X111746054Y-96773946D01*
X111877267Y-96933828D01*
X111974767Y-97116237D01*
X111974767Y-97116238D01*
X112034807Y-97314164D01*
X112055080Y-97520000D01*
X112034807Y-97725836D01*
X112000967Y-97837391D01*
X111974767Y-97923763D01*
X111877267Y-98106172D01*
X111746054Y-98266054D01*
X111586172Y-98397267D01*
X111403763Y-98494767D01*
X111337787Y-98514780D01*
X111205836Y-98554807D01*
X111128707Y-98562404D01*
X111051580Y-98570000D01*
X110948420Y-98570000D01*
X110871293Y-98562404D01*
X110794164Y-98554807D01*
X110662213Y-98514780D01*
X110596237Y-98494767D01*
X110413828Y-98397267D01*
X110253946Y-98266054D01*
X110122733Y-98106172D01*
X110025233Y-97923763D01*
X109999033Y-97837391D01*
X109965193Y-97725836D01*
X109944920Y-97520000D01*
X109965193Y-97314164D01*
X110025233Y-97116238D01*
X110025233Y-97116237D01*
X110122733Y-96933828D01*
X110253946Y-96773946D01*
X110413828Y-96642733D01*
X110596237Y-96545233D01*
X110662213Y-96525220D01*
X110794164Y-96485193D01*
X110871293Y-96477597D01*
X110948420Y-96470000D01*
X111051580Y-96470000D01*
X111128707Y-96477596D01*
X111128707Y-96477596D01*
G37*
G36*
X78128707Y-93937596D02*
X78205836Y-93945193D01*
X78337787Y-93985220D01*
X78403763Y-94005233D01*
X78586172Y-94102733D01*
X78746054Y-94233946D01*
X78877267Y-94393828D01*
X78974767Y-94576237D01*
X78987545Y-94618360D01*
X79034807Y-94774164D01*
X79055080Y-94980000D01*
X79034807Y-95185836D01*
X79009596Y-95268945D01*
X78974767Y-95383763D01*
X78877267Y-95566172D01*
X78746054Y-95726054D01*
X78586172Y-95857267D01*
X78403763Y-95954767D01*
X78337787Y-95974780D01*
X78205836Y-96014807D01*
X78128707Y-96022403D01*
X78051580Y-96030000D01*
X77948420Y-96030000D01*
X77871293Y-96022403D01*
X77794164Y-96014807D01*
X77662213Y-95974780D01*
X77596237Y-95954767D01*
X77413828Y-95857267D01*
X77253946Y-95726054D01*
X77122733Y-95566172D01*
X77025233Y-95383763D01*
X76990404Y-95268945D01*
X76965193Y-95185836D01*
X76944920Y-94980000D01*
X76965193Y-94774164D01*
X77012455Y-94618360D01*
X77025233Y-94576237D01*
X77122733Y-94393828D01*
X77253946Y-94233946D01*
X77413828Y-94102733D01*
X77596237Y-94005233D01*
X77662213Y-93985220D01*
X77794164Y-93945193D01*
X77871293Y-93937596D01*
X77948420Y-93930000D01*
X78051580Y-93930000D01*
X78128707Y-93937596D01*
X78128707Y-93937596D01*
G37*
G36*
X80668707Y-93937596D02*
X80745836Y-93945193D01*
X80877787Y-93985220D01*
X80943763Y-94005233D01*
X81126172Y-94102733D01*
X81286054Y-94233946D01*
X81417267Y-94393828D01*
X81514767Y-94576237D01*
X81527545Y-94618360D01*
X81574807Y-94774164D01*
X81595080Y-94980000D01*
X81574807Y-95185836D01*
X81549596Y-95268945D01*
X81514767Y-95383763D01*
X81417267Y-95566172D01*
X81286054Y-95726054D01*
X81126172Y-95857267D01*
X80943763Y-95954767D01*
X80877787Y-95974780D01*
X80745836Y-96014807D01*
X80668707Y-96022403D01*
X80591580Y-96030000D01*
X80488420Y-96030000D01*
X80411293Y-96022403D01*
X80334164Y-96014807D01*
X80202213Y-95974780D01*
X80136237Y-95954767D01*
X79953828Y-95857267D01*
X79793946Y-95726054D01*
X79662733Y-95566172D01*
X79565233Y-95383763D01*
X79530404Y-95268945D01*
X79505193Y-95185836D01*
X79484920Y-94980000D01*
X79505193Y-94774164D01*
X79552455Y-94618360D01*
X79565233Y-94576237D01*
X79662733Y-94393828D01*
X79793946Y-94233946D01*
X79953828Y-94102733D01*
X80136237Y-94005233D01*
X80202213Y-93985220D01*
X80334164Y-93945193D01*
X80411293Y-93937596D01*
X80488420Y-93930000D01*
X80591580Y-93930000D01*
X80668707Y-93937596D01*
X80668707Y-93937596D01*
G37*
G36*
X113668707Y-93937596D02*
X113745836Y-93945193D01*
X113877787Y-93985220D01*
X113943763Y-94005233D01*
X114126172Y-94102733D01*
X114286054Y-94233946D01*
X114417267Y-94393828D01*
X114514767Y-94576237D01*
X114527545Y-94618360D01*
X114574807Y-94774164D01*
X114595080Y-94980000D01*
X114574807Y-95185836D01*
X114549596Y-95268945D01*
X114514767Y-95383763D01*
X114417267Y-95566172D01*
X114286054Y-95726054D01*
X114126172Y-95857267D01*
X113943763Y-95954767D01*
X113877787Y-95974780D01*
X113745836Y-96014807D01*
X113668707Y-96022404D01*
X113591580Y-96030000D01*
X113488420Y-96030000D01*
X113411293Y-96022403D01*
X113334164Y-96014807D01*
X113202213Y-95974780D01*
X113136237Y-95954767D01*
X112953828Y-95857267D01*
X112793946Y-95726054D01*
X112662733Y-95566172D01*
X112565233Y-95383763D01*
X112530404Y-95268945D01*
X112505193Y-95185836D01*
X112484920Y-94980000D01*
X112505193Y-94774164D01*
X112552455Y-94618360D01*
X112565233Y-94576237D01*
X112662733Y-94393828D01*
X112793946Y-94233946D01*
X112953828Y-94102733D01*
X113136237Y-94005233D01*
X113202213Y-93985220D01*
X113334164Y-93945193D01*
X113411293Y-93937596D01*
X113488420Y-93930000D01*
X113591580Y-93930000D01*
X113668707Y-93937596D01*
X113668707Y-93937596D01*
G37*
G36*
X111128707Y-93937596D02*
X111205836Y-93945193D01*
X111337787Y-93985220D01*
X111403763Y-94005233D01*
X111586172Y-94102733D01*
X111746054Y-94233946D01*
X111877267Y-94393828D01*
X111974767Y-94576237D01*
X111987545Y-94618360D01*
X112034807Y-94774164D01*
X112055080Y-94980000D01*
X112034807Y-95185836D01*
X112009596Y-95268945D01*
X111974767Y-95383763D01*
X111877267Y-95566172D01*
X111746054Y-95726054D01*
X111586172Y-95857267D01*
X111403763Y-95954767D01*
X111337787Y-95974780D01*
X111205836Y-96014807D01*
X111128707Y-96022404D01*
X111051580Y-96030000D01*
X110948420Y-96030000D01*
X110871293Y-96022403D01*
X110794164Y-96014807D01*
X110662213Y-95974780D01*
X110596237Y-95954767D01*
X110413828Y-95857267D01*
X110253946Y-95726054D01*
X110122733Y-95566172D01*
X110025233Y-95383763D01*
X109990404Y-95268945D01*
X109965193Y-95185836D01*
X109944920Y-94980000D01*
X109965193Y-94774164D01*
X110012455Y-94618360D01*
X110025233Y-94576237D01*
X110122733Y-94393828D01*
X110253946Y-94233946D01*
X110413828Y-94102733D01*
X110596237Y-94005233D01*
X110662213Y-93985220D01*
X110794164Y-93945193D01*
X110871293Y-93937596D01*
X110948420Y-93930000D01*
X111051580Y-93930000D01*
X111128707Y-93937596D01*
X111128707Y-93937596D01*
G37*
G36*
X102704183Y-94526900D02*
X102823291Y-94576237D01*
X102831574Y-94579668D01*
X102946224Y-94656274D01*
X103043726Y-94753776D01*
X103103844Y-94843750D01*
X103120332Y-94868426D01*
X103173100Y-94995817D01*
X103200000Y-95131055D01*
X103200000Y-95268945D01*
X103173100Y-95404183D01*
X103132930Y-95501160D01*
X103120332Y-95531574D01*
X103043726Y-95646224D01*
X102946224Y-95743726D01*
X102831574Y-95820332D01*
X102704183Y-95873100D01*
X102568945Y-95900000D01*
X102431055Y-95900000D01*
X102295817Y-95873100D01*
X102168426Y-95820332D01*
X102053776Y-95743726D01*
X101956274Y-95646224D01*
X101879668Y-95531574D01*
X101867070Y-95501160D01*
X101826900Y-95404183D01*
X101800000Y-95268945D01*
X101800000Y-95131055D01*
X101826900Y-94995817D01*
X101879668Y-94868426D01*
X101896156Y-94843750D01*
X101956274Y-94753776D01*
X102053776Y-94656274D01*
X102168426Y-94579668D01*
X102176709Y-94576237D01*
X102295817Y-94526900D01*
X102431055Y-94500000D01*
X102568945Y-94500000D01*
X102704183Y-94526900D01*
X102704183Y-94526900D01*
G37*
G36*
X91843622Y-94530517D02*
X91891585Y-94545066D01*
X91935775Y-94568686D01*
X91974518Y-94600482D01*
X92006314Y-94639225D01*
X92029934Y-94683415D01*
X92044483Y-94731378D01*
X92050000Y-94787391D01*
X92050000Y-95612609D01*
X92044483Y-95668622D01*
X92029934Y-95716585D01*
X92006314Y-95760775D01*
X91974518Y-95799518D01*
X91935775Y-95831314D01*
X91891585Y-95854934D01*
X91843622Y-95869483D01*
X91787609Y-95875000D01*
X91037391Y-95875000D01*
X90981378Y-95869483D01*
X90933415Y-95854934D01*
X90889225Y-95831314D01*
X90850482Y-95799518D01*
X90818686Y-95760775D01*
X90795066Y-95716585D01*
X90780517Y-95668622D01*
X90775000Y-95612609D01*
X90775000Y-94787391D01*
X90780517Y-94731378D01*
X90795066Y-94683415D01*
X90818686Y-94639225D01*
X90850482Y-94600482D01*
X90889225Y-94568686D01*
X90933415Y-94545066D01*
X90981378Y-94530517D01*
X91037391Y-94525000D01*
X91787609Y-94525000D01*
X91843622Y-94530517D01*
X91843622Y-94530517D01*
G37*
G36*
X93418622Y-94530517D02*
X93466585Y-94545066D01*
X93510775Y-94568686D01*
X93549518Y-94600482D01*
X93581314Y-94639225D01*
X93604934Y-94683415D01*
X93619483Y-94731378D01*
X93625000Y-94787391D01*
X93625000Y-95612609D01*
X93619483Y-95668622D01*
X93604934Y-95716585D01*
X93581314Y-95760775D01*
X93549518Y-95799518D01*
X93510775Y-95831314D01*
X93466585Y-95854934D01*
X93418622Y-95869483D01*
X93362609Y-95875000D01*
X92612391Y-95875000D01*
X92556378Y-95869483D01*
X92508415Y-95854934D01*
X92464225Y-95831314D01*
X92425482Y-95799518D01*
X92393686Y-95760775D01*
X92370066Y-95716585D01*
X92355517Y-95668622D01*
X92350000Y-95612609D01*
X92350000Y-94787391D01*
X92355517Y-94731378D01*
X92370066Y-94683415D01*
X92393686Y-94639225D01*
X92425482Y-94600482D01*
X92464225Y-94568686D01*
X92508415Y-94545066D01*
X92556378Y-94530517D01*
X92612391Y-94525000D01*
X93362609Y-94525000D01*
X93418622Y-94530517D01*
X93418622Y-94530517D01*
G37*
G36*
X95160974Y-94484148D02*
X95195568Y-94494642D01*
X95235128Y-94515787D01*
X95241069Y-94519757D01*
X95263708Y-94529136D01*
X95287741Y-94533917D01*
X95312245Y-94533919D01*
X95336279Y-94529140D01*
X95358918Y-94519763D01*
X95364858Y-94515795D01*
X95404432Y-94494642D01*
X95439026Y-94484148D01*
X95481141Y-94480000D01*
X96088859Y-94480000D01*
X96130974Y-94484148D01*
X96165568Y-94494642D01*
X96197441Y-94511678D01*
X96225387Y-94534613D01*
X96248322Y-94562559D01*
X96265358Y-94594432D01*
X96275852Y-94629026D01*
X96280000Y-94671141D01*
X96280000Y-95328859D01*
X96275852Y-95370974D01*
X96265358Y-95405568D01*
X96248322Y-95437441D01*
X96225387Y-95465387D01*
X96197441Y-95488322D01*
X96165568Y-95505358D01*
X96130974Y-95515852D01*
X96088859Y-95520000D01*
X95481141Y-95520000D01*
X95439026Y-95515852D01*
X95404432Y-95505358D01*
X95364872Y-95484213D01*
X95358931Y-95480243D01*
X95336292Y-95470864D01*
X95312259Y-95466083D01*
X95287755Y-95466081D01*
X95263721Y-95470860D01*
X95241082Y-95480237D01*
X95235142Y-95484205D01*
X95195568Y-95505358D01*
X95160974Y-95515852D01*
X95118859Y-95520000D01*
X94511141Y-95520000D01*
X94469026Y-95515852D01*
X94434432Y-95505358D01*
X94402559Y-95488322D01*
X94374613Y-95465387D01*
X94351678Y-95437441D01*
X94334642Y-95405568D01*
X94324148Y-95370974D01*
X94320000Y-95328859D01*
X94320000Y-94671141D01*
X94324148Y-94629026D01*
X94334642Y-94594432D01*
X94351678Y-94562559D01*
X94374613Y-94534613D01*
X94402559Y-94511678D01*
X94434432Y-94494642D01*
X94469026Y-94484148D01*
X94511141Y-94480000D01*
X95118859Y-94480000D01*
X95160974Y-94484148D01*
X95160974Y-94484148D01*
G37*
G36*
X96760974Y-92684148D02*
X96795568Y-92694642D01*
X96835128Y-92715787D01*
X96841069Y-92719757D01*
X96863708Y-92729136D01*
X96887741Y-92733917D01*
X96912245Y-92733919D01*
X96936279Y-92729140D01*
X96958918Y-92719763D01*
X96964858Y-92715795D01*
X97004432Y-92694642D01*
X97039026Y-92684148D01*
X97081141Y-92680000D01*
X97688859Y-92680000D01*
X97730974Y-92684148D01*
X97765568Y-92694642D01*
X97797441Y-92711678D01*
X97825387Y-92734613D01*
X97848322Y-92762559D01*
X97865358Y-92794432D01*
X97875852Y-92829026D01*
X97880000Y-92871141D01*
X97880000Y-93528859D01*
X97875852Y-93570974D01*
X97865358Y-93605568D01*
X97848322Y-93637441D01*
X97825387Y-93665387D01*
X97797441Y-93688322D01*
X97765568Y-93705358D01*
X97730974Y-93715852D01*
X97688859Y-93720000D01*
X97081141Y-93720000D01*
X97039026Y-93715852D01*
X97004432Y-93705358D01*
X96964872Y-93684213D01*
X96958931Y-93680243D01*
X96936292Y-93670864D01*
X96912259Y-93666083D01*
X96887755Y-93666081D01*
X96863721Y-93670860D01*
X96841082Y-93680237D01*
X96835142Y-93684205D01*
X96795568Y-93705358D01*
X96760974Y-93715852D01*
X96718859Y-93720000D01*
X96111141Y-93720000D01*
X96069026Y-93715852D01*
X96034432Y-93705358D01*
X96002559Y-93688322D01*
X95974613Y-93665387D01*
X95951678Y-93637441D01*
X95934642Y-93605568D01*
X95924148Y-93570974D01*
X95920000Y-93528859D01*
X95920000Y-92871141D01*
X95924148Y-92829026D01*
X95934642Y-92794432D01*
X95951678Y-92762559D01*
X95974613Y-92734613D01*
X96002559Y-92711678D01*
X96034432Y-92694642D01*
X96069026Y-92684148D01*
X96111141Y-92680000D01*
X96718859Y-92680000D01*
X96760974Y-92684148D01*
X96760974Y-92684148D01*
G37*
G36*
X78128707Y-91397596D02*
X78205836Y-91405193D01*
X78337787Y-91445220D01*
X78403763Y-91465233D01*
X78586172Y-91562733D01*
X78746054Y-91693946D01*
X78877267Y-91853828D01*
X78974767Y-92036237D01*
X78991427Y-92091160D01*
X79034807Y-92234164D01*
X79055080Y-92440000D01*
X79034807Y-92645836D01*
X79009538Y-92729136D01*
X78974767Y-92843763D01*
X78877267Y-93026172D01*
X78746054Y-93186054D01*
X78586172Y-93317267D01*
X78403763Y-93414767D01*
X78337787Y-93434780D01*
X78205836Y-93474807D01*
X78128707Y-93482403D01*
X78051580Y-93490000D01*
X77948420Y-93490000D01*
X77871293Y-93482403D01*
X77794164Y-93474807D01*
X77662213Y-93434780D01*
X77596237Y-93414767D01*
X77413828Y-93317267D01*
X77253946Y-93186054D01*
X77122733Y-93026172D01*
X77025233Y-92843763D01*
X76990462Y-92729136D01*
X76965193Y-92645836D01*
X76944920Y-92440000D01*
X76965193Y-92234164D01*
X77008573Y-92091160D01*
X77025233Y-92036237D01*
X77122733Y-91853828D01*
X77253946Y-91693946D01*
X77413828Y-91562733D01*
X77596237Y-91465233D01*
X77662213Y-91445220D01*
X77794164Y-91405193D01*
X77871293Y-91397596D01*
X77948420Y-91390000D01*
X78051580Y-91390000D01*
X78128707Y-91397596D01*
X78128707Y-91397596D01*
G37*
G36*
X111128707Y-91397596D02*
X111205836Y-91405193D01*
X111337787Y-91445220D01*
X111403763Y-91465233D01*
X111586172Y-91562733D01*
X111746054Y-91693946D01*
X111877267Y-91853828D01*
X111974767Y-92036237D01*
X111991427Y-92091160D01*
X112034807Y-92234164D01*
X112055080Y-92440000D01*
X112034807Y-92645836D01*
X112009538Y-92729136D01*
X111974767Y-92843763D01*
X111877267Y-93026172D01*
X111746054Y-93186054D01*
X111586172Y-93317267D01*
X111403763Y-93414767D01*
X111337787Y-93434780D01*
X111205836Y-93474807D01*
X111128707Y-93482403D01*
X111051580Y-93490000D01*
X110948420Y-93490000D01*
X110871293Y-93482403D01*
X110794164Y-93474807D01*
X110662213Y-93434780D01*
X110596237Y-93414767D01*
X110413828Y-93317267D01*
X110253946Y-93186054D01*
X110122733Y-93026172D01*
X110025233Y-92843763D01*
X109990462Y-92729136D01*
X109965193Y-92645836D01*
X109944920Y-92440000D01*
X109965193Y-92234164D01*
X110008573Y-92091160D01*
X110025233Y-92036237D01*
X110122733Y-91853828D01*
X110253946Y-91693946D01*
X110413828Y-91562733D01*
X110596237Y-91465233D01*
X110662213Y-91445220D01*
X110794164Y-91405193D01*
X110871293Y-91397596D01*
X110948420Y-91390000D01*
X111051580Y-91390000D01*
X111128707Y-91397596D01*
X111128707Y-91397596D01*
G37*
G36*
X80668707Y-91397596D02*
X80745836Y-91405193D01*
X80877787Y-91445220D01*
X80943763Y-91465233D01*
X81126172Y-91562733D01*
X81286054Y-91693946D01*
X81417267Y-91853828D01*
X81514767Y-92036237D01*
X81531427Y-92091160D01*
X81574807Y-92234164D01*
X81595080Y-92440000D01*
X81574807Y-92645836D01*
X81549538Y-92729136D01*
X81514767Y-92843763D01*
X81417267Y-93026172D01*
X81286054Y-93186054D01*
X81126172Y-93317267D01*
X80943763Y-93414767D01*
X80877787Y-93434780D01*
X80745836Y-93474807D01*
X80668707Y-93482403D01*
X80591580Y-93490000D01*
X80488420Y-93490000D01*
X80411293Y-93482403D01*
X80334164Y-93474807D01*
X80202213Y-93434780D01*
X80136237Y-93414767D01*
X79953828Y-93317267D01*
X79793946Y-93186054D01*
X79662733Y-93026172D01*
X79565233Y-92843763D01*
X79530462Y-92729136D01*
X79505193Y-92645836D01*
X79484920Y-92440000D01*
X79505193Y-92234164D01*
X79548573Y-92091160D01*
X79565233Y-92036237D01*
X79662733Y-91853828D01*
X79793946Y-91693946D01*
X79953828Y-91562733D01*
X80136237Y-91465233D01*
X80202213Y-91445220D01*
X80334164Y-91405193D01*
X80411293Y-91397596D01*
X80488420Y-91390000D01*
X80591580Y-91390000D01*
X80668707Y-91397596D01*
X80668707Y-91397596D01*
G37*
G36*
X113668707Y-91397596D02*
X113745836Y-91405193D01*
X113877787Y-91445220D01*
X113943763Y-91465233D01*
X114126172Y-91562733D01*
X114286054Y-91693946D01*
X114417267Y-91853828D01*
X114514767Y-92036237D01*
X114531427Y-92091160D01*
X114574807Y-92234164D01*
X114595080Y-92440000D01*
X114574807Y-92645836D01*
X114549538Y-92729136D01*
X114514767Y-92843763D01*
X114417267Y-93026172D01*
X114286054Y-93186054D01*
X114126172Y-93317267D01*
X113943763Y-93414767D01*
X113877787Y-93434780D01*
X113745836Y-93474807D01*
X113668707Y-93482403D01*
X113591580Y-93490000D01*
X113488420Y-93490000D01*
X113411293Y-93482403D01*
X113334164Y-93474807D01*
X113202213Y-93434780D01*
X113136237Y-93414767D01*
X112953828Y-93317267D01*
X112793946Y-93186054D01*
X112662733Y-93026172D01*
X112565233Y-92843763D01*
X112530462Y-92729136D01*
X112505193Y-92645836D01*
X112484920Y-92440000D01*
X112505193Y-92234164D01*
X112548573Y-92091160D01*
X112565233Y-92036237D01*
X112662733Y-91853828D01*
X112793946Y-91693946D01*
X112953828Y-91562733D01*
X113136237Y-91465233D01*
X113202213Y-91445220D01*
X113334164Y-91405193D01*
X113411293Y-91397596D01*
X113488420Y-91390000D01*
X113591580Y-91390000D01*
X113668707Y-91397596D01*
X113668707Y-91397596D01*
G37*
G36*
X100360974Y-92084148D02*
X100395568Y-92094642D01*
X100435128Y-92115787D01*
X100441069Y-92119757D01*
X100463708Y-92129136D01*
X100487741Y-92133917D01*
X100512245Y-92133919D01*
X100536279Y-92129140D01*
X100558918Y-92119763D01*
X100564858Y-92115795D01*
X100604432Y-92094642D01*
X100639026Y-92084148D01*
X100681141Y-92080000D01*
X101288859Y-92080000D01*
X101330974Y-92084148D01*
X101365568Y-92094642D01*
X101397441Y-92111678D01*
X101425387Y-92134613D01*
X101448322Y-92162559D01*
X101465358Y-92194432D01*
X101475852Y-92229026D01*
X101480000Y-92271141D01*
X101480000Y-92928859D01*
X101475852Y-92970974D01*
X101465358Y-93005568D01*
X101448322Y-93037441D01*
X101425387Y-93065387D01*
X101397441Y-93088322D01*
X101365568Y-93105358D01*
X101330974Y-93115852D01*
X101288859Y-93120000D01*
X100681141Y-93120000D01*
X100639026Y-93115852D01*
X100604432Y-93105358D01*
X100564872Y-93084213D01*
X100558931Y-93080243D01*
X100536292Y-93070864D01*
X100512259Y-93066083D01*
X100487755Y-93066081D01*
X100463721Y-93070860D01*
X100441082Y-93080237D01*
X100435142Y-93084205D01*
X100395568Y-93105358D01*
X100360974Y-93115852D01*
X100318859Y-93120000D01*
X99711141Y-93120000D01*
X99669026Y-93115852D01*
X99634432Y-93105358D01*
X99602559Y-93088322D01*
X99574613Y-93065387D01*
X99551678Y-93037441D01*
X99534642Y-93005568D01*
X99524148Y-92970974D01*
X99520000Y-92928859D01*
X99520000Y-92271141D01*
X99524148Y-92229026D01*
X99534642Y-92194432D01*
X99551678Y-92162559D01*
X99574613Y-92134613D01*
X99602559Y-92111678D01*
X99634432Y-92094642D01*
X99669026Y-92084148D01*
X99711141Y-92080000D01*
X100318859Y-92080000D01*
X100360974Y-92084148D01*
X100360974Y-92084148D01*
G37*
G36*
X95370974Y-91124148D02*
X95405568Y-91134642D01*
X95437441Y-91151678D01*
X95465387Y-91174613D01*
X95488322Y-91202559D01*
X95505358Y-91234432D01*
X95515852Y-91269026D01*
X95520000Y-91311141D01*
X95520000Y-91918859D01*
X95515852Y-91960974D01*
X95505358Y-91995568D01*
X95484213Y-92035128D01*
X95480243Y-92041069D01*
X95470864Y-92063708D01*
X95466083Y-92087741D01*
X95466081Y-92112245D01*
X95470860Y-92136279D01*
X95480237Y-92158918D01*
X95484205Y-92164858D01*
X95505358Y-92204432D01*
X95515852Y-92239026D01*
X95520000Y-92281141D01*
X95520000Y-92888859D01*
X95515852Y-92930974D01*
X95505358Y-92965568D01*
X95488322Y-92997441D01*
X95465387Y-93025387D01*
X95437441Y-93048322D01*
X95405568Y-93065358D01*
X95370974Y-93075852D01*
X95328859Y-93080000D01*
X94671141Y-93080000D01*
X94629026Y-93075852D01*
X94594432Y-93065358D01*
X94562559Y-93048322D01*
X94534613Y-93025387D01*
X94511678Y-92997441D01*
X94494642Y-92965568D01*
X94484148Y-92930974D01*
X94480000Y-92888859D01*
X94480000Y-92281141D01*
X94484148Y-92239026D01*
X94494642Y-92204432D01*
X94515787Y-92164872D01*
X94519757Y-92158931D01*
X94529136Y-92136292D01*
X94533917Y-92112259D01*
X94533919Y-92087755D01*
X94529140Y-92063721D01*
X94519763Y-92041082D01*
X94515795Y-92035142D01*
X94494642Y-91995568D01*
X94484148Y-91960974D01*
X94480000Y-91918859D01*
X94480000Y-91311141D01*
X94484148Y-91269026D01*
X94494642Y-91234432D01*
X94511678Y-91202559D01*
X94534613Y-91174613D01*
X94562559Y-91151678D01*
X94594432Y-91134642D01*
X94629026Y-91124148D01*
X94671141Y-91120000D01*
X95328859Y-91120000D01*
X95370974Y-91124148D01*
X95370974Y-91124148D01*
G37*
G36*
X98160974Y-90184148D02*
X98195568Y-90194642D01*
X98235128Y-90215787D01*
X98241069Y-90219757D01*
X98263708Y-90229136D01*
X98287741Y-90233917D01*
X98312245Y-90233919D01*
X98336279Y-90229140D01*
X98358918Y-90219763D01*
X98364858Y-90215795D01*
X98404432Y-90194642D01*
X98439026Y-90184148D01*
X98481141Y-90180000D01*
X99088859Y-90180000D01*
X99130974Y-90184148D01*
X99165568Y-90194642D01*
X99197441Y-90211678D01*
X99225387Y-90234613D01*
X99248322Y-90262559D01*
X99265358Y-90294432D01*
X99275852Y-90329026D01*
X99280000Y-90371141D01*
X99280000Y-91028859D01*
X99275852Y-91070974D01*
X99265358Y-91105568D01*
X99248322Y-91137441D01*
X99225387Y-91165387D01*
X99197441Y-91188322D01*
X99165568Y-91205358D01*
X99130974Y-91215852D01*
X99088859Y-91220000D01*
X98481141Y-91220000D01*
X98439026Y-91215852D01*
X98404432Y-91205358D01*
X98364872Y-91184213D01*
X98358931Y-91180243D01*
X98336292Y-91170864D01*
X98312259Y-91166083D01*
X98287755Y-91166081D01*
X98263721Y-91170860D01*
X98241082Y-91180237D01*
X98235142Y-91184205D01*
X98195568Y-91205358D01*
X98160974Y-91215852D01*
X98118859Y-91220000D01*
X97511141Y-91220000D01*
X97469026Y-91215852D01*
X97434432Y-91205358D01*
X97402559Y-91188322D01*
X97374613Y-91165387D01*
X97351678Y-91137441D01*
X97334642Y-91105568D01*
X97324148Y-91070974D01*
X97320000Y-91028859D01*
X97320000Y-90371141D01*
X97324148Y-90329026D01*
X97334642Y-90294432D01*
X97351678Y-90262559D01*
X97374613Y-90234613D01*
X97402559Y-90211678D01*
X97434432Y-90194642D01*
X97469026Y-90184148D01*
X97511141Y-90180000D01*
X98118859Y-90180000D01*
X98160974Y-90184148D01*
X98160974Y-90184148D01*
G37*
G36*
X93370974Y-89139148D02*
X93405568Y-89149642D01*
X93437441Y-89166678D01*
X93465387Y-89189613D01*
X93488322Y-89217559D01*
X93505358Y-89249432D01*
X93515852Y-89284026D01*
X93520000Y-89326141D01*
X93520000Y-89933859D01*
X93515852Y-89975974D01*
X93505358Y-90010568D01*
X93484213Y-90050128D01*
X93480243Y-90056069D01*
X93470864Y-90078708D01*
X93466083Y-90102741D01*
X93466081Y-90127245D01*
X93470860Y-90151279D01*
X93480237Y-90173918D01*
X93484205Y-90179858D01*
X93505358Y-90219432D01*
X93515852Y-90254026D01*
X93520000Y-90296141D01*
X93520000Y-90903859D01*
X93515852Y-90945974D01*
X93505358Y-90980568D01*
X93488322Y-91012441D01*
X93465387Y-91040387D01*
X93437441Y-91063322D01*
X93405568Y-91080358D01*
X93370974Y-91090852D01*
X93328859Y-91095000D01*
X92671141Y-91095000D01*
X92629026Y-91090852D01*
X92594432Y-91080358D01*
X92562559Y-91063322D01*
X92534613Y-91040387D01*
X92511678Y-91012441D01*
X92494642Y-90980568D01*
X92484148Y-90945974D01*
X92480000Y-90903859D01*
X92480000Y-90296141D01*
X92484148Y-90254026D01*
X92494642Y-90219432D01*
X92515787Y-90179872D01*
X92519757Y-90173931D01*
X92529136Y-90151292D01*
X92533917Y-90127259D01*
X92533919Y-90102755D01*
X92529140Y-90078721D01*
X92519763Y-90056082D01*
X92515795Y-90050142D01*
X92494642Y-90010568D01*
X92484148Y-89975974D01*
X92480000Y-89933859D01*
X92480000Y-89326141D01*
X92484148Y-89284026D01*
X92494642Y-89249432D01*
X92511678Y-89217559D01*
X92534613Y-89189613D01*
X92562559Y-89166678D01*
X92594432Y-89149642D01*
X92629026Y-89139148D01*
X92671141Y-89135000D01*
X93328859Y-89135000D01*
X93370974Y-89139148D01*
X93370974Y-89139148D01*
G37*
G36*
X78128707Y-88857596D02*
X78205836Y-88865193D01*
X78337787Y-88905220D01*
X78403763Y-88925233D01*
X78586172Y-89022733D01*
X78746054Y-89153946D01*
X78877267Y-89313828D01*
X78974767Y-89496237D01*
X78974767Y-89496238D01*
X79034807Y-89694164D01*
X79055080Y-89900000D01*
X79034807Y-90105836D01*
X79000248Y-90219763D01*
X78974767Y-90303763D01*
X78877267Y-90486172D01*
X78746054Y-90646054D01*
X78586172Y-90777267D01*
X78403763Y-90874767D01*
X78337787Y-90894780D01*
X78205836Y-90934807D01*
X78130631Y-90942214D01*
X78051580Y-90950000D01*
X77948420Y-90950000D01*
X77869369Y-90942214D01*
X77794164Y-90934807D01*
X77662213Y-90894780D01*
X77596237Y-90874767D01*
X77413828Y-90777267D01*
X77253946Y-90646054D01*
X77122733Y-90486172D01*
X77025233Y-90303763D01*
X76999752Y-90219763D01*
X76965193Y-90105836D01*
X76944920Y-89900000D01*
X76965193Y-89694164D01*
X77025233Y-89496238D01*
X77025233Y-89496237D01*
X77122733Y-89313828D01*
X77253946Y-89153946D01*
X77413828Y-89022733D01*
X77596237Y-88925233D01*
X77662213Y-88905220D01*
X77794164Y-88865193D01*
X77871293Y-88857596D01*
X77948420Y-88850000D01*
X78051580Y-88850000D01*
X78128707Y-88857596D01*
X78128707Y-88857596D01*
G37*
G36*
X80668707Y-88857596D02*
X80745836Y-88865193D01*
X80877787Y-88905220D01*
X80943763Y-88925233D01*
X81126172Y-89022733D01*
X81286054Y-89153946D01*
X81417267Y-89313828D01*
X81514767Y-89496237D01*
X81514767Y-89496238D01*
X81574807Y-89694164D01*
X81595080Y-89900000D01*
X81574807Y-90105836D01*
X81540248Y-90219763D01*
X81514767Y-90303763D01*
X81417267Y-90486172D01*
X81286054Y-90646054D01*
X81126172Y-90777267D01*
X80943763Y-90874767D01*
X80877787Y-90894780D01*
X80745836Y-90934807D01*
X80670631Y-90942214D01*
X80591580Y-90950000D01*
X80488420Y-90950000D01*
X80409369Y-90942214D01*
X80334164Y-90934807D01*
X80202213Y-90894780D01*
X80136237Y-90874767D01*
X79953828Y-90777267D01*
X79793946Y-90646054D01*
X79662733Y-90486172D01*
X79565233Y-90303763D01*
X79539752Y-90219763D01*
X79505193Y-90105836D01*
X79484920Y-89900000D01*
X79505193Y-89694164D01*
X79565233Y-89496238D01*
X79565233Y-89496237D01*
X79662733Y-89313828D01*
X79793946Y-89153946D01*
X79953828Y-89022733D01*
X80136237Y-88925233D01*
X80202213Y-88905220D01*
X80334164Y-88865193D01*
X80411293Y-88857596D01*
X80488420Y-88850000D01*
X80591580Y-88850000D01*
X80668707Y-88857596D01*
X80668707Y-88857596D01*
G37*
G36*
X111128707Y-88857596D02*
X111205836Y-88865193D01*
X111337787Y-88905220D01*
X111403763Y-88925233D01*
X111586172Y-89022733D01*
X111746054Y-89153946D01*
X111877267Y-89313828D01*
X111974767Y-89496237D01*
X111974767Y-89496238D01*
X112034807Y-89694164D01*
X112055080Y-89900000D01*
X112034807Y-90105836D01*
X112000248Y-90219763D01*
X111974767Y-90303763D01*
X111877267Y-90486172D01*
X111746054Y-90646054D01*
X111586172Y-90777267D01*
X111403763Y-90874767D01*
X111337787Y-90894780D01*
X111205836Y-90934807D01*
X111130631Y-90942214D01*
X111051580Y-90950000D01*
X110948420Y-90950000D01*
X110869369Y-90942214D01*
X110794164Y-90934807D01*
X110662213Y-90894780D01*
X110596237Y-90874767D01*
X110413828Y-90777267D01*
X110253946Y-90646054D01*
X110122733Y-90486172D01*
X110025233Y-90303763D01*
X109999752Y-90219763D01*
X109965193Y-90105836D01*
X109944920Y-89900000D01*
X109965193Y-89694164D01*
X110025233Y-89496238D01*
X110025233Y-89496237D01*
X110122733Y-89313828D01*
X110253946Y-89153946D01*
X110413828Y-89022733D01*
X110596237Y-88925233D01*
X110662213Y-88905220D01*
X110794164Y-88865193D01*
X110871293Y-88857596D01*
X110948420Y-88850000D01*
X111051580Y-88850000D01*
X111128707Y-88857596D01*
X111128707Y-88857596D01*
G37*
G36*
X113668707Y-88857596D02*
X113745836Y-88865193D01*
X113877787Y-88905220D01*
X113943763Y-88925233D01*
X114126172Y-89022733D01*
X114286054Y-89153946D01*
X114417267Y-89313828D01*
X114514767Y-89496237D01*
X114514767Y-89496238D01*
X114574807Y-89694164D01*
X114595080Y-89900000D01*
X114574807Y-90105836D01*
X114540248Y-90219763D01*
X114514767Y-90303763D01*
X114417267Y-90486172D01*
X114286054Y-90646054D01*
X114126172Y-90777267D01*
X113943763Y-90874767D01*
X113877787Y-90894780D01*
X113745836Y-90934807D01*
X113670631Y-90942214D01*
X113591580Y-90950000D01*
X113488420Y-90950000D01*
X113409369Y-90942214D01*
X113334164Y-90934807D01*
X113202213Y-90894780D01*
X113136237Y-90874767D01*
X112953828Y-90777267D01*
X112793946Y-90646054D01*
X112662733Y-90486172D01*
X112565233Y-90303763D01*
X112539752Y-90219763D01*
X112505193Y-90105836D01*
X112484920Y-89900000D01*
X112505193Y-89694164D01*
X112565233Y-89496238D01*
X112565233Y-89496237D01*
X112662733Y-89313828D01*
X112793946Y-89153946D01*
X112953828Y-89022733D01*
X113136237Y-88925233D01*
X113202213Y-88905220D01*
X113334164Y-88865193D01*
X113411293Y-88857596D01*
X113488420Y-88850000D01*
X113591580Y-88850000D01*
X113668707Y-88857596D01*
X113668707Y-88857596D01*
G37*
G36*
X89254183Y-88976900D02*
X89381574Y-89029668D01*
X89496225Y-89106275D01*
X89593725Y-89203775D01*
X89670332Y-89318426D01*
X89723100Y-89445817D01*
X89750000Y-89581055D01*
X89750000Y-89718945D01*
X89723100Y-89854183D01*
X89674209Y-89972214D01*
X89670332Y-89981574D01*
X89593726Y-90096224D01*
X89496224Y-90193726D01*
X89436073Y-90233917D01*
X89381574Y-90270332D01*
X89254183Y-90323100D01*
X89118945Y-90350000D01*
X88981055Y-90350000D01*
X88845817Y-90323100D01*
X88718426Y-90270332D01*
X88663927Y-90233917D01*
X88603776Y-90193726D01*
X88506274Y-90096224D01*
X88429668Y-89981574D01*
X88425791Y-89972214D01*
X88376900Y-89854183D01*
X88350000Y-89718945D01*
X88350000Y-89581055D01*
X88376900Y-89445817D01*
X88429668Y-89318426D01*
X88506275Y-89203775D01*
X88603775Y-89106275D01*
X88718426Y-89029668D01*
X88845817Y-88976900D01*
X88981055Y-88950000D01*
X89118945Y-88950000D01*
X89254183Y-88976900D01*
X89254183Y-88976900D01*
G37*
G36*
X111128707Y-86317597D02*
X111205836Y-86325193D01*
X111337787Y-86365220D01*
X111403763Y-86385233D01*
X111586172Y-86482733D01*
X111746054Y-86613946D01*
X111877267Y-86773828D01*
X111974767Y-86956237D01*
X111974767Y-86956238D01*
X112034807Y-87154164D01*
X112055080Y-87360000D01*
X112034807Y-87565836D01*
X111994780Y-87697787D01*
X111974767Y-87763763D01*
X111877267Y-87946172D01*
X111746054Y-88106054D01*
X111586172Y-88237267D01*
X111403763Y-88334767D01*
X111337787Y-88354780D01*
X111205836Y-88394807D01*
X111128707Y-88402403D01*
X111051580Y-88410000D01*
X110948420Y-88410000D01*
X110871293Y-88402403D01*
X110794164Y-88394807D01*
X110662213Y-88354780D01*
X110596237Y-88334767D01*
X110413828Y-88237267D01*
X110253946Y-88106054D01*
X110122733Y-87946172D01*
X110025233Y-87763763D01*
X110005220Y-87697787D01*
X109965193Y-87565836D01*
X109944920Y-87360000D01*
X109965193Y-87154164D01*
X110025233Y-86956238D01*
X110025233Y-86956237D01*
X110122733Y-86773828D01*
X110253946Y-86613946D01*
X110413828Y-86482733D01*
X110596237Y-86385233D01*
X110662213Y-86365220D01*
X110794164Y-86325193D01*
X110871293Y-86317597D01*
X110948420Y-86310000D01*
X111051580Y-86310000D01*
X111128707Y-86317597D01*
X111128707Y-86317597D01*
G37*
G36*
X80668707Y-86317597D02*
X80745836Y-86325193D01*
X80877787Y-86365220D01*
X80943763Y-86385233D01*
X81126172Y-86482733D01*
X81286054Y-86613946D01*
X81417267Y-86773828D01*
X81514767Y-86956237D01*
X81514767Y-86956238D01*
X81574807Y-87154164D01*
X81595080Y-87360000D01*
X81574807Y-87565836D01*
X81534780Y-87697787D01*
X81514767Y-87763763D01*
X81417267Y-87946172D01*
X81286054Y-88106054D01*
X81126172Y-88237267D01*
X80943763Y-88334767D01*
X80877787Y-88354780D01*
X80745836Y-88394807D01*
X80668707Y-88402403D01*
X80591580Y-88410000D01*
X80488420Y-88410000D01*
X80411293Y-88402403D01*
X80334164Y-88394807D01*
X80202213Y-88354780D01*
X80136237Y-88334767D01*
X79953828Y-88237267D01*
X79793946Y-88106054D01*
X79662733Y-87946172D01*
X79565233Y-87763763D01*
X79545220Y-87697787D01*
X79505193Y-87565836D01*
X79484920Y-87360000D01*
X79505193Y-87154164D01*
X79565233Y-86956238D01*
X79565233Y-86956237D01*
X79662733Y-86773828D01*
X79793946Y-86613946D01*
X79953828Y-86482733D01*
X80136237Y-86385233D01*
X80202213Y-86365220D01*
X80334164Y-86325193D01*
X80411293Y-86317597D01*
X80488420Y-86310000D01*
X80591580Y-86310000D01*
X80668707Y-86317597D01*
X80668707Y-86317597D01*
G37*
G36*
X78128707Y-86317597D02*
X78205836Y-86325193D01*
X78337787Y-86365220D01*
X78403763Y-86385233D01*
X78586172Y-86482733D01*
X78746054Y-86613946D01*
X78877267Y-86773828D01*
X78974767Y-86956237D01*
X78974767Y-86956238D01*
X79034807Y-87154164D01*
X79055080Y-87360000D01*
X79034807Y-87565836D01*
X78994780Y-87697787D01*
X78974767Y-87763763D01*
X78877267Y-87946172D01*
X78746054Y-88106054D01*
X78586172Y-88237267D01*
X78403763Y-88334767D01*
X78337787Y-88354780D01*
X78205836Y-88394807D01*
X78128707Y-88402403D01*
X78051580Y-88410000D01*
X77948420Y-88410000D01*
X77871293Y-88402403D01*
X77794164Y-88394807D01*
X77662213Y-88354780D01*
X77596237Y-88334767D01*
X77413828Y-88237267D01*
X77253946Y-88106054D01*
X77122733Y-87946172D01*
X77025233Y-87763763D01*
X77005220Y-87697787D01*
X76965193Y-87565836D01*
X76944920Y-87360000D01*
X76965193Y-87154164D01*
X77025233Y-86956238D01*
X77025233Y-86956237D01*
X77122733Y-86773828D01*
X77253946Y-86613946D01*
X77413828Y-86482733D01*
X77596237Y-86385233D01*
X77662213Y-86365220D01*
X77794164Y-86325193D01*
X77871293Y-86317597D01*
X77948420Y-86310000D01*
X78051580Y-86310000D01*
X78128707Y-86317597D01*
X78128707Y-86317597D01*
G37*
G36*
X113668707Y-86317597D02*
X113745836Y-86325193D01*
X113877787Y-86365220D01*
X113943763Y-86385233D01*
X114126172Y-86482733D01*
X114286054Y-86613946D01*
X114417267Y-86773828D01*
X114514767Y-86956237D01*
X114514767Y-86956238D01*
X114574807Y-87154164D01*
X114595080Y-87360000D01*
X114574807Y-87565836D01*
X114534780Y-87697787D01*
X114514767Y-87763763D01*
X114417267Y-87946172D01*
X114286054Y-88106054D01*
X114126172Y-88237267D01*
X113943763Y-88334767D01*
X113877787Y-88354780D01*
X113745836Y-88394807D01*
X113668707Y-88402403D01*
X113591580Y-88410000D01*
X113488420Y-88410000D01*
X113411293Y-88402403D01*
X113334164Y-88394807D01*
X113202213Y-88354780D01*
X113136237Y-88334767D01*
X112953828Y-88237267D01*
X112793946Y-88106054D01*
X112662733Y-87946172D01*
X112565233Y-87763763D01*
X112545220Y-87697787D01*
X112505193Y-87565836D01*
X112484920Y-87360000D01*
X112505193Y-87154164D01*
X112565233Y-86956238D01*
X112565233Y-86956237D01*
X112662733Y-86773828D01*
X112793946Y-86613946D01*
X112953828Y-86482733D01*
X113136237Y-86385233D01*
X113202213Y-86365220D01*
X113334164Y-86325193D01*
X113411293Y-86317597D01*
X113488420Y-86310000D01*
X113591580Y-86310000D01*
X113668707Y-86317597D01*
X113668707Y-86317597D01*
G37*
G36*
X78128707Y-83777597D02*
X78205836Y-83785193D01*
X78337787Y-83825220D01*
X78403763Y-83845233D01*
X78586172Y-83942733D01*
X78746054Y-84073946D01*
X78877267Y-84233828D01*
X78974767Y-84416237D01*
X78974767Y-84416238D01*
X79034807Y-84614164D01*
X79055080Y-84820000D01*
X79034807Y-85025836D01*
X79019135Y-85077500D01*
X78974767Y-85223763D01*
X78877267Y-85406172D01*
X78746054Y-85566054D01*
X78586172Y-85697267D01*
X78403763Y-85794767D01*
X78337787Y-85814780D01*
X78205836Y-85854807D01*
X78128707Y-85862404D01*
X78051580Y-85870000D01*
X77948420Y-85870000D01*
X77871293Y-85862404D01*
X77794164Y-85854807D01*
X77662213Y-85814780D01*
X77596237Y-85794767D01*
X77413828Y-85697267D01*
X77253946Y-85566054D01*
X77122733Y-85406172D01*
X77025233Y-85223763D01*
X76980865Y-85077500D01*
X76965193Y-85025836D01*
X76944920Y-84820000D01*
X76965193Y-84614164D01*
X77025233Y-84416238D01*
X77025233Y-84416237D01*
X77122733Y-84233828D01*
X77253946Y-84073946D01*
X77413828Y-83942733D01*
X77596237Y-83845233D01*
X77662213Y-83825220D01*
X77794164Y-83785193D01*
X77871293Y-83777597D01*
X77948420Y-83770000D01*
X78051580Y-83770000D01*
X78128707Y-83777597D01*
X78128707Y-83777597D01*
G37*
G36*
X80668707Y-83777597D02*
X80745836Y-83785193D01*
X80877787Y-83825220D01*
X80943763Y-83845233D01*
X81126172Y-83942733D01*
X81286054Y-84073946D01*
X81417267Y-84233828D01*
X81514767Y-84416237D01*
X81514767Y-84416238D01*
X81574807Y-84614164D01*
X81595080Y-84820000D01*
X81574807Y-85025836D01*
X81559135Y-85077500D01*
X81514767Y-85223763D01*
X81417267Y-85406172D01*
X81286054Y-85566054D01*
X81126172Y-85697267D01*
X80943763Y-85794767D01*
X80877787Y-85814780D01*
X80745836Y-85854807D01*
X80668707Y-85862404D01*
X80591580Y-85870000D01*
X80488420Y-85870000D01*
X80411293Y-85862404D01*
X80334164Y-85854807D01*
X80202213Y-85814780D01*
X80136237Y-85794767D01*
X79953828Y-85697267D01*
X79793946Y-85566054D01*
X79662733Y-85406172D01*
X79565233Y-85223763D01*
X79520865Y-85077500D01*
X79505193Y-85025836D01*
X79484920Y-84820000D01*
X79505193Y-84614164D01*
X79565233Y-84416238D01*
X79565233Y-84416237D01*
X79662733Y-84233828D01*
X79793946Y-84073946D01*
X79953828Y-83942733D01*
X80136237Y-83845233D01*
X80202213Y-83825220D01*
X80334164Y-83785193D01*
X80411293Y-83777597D01*
X80488420Y-83770000D01*
X80591580Y-83770000D01*
X80668707Y-83777597D01*
X80668707Y-83777597D01*
G37*
G36*
X113668707Y-83777597D02*
X113745836Y-83785193D01*
X113877787Y-83825220D01*
X113943763Y-83845233D01*
X114126172Y-83942733D01*
X114286054Y-84073946D01*
X114417267Y-84233828D01*
X114514767Y-84416237D01*
X114514767Y-84416238D01*
X114574807Y-84614164D01*
X114595080Y-84820000D01*
X114574807Y-85025836D01*
X114559135Y-85077500D01*
X114514767Y-85223763D01*
X114417267Y-85406172D01*
X114286054Y-85566054D01*
X114126172Y-85697267D01*
X113943763Y-85794767D01*
X113877787Y-85814780D01*
X113745836Y-85854807D01*
X113668707Y-85862404D01*
X113591580Y-85870000D01*
X113488420Y-85870000D01*
X113411293Y-85862404D01*
X113334164Y-85854807D01*
X113202213Y-85814780D01*
X113136237Y-85794767D01*
X112953828Y-85697267D01*
X112793946Y-85566054D01*
X112662733Y-85406172D01*
X112565233Y-85223763D01*
X112520865Y-85077500D01*
X112505193Y-85025836D01*
X112484920Y-84820000D01*
X112505193Y-84614164D01*
X112565233Y-84416238D01*
X112565233Y-84416237D01*
X112662733Y-84233828D01*
X112793946Y-84073946D01*
X112953828Y-83942733D01*
X113136237Y-83845233D01*
X113202213Y-83825220D01*
X113334164Y-83785193D01*
X113411293Y-83777597D01*
X113488420Y-83770000D01*
X113591580Y-83770000D01*
X113668707Y-83777597D01*
X113668707Y-83777597D01*
G37*
G36*
X111128707Y-83777597D02*
X111205836Y-83785193D01*
X111337787Y-83825220D01*
X111403763Y-83845233D01*
X111586172Y-83942733D01*
X111746054Y-84073946D01*
X111877267Y-84233828D01*
X111974767Y-84416237D01*
X111974767Y-84416238D01*
X112034807Y-84614164D01*
X112055080Y-84820000D01*
X112034807Y-85025836D01*
X112019135Y-85077500D01*
X111974767Y-85223763D01*
X111877267Y-85406172D01*
X111746054Y-85566054D01*
X111586172Y-85697267D01*
X111403763Y-85794767D01*
X111337787Y-85814780D01*
X111205836Y-85854807D01*
X111128707Y-85862404D01*
X111051580Y-85870000D01*
X110948420Y-85870000D01*
X110871293Y-85862404D01*
X110794164Y-85854807D01*
X110662213Y-85814780D01*
X110596237Y-85794767D01*
X110413828Y-85697267D01*
X110253946Y-85566054D01*
X110122733Y-85406172D01*
X110025233Y-85223763D01*
X109980865Y-85077500D01*
X109965193Y-85025836D01*
X109944920Y-84820000D01*
X109965193Y-84614164D01*
X110025233Y-84416238D01*
X110025233Y-84416237D01*
X110122733Y-84233828D01*
X110253946Y-84073946D01*
X110413828Y-83942733D01*
X110596237Y-83845233D01*
X110662213Y-83825220D01*
X110794164Y-83785193D01*
X110871293Y-83777597D01*
X110948420Y-83770000D01*
X111051580Y-83770000D01*
X111128707Y-83777597D01*
X111128707Y-83777597D01*
G37*
G36*
X98199811Y-83263046D02*
X98199814Y-83263047D01*
X98199813Y-83263047D01*
X98368152Y-83332775D01*
X98368153Y-83332776D01*
X98519656Y-83434007D01*
X98648493Y-83562844D01*
X98648495Y-83562847D01*
X98749725Y-83714348D01*
X98779070Y-83785193D01*
X98819454Y-83882689D01*
X98855000Y-84061394D01*
X98855000Y-84243606D01*
X98819454Y-84422311D01*
X98819453Y-84422313D01*
X98749725Y-84590652D01*
X98734013Y-84614166D01*
X98648493Y-84742156D01*
X98519656Y-84870993D01*
X98519653Y-84870995D01*
X98368152Y-84972225D01*
X98238728Y-85025834D01*
X98199811Y-85041954D01*
X98021106Y-85077500D01*
X97838894Y-85077500D01*
X97660189Y-85041954D01*
X97621272Y-85025834D01*
X97491848Y-84972225D01*
X97340347Y-84870995D01*
X97340344Y-84870993D01*
X97211507Y-84742156D01*
X97125987Y-84614166D01*
X97110275Y-84590652D01*
X97040547Y-84422313D01*
X97040546Y-84422311D01*
X97005000Y-84243606D01*
X97005000Y-84061394D01*
X97040546Y-83882689D01*
X97080930Y-83785193D01*
X97110275Y-83714348D01*
X97211505Y-83562847D01*
X97211507Y-83562844D01*
X97340344Y-83434007D01*
X97491847Y-83332776D01*
X97491848Y-83332775D01*
X97660187Y-83263047D01*
X97660186Y-83263047D01*
X97660189Y-83263046D01*
X97838894Y-83227500D01*
X98021106Y-83227500D01*
X98199811Y-83263046D01*
X98199811Y-83263046D01*
G37*
G36*
X93199811Y-83263046D02*
X93199814Y-83263047D01*
X93199813Y-83263047D01*
X93368152Y-83332775D01*
X93368153Y-83332776D01*
X93519656Y-83434007D01*
X93648493Y-83562844D01*
X93648495Y-83562847D01*
X93749725Y-83714348D01*
X93779070Y-83785193D01*
X93819454Y-83882689D01*
X93855000Y-84061394D01*
X93855000Y-84243606D01*
X93819454Y-84422311D01*
X93819453Y-84422313D01*
X93749725Y-84590652D01*
X93734013Y-84614166D01*
X93648493Y-84742156D01*
X93519656Y-84870993D01*
X93519653Y-84870995D01*
X93368152Y-84972225D01*
X93238728Y-85025834D01*
X93199811Y-85041954D01*
X93021106Y-85077500D01*
X92838894Y-85077500D01*
X92660189Y-85041954D01*
X92621272Y-85025834D01*
X92491848Y-84972225D01*
X92340347Y-84870995D01*
X92340344Y-84870993D01*
X92211507Y-84742156D01*
X92125987Y-84614166D01*
X92110275Y-84590652D01*
X92040547Y-84422313D01*
X92040546Y-84422311D01*
X92005000Y-84243606D01*
X92005000Y-84061394D01*
X92040546Y-83882689D01*
X92080930Y-83785193D01*
X92110275Y-83714348D01*
X92211505Y-83562847D01*
X92211507Y-83562844D01*
X92340344Y-83434007D01*
X92491847Y-83332776D01*
X92491848Y-83332775D01*
X92660187Y-83263047D01*
X92660186Y-83263047D01*
X92660189Y-83263046D01*
X92838894Y-83227500D01*
X93021106Y-83227500D01*
X93199811Y-83263046D01*
X93199811Y-83263046D01*
G37*
G36*
X89804183Y-83026900D02*
X89931574Y-83079668D01*
X90046224Y-83156274D01*
X90143726Y-83253776D01*
X90184505Y-83314807D01*
X90220332Y-83368426D01*
X90273100Y-83495817D01*
X90300000Y-83631055D01*
X90300000Y-83768945D01*
X90273100Y-83904183D01*
X90220332Y-84031574D01*
X90143725Y-84146225D01*
X90046225Y-84243725D01*
X89931574Y-84320332D01*
X89804183Y-84373100D01*
X89668945Y-84400000D01*
X89531055Y-84400000D01*
X89395817Y-84373100D01*
X89268426Y-84320332D01*
X89153775Y-84243725D01*
X89056275Y-84146225D01*
X88979668Y-84031574D01*
X88926900Y-83904183D01*
X88900000Y-83768945D01*
X88900000Y-83631055D01*
X88926900Y-83495817D01*
X88979668Y-83368426D01*
X89015495Y-83314807D01*
X89056274Y-83253776D01*
X89153776Y-83156274D01*
X89268426Y-83079668D01*
X89395817Y-83026900D01*
X89531055Y-83000000D01*
X89668945Y-83000000D01*
X89804183Y-83026900D01*
X89804183Y-83026900D01*
G37*
G36*
X113668707Y-81237597D02*
X113745836Y-81245193D01*
X113877787Y-81285220D01*
X113943763Y-81305233D01*
X114126172Y-81402733D01*
X114286054Y-81533946D01*
X114417267Y-81693828D01*
X114514767Y-81876237D01*
X114514767Y-81876238D01*
X114574807Y-82074164D01*
X114595080Y-82280000D01*
X114574807Y-82485836D01*
X114534780Y-82617787D01*
X114514767Y-82683763D01*
X114417267Y-82866172D01*
X114286054Y-83026054D01*
X114126172Y-83157267D01*
X113943763Y-83254767D01*
X113877787Y-83274780D01*
X113745836Y-83314807D01*
X113668707Y-83322403D01*
X113591580Y-83330000D01*
X113488420Y-83330000D01*
X113411293Y-83322403D01*
X113334164Y-83314807D01*
X113202213Y-83274780D01*
X113136237Y-83254767D01*
X112953828Y-83157267D01*
X112793946Y-83026054D01*
X112662733Y-82866172D01*
X112565233Y-82683763D01*
X112545220Y-82617787D01*
X112505193Y-82485836D01*
X112484920Y-82280000D01*
X112505193Y-82074164D01*
X112565233Y-81876238D01*
X112565233Y-81876237D01*
X112662733Y-81693828D01*
X112793946Y-81533946D01*
X112953828Y-81402733D01*
X113136237Y-81305233D01*
X113202213Y-81285220D01*
X113334164Y-81245193D01*
X113411293Y-81237597D01*
X113488420Y-81230000D01*
X113591580Y-81230000D01*
X113668707Y-81237597D01*
X113668707Y-81237597D01*
G37*
G36*
X79050000Y-83330000D02*
X76950000Y-83330000D01*
X76950000Y-81230000D01*
X79050000Y-81230000D01*
X79050000Y-83330000D01*
X79050000Y-83330000D01*
G37*
G36*
X112050000Y-83330000D02*
X109950000Y-83330000D01*
X109950000Y-81230000D01*
X112050000Y-81230000D01*
X112050000Y-83330000D01*
X112050000Y-83330000D01*
G37*
G36*
X80668707Y-81237597D02*
X80745836Y-81245193D01*
X80877787Y-81285220D01*
X80943763Y-81305233D01*
X81126172Y-81402733D01*
X81286054Y-81533946D01*
X81417267Y-81693828D01*
X81514767Y-81876237D01*
X81514767Y-81876238D01*
X81574807Y-82074164D01*
X81595080Y-82280000D01*
X81574807Y-82485836D01*
X81534780Y-82617787D01*
X81514767Y-82683763D01*
X81417267Y-82866172D01*
X81286054Y-83026054D01*
X81126172Y-83157267D01*
X80943763Y-83254767D01*
X80877787Y-83274780D01*
X80745836Y-83314807D01*
X80668707Y-83322403D01*
X80591580Y-83330000D01*
X80488420Y-83330000D01*
X80411293Y-83322403D01*
X80334164Y-83314807D01*
X80202213Y-83274780D01*
X80136237Y-83254767D01*
X79953828Y-83157267D01*
X79793946Y-83026054D01*
X79662733Y-82866172D01*
X79565233Y-82683763D01*
X79545220Y-82617787D01*
X79505193Y-82485836D01*
X79484920Y-82280000D01*
X79505193Y-82074164D01*
X79565233Y-81876238D01*
X79565233Y-81876237D01*
X79662733Y-81693828D01*
X79793946Y-81533946D01*
X79953828Y-81402733D01*
X80136237Y-81305233D01*
X80202213Y-81285220D01*
X80334164Y-81245193D01*
X80411293Y-81237597D01*
X80488420Y-81230000D01*
X80591580Y-81230000D01*
X80668707Y-81237597D01*
X80668707Y-81237597D01*
G37*
G36*
X92086827Y-80314076D02*
X92162228Y-80336949D01*
X92237629Y-80359821D01*
X92376608Y-80434108D01*
X92498422Y-80534078D01*
X92598392Y-80655892D01*
X92672679Y-80794871D01*
X92672680Y-80794874D01*
X92712730Y-80926901D01*
X92718424Y-80945674D01*
X92730000Y-81063205D01*
X92730000Y-81841795D01*
X92718424Y-81959326D01*
X92672679Y-82110129D01*
X92598392Y-82249108D01*
X92498425Y-82370919D01*
X92498423Y-82370920D01*
X92498422Y-82370922D01*
X92498418Y-82370925D01*
X92376604Y-82470894D01*
X92237628Y-82545179D01*
X92162226Y-82568052D01*
X92086826Y-82590924D01*
X91930000Y-82606370D01*
X91773173Y-82590924D01*
X91697773Y-82568052D01*
X91622371Y-82545179D01*
X91483392Y-82470892D01*
X91361581Y-82370925D01*
X91361580Y-82370923D01*
X91361578Y-82370922D01*
X91261607Y-82249105D01*
X91205280Y-82143726D01*
X91187321Y-82110128D01*
X91141577Y-81959329D01*
X91141576Y-81959326D01*
X91137717Y-81920148D01*
X91130000Y-81841794D01*
X91130000Y-81063205D01*
X91141576Y-80945671D01*
X91187321Y-80794874D01*
X91261609Y-80655892D01*
X91361579Y-80534078D01*
X91483393Y-80434108D01*
X91622372Y-80359821D01*
X91697773Y-80336949D01*
X91773174Y-80314076D01*
X91930000Y-80298630D01*
X92086827Y-80314076D01*
X92086827Y-80314076D01*
G37*
G36*
X99086826Y-80314076D02*
X99162227Y-80336949D01*
X99237628Y-80359821D01*
X99376604Y-80434106D01*
X99376606Y-80434107D01*
X99376605Y-80434107D01*
X99498422Y-80534078D01*
X99498423Y-80534080D01*
X99498425Y-80534081D01*
X99598392Y-80655892D01*
X99672679Y-80794871D01*
X99672680Y-80794874D01*
X99712730Y-80926901D01*
X99718424Y-80945674D01*
X99730000Y-81063205D01*
X99730000Y-81841795D01*
X99718424Y-81959326D01*
X99672679Y-82110129D01*
X99598392Y-82249108D01*
X99498422Y-82370922D01*
X99376608Y-82470892D01*
X99237629Y-82545179D01*
X99162227Y-82568052D01*
X99086827Y-82590924D01*
X98930000Y-82606370D01*
X98773174Y-82590924D01*
X98697774Y-82568052D01*
X98622372Y-82545179D01*
X98483393Y-82470892D01*
X98361579Y-82370922D01*
X98261609Y-82249108D01*
X98187321Y-82110126D01*
X98141576Y-81959329D01*
X98130000Y-81841795D01*
X98130000Y-81063206D01*
X98141576Y-80945675D01*
X98141577Y-80945673D01*
X98164449Y-80870273D01*
X98187321Y-80794872D01*
X98261606Y-80655896D01*
X98361576Y-80534081D01*
X98361578Y-80534078D01*
X98361580Y-80534077D01*
X98361581Y-80534075D01*
X98483392Y-80434108D01*
X98622371Y-80359821D01*
X98697772Y-80336949D01*
X98773173Y-80314076D01*
X98930000Y-80298630D01*
X99086826Y-80314076D01*
X99086826Y-80314076D01*
G37*
G36*
X89804183Y-80926900D02*
X89931574Y-80979668D01*
X90046225Y-81056275D01*
X90143725Y-81153775D01*
X90220332Y-81268426D01*
X90273100Y-81395817D01*
X90300000Y-81531055D01*
X90300000Y-81668945D01*
X90273100Y-81804183D01*
X90243253Y-81876238D01*
X90220332Y-81931574D01*
X90201790Y-81959325D01*
X90143725Y-82046225D01*
X90046225Y-82143725D01*
X89931574Y-82220332D01*
X89804183Y-82273100D01*
X89668945Y-82300000D01*
X89531055Y-82300000D01*
X89395817Y-82273100D01*
X89268426Y-82220332D01*
X89153775Y-82143725D01*
X89056275Y-82046225D01*
X88998211Y-81959325D01*
X88979668Y-81931574D01*
X88956747Y-81876238D01*
X88926900Y-81804183D01*
X88900000Y-81668945D01*
X88900000Y-81531055D01*
X88926900Y-81395817D01*
X88979668Y-81268426D01*
X89056275Y-81153775D01*
X89153775Y-81056275D01*
X89268426Y-80979668D01*
X89395817Y-80926900D01*
X89531055Y-80900000D01*
X89668945Y-80900000D01*
X89804183Y-80926900D01*
X89804183Y-80926900D01*
G37*
M02*
