G04 #@! TF.GenerationSoftware,KiCad,Pcbnew,5.0.2-bee76a0~70~ubuntu18.04.1*
G04 #@! TF.CreationDate,2018-12-10T15:17:23+01:00*
G04 #@! TF.ProjectId,sammyultra,73616d6d-7975-46c7-9472-612e6b696361,rev?*
G04 #@! TF.SameCoordinates,Original*
G04 #@! TF.FileFunction,Copper,L2,Inr*
G04 #@! TF.FilePolarity,Positive*
%FSLAX46Y46*%
G04 Gerber Fmt 4.6, Leading zero omitted, Abs format (unit mm)*
G04 Created by KiCad (PCBNEW 5.0.2-bee76a0~70~ubuntu18.04.1) date 2018-12-10T15:17:23 CET*
%MOMM*%
%LPD*%
G01*
G04 APERTURE LIST*
G04 #@! TA.AperFunction,ViaPad*
%ADD10C,1.000000*%
G04 #@! TD*
G04 #@! TA.AperFunction,ViaPad*
%ADD11O,1.700000X1.700000*%
G04 #@! TD*
G04 #@! TA.AperFunction,ViaPad*
%ADD12R,1.700000X1.700000*%
G04 #@! TD*
G04 #@! TA.AperFunction,ViaPad*
%ADD13R,1.000000X1.000000*%
G04 #@! TD*
G04 #@! TA.AperFunction,ViaPad*
%ADD14O,1.000000X1.000000*%
G04 #@! TD*
G04 #@! TA.AperFunction,ViaPad*
%ADD15C,1.450000*%
G04 #@! TD*
G04 #@! TA.AperFunction,ViaPad*
%ADD16O,1.200000X1.900000*%
G04 #@! TD*
G04 #@! TA.AperFunction,ViaPad*
%ADD17C,0.450000*%
G04 #@! TD*
G04 #@! TA.AperFunction,ViaPad*
%ADD18C,0.600000*%
G04 #@! TD*
G04 #@! TA.AperFunction,ViaPad*
%ADD19C,0.800000*%
G04 #@! TD*
G04 #@! TA.AperFunction,Conductor*
%ADD20C,0.088900*%
G04 #@! TD*
G04 #@! TA.AperFunction,Conductor*
%ADD21C,0.200000*%
G04 #@! TD*
G04 APERTURE END LIST*
D10*
G04 #@! TO.N,/USB_D_M*
G04 #@! TO.C,TP10*
X89600000Y-81600000D03*
G04 #@! TD*
G04 #@! TO.N,/USB_D_P*
G04 #@! TO.C,TP9*
X89600000Y-83700000D03*
G04 #@! TD*
G04 #@! TO.N,/ERASE*
G04 #@! TO.C,TP8*
X102500000Y-95200000D03*
G04 #@! TD*
G04 #@! TO.N,+1V8*
G04 #@! TO.C,TP1*
X89050000Y-89650000D03*
G04 #@! TD*
D11*
G04 #@! TO.N,GND*
G04 #@! TO.C,J3*
X80540000Y-115300000D03*
G04 #@! TO.N,+3V3*
X78000000Y-115300000D03*
G04 #@! TO.N,/PA2*
X80540000Y-112760000D03*
G04 #@! TO.N,/PA1*
X78000000Y-112760000D03*
G04 #@! TO.N,/PA0*
X80540000Y-110220000D03*
G04 #@! TO.N,/PA25*
X78000000Y-110220000D03*
G04 #@! TO.N,/PA26*
X80540000Y-107680000D03*
G04 #@! TO.N,/PA23*
X78000000Y-107680000D03*
G04 #@! TO.N,/PA21*
X80540000Y-105140000D03*
G04 #@! TO.N,/PA20*
X78000000Y-105140000D03*
G04 #@! TO.N,/PA17*
X80540000Y-102600000D03*
G04 #@! TO.N,/PA19*
X78000000Y-102600000D03*
G04 #@! TO.N,/PA14*
X80540000Y-100060000D03*
G04 #@! TO.N,/PA16*
X78000000Y-100060000D03*
G04 #@! TO.N,/PB4*
X80540000Y-97520000D03*
G04 #@! TO.N,/PB3*
X78000000Y-97520000D03*
G04 #@! TO.N,/PA30*
X80540000Y-94980000D03*
G04 #@! TO.N,/PB8*
X78000000Y-94980000D03*
G04 #@! TO.N,/PB5*
X80540000Y-92440000D03*
G04 #@! TO.N,/PB7*
X78000000Y-92440000D03*
G04 #@! TO.N,/PB6*
X80540000Y-89900000D03*
G04 #@! TO.N,/PB2*
X78000000Y-89900000D03*
G04 #@! TO.N,/PB11*
X80540000Y-87360000D03*
G04 #@! TO.N,/PB12*
X78000000Y-87360000D03*
G04 #@! TO.N,/PB1*
X80540000Y-84820000D03*
G04 #@! TO.N,/PA29*
X78000000Y-84820000D03*
G04 #@! TO.N,GND*
X80540000Y-82280000D03*
D12*
G04 #@! TO.N,+3V3*
X78000000Y-82280000D03*
G04 #@! TD*
G04 #@! TO.N,+3V3*
G04 #@! TO.C,J5*
X111000000Y-82280000D03*
D11*
G04 #@! TO.N,GND*
X113540000Y-82280000D03*
G04 #@! TO.N,/PA22*
X111000000Y-84820000D03*
G04 #@! TO.N,/PB13*
X113540000Y-84820000D03*
G04 #@! TO.N,/PB0*
X111000000Y-87360000D03*
G04 #@! TO.N,/PA28*
X113540000Y-87360000D03*
G04 #@! TO.N,/PA31*
X111000000Y-89900000D03*
G04 #@! TO.N,/PB14*
X113540000Y-89900000D03*
G04 #@! TO.N,/PB9*
X111000000Y-92440000D03*
G04 #@! TO.N,/PB20*
X113540000Y-92440000D03*
G04 #@! TO.N,/PB22*
X111000000Y-94980000D03*
G04 #@! TO.N,/PB16*
X113540000Y-94980000D03*
G04 #@! TO.N,/PB10*
X111000000Y-97520000D03*
G04 #@! TO.N,/PB15*
X113540000Y-97520000D03*
G04 #@! TO.N,/PB18*
X111000000Y-100060000D03*
G04 #@! TO.N,/PB17*
X113540000Y-100060000D03*
G04 #@! TO.N,/PB19*
X111000000Y-102600000D03*
G04 #@! TO.N,/PB21*
X113540000Y-102600000D03*
G04 #@! TO.N,/PB24*
X111000000Y-105140000D03*
G04 #@! TO.N,/PB23*
X113540000Y-105140000D03*
G04 #@! TO.N,/PA12*
X111000000Y-107680000D03*
G04 #@! TO.N,/PA11*
X113540000Y-107680000D03*
G04 #@! TO.N,/PA9*
X111000000Y-110220000D03*
G04 #@! TO.N,/PA10*
X113540000Y-110220000D03*
G04 #@! TO.N,/PA24*
X111000000Y-112760000D03*
G04 #@! TO.N,/PA18*
X113540000Y-112760000D03*
G04 #@! TO.N,+3V3*
X111000000Y-115300000D03*
G04 #@! TO.N,GND*
X113540000Y-115300000D03*
G04 #@! TD*
D13*
G04 #@! TO.N,/SWDIO*
G04 #@! TO.C,J4*
X103550000Y-114600000D03*
D14*
G04 #@! TO.N,+3V3*
X104820000Y-114600000D03*
G04 #@! TO.N,/SWCLK*
X106090000Y-114600000D03*
G04 #@! TO.N,GND*
X107360000Y-114600000D03*
G04 #@! TD*
D15*
G04 #@! TO.N,GND*
G04 #@! TO.C,J1*
X97930000Y-84152500D03*
X92930000Y-84152500D03*
D16*
X98930000Y-81452500D03*
X91930000Y-81452500D03*
G04 #@! TD*
D17*
G04 #@! TO.N,+1V8*
X97800000Y-90800000D03*
X93000000Y-90800000D03*
X93400000Y-94200000D03*
X96600000Y-93400000D03*
X98200000Y-98200000D03*
X95000005Y-98200948D03*
X94999058Y-96600011D03*
G04 #@! TO.N,GND*
X95000000Y-95000000D03*
X96600000Y-96600000D03*
X97400000Y-93400000D03*
X95000000Y-91800000D03*
X90600000Y-93000000D03*
X100700000Y-87600000D03*
X98200000Y-91800000D03*
X89800000Y-104400000D03*
X98100000Y-105600000D03*
D18*
X105000000Y-86600000D03*
D17*
X89200000Y-116300000D03*
X92600000Y-116300000D03*
X100600000Y-116300000D03*
X107800000Y-85300000D03*
X108100000Y-95450000D03*
X99100000Y-87600000D03*
X93600000Y-88600000D03*
X99700000Y-90700000D03*
X101800000Y-92600000D03*
X101500000Y-97800000D03*
X106600000Y-93200000D03*
X108100000Y-90100000D03*
X98995188Y-99795188D03*
X104300000Y-105500000D03*
X99700000Y-103600000D03*
G04 #@! TO.N,+3V3*
X88600000Y-92200000D03*
X95000000Y-92600000D03*
X98200000Y-92600000D03*
X95800000Y-95000000D03*
X94400000Y-114000000D03*
D18*
X105300000Y-88900000D03*
X106800000Y-88900000D03*
X106100006Y-88900000D03*
D17*
X99515000Y-97400000D03*
D19*
X100200000Y-100300000D03*
D17*
X103500000Y-109900000D03*
X95000000Y-94200000D03*
D18*
X100000000Y-92566629D03*
D17*
G04 #@! TO.N,/ERASE*
X95800004Y-95800948D03*
G04 #@! TO.N,/SWCLK*
X101900000Y-101550000D03*
X102950000Y-106350000D03*
G04 #@! TO.N,/SWDIO*
X101250000Y-101550000D03*
X102200000Y-106200000D03*
G04 #@! TO.N,/PA28*
X95800000Y-92600000D03*
G04 #@! TO.N,/PB0*
X94200000Y-92600000D03*
G04 #@! TO.N,/PB14*
X97400000Y-94200000D03*
G04 #@! TO.N,/PB9*
X95800000Y-94200000D03*
G04 #@! TO.N,/PA31*
X94200000Y-94200000D03*
G04 #@! TO.N,/PB13*
X93400000Y-93400000D03*
G04 #@! TO.N,/PA22*
X92600000Y-93400000D03*
G04 #@! TO.N,/PB20*
X96600957Y-94999996D03*
G04 #@! TO.N,/PB22*
X97400000Y-95800000D03*
G04 #@! TO.N,/PB16*
X94204931Y-95805949D03*
G04 #@! TO.N,/PB15*
X93400000Y-96600000D03*
G04 #@! TO.N,/PA18*
X92600000Y-96600000D03*
G04 #@! TO.N,/PA10*
X95000000Y-97400000D03*
G04 #@! TO.N,/PA24*
X92600000Y-97400000D03*
G04 #@! TO.N,/~RSTB~*
X96600000Y-97400000D03*
X103400000Y-100600000D03*
G04 #@! TO.N,/DFSDM*
X97100000Y-90000000D03*
X96200000Y-90741640D03*
G04 #@! TO.N,/MCDA1*
X94200000Y-97400000D03*
X90500000Y-113900000D03*
X94200000Y-100700000D03*
X94200000Y-110200000D03*
X95000000Y-109200000D03*
G04 #@! TO.N,/MCDA0*
X91505000Y-109850000D03*
G04 #@! TO.N,/MCCK*
X93400000Y-97400000D03*
X93400000Y-100700000D03*
X92900000Y-112900000D03*
G04 #@! TO.N,/MCCDA*
X93800000Y-106350000D03*
G04 #@! TO.N,/MCDA3*
X99000000Y-105350000D03*
G04 #@! TO.N,/MCDA2*
X98105000Y-110350000D03*
G04 #@! TD*
D20*
G04 #@! TO.N,GND*
X100469640Y-87600000D02*
X100700000Y-87600000D01*
X97400000Y-93400000D02*
X97400000Y-90669640D01*
X97400000Y-90669640D02*
X100469640Y-87600000D01*
G04 #@! TD*
D21*
G04 #@! TO.N,GND*
G36*
X91274512Y-80408828D02*
X91058951Y-80712475D01*
X90976000Y-81075500D01*
X90976000Y-81425500D01*
X91903000Y-81425500D01*
X91903000Y-81405500D01*
X91957000Y-81405500D01*
X91957000Y-81425500D01*
X92884000Y-81425500D01*
X92884000Y-81075500D01*
X92801049Y-80712475D01*
X92585488Y-80408828D01*
X92531622Y-80375000D01*
X98328378Y-80375000D01*
X98274512Y-80408828D01*
X98058951Y-80712475D01*
X97976000Y-81075500D01*
X97976000Y-81425500D01*
X98903000Y-81425500D01*
X98903000Y-81405500D01*
X98957000Y-81405500D01*
X98957000Y-81425500D01*
X99884000Y-81425500D01*
X99884000Y-81075500D01*
X99801049Y-80712475D01*
X99585488Y-80408828D01*
X99531622Y-80375000D01*
X114463063Y-80375000D01*
X114736367Y-80429363D01*
X114936747Y-80563253D01*
X115070637Y-80763632D01*
X115125001Y-81036941D01*
X115125000Y-116463064D01*
X115070637Y-116736368D01*
X114936747Y-116936747D01*
X114736367Y-117070637D01*
X114463063Y-117125000D01*
X77036936Y-117125000D01*
X76763632Y-117070637D01*
X76563253Y-116936747D01*
X76429363Y-116736367D01*
X76375000Y-116463063D01*
X76375000Y-115300000D01*
X76827471Y-115300000D01*
X76916724Y-115748707D01*
X77170897Y-116129103D01*
X77551293Y-116383276D01*
X77886739Y-116450000D01*
X78113261Y-116450000D01*
X78448707Y-116383276D01*
X78829103Y-116129103D01*
X79083276Y-115748707D01*
X79129769Y-115514967D01*
X79355346Y-115514967D01*
X79363255Y-115554745D01*
X79550316Y-115985674D01*
X79888047Y-116312216D01*
X80325032Y-116484657D01*
X80513000Y-116415200D01*
X80513000Y-115327000D01*
X80567000Y-115327000D01*
X80567000Y-116415200D01*
X80754968Y-116484657D01*
X81191953Y-116312216D01*
X81529684Y-115985674D01*
X81716745Y-115554745D01*
X81724654Y-115514967D01*
X81655173Y-115327000D01*
X80567000Y-115327000D01*
X80513000Y-115327000D01*
X79424827Y-115327000D01*
X79355346Y-115514967D01*
X79129769Y-115514967D01*
X79172529Y-115300000D01*
X79129770Y-115085033D01*
X79355346Y-115085033D01*
X79424827Y-115273000D01*
X80513000Y-115273000D01*
X80513000Y-114184800D01*
X80567000Y-114184800D01*
X80567000Y-115273000D01*
X81655173Y-115273000D01*
X81724654Y-115085033D01*
X81716745Y-115045255D01*
X81529684Y-114614326D01*
X81191953Y-114287784D01*
X80754968Y-114115343D01*
X80567000Y-114184800D01*
X80513000Y-114184800D01*
X80325032Y-114115343D01*
X79888047Y-114287784D01*
X79550316Y-114614326D01*
X79363255Y-115045255D01*
X79355346Y-115085033D01*
X79129770Y-115085033D01*
X79083276Y-114851293D01*
X78829103Y-114470897D01*
X78448707Y-114216724D01*
X78113261Y-114150000D01*
X77886739Y-114150000D01*
X77551293Y-114216724D01*
X77170897Y-114470897D01*
X76916724Y-114851293D01*
X76827471Y-115300000D01*
X76375000Y-115300000D01*
X76375000Y-112760000D01*
X76827471Y-112760000D01*
X76916724Y-113208707D01*
X77170897Y-113589103D01*
X77551293Y-113843276D01*
X77886739Y-113910000D01*
X78113261Y-113910000D01*
X78448707Y-113843276D01*
X78829103Y-113589103D01*
X79083276Y-113208707D01*
X79172529Y-112760000D01*
X79367471Y-112760000D01*
X79456724Y-113208707D01*
X79710897Y-113589103D01*
X80091293Y-113843276D01*
X80426739Y-113910000D01*
X80653261Y-113910000D01*
X80988707Y-113843276D01*
X81060102Y-113795571D01*
X89975000Y-113795571D01*
X89975000Y-114004429D01*
X90054927Y-114197388D01*
X90202612Y-114345073D01*
X90395571Y-114425000D01*
X90604429Y-114425000D01*
X90797388Y-114345073D01*
X90945073Y-114197388D01*
X91025000Y-114004429D01*
X91025000Y-113895571D01*
X93875000Y-113895571D01*
X93875000Y-114104429D01*
X93954927Y-114297388D01*
X94102612Y-114445073D01*
X94295571Y-114525000D01*
X94504429Y-114525000D01*
X94697388Y-114445073D01*
X94845073Y-114297388D01*
X94925000Y-114104429D01*
X94925000Y-114100000D01*
X102744123Y-114100000D01*
X102744123Y-115100000D01*
X102767407Y-115217054D01*
X102833712Y-115316288D01*
X102932946Y-115382593D01*
X103050000Y-115405877D01*
X104050000Y-115405877D01*
X104167054Y-115382593D01*
X104266288Y-115316288D01*
X104323621Y-115230481D01*
X104507856Y-115353583D01*
X104741211Y-115400000D01*
X104898789Y-115400000D01*
X105132144Y-115353583D01*
X105396767Y-115176767D01*
X105455000Y-115089615D01*
X105513233Y-115176767D01*
X105777856Y-115353583D01*
X106011211Y-115400000D01*
X106168789Y-115400000D01*
X106402144Y-115353583D01*
X106666767Y-115176767D01*
X106701394Y-115124943D01*
X106880124Y-115306428D01*
X107186991Y-115436295D01*
X107199804Y-115438840D01*
X107333000Y-115365024D01*
X107333000Y-114627000D01*
X107387000Y-114627000D01*
X107387000Y-115365024D01*
X107520196Y-115438840D01*
X107533009Y-115436295D01*
X107839876Y-115306428D01*
X107846206Y-115300000D01*
X109827471Y-115300000D01*
X109916724Y-115748707D01*
X110170897Y-116129103D01*
X110551293Y-116383276D01*
X110886739Y-116450000D01*
X111113261Y-116450000D01*
X111448707Y-116383276D01*
X111829103Y-116129103D01*
X112083276Y-115748707D01*
X112129769Y-115514967D01*
X112355346Y-115514967D01*
X112363255Y-115554745D01*
X112550316Y-115985674D01*
X112888047Y-116312216D01*
X113325032Y-116484657D01*
X113513000Y-116415200D01*
X113513000Y-115327000D01*
X113567000Y-115327000D01*
X113567000Y-116415200D01*
X113754968Y-116484657D01*
X114191953Y-116312216D01*
X114529684Y-115985674D01*
X114716745Y-115554745D01*
X114724654Y-115514967D01*
X114655173Y-115327000D01*
X113567000Y-115327000D01*
X113513000Y-115327000D01*
X112424827Y-115327000D01*
X112355346Y-115514967D01*
X112129769Y-115514967D01*
X112172529Y-115300000D01*
X112129770Y-115085033D01*
X112355346Y-115085033D01*
X112424827Y-115273000D01*
X113513000Y-115273000D01*
X113513000Y-114184800D01*
X113567000Y-114184800D01*
X113567000Y-115273000D01*
X114655173Y-115273000D01*
X114724654Y-115085033D01*
X114716745Y-115045255D01*
X114529684Y-114614326D01*
X114191953Y-114287784D01*
X113754968Y-114115343D01*
X113567000Y-114184800D01*
X113513000Y-114184800D01*
X113325032Y-114115343D01*
X112888047Y-114287784D01*
X112550316Y-114614326D01*
X112363255Y-115045255D01*
X112355346Y-115085033D01*
X112129770Y-115085033D01*
X112083276Y-114851293D01*
X111829103Y-114470897D01*
X111448707Y-114216724D01*
X111113261Y-114150000D01*
X110886739Y-114150000D01*
X110551293Y-114216724D01*
X110170897Y-114470897D01*
X109916724Y-114851293D01*
X109827471Y-115300000D01*
X107846206Y-115300000D01*
X108073686Y-115069014D01*
X108198844Y-114760196D01*
X108125077Y-114627000D01*
X107387000Y-114627000D01*
X107333000Y-114627000D01*
X107313000Y-114627000D01*
X107313000Y-114573000D01*
X107333000Y-114573000D01*
X107333000Y-113834976D01*
X107387000Y-113834976D01*
X107387000Y-114573000D01*
X108125077Y-114573000D01*
X108198844Y-114439804D01*
X108073686Y-114130986D01*
X107839876Y-113893572D01*
X107533009Y-113763705D01*
X107520196Y-113761160D01*
X107387000Y-113834976D01*
X107333000Y-113834976D01*
X107199804Y-113761160D01*
X107186991Y-113763705D01*
X106880124Y-113893572D01*
X106701394Y-114075057D01*
X106666767Y-114023233D01*
X106402144Y-113846417D01*
X106168789Y-113800000D01*
X106011211Y-113800000D01*
X105777856Y-113846417D01*
X105513233Y-114023233D01*
X105455000Y-114110385D01*
X105396767Y-114023233D01*
X105132144Y-113846417D01*
X104898789Y-113800000D01*
X104741211Y-113800000D01*
X104507856Y-113846417D01*
X104323621Y-113969519D01*
X104266288Y-113883712D01*
X104167054Y-113817407D01*
X104050000Y-113794123D01*
X103050000Y-113794123D01*
X102932946Y-113817407D01*
X102833712Y-113883712D01*
X102767407Y-113982946D01*
X102744123Y-114100000D01*
X94925000Y-114100000D01*
X94925000Y-113895571D01*
X94845073Y-113702612D01*
X94697388Y-113554927D01*
X94504429Y-113475000D01*
X94295571Y-113475000D01*
X94102612Y-113554927D01*
X93954927Y-113702612D01*
X93875000Y-113895571D01*
X91025000Y-113895571D01*
X91025000Y-113795571D01*
X90945073Y-113602612D01*
X90797388Y-113454927D01*
X90604429Y-113375000D01*
X90395571Y-113375000D01*
X90202612Y-113454927D01*
X90054927Y-113602612D01*
X89975000Y-113795571D01*
X81060102Y-113795571D01*
X81369103Y-113589103D01*
X81623276Y-113208707D01*
X81705453Y-112795571D01*
X92375000Y-112795571D01*
X92375000Y-113004429D01*
X92454927Y-113197388D01*
X92602612Y-113345073D01*
X92795571Y-113425000D01*
X93004429Y-113425000D01*
X93197388Y-113345073D01*
X93345073Y-113197388D01*
X93425000Y-113004429D01*
X93425000Y-112795571D01*
X93410266Y-112760000D01*
X109827471Y-112760000D01*
X109916724Y-113208707D01*
X110170897Y-113589103D01*
X110551293Y-113843276D01*
X110886739Y-113910000D01*
X111113261Y-113910000D01*
X111448707Y-113843276D01*
X111829103Y-113589103D01*
X112083276Y-113208707D01*
X112172529Y-112760000D01*
X112367471Y-112760000D01*
X112456724Y-113208707D01*
X112710897Y-113589103D01*
X113091293Y-113843276D01*
X113426739Y-113910000D01*
X113653261Y-113910000D01*
X113988707Y-113843276D01*
X114369103Y-113589103D01*
X114623276Y-113208707D01*
X114712529Y-112760000D01*
X114623276Y-112311293D01*
X114369103Y-111930897D01*
X113988707Y-111676724D01*
X113653261Y-111610000D01*
X113426739Y-111610000D01*
X113091293Y-111676724D01*
X112710897Y-111930897D01*
X112456724Y-112311293D01*
X112367471Y-112760000D01*
X112172529Y-112760000D01*
X112083276Y-112311293D01*
X111829103Y-111930897D01*
X111448707Y-111676724D01*
X111113261Y-111610000D01*
X110886739Y-111610000D01*
X110551293Y-111676724D01*
X110170897Y-111930897D01*
X109916724Y-112311293D01*
X109827471Y-112760000D01*
X93410266Y-112760000D01*
X93345073Y-112602612D01*
X93197388Y-112454927D01*
X93004429Y-112375000D01*
X92795571Y-112375000D01*
X92602612Y-112454927D01*
X92454927Y-112602612D01*
X92375000Y-112795571D01*
X81705453Y-112795571D01*
X81712529Y-112760000D01*
X81623276Y-112311293D01*
X81369103Y-111930897D01*
X80988707Y-111676724D01*
X80653261Y-111610000D01*
X80426739Y-111610000D01*
X80091293Y-111676724D01*
X79710897Y-111930897D01*
X79456724Y-112311293D01*
X79367471Y-112760000D01*
X79172529Y-112760000D01*
X79083276Y-112311293D01*
X78829103Y-111930897D01*
X78448707Y-111676724D01*
X78113261Y-111610000D01*
X77886739Y-111610000D01*
X77551293Y-111676724D01*
X77170897Y-111930897D01*
X76916724Y-112311293D01*
X76827471Y-112760000D01*
X76375000Y-112760000D01*
X76375000Y-110220000D01*
X76827471Y-110220000D01*
X76916724Y-110668707D01*
X77170897Y-111049103D01*
X77551293Y-111303276D01*
X77886739Y-111370000D01*
X78113261Y-111370000D01*
X78448707Y-111303276D01*
X78829103Y-111049103D01*
X79083276Y-110668707D01*
X79172529Y-110220000D01*
X79367471Y-110220000D01*
X79456724Y-110668707D01*
X79710897Y-111049103D01*
X80091293Y-111303276D01*
X80426739Y-111370000D01*
X80653261Y-111370000D01*
X80988707Y-111303276D01*
X81369103Y-111049103D01*
X81623276Y-110668707D01*
X81712529Y-110220000D01*
X81623276Y-109771293D01*
X81606090Y-109745571D01*
X90980000Y-109745571D01*
X90980000Y-109954429D01*
X91059927Y-110147388D01*
X91207612Y-110295073D01*
X91400571Y-110375000D01*
X91609429Y-110375000D01*
X91802388Y-110295073D01*
X91950073Y-110147388D01*
X91971536Y-110095571D01*
X93675000Y-110095571D01*
X93675000Y-110304429D01*
X93754927Y-110497388D01*
X93902612Y-110645073D01*
X94095571Y-110725000D01*
X94304429Y-110725000D01*
X94497388Y-110645073D01*
X94645073Y-110497388D01*
X94725000Y-110304429D01*
X94725000Y-110245571D01*
X97580000Y-110245571D01*
X97580000Y-110454429D01*
X97659927Y-110647388D01*
X97807612Y-110795073D01*
X98000571Y-110875000D01*
X98209429Y-110875000D01*
X98402388Y-110795073D01*
X98550073Y-110647388D01*
X98630000Y-110454429D01*
X98630000Y-110245571D01*
X98550073Y-110052612D01*
X98402388Y-109904927D01*
X98209429Y-109825000D01*
X98000571Y-109825000D01*
X97807612Y-109904927D01*
X97659927Y-110052612D01*
X97580000Y-110245571D01*
X94725000Y-110245571D01*
X94725000Y-110095571D01*
X94645073Y-109902612D01*
X94538032Y-109795571D01*
X102975000Y-109795571D01*
X102975000Y-110004429D01*
X103054927Y-110197388D01*
X103202612Y-110345073D01*
X103395571Y-110425000D01*
X103604429Y-110425000D01*
X103797388Y-110345073D01*
X103922461Y-110220000D01*
X109827471Y-110220000D01*
X109916724Y-110668707D01*
X110170897Y-111049103D01*
X110551293Y-111303276D01*
X110886739Y-111370000D01*
X111113261Y-111370000D01*
X111448707Y-111303276D01*
X111829103Y-111049103D01*
X112083276Y-110668707D01*
X112172529Y-110220000D01*
X112367471Y-110220000D01*
X112456724Y-110668707D01*
X112710897Y-111049103D01*
X113091293Y-111303276D01*
X113426739Y-111370000D01*
X113653261Y-111370000D01*
X113988707Y-111303276D01*
X114369103Y-111049103D01*
X114623276Y-110668707D01*
X114712529Y-110220000D01*
X114623276Y-109771293D01*
X114369103Y-109390897D01*
X113988707Y-109136724D01*
X113653261Y-109070000D01*
X113426739Y-109070000D01*
X113091293Y-109136724D01*
X112710897Y-109390897D01*
X112456724Y-109771293D01*
X112367471Y-110220000D01*
X112172529Y-110220000D01*
X112083276Y-109771293D01*
X111829103Y-109390897D01*
X111448707Y-109136724D01*
X111113261Y-109070000D01*
X110886739Y-109070000D01*
X110551293Y-109136724D01*
X110170897Y-109390897D01*
X109916724Y-109771293D01*
X109827471Y-110220000D01*
X103922461Y-110220000D01*
X103945073Y-110197388D01*
X104025000Y-110004429D01*
X104025000Y-109795571D01*
X103945073Y-109602612D01*
X103797388Y-109454927D01*
X103604429Y-109375000D01*
X103395571Y-109375000D01*
X103202612Y-109454927D01*
X103054927Y-109602612D01*
X102975000Y-109795571D01*
X94538032Y-109795571D01*
X94497388Y-109754927D01*
X94304429Y-109675000D01*
X94095571Y-109675000D01*
X93902612Y-109754927D01*
X93754927Y-109902612D01*
X93675000Y-110095571D01*
X91971536Y-110095571D01*
X92030000Y-109954429D01*
X92030000Y-109745571D01*
X91950073Y-109552612D01*
X91802388Y-109404927D01*
X91609429Y-109325000D01*
X91400571Y-109325000D01*
X91207612Y-109404927D01*
X91059927Y-109552612D01*
X90980000Y-109745571D01*
X81606090Y-109745571D01*
X81369103Y-109390897D01*
X80988707Y-109136724D01*
X80781816Y-109095571D01*
X94475000Y-109095571D01*
X94475000Y-109304429D01*
X94554927Y-109497388D01*
X94702612Y-109645073D01*
X94895571Y-109725000D01*
X95104429Y-109725000D01*
X95297388Y-109645073D01*
X95445073Y-109497388D01*
X95525000Y-109304429D01*
X95525000Y-109095571D01*
X95445073Y-108902612D01*
X95297388Y-108754927D01*
X95104429Y-108675000D01*
X94895571Y-108675000D01*
X94702612Y-108754927D01*
X94554927Y-108902612D01*
X94475000Y-109095571D01*
X80781816Y-109095571D01*
X80653261Y-109070000D01*
X80426739Y-109070000D01*
X80091293Y-109136724D01*
X79710897Y-109390897D01*
X79456724Y-109771293D01*
X79367471Y-110220000D01*
X79172529Y-110220000D01*
X79083276Y-109771293D01*
X78829103Y-109390897D01*
X78448707Y-109136724D01*
X78113261Y-109070000D01*
X77886739Y-109070000D01*
X77551293Y-109136724D01*
X77170897Y-109390897D01*
X76916724Y-109771293D01*
X76827471Y-110220000D01*
X76375000Y-110220000D01*
X76375000Y-107680000D01*
X76827471Y-107680000D01*
X76916724Y-108128707D01*
X77170897Y-108509103D01*
X77551293Y-108763276D01*
X77886739Y-108830000D01*
X78113261Y-108830000D01*
X78448707Y-108763276D01*
X78829103Y-108509103D01*
X79083276Y-108128707D01*
X79172529Y-107680000D01*
X79367471Y-107680000D01*
X79456724Y-108128707D01*
X79710897Y-108509103D01*
X80091293Y-108763276D01*
X80426739Y-108830000D01*
X80653261Y-108830000D01*
X80988707Y-108763276D01*
X81369103Y-108509103D01*
X81623276Y-108128707D01*
X81712529Y-107680000D01*
X109827471Y-107680000D01*
X109916724Y-108128707D01*
X110170897Y-108509103D01*
X110551293Y-108763276D01*
X110886739Y-108830000D01*
X111113261Y-108830000D01*
X111448707Y-108763276D01*
X111829103Y-108509103D01*
X112083276Y-108128707D01*
X112172529Y-107680000D01*
X112367471Y-107680000D01*
X112456724Y-108128707D01*
X112710897Y-108509103D01*
X113091293Y-108763276D01*
X113426739Y-108830000D01*
X113653261Y-108830000D01*
X113988707Y-108763276D01*
X114369103Y-108509103D01*
X114623276Y-108128707D01*
X114712529Y-107680000D01*
X114623276Y-107231293D01*
X114369103Y-106850897D01*
X113988707Y-106596724D01*
X113653261Y-106530000D01*
X113426739Y-106530000D01*
X113091293Y-106596724D01*
X112710897Y-106850897D01*
X112456724Y-107231293D01*
X112367471Y-107680000D01*
X112172529Y-107680000D01*
X112083276Y-107231293D01*
X111829103Y-106850897D01*
X111448707Y-106596724D01*
X111113261Y-106530000D01*
X110886739Y-106530000D01*
X110551293Y-106596724D01*
X110170897Y-106850897D01*
X109916724Y-107231293D01*
X109827471Y-107680000D01*
X81712529Y-107680000D01*
X81623276Y-107231293D01*
X81369103Y-106850897D01*
X80988707Y-106596724D01*
X80653261Y-106530000D01*
X80426739Y-106530000D01*
X80091293Y-106596724D01*
X79710897Y-106850897D01*
X79456724Y-107231293D01*
X79367471Y-107680000D01*
X79172529Y-107680000D01*
X79083276Y-107231293D01*
X78829103Y-106850897D01*
X78448707Y-106596724D01*
X78113261Y-106530000D01*
X77886739Y-106530000D01*
X77551293Y-106596724D01*
X77170897Y-106850897D01*
X76916724Y-107231293D01*
X76827471Y-107680000D01*
X76375000Y-107680000D01*
X76375000Y-105140000D01*
X76827471Y-105140000D01*
X76916724Y-105588707D01*
X77170897Y-105969103D01*
X77551293Y-106223276D01*
X77886739Y-106290000D01*
X78113261Y-106290000D01*
X78448707Y-106223276D01*
X78829103Y-105969103D01*
X79083276Y-105588707D01*
X79172529Y-105140000D01*
X79367471Y-105140000D01*
X79456724Y-105588707D01*
X79710897Y-105969103D01*
X80091293Y-106223276D01*
X80426739Y-106290000D01*
X80653261Y-106290000D01*
X80876621Y-106245571D01*
X93275000Y-106245571D01*
X93275000Y-106454429D01*
X93354927Y-106647388D01*
X93502612Y-106795073D01*
X93695571Y-106875000D01*
X93904429Y-106875000D01*
X94097388Y-106795073D01*
X94245073Y-106647388D01*
X94325000Y-106454429D01*
X94325000Y-106245571D01*
X94262868Y-106095571D01*
X101675000Y-106095571D01*
X101675000Y-106304429D01*
X101754927Y-106497388D01*
X101902612Y-106645073D01*
X102095571Y-106725000D01*
X102304429Y-106725000D01*
X102497388Y-106645073D01*
X102502041Y-106640420D01*
X102504927Y-106647388D01*
X102652612Y-106795073D01*
X102845571Y-106875000D01*
X103054429Y-106875000D01*
X103247388Y-106795073D01*
X103395073Y-106647388D01*
X103475000Y-106454429D01*
X103475000Y-106245571D01*
X103395073Y-106052612D01*
X103247388Y-105904927D01*
X103054429Y-105825000D01*
X102845571Y-105825000D01*
X102652612Y-105904927D01*
X102647959Y-105909580D01*
X102645073Y-105902612D01*
X102497388Y-105754927D01*
X102304429Y-105675000D01*
X102095571Y-105675000D01*
X101902612Y-105754927D01*
X101754927Y-105902612D01*
X101675000Y-106095571D01*
X94262868Y-106095571D01*
X94245073Y-106052612D01*
X94097388Y-105904927D01*
X93904429Y-105825000D01*
X93695571Y-105825000D01*
X93502612Y-105904927D01*
X93354927Y-106052612D01*
X93275000Y-106245571D01*
X80876621Y-106245571D01*
X80988707Y-106223276D01*
X81369103Y-105969103D01*
X81623276Y-105588707D01*
X81691529Y-105245571D01*
X98475000Y-105245571D01*
X98475000Y-105454429D01*
X98554927Y-105647388D01*
X98702612Y-105795073D01*
X98895571Y-105875000D01*
X99104429Y-105875000D01*
X99297388Y-105795073D01*
X99445073Y-105647388D01*
X99525000Y-105454429D01*
X99525000Y-105245571D01*
X99481271Y-105140000D01*
X109827471Y-105140000D01*
X109916724Y-105588707D01*
X110170897Y-105969103D01*
X110551293Y-106223276D01*
X110886739Y-106290000D01*
X111113261Y-106290000D01*
X111448707Y-106223276D01*
X111829103Y-105969103D01*
X112083276Y-105588707D01*
X112172529Y-105140000D01*
X112367471Y-105140000D01*
X112456724Y-105588707D01*
X112710897Y-105969103D01*
X113091293Y-106223276D01*
X113426739Y-106290000D01*
X113653261Y-106290000D01*
X113988707Y-106223276D01*
X114369103Y-105969103D01*
X114623276Y-105588707D01*
X114712529Y-105140000D01*
X114623276Y-104691293D01*
X114369103Y-104310897D01*
X113988707Y-104056724D01*
X113653261Y-103990000D01*
X113426739Y-103990000D01*
X113091293Y-104056724D01*
X112710897Y-104310897D01*
X112456724Y-104691293D01*
X112367471Y-105140000D01*
X112172529Y-105140000D01*
X112083276Y-104691293D01*
X111829103Y-104310897D01*
X111448707Y-104056724D01*
X111113261Y-103990000D01*
X110886739Y-103990000D01*
X110551293Y-104056724D01*
X110170897Y-104310897D01*
X109916724Y-104691293D01*
X109827471Y-105140000D01*
X99481271Y-105140000D01*
X99445073Y-105052612D01*
X99297388Y-104904927D01*
X99104429Y-104825000D01*
X98895571Y-104825000D01*
X98702612Y-104904927D01*
X98554927Y-105052612D01*
X98475000Y-105245571D01*
X81691529Y-105245571D01*
X81712529Y-105140000D01*
X81623276Y-104691293D01*
X81369103Y-104310897D01*
X80988707Y-104056724D01*
X80653261Y-103990000D01*
X80426739Y-103990000D01*
X80091293Y-104056724D01*
X79710897Y-104310897D01*
X79456724Y-104691293D01*
X79367471Y-105140000D01*
X79172529Y-105140000D01*
X79083276Y-104691293D01*
X78829103Y-104310897D01*
X78448707Y-104056724D01*
X78113261Y-103990000D01*
X77886739Y-103990000D01*
X77551293Y-104056724D01*
X77170897Y-104310897D01*
X76916724Y-104691293D01*
X76827471Y-105140000D01*
X76375000Y-105140000D01*
X76375000Y-102600000D01*
X76827471Y-102600000D01*
X76916724Y-103048707D01*
X77170897Y-103429103D01*
X77551293Y-103683276D01*
X77886739Y-103750000D01*
X78113261Y-103750000D01*
X78448707Y-103683276D01*
X78829103Y-103429103D01*
X79083276Y-103048707D01*
X79172529Y-102600000D01*
X79367471Y-102600000D01*
X79456724Y-103048707D01*
X79710897Y-103429103D01*
X80091293Y-103683276D01*
X80426739Y-103750000D01*
X80653261Y-103750000D01*
X80988707Y-103683276D01*
X81369103Y-103429103D01*
X81623276Y-103048707D01*
X81712529Y-102600000D01*
X109827471Y-102600000D01*
X109916724Y-103048707D01*
X110170897Y-103429103D01*
X110551293Y-103683276D01*
X110886739Y-103750000D01*
X111113261Y-103750000D01*
X111448707Y-103683276D01*
X111829103Y-103429103D01*
X112083276Y-103048707D01*
X112172529Y-102600000D01*
X112367471Y-102600000D01*
X112456724Y-103048707D01*
X112710897Y-103429103D01*
X113091293Y-103683276D01*
X113426739Y-103750000D01*
X113653261Y-103750000D01*
X113988707Y-103683276D01*
X114369103Y-103429103D01*
X114623276Y-103048707D01*
X114712529Y-102600000D01*
X114623276Y-102151293D01*
X114369103Y-101770897D01*
X113988707Y-101516724D01*
X113653261Y-101450000D01*
X113426739Y-101450000D01*
X113091293Y-101516724D01*
X112710897Y-101770897D01*
X112456724Y-102151293D01*
X112367471Y-102600000D01*
X112172529Y-102600000D01*
X112083276Y-102151293D01*
X111829103Y-101770897D01*
X111448707Y-101516724D01*
X111113261Y-101450000D01*
X110886739Y-101450000D01*
X110551293Y-101516724D01*
X110170897Y-101770897D01*
X109916724Y-102151293D01*
X109827471Y-102600000D01*
X81712529Y-102600000D01*
X81623276Y-102151293D01*
X81369103Y-101770897D01*
X80988707Y-101516724D01*
X80653261Y-101450000D01*
X80426739Y-101450000D01*
X80091293Y-101516724D01*
X79710897Y-101770897D01*
X79456724Y-102151293D01*
X79367471Y-102600000D01*
X79172529Y-102600000D01*
X79083276Y-102151293D01*
X78829103Y-101770897D01*
X78448707Y-101516724D01*
X78113261Y-101450000D01*
X77886739Y-101450000D01*
X77551293Y-101516724D01*
X77170897Y-101770897D01*
X76916724Y-102151293D01*
X76827471Y-102600000D01*
X76375000Y-102600000D01*
X76375000Y-101445571D01*
X100725000Y-101445571D01*
X100725000Y-101654429D01*
X100804927Y-101847388D01*
X100952612Y-101995073D01*
X101145571Y-102075000D01*
X101354429Y-102075000D01*
X101547388Y-101995073D01*
X101575000Y-101967461D01*
X101602612Y-101995073D01*
X101795571Y-102075000D01*
X102004429Y-102075000D01*
X102197388Y-101995073D01*
X102345073Y-101847388D01*
X102425000Y-101654429D01*
X102425000Y-101445571D01*
X102345073Y-101252612D01*
X102197388Y-101104927D01*
X102004429Y-101025000D01*
X101795571Y-101025000D01*
X101602612Y-101104927D01*
X101575000Y-101132539D01*
X101547388Y-101104927D01*
X101354429Y-101025000D01*
X101145571Y-101025000D01*
X100952612Y-101104927D01*
X100804927Y-101252612D01*
X100725000Y-101445571D01*
X76375000Y-101445571D01*
X76375000Y-100060000D01*
X76827471Y-100060000D01*
X76916724Y-100508707D01*
X77170897Y-100889103D01*
X77551293Y-101143276D01*
X77886739Y-101210000D01*
X78113261Y-101210000D01*
X78448707Y-101143276D01*
X78829103Y-100889103D01*
X79083276Y-100508707D01*
X79172529Y-100060000D01*
X79367471Y-100060000D01*
X79456724Y-100508707D01*
X79710897Y-100889103D01*
X80091293Y-101143276D01*
X80426739Y-101210000D01*
X80653261Y-101210000D01*
X80988707Y-101143276D01*
X81369103Y-100889103D01*
X81565235Y-100595571D01*
X92875000Y-100595571D01*
X92875000Y-100804429D01*
X92954927Y-100997388D01*
X93102612Y-101145073D01*
X93295571Y-101225000D01*
X93504429Y-101225000D01*
X93697388Y-101145073D01*
X93800000Y-101042461D01*
X93902612Y-101145073D01*
X94095571Y-101225000D01*
X94304429Y-101225000D01*
X94497388Y-101145073D01*
X94645073Y-100997388D01*
X94725000Y-100804429D01*
X94725000Y-100595571D01*
X94645073Y-100402612D01*
X94497388Y-100254927D01*
X94304429Y-100175000D01*
X94095571Y-100175000D01*
X93902612Y-100254927D01*
X93800000Y-100357539D01*
X93697388Y-100254927D01*
X93504429Y-100175000D01*
X93295571Y-100175000D01*
X93102612Y-100254927D01*
X92954927Y-100402612D01*
X92875000Y-100595571D01*
X81565235Y-100595571D01*
X81623276Y-100508707D01*
X81692486Y-100160761D01*
X99500000Y-100160761D01*
X99500000Y-100439239D01*
X99606568Y-100696518D01*
X99803482Y-100893432D01*
X100060761Y-101000000D01*
X100339239Y-101000000D01*
X100596518Y-100893432D01*
X100793432Y-100696518D01*
X100876666Y-100495571D01*
X102875000Y-100495571D01*
X102875000Y-100704429D01*
X102954927Y-100897388D01*
X103102612Y-101045073D01*
X103295571Y-101125000D01*
X103504429Y-101125000D01*
X103697388Y-101045073D01*
X103845073Y-100897388D01*
X103925000Y-100704429D01*
X103925000Y-100495571D01*
X103845073Y-100302612D01*
X103697388Y-100154927D01*
X103504429Y-100075000D01*
X103295571Y-100075000D01*
X103102612Y-100154927D01*
X102954927Y-100302612D01*
X102875000Y-100495571D01*
X100876666Y-100495571D01*
X100900000Y-100439239D01*
X100900000Y-100160761D01*
X100858264Y-100060000D01*
X109827471Y-100060000D01*
X109916724Y-100508707D01*
X110170897Y-100889103D01*
X110551293Y-101143276D01*
X110886739Y-101210000D01*
X111113261Y-101210000D01*
X111448707Y-101143276D01*
X111829103Y-100889103D01*
X112083276Y-100508707D01*
X112172529Y-100060000D01*
X112367471Y-100060000D01*
X112456724Y-100508707D01*
X112710897Y-100889103D01*
X113091293Y-101143276D01*
X113426739Y-101210000D01*
X113653261Y-101210000D01*
X113988707Y-101143276D01*
X114369103Y-100889103D01*
X114623276Y-100508707D01*
X114712529Y-100060000D01*
X114623276Y-99611293D01*
X114369103Y-99230897D01*
X113988707Y-98976724D01*
X113653261Y-98910000D01*
X113426739Y-98910000D01*
X113091293Y-98976724D01*
X112710897Y-99230897D01*
X112456724Y-99611293D01*
X112367471Y-100060000D01*
X112172529Y-100060000D01*
X112083276Y-99611293D01*
X111829103Y-99230897D01*
X111448707Y-98976724D01*
X111113261Y-98910000D01*
X110886739Y-98910000D01*
X110551293Y-98976724D01*
X110170897Y-99230897D01*
X109916724Y-99611293D01*
X109827471Y-100060000D01*
X100858264Y-100060000D01*
X100793432Y-99903482D01*
X100596518Y-99706568D01*
X100339239Y-99600000D01*
X100060761Y-99600000D01*
X99803482Y-99706568D01*
X99606568Y-99903482D01*
X99500000Y-100160761D01*
X81692486Y-100160761D01*
X81712529Y-100060000D01*
X81623276Y-99611293D01*
X81369103Y-99230897D01*
X80988707Y-98976724D01*
X80653261Y-98910000D01*
X80426739Y-98910000D01*
X80091293Y-98976724D01*
X79710897Y-99230897D01*
X79456724Y-99611293D01*
X79367471Y-100060000D01*
X79172529Y-100060000D01*
X79083276Y-99611293D01*
X78829103Y-99230897D01*
X78448707Y-98976724D01*
X78113261Y-98910000D01*
X77886739Y-98910000D01*
X77551293Y-98976724D01*
X77170897Y-99230897D01*
X76916724Y-99611293D01*
X76827471Y-100060000D01*
X76375000Y-100060000D01*
X76375000Y-97520000D01*
X76827471Y-97520000D01*
X76916724Y-97968707D01*
X77170897Y-98349103D01*
X77551293Y-98603276D01*
X77886739Y-98670000D01*
X78113261Y-98670000D01*
X78448707Y-98603276D01*
X78829103Y-98349103D01*
X79083276Y-97968707D01*
X79172529Y-97520000D01*
X79367471Y-97520000D01*
X79456724Y-97968707D01*
X79710897Y-98349103D01*
X80091293Y-98603276D01*
X80426739Y-98670000D01*
X80653261Y-98670000D01*
X80988707Y-98603276D01*
X81369103Y-98349103D01*
X81623276Y-97968707D01*
X81712529Y-97520000D01*
X81623276Y-97071293D01*
X81369103Y-96690897D01*
X81076778Y-96495571D01*
X92075000Y-96495571D01*
X92075000Y-96704429D01*
X92154927Y-96897388D01*
X92257539Y-97000000D01*
X92154927Y-97102612D01*
X92075000Y-97295571D01*
X92075000Y-97504429D01*
X92154927Y-97697388D01*
X92302612Y-97845073D01*
X92495571Y-97925000D01*
X92704429Y-97925000D01*
X92897388Y-97845073D01*
X93000000Y-97742461D01*
X93102612Y-97845073D01*
X93295571Y-97925000D01*
X93504429Y-97925000D01*
X93697388Y-97845073D01*
X93800000Y-97742461D01*
X93902612Y-97845073D01*
X94095571Y-97925000D01*
X94304429Y-97925000D01*
X94497388Y-97845073D01*
X94600000Y-97742461D01*
X94658016Y-97800477D01*
X94554932Y-97903560D01*
X94475005Y-98096519D01*
X94475005Y-98305377D01*
X94554932Y-98498336D01*
X94702617Y-98646021D01*
X94895576Y-98725948D01*
X95104434Y-98725948D01*
X95297393Y-98646021D01*
X95445078Y-98498336D01*
X95525005Y-98305377D01*
X95525005Y-98096519D01*
X95524613Y-98095571D01*
X97675000Y-98095571D01*
X97675000Y-98304429D01*
X97754927Y-98497388D01*
X97902612Y-98645073D01*
X98095571Y-98725000D01*
X98304429Y-98725000D01*
X98497388Y-98645073D01*
X98645073Y-98497388D01*
X98725000Y-98304429D01*
X98725000Y-98095571D01*
X98645073Y-97902612D01*
X98497388Y-97754927D01*
X98304429Y-97675000D01*
X98095571Y-97675000D01*
X97902612Y-97754927D01*
X97754927Y-97902612D01*
X97675000Y-98095571D01*
X95524613Y-98095571D01*
X95445078Y-97903560D01*
X95341990Y-97800472D01*
X95445073Y-97697388D01*
X95525000Y-97504429D01*
X95525000Y-97295571D01*
X96075000Y-97295571D01*
X96075000Y-97504429D01*
X96154927Y-97697388D01*
X96302612Y-97845073D01*
X96495571Y-97925000D01*
X96704429Y-97925000D01*
X96897388Y-97845073D01*
X97045073Y-97697388D01*
X97125000Y-97504429D01*
X97125000Y-97295571D01*
X98990000Y-97295571D01*
X98990000Y-97504429D01*
X99069927Y-97697388D01*
X99217612Y-97845073D01*
X99410571Y-97925000D01*
X99619429Y-97925000D01*
X99812388Y-97845073D01*
X99960073Y-97697388D01*
X100033550Y-97520000D01*
X109827471Y-97520000D01*
X109916724Y-97968707D01*
X110170897Y-98349103D01*
X110551293Y-98603276D01*
X110886739Y-98670000D01*
X111113261Y-98670000D01*
X111448707Y-98603276D01*
X111829103Y-98349103D01*
X112083276Y-97968707D01*
X112172529Y-97520000D01*
X112367471Y-97520000D01*
X112456724Y-97968707D01*
X112710897Y-98349103D01*
X113091293Y-98603276D01*
X113426739Y-98670000D01*
X113653261Y-98670000D01*
X113988707Y-98603276D01*
X114369103Y-98349103D01*
X114623276Y-97968707D01*
X114712529Y-97520000D01*
X114623276Y-97071293D01*
X114369103Y-96690897D01*
X113988707Y-96436724D01*
X113653261Y-96370000D01*
X113426739Y-96370000D01*
X113091293Y-96436724D01*
X112710897Y-96690897D01*
X112456724Y-97071293D01*
X112367471Y-97520000D01*
X112172529Y-97520000D01*
X112083276Y-97071293D01*
X111829103Y-96690897D01*
X111448707Y-96436724D01*
X111113261Y-96370000D01*
X110886739Y-96370000D01*
X110551293Y-96436724D01*
X110170897Y-96690897D01*
X109916724Y-97071293D01*
X109827471Y-97520000D01*
X100033550Y-97520000D01*
X100040000Y-97504429D01*
X100040000Y-97295571D01*
X99960073Y-97102612D01*
X99812388Y-96954927D01*
X99619429Y-96875000D01*
X99410571Y-96875000D01*
X99217612Y-96954927D01*
X99069927Y-97102612D01*
X98990000Y-97295571D01*
X97125000Y-97295571D01*
X97045073Y-97102612D01*
X96897388Y-96954927D01*
X96704429Y-96875000D01*
X96495571Y-96875000D01*
X96302612Y-96954927D01*
X96154927Y-97102612D01*
X96075000Y-97295571D01*
X95525000Y-97295571D01*
X95445073Y-97102612D01*
X95341996Y-96999535D01*
X95444131Y-96897399D01*
X95524058Y-96704440D01*
X95524058Y-96495582D01*
X95444131Y-96302623D01*
X95296446Y-96154938D01*
X95103487Y-96075011D01*
X94894629Y-96075011D01*
X94701670Y-96154938D01*
X94553985Y-96302623D01*
X94474058Y-96495582D01*
X94474058Y-96704440D01*
X94553985Y-96897399D01*
X94657063Y-97000477D01*
X94600000Y-97057539D01*
X94497388Y-96954927D01*
X94304429Y-96875000D01*
X94095571Y-96875000D01*
X93902612Y-96954927D01*
X93800000Y-97057539D01*
X93742461Y-97000000D01*
X93845073Y-96897388D01*
X93925000Y-96704429D01*
X93925000Y-96495571D01*
X93845073Y-96302612D01*
X93697388Y-96154927D01*
X93504429Y-96075000D01*
X93295571Y-96075000D01*
X93102612Y-96154927D01*
X93000000Y-96257539D01*
X92897388Y-96154927D01*
X92704429Y-96075000D01*
X92495571Y-96075000D01*
X92302612Y-96154927D01*
X92154927Y-96302612D01*
X92075000Y-96495571D01*
X81076778Y-96495571D01*
X80988707Y-96436724D01*
X80653261Y-96370000D01*
X80426739Y-96370000D01*
X80091293Y-96436724D01*
X79710897Y-96690897D01*
X79456724Y-97071293D01*
X79367471Y-97520000D01*
X79172529Y-97520000D01*
X79083276Y-97071293D01*
X78829103Y-96690897D01*
X78448707Y-96436724D01*
X78113261Y-96370000D01*
X77886739Y-96370000D01*
X77551293Y-96436724D01*
X77170897Y-96690897D01*
X76916724Y-97071293D01*
X76827471Y-97520000D01*
X76375000Y-97520000D01*
X76375000Y-94980000D01*
X76827471Y-94980000D01*
X76916724Y-95428707D01*
X77170897Y-95809103D01*
X77551293Y-96063276D01*
X77886739Y-96130000D01*
X78113261Y-96130000D01*
X78448707Y-96063276D01*
X78829103Y-95809103D01*
X79083276Y-95428707D01*
X79172529Y-94980000D01*
X79367471Y-94980000D01*
X79456724Y-95428707D01*
X79710897Y-95809103D01*
X80091293Y-96063276D01*
X80426739Y-96130000D01*
X80653261Y-96130000D01*
X80988707Y-96063276D01*
X81369103Y-95809103D01*
X81440987Y-95701520D01*
X93679931Y-95701520D01*
X93679931Y-95910378D01*
X93759858Y-96103337D01*
X93907543Y-96251022D01*
X94100502Y-96330949D01*
X94309360Y-96330949D01*
X94502319Y-96251022D01*
X94650004Y-96103337D01*
X94729931Y-95910378D01*
X94729931Y-95701520D01*
X94650004Y-95508561D01*
X94502319Y-95360876D01*
X94309360Y-95280949D01*
X94100502Y-95280949D01*
X93907543Y-95360876D01*
X93759858Y-95508561D01*
X93679931Y-95701520D01*
X81440987Y-95701520D01*
X81623276Y-95428707D01*
X81712529Y-94980000D01*
X81623276Y-94531293D01*
X81369103Y-94150897D01*
X80988707Y-93896724D01*
X80653261Y-93830000D01*
X80426739Y-93830000D01*
X80091293Y-93896724D01*
X79710897Y-94150897D01*
X79456724Y-94531293D01*
X79367471Y-94980000D01*
X79172529Y-94980000D01*
X79083276Y-94531293D01*
X78829103Y-94150897D01*
X78448707Y-93896724D01*
X78113261Y-93830000D01*
X77886739Y-93830000D01*
X77551293Y-93896724D01*
X77170897Y-94150897D01*
X76916724Y-94531293D01*
X76827471Y-94980000D01*
X76375000Y-94980000D01*
X76375000Y-92440000D01*
X76827471Y-92440000D01*
X76916724Y-92888707D01*
X77170897Y-93269103D01*
X77551293Y-93523276D01*
X77886739Y-93590000D01*
X78113261Y-93590000D01*
X78448707Y-93523276D01*
X78829103Y-93269103D01*
X79083276Y-92888707D01*
X79172529Y-92440000D01*
X79367471Y-92440000D01*
X79456724Y-92888707D01*
X79710897Y-93269103D01*
X80091293Y-93523276D01*
X80426739Y-93590000D01*
X80653261Y-93590000D01*
X80988707Y-93523276D01*
X81329490Y-93295571D01*
X92075000Y-93295571D01*
X92075000Y-93504429D01*
X92154927Y-93697388D01*
X92302612Y-93845073D01*
X92495571Y-93925000D01*
X92704429Y-93925000D01*
X92897388Y-93845073D01*
X93000000Y-93742461D01*
X93057539Y-93800000D01*
X92954927Y-93902612D01*
X92875000Y-94095571D01*
X92875000Y-94304429D01*
X92954927Y-94497388D01*
X93102612Y-94645073D01*
X93295571Y-94725000D01*
X93504429Y-94725000D01*
X93697388Y-94645073D01*
X93800000Y-94542461D01*
X93902612Y-94645073D01*
X94095571Y-94725000D01*
X94304429Y-94725000D01*
X94497388Y-94645073D01*
X94600000Y-94542461D01*
X94702612Y-94645073D01*
X94895571Y-94725000D01*
X95104429Y-94725000D01*
X95297388Y-94645073D01*
X95400000Y-94542461D01*
X95457539Y-94600000D01*
X95354927Y-94702612D01*
X95275000Y-94895571D01*
X95275000Y-95104429D01*
X95354927Y-95297388D01*
X95458015Y-95400476D01*
X95354931Y-95503560D01*
X95275004Y-95696519D01*
X95275004Y-95905377D01*
X95354931Y-96098336D01*
X95502616Y-96246021D01*
X95695575Y-96325948D01*
X95904433Y-96325948D01*
X96097392Y-96246021D01*
X96245077Y-96098336D01*
X96325004Y-95905377D01*
X96325004Y-95696519D01*
X96324612Y-95695571D01*
X96875000Y-95695571D01*
X96875000Y-95904429D01*
X96954927Y-96097388D01*
X97102612Y-96245073D01*
X97295571Y-96325000D01*
X97504429Y-96325000D01*
X97697388Y-96245073D01*
X97845073Y-96097388D01*
X97925000Y-95904429D01*
X97925000Y-95695571D01*
X97845073Y-95502612D01*
X97697388Y-95354927D01*
X97504429Y-95275000D01*
X97295571Y-95275000D01*
X97102612Y-95354927D01*
X96954927Y-95502612D01*
X96875000Y-95695571D01*
X96324612Y-95695571D01*
X96245077Y-95503560D01*
X96141989Y-95400472D01*
X96200481Y-95341981D01*
X96303569Y-95445069D01*
X96496528Y-95524996D01*
X96705386Y-95524996D01*
X96898345Y-95445069D01*
X97046030Y-95297384D01*
X97125957Y-95104425D01*
X97125957Y-95040870D01*
X101700000Y-95040870D01*
X101700000Y-95359130D01*
X101821793Y-95653164D01*
X102046836Y-95878207D01*
X102340870Y-96000000D01*
X102659130Y-96000000D01*
X102953164Y-95878207D01*
X103178207Y-95653164D01*
X103300000Y-95359130D01*
X103300000Y-95040870D01*
X103274787Y-94980000D01*
X109827471Y-94980000D01*
X109916724Y-95428707D01*
X110170897Y-95809103D01*
X110551293Y-96063276D01*
X110886739Y-96130000D01*
X111113261Y-96130000D01*
X111448707Y-96063276D01*
X111829103Y-95809103D01*
X112083276Y-95428707D01*
X112172529Y-94980000D01*
X112367471Y-94980000D01*
X112456724Y-95428707D01*
X112710897Y-95809103D01*
X113091293Y-96063276D01*
X113426739Y-96130000D01*
X113653261Y-96130000D01*
X113988707Y-96063276D01*
X114369103Y-95809103D01*
X114623276Y-95428707D01*
X114712529Y-94980000D01*
X114623276Y-94531293D01*
X114369103Y-94150897D01*
X113988707Y-93896724D01*
X113653261Y-93830000D01*
X113426739Y-93830000D01*
X113091293Y-93896724D01*
X112710897Y-94150897D01*
X112456724Y-94531293D01*
X112367471Y-94980000D01*
X112172529Y-94980000D01*
X112083276Y-94531293D01*
X111829103Y-94150897D01*
X111448707Y-93896724D01*
X111113261Y-93830000D01*
X110886739Y-93830000D01*
X110551293Y-93896724D01*
X110170897Y-94150897D01*
X109916724Y-94531293D01*
X109827471Y-94980000D01*
X103274787Y-94980000D01*
X103178207Y-94746836D01*
X102953164Y-94521793D01*
X102659130Y-94400000D01*
X102340870Y-94400000D01*
X102046836Y-94521793D01*
X101821793Y-94746836D01*
X101700000Y-95040870D01*
X97125957Y-95040870D01*
X97125957Y-94895567D01*
X97046030Y-94702608D01*
X96898345Y-94554923D01*
X96705386Y-94474996D01*
X96496528Y-94474996D01*
X96303569Y-94554923D01*
X96200477Y-94658016D01*
X96142461Y-94600000D01*
X96245073Y-94497388D01*
X96325000Y-94304429D01*
X96325000Y-94095571D01*
X96875000Y-94095571D01*
X96875000Y-94304429D01*
X96954927Y-94497388D01*
X97102612Y-94645073D01*
X97295571Y-94725000D01*
X97504429Y-94725000D01*
X97697388Y-94645073D01*
X97845073Y-94497388D01*
X97925000Y-94304429D01*
X97925000Y-94095571D01*
X97845073Y-93902612D01*
X97697388Y-93754927D01*
X97504429Y-93675000D01*
X97295571Y-93675000D01*
X97102612Y-93754927D01*
X96954927Y-93902612D01*
X96875000Y-94095571D01*
X96325000Y-94095571D01*
X96245073Y-93902612D01*
X96097388Y-93754927D01*
X95904429Y-93675000D01*
X95695571Y-93675000D01*
X95502612Y-93754927D01*
X95400000Y-93857539D01*
X95297388Y-93754927D01*
X95104429Y-93675000D01*
X94895571Y-93675000D01*
X94702612Y-93754927D01*
X94600000Y-93857539D01*
X94497388Y-93754927D01*
X94304429Y-93675000D01*
X94095571Y-93675000D01*
X93902612Y-93754927D01*
X93800000Y-93857539D01*
X93742461Y-93800000D01*
X93845073Y-93697388D01*
X93925000Y-93504429D01*
X93925000Y-93295571D01*
X96075000Y-93295571D01*
X96075000Y-93504429D01*
X96154927Y-93697388D01*
X96302612Y-93845073D01*
X96495571Y-93925000D01*
X96704429Y-93925000D01*
X96897388Y-93845073D01*
X97045073Y-93697388D01*
X97125000Y-93504429D01*
X97125000Y-93295571D01*
X97045073Y-93102612D01*
X96897388Y-92954927D01*
X96704429Y-92875000D01*
X96495571Y-92875000D01*
X96302612Y-92954927D01*
X96154927Y-93102612D01*
X96075000Y-93295571D01*
X93925000Y-93295571D01*
X93845073Y-93102612D01*
X93697388Y-92954927D01*
X93504429Y-92875000D01*
X93295571Y-92875000D01*
X93102612Y-92954927D01*
X93000000Y-93057539D01*
X92897388Y-92954927D01*
X92704429Y-92875000D01*
X92495571Y-92875000D01*
X92302612Y-92954927D01*
X92154927Y-93102612D01*
X92075000Y-93295571D01*
X81329490Y-93295571D01*
X81369103Y-93269103D01*
X81623276Y-92888707D01*
X81712529Y-92440000D01*
X81644019Y-92095571D01*
X88075000Y-92095571D01*
X88075000Y-92304429D01*
X88154927Y-92497388D01*
X88302612Y-92645073D01*
X88495571Y-92725000D01*
X88704429Y-92725000D01*
X88897388Y-92645073D01*
X89045073Y-92497388D01*
X89045825Y-92495571D01*
X93675000Y-92495571D01*
X93675000Y-92704429D01*
X93754927Y-92897388D01*
X93902612Y-93045073D01*
X94095571Y-93125000D01*
X94304429Y-93125000D01*
X94497388Y-93045073D01*
X94600000Y-92942461D01*
X94702612Y-93045073D01*
X94895571Y-93125000D01*
X95104429Y-93125000D01*
X95297388Y-93045073D01*
X95400000Y-92942461D01*
X95502612Y-93045073D01*
X95695571Y-93125000D01*
X95904429Y-93125000D01*
X96097388Y-93045073D01*
X96245073Y-92897388D01*
X96325000Y-92704429D01*
X96325000Y-92495571D01*
X97675000Y-92495571D01*
X97675000Y-92704429D01*
X97754927Y-92897388D01*
X97902612Y-93045073D01*
X98095571Y-93125000D01*
X98304429Y-93125000D01*
X98497388Y-93045073D01*
X98645073Y-92897388D01*
X98725000Y-92704429D01*
X98725000Y-92495571D01*
X98704998Y-92447282D01*
X99400000Y-92447282D01*
X99400000Y-92685976D01*
X99491344Y-92906502D01*
X99660127Y-93075285D01*
X99880653Y-93166629D01*
X100119347Y-93166629D01*
X100339873Y-93075285D01*
X100508656Y-92906502D01*
X100600000Y-92685976D01*
X100600000Y-92447282D01*
X100596984Y-92440000D01*
X109827471Y-92440000D01*
X109916724Y-92888707D01*
X110170897Y-93269103D01*
X110551293Y-93523276D01*
X110886739Y-93590000D01*
X111113261Y-93590000D01*
X111448707Y-93523276D01*
X111829103Y-93269103D01*
X112083276Y-92888707D01*
X112172529Y-92440000D01*
X112367471Y-92440000D01*
X112456724Y-92888707D01*
X112710897Y-93269103D01*
X113091293Y-93523276D01*
X113426739Y-93590000D01*
X113653261Y-93590000D01*
X113988707Y-93523276D01*
X114369103Y-93269103D01*
X114623276Y-92888707D01*
X114712529Y-92440000D01*
X114623276Y-91991293D01*
X114369103Y-91610897D01*
X113988707Y-91356724D01*
X113653261Y-91290000D01*
X113426739Y-91290000D01*
X113091293Y-91356724D01*
X112710897Y-91610897D01*
X112456724Y-91991293D01*
X112367471Y-92440000D01*
X112172529Y-92440000D01*
X112083276Y-91991293D01*
X111829103Y-91610897D01*
X111448707Y-91356724D01*
X111113261Y-91290000D01*
X110886739Y-91290000D01*
X110551293Y-91356724D01*
X110170897Y-91610897D01*
X109916724Y-91991293D01*
X109827471Y-92440000D01*
X100596984Y-92440000D01*
X100508656Y-92226756D01*
X100339873Y-92057973D01*
X100119347Y-91966629D01*
X99880653Y-91966629D01*
X99660127Y-92057973D01*
X99491344Y-92226756D01*
X99400000Y-92447282D01*
X98704998Y-92447282D01*
X98645073Y-92302612D01*
X98497388Y-92154927D01*
X98304429Y-92075000D01*
X98095571Y-92075000D01*
X97902612Y-92154927D01*
X97754927Y-92302612D01*
X97675000Y-92495571D01*
X96325000Y-92495571D01*
X96245073Y-92302612D01*
X96097388Y-92154927D01*
X95904429Y-92075000D01*
X95695571Y-92075000D01*
X95502612Y-92154927D01*
X95400000Y-92257539D01*
X95297388Y-92154927D01*
X95104429Y-92075000D01*
X94895571Y-92075000D01*
X94702612Y-92154927D01*
X94600000Y-92257539D01*
X94497388Y-92154927D01*
X94304429Y-92075000D01*
X94095571Y-92075000D01*
X93902612Y-92154927D01*
X93754927Y-92302612D01*
X93675000Y-92495571D01*
X89045825Y-92495571D01*
X89125000Y-92304429D01*
X89125000Y-92095571D01*
X89045073Y-91902612D01*
X88897388Y-91754927D01*
X88704429Y-91675000D01*
X88495571Y-91675000D01*
X88302612Y-91754927D01*
X88154927Y-91902612D01*
X88075000Y-92095571D01*
X81644019Y-92095571D01*
X81623276Y-91991293D01*
X81369103Y-91610897D01*
X80988707Y-91356724D01*
X80653261Y-91290000D01*
X80426739Y-91290000D01*
X80091293Y-91356724D01*
X79710897Y-91610897D01*
X79456724Y-91991293D01*
X79367471Y-92440000D01*
X79172529Y-92440000D01*
X79083276Y-91991293D01*
X78829103Y-91610897D01*
X78448707Y-91356724D01*
X78113261Y-91290000D01*
X77886739Y-91290000D01*
X77551293Y-91356724D01*
X77170897Y-91610897D01*
X76916724Y-91991293D01*
X76827471Y-92440000D01*
X76375000Y-92440000D01*
X76375000Y-89900000D01*
X76827471Y-89900000D01*
X76916724Y-90348707D01*
X77170897Y-90729103D01*
X77551293Y-90983276D01*
X77886739Y-91050000D01*
X78113261Y-91050000D01*
X78448707Y-90983276D01*
X78829103Y-90729103D01*
X79083276Y-90348707D01*
X79172529Y-89900000D01*
X79367471Y-89900000D01*
X79456724Y-90348707D01*
X79710897Y-90729103D01*
X80091293Y-90983276D01*
X80426739Y-91050000D01*
X80653261Y-91050000D01*
X80988707Y-90983276D01*
X81369103Y-90729103D01*
X81623276Y-90348707D01*
X81712529Y-89900000D01*
X81623276Y-89451293D01*
X81609848Y-89431196D01*
X87950000Y-89431196D01*
X87950000Y-89868804D01*
X88117465Y-90273100D01*
X88426900Y-90582535D01*
X88831196Y-90750000D01*
X89268804Y-90750000D01*
X89400207Y-90695571D01*
X92475000Y-90695571D01*
X92475000Y-90904429D01*
X92554927Y-91097388D01*
X92702612Y-91245073D01*
X92895571Y-91325000D01*
X93104429Y-91325000D01*
X93297388Y-91245073D01*
X93445073Y-91097388D01*
X93525000Y-90904429D01*
X93525000Y-90695571D01*
X93500827Y-90637211D01*
X95675000Y-90637211D01*
X95675000Y-90846069D01*
X95754927Y-91039028D01*
X95902612Y-91186713D01*
X96095571Y-91266640D01*
X96304429Y-91266640D01*
X96497388Y-91186713D01*
X96645073Y-91039028D01*
X96725000Y-90846069D01*
X96725000Y-90695571D01*
X97275000Y-90695571D01*
X97275000Y-90904429D01*
X97354927Y-91097388D01*
X97502612Y-91245073D01*
X97695571Y-91325000D01*
X97904429Y-91325000D01*
X98097388Y-91245073D01*
X98245073Y-91097388D01*
X98325000Y-90904429D01*
X98325000Y-90695571D01*
X98245073Y-90502612D01*
X98097388Y-90354927D01*
X97904429Y-90275000D01*
X97695571Y-90275000D01*
X97502612Y-90354927D01*
X97354927Y-90502612D01*
X97275000Y-90695571D01*
X96725000Y-90695571D01*
X96725000Y-90637211D01*
X96645073Y-90444252D01*
X96497388Y-90296567D01*
X96304429Y-90216640D01*
X96095571Y-90216640D01*
X95902612Y-90296567D01*
X95754927Y-90444252D01*
X95675000Y-90637211D01*
X93500827Y-90637211D01*
X93445073Y-90502612D01*
X93297388Y-90354927D01*
X93104429Y-90275000D01*
X92895571Y-90275000D01*
X92702612Y-90354927D01*
X92554927Y-90502612D01*
X92475000Y-90695571D01*
X89400207Y-90695571D01*
X89673100Y-90582535D01*
X89982535Y-90273100D01*
X90138912Y-89895571D01*
X96575000Y-89895571D01*
X96575000Y-90104429D01*
X96654927Y-90297388D01*
X96802612Y-90445073D01*
X96995571Y-90525000D01*
X97204429Y-90525000D01*
X97397388Y-90445073D01*
X97545073Y-90297388D01*
X97625000Y-90104429D01*
X97625000Y-89900000D01*
X109827471Y-89900000D01*
X109916724Y-90348707D01*
X110170897Y-90729103D01*
X110551293Y-90983276D01*
X110886739Y-91050000D01*
X111113261Y-91050000D01*
X111448707Y-90983276D01*
X111829103Y-90729103D01*
X112083276Y-90348707D01*
X112172529Y-89900000D01*
X112367471Y-89900000D01*
X112456724Y-90348707D01*
X112710897Y-90729103D01*
X113091293Y-90983276D01*
X113426739Y-91050000D01*
X113653261Y-91050000D01*
X113988707Y-90983276D01*
X114369103Y-90729103D01*
X114623276Y-90348707D01*
X114712529Y-89900000D01*
X114623276Y-89451293D01*
X114369103Y-89070897D01*
X113988707Y-88816724D01*
X113653261Y-88750000D01*
X113426739Y-88750000D01*
X113091293Y-88816724D01*
X112710897Y-89070897D01*
X112456724Y-89451293D01*
X112367471Y-89900000D01*
X112172529Y-89900000D01*
X112083276Y-89451293D01*
X111829103Y-89070897D01*
X111448707Y-88816724D01*
X111113261Y-88750000D01*
X110886739Y-88750000D01*
X110551293Y-88816724D01*
X110170897Y-89070897D01*
X109916724Y-89451293D01*
X109827471Y-89900000D01*
X97625000Y-89900000D01*
X97625000Y-89895571D01*
X97545073Y-89702612D01*
X97397388Y-89554927D01*
X97204429Y-89475000D01*
X96995571Y-89475000D01*
X96802612Y-89554927D01*
X96654927Y-89702612D01*
X96575000Y-89895571D01*
X90138912Y-89895571D01*
X90150000Y-89868804D01*
X90150000Y-89431196D01*
X89982535Y-89026900D01*
X89736288Y-88780653D01*
X104700000Y-88780653D01*
X104700000Y-89019347D01*
X104791344Y-89239873D01*
X104960127Y-89408656D01*
X105180653Y-89500000D01*
X105419347Y-89500000D01*
X105639873Y-89408656D01*
X105700003Y-89348526D01*
X105760133Y-89408656D01*
X105980659Y-89500000D01*
X106219353Y-89500000D01*
X106439879Y-89408656D01*
X106450003Y-89398532D01*
X106460127Y-89408656D01*
X106680653Y-89500000D01*
X106919347Y-89500000D01*
X107139873Y-89408656D01*
X107308656Y-89239873D01*
X107400000Y-89019347D01*
X107400000Y-88780653D01*
X107308656Y-88560127D01*
X107139873Y-88391344D01*
X106919347Y-88300000D01*
X106680653Y-88300000D01*
X106460127Y-88391344D01*
X106450003Y-88401468D01*
X106439879Y-88391344D01*
X106219353Y-88300000D01*
X105980659Y-88300000D01*
X105760133Y-88391344D01*
X105700003Y-88451474D01*
X105639873Y-88391344D01*
X105419347Y-88300000D01*
X105180653Y-88300000D01*
X104960127Y-88391344D01*
X104791344Y-88560127D01*
X104700000Y-88780653D01*
X89736288Y-88780653D01*
X89673100Y-88717465D01*
X89268804Y-88550000D01*
X88831196Y-88550000D01*
X88426900Y-88717465D01*
X88117465Y-89026900D01*
X87950000Y-89431196D01*
X81609848Y-89431196D01*
X81369103Y-89070897D01*
X80988707Y-88816724D01*
X80653261Y-88750000D01*
X80426739Y-88750000D01*
X80091293Y-88816724D01*
X79710897Y-89070897D01*
X79456724Y-89451293D01*
X79367471Y-89900000D01*
X79172529Y-89900000D01*
X79083276Y-89451293D01*
X78829103Y-89070897D01*
X78448707Y-88816724D01*
X78113261Y-88750000D01*
X77886739Y-88750000D01*
X77551293Y-88816724D01*
X77170897Y-89070897D01*
X76916724Y-89451293D01*
X76827471Y-89900000D01*
X76375000Y-89900000D01*
X76375000Y-87360000D01*
X76827471Y-87360000D01*
X76916724Y-87808707D01*
X77170897Y-88189103D01*
X77551293Y-88443276D01*
X77886739Y-88510000D01*
X78113261Y-88510000D01*
X78448707Y-88443276D01*
X78829103Y-88189103D01*
X79083276Y-87808707D01*
X79172529Y-87360000D01*
X79367471Y-87360000D01*
X79456724Y-87808707D01*
X79710897Y-88189103D01*
X80091293Y-88443276D01*
X80426739Y-88510000D01*
X80653261Y-88510000D01*
X80988707Y-88443276D01*
X81369103Y-88189103D01*
X81623276Y-87808707D01*
X81712529Y-87360000D01*
X109827471Y-87360000D01*
X109916724Y-87808707D01*
X110170897Y-88189103D01*
X110551293Y-88443276D01*
X110886739Y-88510000D01*
X111113261Y-88510000D01*
X111448707Y-88443276D01*
X111829103Y-88189103D01*
X112083276Y-87808707D01*
X112172529Y-87360000D01*
X112367471Y-87360000D01*
X112456724Y-87808707D01*
X112710897Y-88189103D01*
X113091293Y-88443276D01*
X113426739Y-88510000D01*
X113653261Y-88510000D01*
X113988707Y-88443276D01*
X114369103Y-88189103D01*
X114623276Y-87808707D01*
X114712529Y-87360000D01*
X114623276Y-86911293D01*
X114369103Y-86530897D01*
X113988707Y-86276724D01*
X113653261Y-86210000D01*
X113426739Y-86210000D01*
X113091293Y-86276724D01*
X112710897Y-86530897D01*
X112456724Y-86911293D01*
X112367471Y-87360000D01*
X112172529Y-87360000D01*
X112083276Y-86911293D01*
X111829103Y-86530897D01*
X111448707Y-86276724D01*
X111113261Y-86210000D01*
X110886739Y-86210000D01*
X110551293Y-86276724D01*
X110170897Y-86530897D01*
X109916724Y-86911293D01*
X109827471Y-87360000D01*
X81712529Y-87360000D01*
X81623276Y-86911293D01*
X81369103Y-86530897D01*
X80988707Y-86276724D01*
X80653261Y-86210000D01*
X80426739Y-86210000D01*
X80091293Y-86276724D01*
X79710897Y-86530897D01*
X79456724Y-86911293D01*
X79367471Y-87360000D01*
X79172529Y-87360000D01*
X79083276Y-86911293D01*
X78829103Y-86530897D01*
X78448707Y-86276724D01*
X78113261Y-86210000D01*
X77886739Y-86210000D01*
X77551293Y-86276724D01*
X77170897Y-86530897D01*
X76916724Y-86911293D01*
X76827471Y-87360000D01*
X76375000Y-87360000D01*
X76375000Y-84820000D01*
X76827471Y-84820000D01*
X76916724Y-85268707D01*
X77170897Y-85649103D01*
X77551293Y-85903276D01*
X77886739Y-85970000D01*
X78113261Y-85970000D01*
X78448707Y-85903276D01*
X78829103Y-85649103D01*
X79083276Y-85268707D01*
X79172529Y-84820000D01*
X79367471Y-84820000D01*
X79456724Y-85268707D01*
X79710897Y-85649103D01*
X80091293Y-85903276D01*
X80426739Y-85970000D01*
X80653261Y-85970000D01*
X80988707Y-85903276D01*
X81369103Y-85649103D01*
X81623276Y-85268707D01*
X81699266Y-84886674D01*
X92234010Y-84886674D01*
X92305392Y-85058133D01*
X92699509Y-85228223D01*
X93128715Y-85234544D01*
X93527669Y-85076133D01*
X93554608Y-85058133D01*
X93625990Y-84886674D01*
X97234010Y-84886674D01*
X97305392Y-85058133D01*
X97699509Y-85228223D01*
X98128715Y-85234544D01*
X98527669Y-85076133D01*
X98554608Y-85058133D01*
X98625990Y-84886674D01*
X97930000Y-84190684D01*
X97234010Y-84886674D01*
X93625990Y-84886674D01*
X92930000Y-84190684D01*
X92234010Y-84886674D01*
X81699266Y-84886674D01*
X81712529Y-84820000D01*
X81623276Y-84371293D01*
X81369103Y-83990897D01*
X80988707Y-83736724D01*
X80653261Y-83670000D01*
X80426739Y-83670000D01*
X80091293Y-83736724D01*
X79710897Y-83990897D01*
X79456724Y-84371293D01*
X79367471Y-84820000D01*
X79172529Y-84820000D01*
X79083276Y-84371293D01*
X78829103Y-83990897D01*
X78448707Y-83736724D01*
X78113261Y-83670000D01*
X77886739Y-83670000D01*
X77551293Y-83736724D01*
X77170897Y-83990897D01*
X76916724Y-84371293D01*
X76827471Y-84820000D01*
X76375000Y-84820000D01*
X76375000Y-83540870D01*
X88800000Y-83540870D01*
X88800000Y-83859130D01*
X88921793Y-84153164D01*
X89146836Y-84378207D01*
X89440870Y-84500000D01*
X89759130Y-84500000D01*
X90053164Y-84378207D01*
X90080156Y-84351215D01*
X91847956Y-84351215D01*
X92006367Y-84750169D01*
X92024367Y-84777108D01*
X92195826Y-84848490D01*
X92891816Y-84152500D01*
X92968184Y-84152500D01*
X93664174Y-84848490D01*
X93835633Y-84777108D01*
X94005723Y-84382991D01*
X94006190Y-84351215D01*
X96847956Y-84351215D01*
X97006367Y-84750169D01*
X97024367Y-84777108D01*
X97195826Y-84848490D01*
X97891816Y-84152500D01*
X97968184Y-84152500D01*
X98664174Y-84848490D01*
X98732606Y-84820000D01*
X109827471Y-84820000D01*
X109916724Y-85268707D01*
X110170897Y-85649103D01*
X110551293Y-85903276D01*
X110886739Y-85970000D01*
X111113261Y-85970000D01*
X111448707Y-85903276D01*
X111829103Y-85649103D01*
X112083276Y-85268707D01*
X112172529Y-84820000D01*
X112367471Y-84820000D01*
X112456724Y-85268707D01*
X112710897Y-85649103D01*
X113091293Y-85903276D01*
X113426739Y-85970000D01*
X113653261Y-85970000D01*
X113988707Y-85903276D01*
X114369103Y-85649103D01*
X114623276Y-85268707D01*
X114712529Y-84820000D01*
X114623276Y-84371293D01*
X114369103Y-83990897D01*
X113988707Y-83736724D01*
X113653261Y-83670000D01*
X113426739Y-83670000D01*
X113091293Y-83736724D01*
X112710897Y-83990897D01*
X112456724Y-84371293D01*
X112367471Y-84820000D01*
X112172529Y-84820000D01*
X112083276Y-84371293D01*
X111829103Y-83990897D01*
X111448707Y-83736724D01*
X111113261Y-83670000D01*
X110886739Y-83670000D01*
X110551293Y-83736724D01*
X110170897Y-83990897D01*
X109916724Y-84371293D01*
X109827471Y-84820000D01*
X98732606Y-84820000D01*
X98835633Y-84777108D01*
X99005723Y-84382991D01*
X99012044Y-83953785D01*
X98853633Y-83554831D01*
X98835633Y-83527892D01*
X98664174Y-83456510D01*
X97968184Y-84152500D01*
X97891816Y-84152500D01*
X97195826Y-83456510D01*
X97024367Y-83527892D01*
X96854277Y-83922009D01*
X96847956Y-84351215D01*
X94006190Y-84351215D01*
X94012044Y-83953785D01*
X93853633Y-83554831D01*
X93835633Y-83527892D01*
X93664174Y-83456510D01*
X92968184Y-84152500D01*
X92891816Y-84152500D01*
X92195826Y-83456510D01*
X92024367Y-83527892D01*
X91854277Y-83922009D01*
X91847956Y-84351215D01*
X90080156Y-84351215D01*
X90278207Y-84153164D01*
X90400000Y-83859130D01*
X90400000Y-83540870D01*
X90349241Y-83418326D01*
X92234010Y-83418326D01*
X92930000Y-84114316D01*
X93625990Y-83418326D01*
X97234010Y-83418326D01*
X97930000Y-84114316D01*
X98625990Y-83418326D01*
X98554608Y-83246867D01*
X98160491Y-83076777D01*
X97731285Y-83070456D01*
X97332331Y-83228867D01*
X97305392Y-83246867D01*
X97234010Y-83418326D01*
X93625990Y-83418326D01*
X93554608Y-83246867D01*
X93160491Y-83076777D01*
X92731285Y-83070456D01*
X92332331Y-83228867D01*
X92305392Y-83246867D01*
X92234010Y-83418326D01*
X90349241Y-83418326D01*
X90278207Y-83246836D01*
X90053164Y-83021793D01*
X89759130Y-82900000D01*
X89440870Y-82900000D01*
X89146836Y-83021793D01*
X88921793Y-83246836D01*
X88800000Y-83540870D01*
X76375000Y-83540870D01*
X76375000Y-81430000D01*
X76844123Y-81430000D01*
X76844123Y-83130000D01*
X76867407Y-83247054D01*
X76933712Y-83346288D01*
X77032946Y-83412593D01*
X77150000Y-83435877D01*
X78850000Y-83435877D01*
X78967054Y-83412593D01*
X79066288Y-83346288D01*
X79132593Y-83247054D01*
X79155877Y-83130000D01*
X79155877Y-82494967D01*
X79355346Y-82494967D01*
X79363255Y-82534745D01*
X79550316Y-82965674D01*
X79888047Y-83292216D01*
X80325032Y-83464657D01*
X80513000Y-83395200D01*
X80513000Y-82307000D01*
X80567000Y-82307000D01*
X80567000Y-83395200D01*
X80754968Y-83464657D01*
X81191953Y-83292216D01*
X81529684Y-82965674D01*
X81716745Y-82534745D01*
X81724654Y-82494967D01*
X81655173Y-82307000D01*
X80567000Y-82307000D01*
X80513000Y-82307000D01*
X79424827Y-82307000D01*
X79355346Y-82494967D01*
X79155877Y-82494967D01*
X79155877Y-82065033D01*
X79355346Y-82065033D01*
X79424827Y-82253000D01*
X80513000Y-82253000D01*
X80513000Y-81164800D01*
X80567000Y-81164800D01*
X80567000Y-82253000D01*
X81655173Y-82253000D01*
X81724654Y-82065033D01*
X81716745Y-82025255D01*
X81529684Y-81594326D01*
X81370970Y-81440870D01*
X88800000Y-81440870D01*
X88800000Y-81759130D01*
X88921793Y-82053164D01*
X89146836Y-82278207D01*
X89440870Y-82400000D01*
X89759130Y-82400000D01*
X90053164Y-82278207D01*
X90278207Y-82053164D01*
X90400000Y-81759130D01*
X90400000Y-81479500D01*
X90976000Y-81479500D01*
X90976000Y-81829500D01*
X91058951Y-82192525D01*
X91274512Y-82496172D01*
X91589865Y-82694214D01*
X91754154Y-82740154D01*
X91903000Y-82667579D01*
X91903000Y-81479500D01*
X91957000Y-81479500D01*
X91957000Y-82667579D01*
X92105846Y-82740154D01*
X92270135Y-82694214D01*
X92585488Y-82496172D01*
X92801049Y-82192525D01*
X92884000Y-81829500D01*
X92884000Y-81479500D01*
X97976000Y-81479500D01*
X97976000Y-81829500D01*
X98058951Y-82192525D01*
X98274512Y-82496172D01*
X98589865Y-82694214D01*
X98754154Y-82740154D01*
X98903000Y-82667579D01*
X98903000Y-81479500D01*
X98957000Y-81479500D01*
X98957000Y-82667579D01*
X99105846Y-82740154D01*
X99270135Y-82694214D01*
X99585488Y-82496172D01*
X99801049Y-82192525D01*
X99884000Y-81829500D01*
X99884000Y-81479500D01*
X98957000Y-81479500D01*
X98903000Y-81479500D01*
X97976000Y-81479500D01*
X92884000Y-81479500D01*
X91957000Y-81479500D01*
X91903000Y-81479500D01*
X90976000Y-81479500D01*
X90400000Y-81479500D01*
X90400000Y-81440870D01*
X90395498Y-81430000D01*
X109844123Y-81430000D01*
X109844123Y-83130000D01*
X109867407Y-83247054D01*
X109933712Y-83346288D01*
X110032946Y-83412593D01*
X110150000Y-83435877D01*
X111850000Y-83435877D01*
X111967054Y-83412593D01*
X112066288Y-83346288D01*
X112132593Y-83247054D01*
X112155877Y-83130000D01*
X112155877Y-82494967D01*
X112355346Y-82494967D01*
X112363255Y-82534745D01*
X112550316Y-82965674D01*
X112888047Y-83292216D01*
X113325032Y-83464657D01*
X113513000Y-83395200D01*
X113513000Y-82307000D01*
X113567000Y-82307000D01*
X113567000Y-83395200D01*
X113754968Y-83464657D01*
X114191953Y-83292216D01*
X114529684Y-82965674D01*
X114716745Y-82534745D01*
X114724654Y-82494967D01*
X114655173Y-82307000D01*
X113567000Y-82307000D01*
X113513000Y-82307000D01*
X112424827Y-82307000D01*
X112355346Y-82494967D01*
X112155877Y-82494967D01*
X112155877Y-82065033D01*
X112355346Y-82065033D01*
X112424827Y-82253000D01*
X113513000Y-82253000D01*
X113513000Y-81164800D01*
X113567000Y-81164800D01*
X113567000Y-82253000D01*
X114655173Y-82253000D01*
X114724654Y-82065033D01*
X114716745Y-82025255D01*
X114529684Y-81594326D01*
X114191953Y-81267784D01*
X113754968Y-81095343D01*
X113567000Y-81164800D01*
X113513000Y-81164800D01*
X113325032Y-81095343D01*
X112888047Y-81267784D01*
X112550316Y-81594326D01*
X112363255Y-82025255D01*
X112355346Y-82065033D01*
X112155877Y-82065033D01*
X112155877Y-81430000D01*
X112132593Y-81312946D01*
X112066288Y-81213712D01*
X111967054Y-81147407D01*
X111850000Y-81124123D01*
X110150000Y-81124123D01*
X110032946Y-81147407D01*
X109933712Y-81213712D01*
X109867407Y-81312946D01*
X109844123Y-81430000D01*
X90395498Y-81430000D01*
X90278207Y-81146836D01*
X90053164Y-80921793D01*
X89759130Y-80800000D01*
X89440870Y-80800000D01*
X89146836Y-80921793D01*
X88921793Y-81146836D01*
X88800000Y-81440870D01*
X81370970Y-81440870D01*
X81191953Y-81267784D01*
X80754968Y-81095343D01*
X80567000Y-81164800D01*
X80513000Y-81164800D01*
X80325032Y-81095343D01*
X79888047Y-81267784D01*
X79550316Y-81594326D01*
X79363255Y-82025255D01*
X79355346Y-82065033D01*
X79155877Y-82065033D01*
X79155877Y-81430000D01*
X79132593Y-81312946D01*
X79066288Y-81213712D01*
X78967054Y-81147407D01*
X78850000Y-81124123D01*
X77150000Y-81124123D01*
X77032946Y-81147407D01*
X76933712Y-81213712D01*
X76867407Y-81312946D01*
X76844123Y-81430000D01*
X76375000Y-81430000D01*
X76375000Y-81036937D01*
X76429363Y-80763633D01*
X76563253Y-80563253D01*
X76763632Y-80429363D01*
X77036936Y-80375000D01*
X91328378Y-80375000D01*
X91274512Y-80408828D01*
X91274512Y-80408828D01*
G37*
X91274512Y-80408828D02*
X91058951Y-80712475D01*
X90976000Y-81075500D01*
X90976000Y-81425500D01*
X91903000Y-81425500D01*
X91903000Y-81405500D01*
X91957000Y-81405500D01*
X91957000Y-81425500D01*
X92884000Y-81425500D01*
X92884000Y-81075500D01*
X92801049Y-80712475D01*
X92585488Y-80408828D01*
X92531622Y-80375000D01*
X98328378Y-80375000D01*
X98274512Y-80408828D01*
X98058951Y-80712475D01*
X97976000Y-81075500D01*
X97976000Y-81425500D01*
X98903000Y-81425500D01*
X98903000Y-81405500D01*
X98957000Y-81405500D01*
X98957000Y-81425500D01*
X99884000Y-81425500D01*
X99884000Y-81075500D01*
X99801049Y-80712475D01*
X99585488Y-80408828D01*
X99531622Y-80375000D01*
X114463063Y-80375000D01*
X114736367Y-80429363D01*
X114936747Y-80563253D01*
X115070637Y-80763632D01*
X115125001Y-81036941D01*
X115125000Y-116463064D01*
X115070637Y-116736368D01*
X114936747Y-116936747D01*
X114736367Y-117070637D01*
X114463063Y-117125000D01*
X77036936Y-117125000D01*
X76763632Y-117070637D01*
X76563253Y-116936747D01*
X76429363Y-116736367D01*
X76375000Y-116463063D01*
X76375000Y-115300000D01*
X76827471Y-115300000D01*
X76916724Y-115748707D01*
X77170897Y-116129103D01*
X77551293Y-116383276D01*
X77886739Y-116450000D01*
X78113261Y-116450000D01*
X78448707Y-116383276D01*
X78829103Y-116129103D01*
X79083276Y-115748707D01*
X79129769Y-115514967D01*
X79355346Y-115514967D01*
X79363255Y-115554745D01*
X79550316Y-115985674D01*
X79888047Y-116312216D01*
X80325032Y-116484657D01*
X80513000Y-116415200D01*
X80513000Y-115327000D01*
X80567000Y-115327000D01*
X80567000Y-116415200D01*
X80754968Y-116484657D01*
X81191953Y-116312216D01*
X81529684Y-115985674D01*
X81716745Y-115554745D01*
X81724654Y-115514967D01*
X81655173Y-115327000D01*
X80567000Y-115327000D01*
X80513000Y-115327000D01*
X79424827Y-115327000D01*
X79355346Y-115514967D01*
X79129769Y-115514967D01*
X79172529Y-115300000D01*
X79129770Y-115085033D01*
X79355346Y-115085033D01*
X79424827Y-115273000D01*
X80513000Y-115273000D01*
X80513000Y-114184800D01*
X80567000Y-114184800D01*
X80567000Y-115273000D01*
X81655173Y-115273000D01*
X81724654Y-115085033D01*
X81716745Y-115045255D01*
X81529684Y-114614326D01*
X81191953Y-114287784D01*
X80754968Y-114115343D01*
X80567000Y-114184800D01*
X80513000Y-114184800D01*
X80325032Y-114115343D01*
X79888047Y-114287784D01*
X79550316Y-114614326D01*
X79363255Y-115045255D01*
X79355346Y-115085033D01*
X79129770Y-115085033D01*
X79083276Y-114851293D01*
X78829103Y-114470897D01*
X78448707Y-114216724D01*
X78113261Y-114150000D01*
X77886739Y-114150000D01*
X77551293Y-114216724D01*
X77170897Y-114470897D01*
X76916724Y-114851293D01*
X76827471Y-115300000D01*
X76375000Y-115300000D01*
X76375000Y-112760000D01*
X76827471Y-112760000D01*
X76916724Y-113208707D01*
X77170897Y-113589103D01*
X77551293Y-113843276D01*
X77886739Y-113910000D01*
X78113261Y-113910000D01*
X78448707Y-113843276D01*
X78829103Y-113589103D01*
X79083276Y-113208707D01*
X79172529Y-112760000D01*
X79367471Y-112760000D01*
X79456724Y-113208707D01*
X79710897Y-113589103D01*
X80091293Y-113843276D01*
X80426739Y-113910000D01*
X80653261Y-113910000D01*
X80988707Y-113843276D01*
X81060102Y-113795571D01*
X89975000Y-113795571D01*
X89975000Y-114004429D01*
X90054927Y-114197388D01*
X90202612Y-114345073D01*
X90395571Y-114425000D01*
X90604429Y-114425000D01*
X90797388Y-114345073D01*
X90945073Y-114197388D01*
X91025000Y-114004429D01*
X91025000Y-113895571D01*
X93875000Y-113895571D01*
X93875000Y-114104429D01*
X93954927Y-114297388D01*
X94102612Y-114445073D01*
X94295571Y-114525000D01*
X94504429Y-114525000D01*
X94697388Y-114445073D01*
X94845073Y-114297388D01*
X94925000Y-114104429D01*
X94925000Y-114100000D01*
X102744123Y-114100000D01*
X102744123Y-115100000D01*
X102767407Y-115217054D01*
X102833712Y-115316288D01*
X102932946Y-115382593D01*
X103050000Y-115405877D01*
X104050000Y-115405877D01*
X104167054Y-115382593D01*
X104266288Y-115316288D01*
X104323621Y-115230481D01*
X104507856Y-115353583D01*
X104741211Y-115400000D01*
X104898789Y-115400000D01*
X105132144Y-115353583D01*
X105396767Y-115176767D01*
X105455000Y-115089615D01*
X105513233Y-115176767D01*
X105777856Y-115353583D01*
X106011211Y-115400000D01*
X106168789Y-115400000D01*
X106402144Y-115353583D01*
X106666767Y-115176767D01*
X106701394Y-115124943D01*
X106880124Y-115306428D01*
X107186991Y-115436295D01*
X107199804Y-115438840D01*
X107333000Y-115365024D01*
X107333000Y-114627000D01*
X107387000Y-114627000D01*
X107387000Y-115365024D01*
X107520196Y-115438840D01*
X107533009Y-115436295D01*
X107839876Y-115306428D01*
X107846206Y-115300000D01*
X109827471Y-115300000D01*
X109916724Y-115748707D01*
X110170897Y-116129103D01*
X110551293Y-116383276D01*
X110886739Y-116450000D01*
X111113261Y-116450000D01*
X111448707Y-116383276D01*
X111829103Y-116129103D01*
X112083276Y-115748707D01*
X112129769Y-115514967D01*
X112355346Y-115514967D01*
X112363255Y-115554745D01*
X112550316Y-115985674D01*
X112888047Y-116312216D01*
X113325032Y-116484657D01*
X113513000Y-116415200D01*
X113513000Y-115327000D01*
X113567000Y-115327000D01*
X113567000Y-116415200D01*
X113754968Y-116484657D01*
X114191953Y-116312216D01*
X114529684Y-115985674D01*
X114716745Y-115554745D01*
X114724654Y-115514967D01*
X114655173Y-115327000D01*
X113567000Y-115327000D01*
X113513000Y-115327000D01*
X112424827Y-115327000D01*
X112355346Y-115514967D01*
X112129769Y-115514967D01*
X112172529Y-115300000D01*
X112129770Y-115085033D01*
X112355346Y-115085033D01*
X112424827Y-115273000D01*
X113513000Y-115273000D01*
X113513000Y-114184800D01*
X113567000Y-114184800D01*
X113567000Y-115273000D01*
X114655173Y-115273000D01*
X114724654Y-115085033D01*
X114716745Y-115045255D01*
X114529684Y-114614326D01*
X114191953Y-114287784D01*
X113754968Y-114115343D01*
X113567000Y-114184800D01*
X113513000Y-114184800D01*
X113325032Y-114115343D01*
X112888047Y-114287784D01*
X112550316Y-114614326D01*
X112363255Y-115045255D01*
X112355346Y-115085033D01*
X112129770Y-115085033D01*
X112083276Y-114851293D01*
X111829103Y-114470897D01*
X111448707Y-114216724D01*
X111113261Y-114150000D01*
X110886739Y-114150000D01*
X110551293Y-114216724D01*
X110170897Y-114470897D01*
X109916724Y-114851293D01*
X109827471Y-115300000D01*
X107846206Y-115300000D01*
X108073686Y-115069014D01*
X108198844Y-114760196D01*
X108125077Y-114627000D01*
X107387000Y-114627000D01*
X107333000Y-114627000D01*
X107313000Y-114627000D01*
X107313000Y-114573000D01*
X107333000Y-114573000D01*
X107333000Y-113834976D01*
X107387000Y-113834976D01*
X107387000Y-114573000D01*
X108125077Y-114573000D01*
X108198844Y-114439804D01*
X108073686Y-114130986D01*
X107839876Y-113893572D01*
X107533009Y-113763705D01*
X107520196Y-113761160D01*
X107387000Y-113834976D01*
X107333000Y-113834976D01*
X107199804Y-113761160D01*
X107186991Y-113763705D01*
X106880124Y-113893572D01*
X106701394Y-114075057D01*
X106666767Y-114023233D01*
X106402144Y-113846417D01*
X106168789Y-113800000D01*
X106011211Y-113800000D01*
X105777856Y-113846417D01*
X105513233Y-114023233D01*
X105455000Y-114110385D01*
X105396767Y-114023233D01*
X105132144Y-113846417D01*
X104898789Y-113800000D01*
X104741211Y-113800000D01*
X104507856Y-113846417D01*
X104323621Y-113969519D01*
X104266288Y-113883712D01*
X104167054Y-113817407D01*
X104050000Y-113794123D01*
X103050000Y-113794123D01*
X102932946Y-113817407D01*
X102833712Y-113883712D01*
X102767407Y-113982946D01*
X102744123Y-114100000D01*
X94925000Y-114100000D01*
X94925000Y-113895571D01*
X94845073Y-113702612D01*
X94697388Y-113554927D01*
X94504429Y-113475000D01*
X94295571Y-113475000D01*
X94102612Y-113554927D01*
X93954927Y-113702612D01*
X93875000Y-113895571D01*
X91025000Y-113895571D01*
X91025000Y-113795571D01*
X90945073Y-113602612D01*
X90797388Y-113454927D01*
X90604429Y-113375000D01*
X90395571Y-113375000D01*
X90202612Y-113454927D01*
X90054927Y-113602612D01*
X89975000Y-113795571D01*
X81060102Y-113795571D01*
X81369103Y-113589103D01*
X81623276Y-113208707D01*
X81705453Y-112795571D01*
X92375000Y-112795571D01*
X92375000Y-113004429D01*
X92454927Y-113197388D01*
X92602612Y-113345073D01*
X92795571Y-113425000D01*
X93004429Y-113425000D01*
X93197388Y-113345073D01*
X93345073Y-113197388D01*
X93425000Y-113004429D01*
X93425000Y-112795571D01*
X93410266Y-112760000D01*
X109827471Y-112760000D01*
X109916724Y-113208707D01*
X110170897Y-113589103D01*
X110551293Y-113843276D01*
X110886739Y-113910000D01*
X111113261Y-113910000D01*
X111448707Y-113843276D01*
X111829103Y-113589103D01*
X112083276Y-113208707D01*
X112172529Y-112760000D01*
X112367471Y-112760000D01*
X112456724Y-113208707D01*
X112710897Y-113589103D01*
X113091293Y-113843276D01*
X113426739Y-113910000D01*
X113653261Y-113910000D01*
X113988707Y-113843276D01*
X114369103Y-113589103D01*
X114623276Y-113208707D01*
X114712529Y-112760000D01*
X114623276Y-112311293D01*
X114369103Y-111930897D01*
X113988707Y-111676724D01*
X113653261Y-111610000D01*
X113426739Y-111610000D01*
X113091293Y-111676724D01*
X112710897Y-111930897D01*
X112456724Y-112311293D01*
X112367471Y-112760000D01*
X112172529Y-112760000D01*
X112083276Y-112311293D01*
X111829103Y-111930897D01*
X111448707Y-111676724D01*
X111113261Y-111610000D01*
X110886739Y-111610000D01*
X110551293Y-111676724D01*
X110170897Y-111930897D01*
X109916724Y-112311293D01*
X109827471Y-112760000D01*
X93410266Y-112760000D01*
X93345073Y-112602612D01*
X93197388Y-112454927D01*
X93004429Y-112375000D01*
X92795571Y-112375000D01*
X92602612Y-112454927D01*
X92454927Y-112602612D01*
X92375000Y-112795571D01*
X81705453Y-112795571D01*
X81712529Y-112760000D01*
X81623276Y-112311293D01*
X81369103Y-111930897D01*
X80988707Y-111676724D01*
X80653261Y-111610000D01*
X80426739Y-111610000D01*
X80091293Y-111676724D01*
X79710897Y-111930897D01*
X79456724Y-112311293D01*
X79367471Y-112760000D01*
X79172529Y-112760000D01*
X79083276Y-112311293D01*
X78829103Y-111930897D01*
X78448707Y-111676724D01*
X78113261Y-111610000D01*
X77886739Y-111610000D01*
X77551293Y-111676724D01*
X77170897Y-111930897D01*
X76916724Y-112311293D01*
X76827471Y-112760000D01*
X76375000Y-112760000D01*
X76375000Y-110220000D01*
X76827471Y-110220000D01*
X76916724Y-110668707D01*
X77170897Y-111049103D01*
X77551293Y-111303276D01*
X77886739Y-111370000D01*
X78113261Y-111370000D01*
X78448707Y-111303276D01*
X78829103Y-111049103D01*
X79083276Y-110668707D01*
X79172529Y-110220000D01*
X79367471Y-110220000D01*
X79456724Y-110668707D01*
X79710897Y-111049103D01*
X80091293Y-111303276D01*
X80426739Y-111370000D01*
X80653261Y-111370000D01*
X80988707Y-111303276D01*
X81369103Y-111049103D01*
X81623276Y-110668707D01*
X81712529Y-110220000D01*
X81623276Y-109771293D01*
X81606090Y-109745571D01*
X90980000Y-109745571D01*
X90980000Y-109954429D01*
X91059927Y-110147388D01*
X91207612Y-110295073D01*
X91400571Y-110375000D01*
X91609429Y-110375000D01*
X91802388Y-110295073D01*
X91950073Y-110147388D01*
X91971536Y-110095571D01*
X93675000Y-110095571D01*
X93675000Y-110304429D01*
X93754927Y-110497388D01*
X93902612Y-110645073D01*
X94095571Y-110725000D01*
X94304429Y-110725000D01*
X94497388Y-110645073D01*
X94645073Y-110497388D01*
X94725000Y-110304429D01*
X94725000Y-110245571D01*
X97580000Y-110245571D01*
X97580000Y-110454429D01*
X97659927Y-110647388D01*
X97807612Y-110795073D01*
X98000571Y-110875000D01*
X98209429Y-110875000D01*
X98402388Y-110795073D01*
X98550073Y-110647388D01*
X98630000Y-110454429D01*
X98630000Y-110245571D01*
X98550073Y-110052612D01*
X98402388Y-109904927D01*
X98209429Y-109825000D01*
X98000571Y-109825000D01*
X97807612Y-109904927D01*
X97659927Y-110052612D01*
X97580000Y-110245571D01*
X94725000Y-110245571D01*
X94725000Y-110095571D01*
X94645073Y-109902612D01*
X94538032Y-109795571D01*
X102975000Y-109795571D01*
X102975000Y-110004429D01*
X103054927Y-110197388D01*
X103202612Y-110345073D01*
X103395571Y-110425000D01*
X103604429Y-110425000D01*
X103797388Y-110345073D01*
X103922461Y-110220000D01*
X109827471Y-110220000D01*
X109916724Y-110668707D01*
X110170897Y-111049103D01*
X110551293Y-111303276D01*
X110886739Y-111370000D01*
X111113261Y-111370000D01*
X111448707Y-111303276D01*
X111829103Y-111049103D01*
X112083276Y-110668707D01*
X112172529Y-110220000D01*
X112367471Y-110220000D01*
X112456724Y-110668707D01*
X112710897Y-111049103D01*
X113091293Y-111303276D01*
X113426739Y-111370000D01*
X113653261Y-111370000D01*
X113988707Y-111303276D01*
X114369103Y-111049103D01*
X114623276Y-110668707D01*
X114712529Y-110220000D01*
X114623276Y-109771293D01*
X114369103Y-109390897D01*
X113988707Y-109136724D01*
X113653261Y-109070000D01*
X113426739Y-109070000D01*
X113091293Y-109136724D01*
X112710897Y-109390897D01*
X112456724Y-109771293D01*
X112367471Y-110220000D01*
X112172529Y-110220000D01*
X112083276Y-109771293D01*
X111829103Y-109390897D01*
X111448707Y-109136724D01*
X111113261Y-109070000D01*
X110886739Y-109070000D01*
X110551293Y-109136724D01*
X110170897Y-109390897D01*
X109916724Y-109771293D01*
X109827471Y-110220000D01*
X103922461Y-110220000D01*
X103945073Y-110197388D01*
X104025000Y-110004429D01*
X104025000Y-109795571D01*
X103945073Y-109602612D01*
X103797388Y-109454927D01*
X103604429Y-109375000D01*
X103395571Y-109375000D01*
X103202612Y-109454927D01*
X103054927Y-109602612D01*
X102975000Y-109795571D01*
X94538032Y-109795571D01*
X94497388Y-109754927D01*
X94304429Y-109675000D01*
X94095571Y-109675000D01*
X93902612Y-109754927D01*
X93754927Y-109902612D01*
X93675000Y-110095571D01*
X91971536Y-110095571D01*
X92030000Y-109954429D01*
X92030000Y-109745571D01*
X91950073Y-109552612D01*
X91802388Y-109404927D01*
X91609429Y-109325000D01*
X91400571Y-109325000D01*
X91207612Y-109404927D01*
X91059927Y-109552612D01*
X90980000Y-109745571D01*
X81606090Y-109745571D01*
X81369103Y-109390897D01*
X80988707Y-109136724D01*
X80781816Y-109095571D01*
X94475000Y-109095571D01*
X94475000Y-109304429D01*
X94554927Y-109497388D01*
X94702612Y-109645073D01*
X94895571Y-109725000D01*
X95104429Y-109725000D01*
X95297388Y-109645073D01*
X95445073Y-109497388D01*
X95525000Y-109304429D01*
X95525000Y-109095571D01*
X95445073Y-108902612D01*
X95297388Y-108754927D01*
X95104429Y-108675000D01*
X94895571Y-108675000D01*
X94702612Y-108754927D01*
X94554927Y-108902612D01*
X94475000Y-109095571D01*
X80781816Y-109095571D01*
X80653261Y-109070000D01*
X80426739Y-109070000D01*
X80091293Y-109136724D01*
X79710897Y-109390897D01*
X79456724Y-109771293D01*
X79367471Y-110220000D01*
X79172529Y-110220000D01*
X79083276Y-109771293D01*
X78829103Y-109390897D01*
X78448707Y-109136724D01*
X78113261Y-109070000D01*
X77886739Y-109070000D01*
X77551293Y-109136724D01*
X77170897Y-109390897D01*
X76916724Y-109771293D01*
X76827471Y-110220000D01*
X76375000Y-110220000D01*
X76375000Y-107680000D01*
X76827471Y-107680000D01*
X76916724Y-108128707D01*
X77170897Y-108509103D01*
X77551293Y-108763276D01*
X77886739Y-108830000D01*
X78113261Y-108830000D01*
X78448707Y-108763276D01*
X78829103Y-108509103D01*
X79083276Y-108128707D01*
X79172529Y-107680000D01*
X79367471Y-107680000D01*
X79456724Y-108128707D01*
X79710897Y-108509103D01*
X80091293Y-108763276D01*
X80426739Y-108830000D01*
X80653261Y-108830000D01*
X80988707Y-108763276D01*
X81369103Y-108509103D01*
X81623276Y-108128707D01*
X81712529Y-107680000D01*
X109827471Y-107680000D01*
X109916724Y-108128707D01*
X110170897Y-108509103D01*
X110551293Y-108763276D01*
X110886739Y-108830000D01*
X111113261Y-108830000D01*
X111448707Y-108763276D01*
X111829103Y-108509103D01*
X112083276Y-108128707D01*
X112172529Y-107680000D01*
X112367471Y-107680000D01*
X112456724Y-108128707D01*
X112710897Y-108509103D01*
X113091293Y-108763276D01*
X113426739Y-108830000D01*
X113653261Y-108830000D01*
X113988707Y-108763276D01*
X114369103Y-108509103D01*
X114623276Y-108128707D01*
X114712529Y-107680000D01*
X114623276Y-107231293D01*
X114369103Y-106850897D01*
X113988707Y-106596724D01*
X113653261Y-106530000D01*
X113426739Y-106530000D01*
X113091293Y-106596724D01*
X112710897Y-106850897D01*
X112456724Y-107231293D01*
X112367471Y-107680000D01*
X112172529Y-107680000D01*
X112083276Y-107231293D01*
X111829103Y-106850897D01*
X111448707Y-106596724D01*
X111113261Y-106530000D01*
X110886739Y-106530000D01*
X110551293Y-106596724D01*
X110170897Y-106850897D01*
X109916724Y-107231293D01*
X109827471Y-107680000D01*
X81712529Y-107680000D01*
X81623276Y-107231293D01*
X81369103Y-106850897D01*
X80988707Y-106596724D01*
X80653261Y-106530000D01*
X80426739Y-106530000D01*
X80091293Y-106596724D01*
X79710897Y-106850897D01*
X79456724Y-107231293D01*
X79367471Y-107680000D01*
X79172529Y-107680000D01*
X79083276Y-107231293D01*
X78829103Y-106850897D01*
X78448707Y-106596724D01*
X78113261Y-106530000D01*
X77886739Y-106530000D01*
X77551293Y-106596724D01*
X77170897Y-106850897D01*
X76916724Y-107231293D01*
X76827471Y-107680000D01*
X76375000Y-107680000D01*
X76375000Y-105140000D01*
X76827471Y-105140000D01*
X76916724Y-105588707D01*
X77170897Y-105969103D01*
X77551293Y-106223276D01*
X77886739Y-106290000D01*
X78113261Y-106290000D01*
X78448707Y-106223276D01*
X78829103Y-105969103D01*
X79083276Y-105588707D01*
X79172529Y-105140000D01*
X79367471Y-105140000D01*
X79456724Y-105588707D01*
X79710897Y-105969103D01*
X80091293Y-106223276D01*
X80426739Y-106290000D01*
X80653261Y-106290000D01*
X80876621Y-106245571D01*
X93275000Y-106245571D01*
X93275000Y-106454429D01*
X93354927Y-106647388D01*
X93502612Y-106795073D01*
X93695571Y-106875000D01*
X93904429Y-106875000D01*
X94097388Y-106795073D01*
X94245073Y-106647388D01*
X94325000Y-106454429D01*
X94325000Y-106245571D01*
X94262868Y-106095571D01*
X101675000Y-106095571D01*
X101675000Y-106304429D01*
X101754927Y-106497388D01*
X101902612Y-106645073D01*
X102095571Y-106725000D01*
X102304429Y-106725000D01*
X102497388Y-106645073D01*
X102502041Y-106640420D01*
X102504927Y-106647388D01*
X102652612Y-106795073D01*
X102845571Y-106875000D01*
X103054429Y-106875000D01*
X103247388Y-106795073D01*
X103395073Y-106647388D01*
X103475000Y-106454429D01*
X103475000Y-106245571D01*
X103395073Y-106052612D01*
X103247388Y-105904927D01*
X103054429Y-105825000D01*
X102845571Y-105825000D01*
X102652612Y-105904927D01*
X102647959Y-105909580D01*
X102645073Y-105902612D01*
X102497388Y-105754927D01*
X102304429Y-105675000D01*
X102095571Y-105675000D01*
X101902612Y-105754927D01*
X101754927Y-105902612D01*
X101675000Y-106095571D01*
X94262868Y-106095571D01*
X94245073Y-106052612D01*
X94097388Y-105904927D01*
X93904429Y-105825000D01*
X93695571Y-105825000D01*
X93502612Y-105904927D01*
X93354927Y-106052612D01*
X93275000Y-106245571D01*
X80876621Y-106245571D01*
X80988707Y-106223276D01*
X81369103Y-105969103D01*
X81623276Y-105588707D01*
X81691529Y-105245571D01*
X98475000Y-105245571D01*
X98475000Y-105454429D01*
X98554927Y-105647388D01*
X98702612Y-105795073D01*
X98895571Y-105875000D01*
X99104429Y-105875000D01*
X99297388Y-105795073D01*
X99445073Y-105647388D01*
X99525000Y-105454429D01*
X99525000Y-105245571D01*
X99481271Y-105140000D01*
X109827471Y-105140000D01*
X109916724Y-105588707D01*
X110170897Y-105969103D01*
X110551293Y-106223276D01*
X110886739Y-106290000D01*
X111113261Y-106290000D01*
X111448707Y-106223276D01*
X111829103Y-105969103D01*
X112083276Y-105588707D01*
X112172529Y-105140000D01*
X112367471Y-105140000D01*
X112456724Y-105588707D01*
X112710897Y-105969103D01*
X113091293Y-106223276D01*
X113426739Y-106290000D01*
X113653261Y-106290000D01*
X113988707Y-106223276D01*
X114369103Y-105969103D01*
X114623276Y-105588707D01*
X114712529Y-105140000D01*
X114623276Y-104691293D01*
X114369103Y-104310897D01*
X113988707Y-104056724D01*
X113653261Y-103990000D01*
X113426739Y-103990000D01*
X113091293Y-104056724D01*
X112710897Y-104310897D01*
X112456724Y-104691293D01*
X112367471Y-105140000D01*
X112172529Y-105140000D01*
X112083276Y-104691293D01*
X111829103Y-104310897D01*
X111448707Y-104056724D01*
X111113261Y-103990000D01*
X110886739Y-103990000D01*
X110551293Y-104056724D01*
X110170897Y-104310897D01*
X109916724Y-104691293D01*
X109827471Y-105140000D01*
X99481271Y-105140000D01*
X99445073Y-105052612D01*
X99297388Y-104904927D01*
X99104429Y-104825000D01*
X98895571Y-104825000D01*
X98702612Y-104904927D01*
X98554927Y-105052612D01*
X98475000Y-105245571D01*
X81691529Y-105245571D01*
X81712529Y-105140000D01*
X81623276Y-104691293D01*
X81369103Y-104310897D01*
X80988707Y-104056724D01*
X80653261Y-103990000D01*
X80426739Y-103990000D01*
X80091293Y-104056724D01*
X79710897Y-104310897D01*
X79456724Y-104691293D01*
X79367471Y-105140000D01*
X79172529Y-105140000D01*
X79083276Y-104691293D01*
X78829103Y-104310897D01*
X78448707Y-104056724D01*
X78113261Y-103990000D01*
X77886739Y-103990000D01*
X77551293Y-104056724D01*
X77170897Y-104310897D01*
X76916724Y-104691293D01*
X76827471Y-105140000D01*
X76375000Y-105140000D01*
X76375000Y-102600000D01*
X76827471Y-102600000D01*
X76916724Y-103048707D01*
X77170897Y-103429103D01*
X77551293Y-103683276D01*
X77886739Y-103750000D01*
X78113261Y-103750000D01*
X78448707Y-103683276D01*
X78829103Y-103429103D01*
X79083276Y-103048707D01*
X79172529Y-102600000D01*
X79367471Y-102600000D01*
X79456724Y-103048707D01*
X79710897Y-103429103D01*
X80091293Y-103683276D01*
X80426739Y-103750000D01*
X80653261Y-103750000D01*
X80988707Y-103683276D01*
X81369103Y-103429103D01*
X81623276Y-103048707D01*
X81712529Y-102600000D01*
X109827471Y-102600000D01*
X109916724Y-103048707D01*
X110170897Y-103429103D01*
X110551293Y-103683276D01*
X110886739Y-103750000D01*
X111113261Y-103750000D01*
X111448707Y-103683276D01*
X111829103Y-103429103D01*
X112083276Y-103048707D01*
X112172529Y-102600000D01*
X112367471Y-102600000D01*
X112456724Y-103048707D01*
X112710897Y-103429103D01*
X113091293Y-103683276D01*
X113426739Y-103750000D01*
X113653261Y-103750000D01*
X113988707Y-103683276D01*
X114369103Y-103429103D01*
X114623276Y-103048707D01*
X114712529Y-102600000D01*
X114623276Y-102151293D01*
X114369103Y-101770897D01*
X113988707Y-101516724D01*
X113653261Y-101450000D01*
X113426739Y-101450000D01*
X113091293Y-101516724D01*
X112710897Y-101770897D01*
X112456724Y-102151293D01*
X112367471Y-102600000D01*
X112172529Y-102600000D01*
X112083276Y-102151293D01*
X111829103Y-101770897D01*
X111448707Y-101516724D01*
X111113261Y-101450000D01*
X110886739Y-101450000D01*
X110551293Y-101516724D01*
X110170897Y-101770897D01*
X109916724Y-102151293D01*
X109827471Y-102600000D01*
X81712529Y-102600000D01*
X81623276Y-102151293D01*
X81369103Y-101770897D01*
X80988707Y-101516724D01*
X80653261Y-101450000D01*
X80426739Y-101450000D01*
X80091293Y-101516724D01*
X79710897Y-101770897D01*
X79456724Y-102151293D01*
X79367471Y-102600000D01*
X79172529Y-102600000D01*
X79083276Y-102151293D01*
X78829103Y-101770897D01*
X78448707Y-101516724D01*
X78113261Y-101450000D01*
X77886739Y-101450000D01*
X77551293Y-101516724D01*
X77170897Y-101770897D01*
X76916724Y-102151293D01*
X76827471Y-102600000D01*
X76375000Y-102600000D01*
X76375000Y-101445571D01*
X100725000Y-101445571D01*
X100725000Y-101654429D01*
X100804927Y-101847388D01*
X100952612Y-101995073D01*
X101145571Y-102075000D01*
X101354429Y-102075000D01*
X101547388Y-101995073D01*
X101575000Y-101967461D01*
X101602612Y-101995073D01*
X101795571Y-102075000D01*
X102004429Y-102075000D01*
X102197388Y-101995073D01*
X102345073Y-101847388D01*
X102425000Y-101654429D01*
X102425000Y-101445571D01*
X102345073Y-101252612D01*
X102197388Y-101104927D01*
X102004429Y-101025000D01*
X101795571Y-101025000D01*
X101602612Y-101104927D01*
X101575000Y-101132539D01*
X101547388Y-101104927D01*
X101354429Y-101025000D01*
X101145571Y-101025000D01*
X100952612Y-101104927D01*
X100804927Y-101252612D01*
X100725000Y-101445571D01*
X76375000Y-101445571D01*
X76375000Y-100060000D01*
X76827471Y-100060000D01*
X76916724Y-100508707D01*
X77170897Y-100889103D01*
X77551293Y-101143276D01*
X77886739Y-101210000D01*
X78113261Y-101210000D01*
X78448707Y-101143276D01*
X78829103Y-100889103D01*
X79083276Y-100508707D01*
X79172529Y-100060000D01*
X79367471Y-100060000D01*
X79456724Y-100508707D01*
X79710897Y-100889103D01*
X80091293Y-101143276D01*
X80426739Y-101210000D01*
X80653261Y-101210000D01*
X80988707Y-101143276D01*
X81369103Y-100889103D01*
X81565235Y-100595571D01*
X92875000Y-100595571D01*
X92875000Y-100804429D01*
X92954927Y-100997388D01*
X93102612Y-101145073D01*
X93295571Y-101225000D01*
X93504429Y-101225000D01*
X93697388Y-101145073D01*
X93800000Y-101042461D01*
X93902612Y-101145073D01*
X94095571Y-101225000D01*
X94304429Y-101225000D01*
X94497388Y-101145073D01*
X94645073Y-100997388D01*
X94725000Y-100804429D01*
X94725000Y-100595571D01*
X94645073Y-100402612D01*
X94497388Y-100254927D01*
X94304429Y-100175000D01*
X94095571Y-100175000D01*
X93902612Y-100254927D01*
X93800000Y-100357539D01*
X93697388Y-100254927D01*
X93504429Y-100175000D01*
X93295571Y-100175000D01*
X93102612Y-100254927D01*
X92954927Y-100402612D01*
X92875000Y-100595571D01*
X81565235Y-100595571D01*
X81623276Y-100508707D01*
X81692486Y-100160761D01*
X99500000Y-100160761D01*
X99500000Y-100439239D01*
X99606568Y-100696518D01*
X99803482Y-100893432D01*
X100060761Y-101000000D01*
X100339239Y-101000000D01*
X100596518Y-100893432D01*
X100793432Y-100696518D01*
X100876666Y-100495571D01*
X102875000Y-100495571D01*
X102875000Y-100704429D01*
X102954927Y-100897388D01*
X103102612Y-101045073D01*
X103295571Y-101125000D01*
X103504429Y-101125000D01*
X103697388Y-101045073D01*
X103845073Y-100897388D01*
X103925000Y-100704429D01*
X103925000Y-100495571D01*
X103845073Y-100302612D01*
X103697388Y-100154927D01*
X103504429Y-100075000D01*
X103295571Y-100075000D01*
X103102612Y-100154927D01*
X102954927Y-100302612D01*
X102875000Y-100495571D01*
X100876666Y-100495571D01*
X100900000Y-100439239D01*
X100900000Y-100160761D01*
X100858264Y-100060000D01*
X109827471Y-100060000D01*
X109916724Y-100508707D01*
X110170897Y-100889103D01*
X110551293Y-101143276D01*
X110886739Y-101210000D01*
X111113261Y-101210000D01*
X111448707Y-101143276D01*
X111829103Y-100889103D01*
X112083276Y-100508707D01*
X112172529Y-100060000D01*
X112367471Y-100060000D01*
X112456724Y-100508707D01*
X112710897Y-100889103D01*
X113091293Y-101143276D01*
X113426739Y-101210000D01*
X113653261Y-101210000D01*
X113988707Y-101143276D01*
X114369103Y-100889103D01*
X114623276Y-100508707D01*
X114712529Y-100060000D01*
X114623276Y-99611293D01*
X114369103Y-99230897D01*
X113988707Y-98976724D01*
X113653261Y-98910000D01*
X113426739Y-98910000D01*
X113091293Y-98976724D01*
X112710897Y-99230897D01*
X112456724Y-99611293D01*
X112367471Y-100060000D01*
X112172529Y-100060000D01*
X112083276Y-99611293D01*
X111829103Y-99230897D01*
X111448707Y-98976724D01*
X111113261Y-98910000D01*
X110886739Y-98910000D01*
X110551293Y-98976724D01*
X110170897Y-99230897D01*
X109916724Y-99611293D01*
X109827471Y-100060000D01*
X100858264Y-100060000D01*
X100793432Y-99903482D01*
X100596518Y-99706568D01*
X100339239Y-99600000D01*
X100060761Y-99600000D01*
X99803482Y-99706568D01*
X99606568Y-99903482D01*
X99500000Y-100160761D01*
X81692486Y-100160761D01*
X81712529Y-100060000D01*
X81623276Y-99611293D01*
X81369103Y-99230897D01*
X80988707Y-98976724D01*
X80653261Y-98910000D01*
X80426739Y-98910000D01*
X80091293Y-98976724D01*
X79710897Y-99230897D01*
X79456724Y-99611293D01*
X79367471Y-100060000D01*
X79172529Y-100060000D01*
X79083276Y-99611293D01*
X78829103Y-99230897D01*
X78448707Y-98976724D01*
X78113261Y-98910000D01*
X77886739Y-98910000D01*
X77551293Y-98976724D01*
X77170897Y-99230897D01*
X76916724Y-99611293D01*
X76827471Y-100060000D01*
X76375000Y-100060000D01*
X76375000Y-97520000D01*
X76827471Y-97520000D01*
X76916724Y-97968707D01*
X77170897Y-98349103D01*
X77551293Y-98603276D01*
X77886739Y-98670000D01*
X78113261Y-98670000D01*
X78448707Y-98603276D01*
X78829103Y-98349103D01*
X79083276Y-97968707D01*
X79172529Y-97520000D01*
X79367471Y-97520000D01*
X79456724Y-97968707D01*
X79710897Y-98349103D01*
X80091293Y-98603276D01*
X80426739Y-98670000D01*
X80653261Y-98670000D01*
X80988707Y-98603276D01*
X81369103Y-98349103D01*
X81623276Y-97968707D01*
X81712529Y-97520000D01*
X81623276Y-97071293D01*
X81369103Y-96690897D01*
X81076778Y-96495571D01*
X92075000Y-96495571D01*
X92075000Y-96704429D01*
X92154927Y-96897388D01*
X92257539Y-97000000D01*
X92154927Y-97102612D01*
X92075000Y-97295571D01*
X92075000Y-97504429D01*
X92154927Y-97697388D01*
X92302612Y-97845073D01*
X92495571Y-97925000D01*
X92704429Y-97925000D01*
X92897388Y-97845073D01*
X93000000Y-97742461D01*
X93102612Y-97845073D01*
X93295571Y-97925000D01*
X93504429Y-97925000D01*
X93697388Y-97845073D01*
X93800000Y-97742461D01*
X93902612Y-97845073D01*
X94095571Y-97925000D01*
X94304429Y-97925000D01*
X94497388Y-97845073D01*
X94600000Y-97742461D01*
X94658016Y-97800477D01*
X94554932Y-97903560D01*
X94475005Y-98096519D01*
X94475005Y-98305377D01*
X94554932Y-98498336D01*
X94702617Y-98646021D01*
X94895576Y-98725948D01*
X95104434Y-98725948D01*
X95297393Y-98646021D01*
X95445078Y-98498336D01*
X95525005Y-98305377D01*
X95525005Y-98096519D01*
X95524613Y-98095571D01*
X97675000Y-98095571D01*
X97675000Y-98304429D01*
X97754927Y-98497388D01*
X97902612Y-98645073D01*
X98095571Y-98725000D01*
X98304429Y-98725000D01*
X98497388Y-98645073D01*
X98645073Y-98497388D01*
X98725000Y-98304429D01*
X98725000Y-98095571D01*
X98645073Y-97902612D01*
X98497388Y-97754927D01*
X98304429Y-97675000D01*
X98095571Y-97675000D01*
X97902612Y-97754927D01*
X97754927Y-97902612D01*
X97675000Y-98095571D01*
X95524613Y-98095571D01*
X95445078Y-97903560D01*
X95341990Y-97800472D01*
X95445073Y-97697388D01*
X95525000Y-97504429D01*
X95525000Y-97295571D01*
X96075000Y-97295571D01*
X96075000Y-97504429D01*
X96154927Y-97697388D01*
X96302612Y-97845073D01*
X96495571Y-97925000D01*
X96704429Y-97925000D01*
X96897388Y-97845073D01*
X97045073Y-97697388D01*
X97125000Y-97504429D01*
X97125000Y-97295571D01*
X98990000Y-97295571D01*
X98990000Y-97504429D01*
X99069927Y-97697388D01*
X99217612Y-97845073D01*
X99410571Y-97925000D01*
X99619429Y-97925000D01*
X99812388Y-97845073D01*
X99960073Y-97697388D01*
X100033550Y-97520000D01*
X109827471Y-97520000D01*
X109916724Y-97968707D01*
X110170897Y-98349103D01*
X110551293Y-98603276D01*
X110886739Y-98670000D01*
X111113261Y-98670000D01*
X111448707Y-98603276D01*
X111829103Y-98349103D01*
X112083276Y-97968707D01*
X112172529Y-97520000D01*
X112367471Y-97520000D01*
X112456724Y-97968707D01*
X112710897Y-98349103D01*
X113091293Y-98603276D01*
X113426739Y-98670000D01*
X113653261Y-98670000D01*
X113988707Y-98603276D01*
X114369103Y-98349103D01*
X114623276Y-97968707D01*
X114712529Y-97520000D01*
X114623276Y-97071293D01*
X114369103Y-96690897D01*
X113988707Y-96436724D01*
X113653261Y-96370000D01*
X113426739Y-96370000D01*
X113091293Y-96436724D01*
X112710897Y-96690897D01*
X112456724Y-97071293D01*
X112367471Y-97520000D01*
X112172529Y-97520000D01*
X112083276Y-97071293D01*
X111829103Y-96690897D01*
X111448707Y-96436724D01*
X111113261Y-96370000D01*
X110886739Y-96370000D01*
X110551293Y-96436724D01*
X110170897Y-96690897D01*
X109916724Y-97071293D01*
X109827471Y-97520000D01*
X100033550Y-97520000D01*
X100040000Y-97504429D01*
X100040000Y-97295571D01*
X99960073Y-97102612D01*
X99812388Y-96954927D01*
X99619429Y-96875000D01*
X99410571Y-96875000D01*
X99217612Y-96954927D01*
X99069927Y-97102612D01*
X98990000Y-97295571D01*
X97125000Y-97295571D01*
X97045073Y-97102612D01*
X96897388Y-96954927D01*
X96704429Y-96875000D01*
X96495571Y-96875000D01*
X96302612Y-96954927D01*
X96154927Y-97102612D01*
X96075000Y-97295571D01*
X95525000Y-97295571D01*
X95445073Y-97102612D01*
X95341996Y-96999535D01*
X95444131Y-96897399D01*
X95524058Y-96704440D01*
X95524058Y-96495582D01*
X95444131Y-96302623D01*
X95296446Y-96154938D01*
X95103487Y-96075011D01*
X94894629Y-96075011D01*
X94701670Y-96154938D01*
X94553985Y-96302623D01*
X94474058Y-96495582D01*
X94474058Y-96704440D01*
X94553985Y-96897399D01*
X94657063Y-97000477D01*
X94600000Y-97057539D01*
X94497388Y-96954927D01*
X94304429Y-96875000D01*
X94095571Y-96875000D01*
X93902612Y-96954927D01*
X93800000Y-97057539D01*
X93742461Y-97000000D01*
X93845073Y-96897388D01*
X93925000Y-96704429D01*
X93925000Y-96495571D01*
X93845073Y-96302612D01*
X93697388Y-96154927D01*
X93504429Y-96075000D01*
X93295571Y-96075000D01*
X93102612Y-96154927D01*
X93000000Y-96257539D01*
X92897388Y-96154927D01*
X92704429Y-96075000D01*
X92495571Y-96075000D01*
X92302612Y-96154927D01*
X92154927Y-96302612D01*
X92075000Y-96495571D01*
X81076778Y-96495571D01*
X80988707Y-96436724D01*
X80653261Y-96370000D01*
X80426739Y-96370000D01*
X80091293Y-96436724D01*
X79710897Y-96690897D01*
X79456724Y-97071293D01*
X79367471Y-97520000D01*
X79172529Y-97520000D01*
X79083276Y-97071293D01*
X78829103Y-96690897D01*
X78448707Y-96436724D01*
X78113261Y-96370000D01*
X77886739Y-96370000D01*
X77551293Y-96436724D01*
X77170897Y-96690897D01*
X76916724Y-97071293D01*
X76827471Y-97520000D01*
X76375000Y-97520000D01*
X76375000Y-94980000D01*
X76827471Y-94980000D01*
X76916724Y-95428707D01*
X77170897Y-95809103D01*
X77551293Y-96063276D01*
X77886739Y-96130000D01*
X78113261Y-96130000D01*
X78448707Y-96063276D01*
X78829103Y-95809103D01*
X79083276Y-95428707D01*
X79172529Y-94980000D01*
X79367471Y-94980000D01*
X79456724Y-95428707D01*
X79710897Y-95809103D01*
X80091293Y-96063276D01*
X80426739Y-96130000D01*
X80653261Y-96130000D01*
X80988707Y-96063276D01*
X81369103Y-95809103D01*
X81440987Y-95701520D01*
X93679931Y-95701520D01*
X93679931Y-95910378D01*
X93759858Y-96103337D01*
X93907543Y-96251022D01*
X94100502Y-96330949D01*
X94309360Y-96330949D01*
X94502319Y-96251022D01*
X94650004Y-96103337D01*
X94729931Y-95910378D01*
X94729931Y-95701520D01*
X94650004Y-95508561D01*
X94502319Y-95360876D01*
X94309360Y-95280949D01*
X94100502Y-95280949D01*
X93907543Y-95360876D01*
X93759858Y-95508561D01*
X93679931Y-95701520D01*
X81440987Y-95701520D01*
X81623276Y-95428707D01*
X81712529Y-94980000D01*
X81623276Y-94531293D01*
X81369103Y-94150897D01*
X80988707Y-93896724D01*
X80653261Y-93830000D01*
X80426739Y-93830000D01*
X80091293Y-93896724D01*
X79710897Y-94150897D01*
X79456724Y-94531293D01*
X79367471Y-94980000D01*
X79172529Y-94980000D01*
X79083276Y-94531293D01*
X78829103Y-94150897D01*
X78448707Y-93896724D01*
X78113261Y-93830000D01*
X77886739Y-93830000D01*
X77551293Y-93896724D01*
X77170897Y-94150897D01*
X76916724Y-94531293D01*
X76827471Y-94980000D01*
X76375000Y-94980000D01*
X76375000Y-92440000D01*
X76827471Y-92440000D01*
X76916724Y-92888707D01*
X77170897Y-93269103D01*
X77551293Y-93523276D01*
X77886739Y-93590000D01*
X78113261Y-93590000D01*
X78448707Y-93523276D01*
X78829103Y-93269103D01*
X79083276Y-92888707D01*
X79172529Y-92440000D01*
X79367471Y-92440000D01*
X79456724Y-92888707D01*
X79710897Y-93269103D01*
X80091293Y-93523276D01*
X80426739Y-93590000D01*
X80653261Y-93590000D01*
X80988707Y-93523276D01*
X81329490Y-93295571D01*
X92075000Y-93295571D01*
X92075000Y-93504429D01*
X92154927Y-93697388D01*
X92302612Y-93845073D01*
X92495571Y-93925000D01*
X92704429Y-93925000D01*
X92897388Y-93845073D01*
X93000000Y-93742461D01*
X93057539Y-93800000D01*
X92954927Y-93902612D01*
X92875000Y-94095571D01*
X92875000Y-94304429D01*
X92954927Y-94497388D01*
X93102612Y-94645073D01*
X93295571Y-94725000D01*
X93504429Y-94725000D01*
X93697388Y-94645073D01*
X93800000Y-94542461D01*
X93902612Y-94645073D01*
X94095571Y-94725000D01*
X94304429Y-94725000D01*
X94497388Y-94645073D01*
X94600000Y-94542461D01*
X94702612Y-94645073D01*
X94895571Y-94725000D01*
X95104429Y-94725000D01*
X95297388Y-94645073D01*
X95400000Y-94542461D01*
X95457539Y-94600000D01*
X95354927Y-94702612D01*
X95275000Y-94895571D01*
X95275000Y-95104429D01*
X95354927Y-95297388D01*
X95458015Y-95400476D01*
X95354931Y-95503560D01*
X95275004Y-95696519D01*
X95275004Y-95905377D01*
X95354931Y-96098336D01*
X95502616Y-96246021D01*
X95695575Y-96325948D01*
X95904433Y-96325948D01*
X96097392Y-96246021D01*
X96245077Y-96098336D01*
X96325004Y-95905377D01*
X96325004Y-95696519D01*
X96324612Y-95695571D01*
X96875000Y-95695571D01*
X96875000Y-95904429D01*
X96954927Y-96097388D01*
X97102612Y-96245073D01*
X97295571Y-96325000D01*
X97504429Y-96325000D01*
X97697388Y-96245073D01*
X97845073Y-96097388D01*
X97925000Y-95904429D01*
X97925000Y-95695571D01*
X97845073Y-95502612D01*
X97697388Y-95354927D01*
X97504429Y-95275000D01*
X97295571Y-95275000D01*
X97102612Y-95354927D01*
X96954927Y-95502612D01*
X96875000Y-95695571D01*
X96324612Y-95695571D01*
X96245077Y-95503560D01*
X96141989Y-95400472D01*
X96200481Y-95341981D01*
X96303569Y-95445069D01*
X96496528Y-95524996D01*
X96705386Y-95524996D01*
X96898345Y-95445069D01*
X97046030Y-95297384D01*
X97125957Y-95104425D01*
X97125957Y-95040870D01*
X101700000Y-95040870D01*
X101700000Y-95359130D01*
X101821793Y-95653164D01*
X102046836Y-95878207D01*
X102340870Y-96000000D01*
X102659130Y-96000000D01*
X102953164Y-95878207D01*
X103178207Y-95653164D01*
X103300000Y-95359130D01*
X103300000Y-95040870D01*
X103274787Y-94980000D01*
X109827471Y-94980000D01*
X109916724Y-95428707D01*
X110170897Y-95809103D01*
X110551293Y-96063276D01*
X110886739Y-96130000D01*
X111113261Y-96130000D01*
X111448707Y-96063276D01*
X111829103Y-95809103D01*
X112083276Y-95428707D01*
X112172529Y-94980000D01*
X112367471Y-94980000D01*
X112456724Y-95428707D01*
X112710897Y-95809103D01*
X113091293Y-96063276D01*
X113426739Y-96130000D01*
X113653261Y-96130000D01*
X113988707Y-96063276D01*
X114369103Y-95809103D01*
X114623276Y-95428707D01*
X114712529Y-94980000D01*
X114623276Y-94531293D01*
X114369103Y-94150897D01*
X113988707Y-93896724D01*
X113653261Y-93830000D01*
X113426739Y-93830000D01*
X113091293Y-93896724D01*
X112710897Y-94150897D01*
X112456724Y-94531293D01*
X112367471Y-94980000D01*
X112172529Y-94980000D01*
X112083276Y-94531293D01*
X111829103Y-94150897D01*
X111448707Y-93896724D01*
X111113261Y-93830000D01*
X110886739Y-93830000D01*
X110551293Y-93896724D01*
X110170897Y-94150897D01*
X109916724Y-94531293D01*
X109827471Y-94980000D01*
X103274787Y-94980000D01*
X103178207Y-94746836D01*
X102953164Y-94521793D01*
X102659130Y-94400000D01*
X102340870Y-94400000D01*
X102046836Y-94521793D01*
X101821793Y-94746836D01*
X101700000Y-95040870D01*
X97125957Y-95040870D01*
X97125957Y-94895567D01*
X97046030Y-94702608D01*
X96898345Y-94554923D01*
X96705386Y-94474996D01*
X96496528Y-94474996D01*
X96303569Y-94554923D01*
X96200477Y-94658016D01*
X96142461Y-94600000D01*
X96245073Y-94497388D01*
X96325000Y-94304429D01*
X96325000Y-94095571D01*
X96875000Y-94095571D01*
X96875000Y-94304429D01*
X96954927Y-94497388D01*
X97102612Y-94645073D01*
X97295571Y-94725000D01*
X97504429Y-94725000D01*
X97697388Y-94645073D01*
X97845073Y-94497388D01*
X97925000Y-94304429D01*
X97925000Y-94095571D01*
X97845073Y-93902612D01*
X97697388Y-93754927D01*
X97504429Y-93675000D01*
X97295571Y-93675000D01*
X97102612Y-93754927D01*
X96954927Y-93902612D01*
X96875000Y-94095571D01*
X96325000Y-94095571D01*
X96245073Y-93902612D01*
X96097388Y-93754927D01*
X95904429Y-93675000D01*
X95695571Y-93675000D01*
X95502612Y-93754927D01*
X95400000Y-93857539D01*
X95297388Y-93754927D01*
X95104429Y-93675000D01*
X94895571Y-93675000D01*
X94702612Y-93754927D01*
X94600000Y-93857539D01*
X94497388Y-93754927D01*
X94304429Y-93675000D01*
X94095571Y-93675000D01*
X93902612Y-93754927D01*
X93800000Y-93857539D01*
X93742461Y-93800000D01*
X93845073Y-93697388D01*
X93925000Y-93504429D01*
X93925000Y-93295571D01*
X96075000Y-93295571D01*
X96075000Y-93504429D01*
X96154927Y-93697388D01*
X96302612Y-93845073D01*
X96495571Y-93925000D01*
X96704429Y-93925000D01*
X96897388Y-93845073D01*
X97045073Y-93697388D01*
X97125000Y-93504429D01*
X97125000Y-93295571D01*
X97045073Y-93102612D01*
X96897388Y-92954927D01*
X96704429Y-92875000D01*
X96495571Y-92875000D01*
X96302612Y-92954927D01*
X96154927Y-93102612D01*
X96075000Y-93295571D01*
X93925000Y-93295571D01*
X93845073Y-93102612D01*
X93697388Y-92954927D01*
X93504429Y-92875000D01*
X93295571Y-92875000D01*
X93102612Y-92954927D01*
X93000000Y-93057539D01*
X92897388Y-92954927D01*
X92704429Y-92875000D01*
X92495571Y-92875000D01*
X92302612Y-92954927D01*
X92154927Y-93102612D01*
X92075000Y-93295571D01*
X81329490Y-93295571D01*
X81369103Y-93269103D01*
X81623276Y-92888707D01*
X81712529Y-92440000D01*
X81644019Y-92095571D01*
X88075000Y-92095571D01*
X88075000Y-92304429D01*
X88154927Y-92497388D01*
X88302612Y-92645073D01*
X88495571Y-92725000D01*
X88704429Y-92725000D01*
X88897388Y-92645073D01*
X89045073Y-92497388D01*
X89045825Y-92495571D01*
X93675000Y-92495571D01*
X93675000Y-92704429D01*
X93754927Y-92897388D01*
X93902612Y-93045073D01*
X94095571Y-93125000D01*
X94304429Y-93125000D01*
X94497388Y-93045073D01*
X94600000Y-92942461D01*
X94702612Y-93045073D01*
X94895571Y-93125000D01*
X95104429Y-93125000D01*
X95297388Y-93045073D01*
X95400000Y-92942461D01*
X95502612Y-93045073D01*
X95695571Y-93125000D01*
X95904429Y-93125000D01*
X96097388Y-93045073D01*
X96245073Y-92897388D01*
X96325000Y-92704429D01*
X96325000Y-92495571D01*
X97675000Y-92495571D01*
X97675000Y-92704429D01*
X97754927Y-92897388D01*
X97902612Y-93045073D01*
X98095571Y-93125000D01*
X98304429Y-93125000D01*
X98497388Y-93045073D01*
X98645073Y-92897388D01*
X98725000Y-92704429D01*
X98725000Y-92495571D01*
X98704998Y-92447282D01*
X99400000Y-92447282D01*
X99400000Y-92685976D01*
X99491344Y-92906502D01*
X99660127Y-93075285D01*
X99880653Y-93166629D01*
X100119347Y-93166629D01*
X100339873Y-93075285D01*
X100508656Y-92906502D01*
X100600000Y-92685976D01*
X100600000Y-92447282D01*
X100596984Y-92440000D01*
X109827471Y-92440000D01*
X109916724Y-92888707D01*
X110170897Y-93269103D01*
X110551293Y-93523276D01*
X110886739Y-93590000D01*
X111113261Y-93590000D01*
X111448707Y-93523276D01*
X111829103Y-93269103D01*
X112083276Y-92888707D01*
X112172529Y-92440000D01*
X112367471Y-92440000D01*
X112456724Y-92888707D01*
X112710897Y-93269103D01*
X113091293Y-93523276D01*
X113426739Y-93590000D01*
X113653261Y-93590000D01*
X113988707Y-93523276D01*
X114369103Y-93269103D01*
X114623276Y-92888707D01*
X114712529Y-92440000D01*
X114623276Y-91991293D01*
X114369103Y-91610897D01*
X113988707Y-91356724D01*
X113653261Y-91290000D01*
X113426739Y-91290000D01*
X113091293Y-91356724D01*
X112710897Y-91610897D01*
X112456724Y-91991293D01*
X112367471Y-92440000D01*
X112172529Y-92440000D01*
X112083276Y-91991293D01*
X111829103Y-91610897D01*
X111448707Y-91356724D01*
X111113261Y-91290000D01*
X110886739Y-91290000D01*
X110551293Y-91356724D01*
X110170897Y-91610897D01*
X109916724Y-91991293D01*
X109827471Y-92440000D01*
X100596984Y-92440000D01*
X100508656Y-92226756D01*
X100339873Y-92057973D01*
X100119347Y-91966629D01*
X99880653Y-91966629D01*
X99660127Y-92057973D01*
X99491344Y-92226756D01*
X99400000Y-92447282D01*
X98704998Y-92447282D01*
X98645073Y-92302612D01*
X98497388Y-92154927D01*
X98304429Y-92075000D01*
X98095571Y-92075000D01*
X97902612Y-92154927D01*
X97754927Y-92302612D01*
X97675000Y-92495571D01*
X96325000Y-92495571D01*
X96245073Y-92302612D01*
X96097388Y-92154927D01*
X95904429Y-92075000D01*
X95695571Y-92075000D01*
X95502612Y-92154927D01*
X95400000Y-92257539D01*
X95297388Y-92154927D01*
X95104429Y-92075000D01*
X94895571Y-92075000D01*
X94702612Y-92154927D01*
X94600000Y-92257539D01*
X94497388Y-92154927D01*
X94304429Y-92075000D01*
X94095571Y-92075000D01*
X93902612Y-92154927D01*
X93754927Y-92302612D01*
X93675000Y-92495571D01*
X89045825Y-92495571D01*
X89125000Y-92304429D01*
X89125000Y-92095571D01*
X89045073Y-91902612D01*
X88897388Y-91754927D01*
X88704429Y-91675000D01*
X88495571Y-91675000D01*
X88302612Y-91754927D01*
X88154927Y-91902612D01*
X88075000Y-92095571D01*
X81644019Y-92095571D01*
X81623276Y-91991293D01*
X81369103Y-91610897D01*
X80988707Y-91356724D01*
X80653261Y-91290000D01*
X80426739Y-91290000D01*
X80091293Y-91356724D01*
X79710897Y-91610897D01*
X79456724Y-91991293D01*
X79367471Y-92440000D01*
X79172529Y-92440000D01*
X79083276Y-91991293D01*
X78829103Y-91610897D01*
X78448707Y-91356724D01*
X78113261Y-91290000D01*
X77886739Y-91290000D01*
X77551293Y-91356724D01*
X77170897Y-91610897D01*
X76916724Y-91991293D01*
X76827471Y-92440000D01*
X76375000Y-92440000D01*
X76375000Y-89900000D01*
X76827471Y-89900000D01*
X76916724Y-90348707D01*
X77170897Y-90729103D01*
X77551293Y-90983276D01*
X77886739Y-91050000D01*
X78113261Y-91050000D01*
X78448707Y-90983276D01*
X78829103Y-90729103D01*
X79083276Y-90348707D01*
X79172529Y-89900000D01*
X79367471Y-89900000D01*
X79456724Y-90348707D01*
X79710897Y-90729103D01*
X80091293Y-90983276D01*
X80426739Y-91050000D01*
X80653261Y-91050000D01*
X80988707Y-90983276D01*
X81369103Y-90729103D01*
X81623276Y-90348707D01*
X81712529Y-89900000D01*
X81623276Y-89451293D01*
X81609848Y-89431196D01*
X87950000Y-89431196D01*
X87950000Y-89868804D01*
X88117465Y-90273100D01*
X88426900Y-90582535D01*
X88831196Y-90750000D01*
X89268804Y-90750000D01*
X89400207Y-90695571D01*
X92475000Y-90695571D01*
X92475000Y-90904429D01*
X92554927Y-91097388D01*
X92702612Y-91245073D01*
X92895571Y-91325000D01*
X93104429Y-91325000D01*
X93297388Y-91245073D01*
X93445073Y-91097388D01*
X93525000Y-90904429D01*
X93525000Y-90695571D01*
X93500827Y-90637211D01*
X95675000Y-90637211D01*
X95675000Y-90846069D01*
X95754927Y-91039028D01*
X95902612Y-91186713D01*
X96095571Y-91266640D01*
X96304429Y-91266640D01*
X96497388Y-91186713D01*
X96645073Y-91039028D01*
X96725000Y-90846069D01*
X96725000Y-90695571D01*
X97275000Y-90695571D01*
X97275000Y-90904429D01*
X97354927Y-91097388D01*
X97502612Y-91245073D01*
X97695571Y-91325000D01*
X97904429Y-91325000D01*
X98097388Y-91245073D01*
X98245073Y-91097388D01*
X98325000Y-90904429D01*
X98325000Y-90695571D01*
X98245073Y-90502612D01*
X98097388Y-90354927D01*
X97904429Y-90275000D01*
X97695571Y-90275000D01*
X97502612Y-90354927D01*
X97354927Y-90502612D01*
X97275000Y-90695571D01*
X96725000Y-90695571D01*
X96725000Y-90637211D01*
X96645073Y-90444252D01*
X96497388Y-90296567D01*
X96304429Y-90216640D01*
X96095571Y-90216640D01*
X95902612Y-90296567D01*
X95754927Y-90444252D01*
X95675000Y-90637211D01*
X93500827Y-90637211D01*
X93445073Y-90502612D01*
X93297388Y-90354927D01*
X93104429Y-90275000D01*
X92895571Y-90275000D01*
X92702612Y-90354927D01*
X92554927Y-90502612D01*
X92475000Y-90695571D01*
X89400207Y-90695571D01*
X89673100Y-90582535D01*
X89982535Y-90273100D01*
X90138912Y-89895571D01*
X96575000Y-89895571D01*
X96575000Y-90104429D01*
X96654927Y-90297388D01*
X96802612Y-90445073D01*
X96995571Y-90525000D01*
X97204429Y-90525000D01*
X97397388Y-90445073D01*
X97545073Y-90297388D01*
X97625000Y-90104429D01*
X97625000Y-89900000D01*
X109827471Y-89900000D01*
X109916724Y-90348707D01*
X110170897Y-90729103D01*
X110551293Y-90983276D01*
X110886739Y-91050000D01*
X111113261Y-91050000D01*
X111448707Y-90983276D01*
X111829103Y-90729103D01*
X112083276Y-90348707D01*
X112172529Y-89900000D01*
X112367471Y-89900000D01*
X112456724Y-90348707D01*
X112710897Y-90729103D01*
X113091293Y-90983276D01*
X113426739Y-91050000D01*
X113653261Y-91050000D01*
X113988707Y-90983276D01*
X114369103Y-90729103D01*
X114623276Y-90348707D01*
X114712529Y-89900000D01*
X114623276Y-89451293D01*
X114369103Y-89070897D01*
X113988707Y-88816724D01*
X113653261Y-88750000D01*
X113426739Y-88750000D01*
X113091293Y-88816724D01*
X112710897Y-89070897D01*
X112456724Y-89451293D01*
X112367471Y-89900000D01*
X112172529Y-89900000D01*
X112083276Y-89451293D01*
X111829103Y-89070897D01*
X111448707Y-88816724D01*
X111113261Y-88750000D01*
X110886739Y-88750000D01*
X110551293Y-88816724D01*
X110170897Y-89070897D01*
X109916724Y-89451293D01*
X109827471Y-89900000D01*
X97625000Y-89900000D01*
X97625000Y-89895571D01*
X97545073Y-89702612D01*
X97397388Y-89554927D01*
X97204429Y-89475000D01*
X96995571Y-89475000D01*
X96802612Y-89554927D01*
X96654927Y-89702612D01*
X96575000Y-89895571D01*
X90138912Y-89895571D01*
X90150000Y-89868804D01*
X90150000Y-89431196D01*
X89982535Y-89026900D01*
X89736288Y-88780653D01*
X104700000Y-88780653D01*
X104700000Y-89019347D01*
X104791344Y-89239873D01*
X104960127Y-89408656D01*
X105180653Y-89500000D01*
X105419347Y-89500000D01*
X105639873Y-89408656D01*
X105700003Y-89348526D01*
X105760133Y-89408656D01*
X105980659Y-89500000D01*
X106219353Y-89500000D01*
X106439879Y-89408656D01*
X106450003Y-89398532D01*
X106460127Y-89408656D01*
X106680653Y-89500000D01*
X106919347Y-89500000D01*
X107139873Y-89408656D01*
X107308656Y-89239873D01*
X107400000Y-89019347D01*
X107400000Y-88780653D01*
X107308656Y-88560127D01*
X107139873Y-88391344D01*
X106919347Y-88300000D01*
X106680653Y-88300000D01*
X106460127Y-88391344D01*
X106450003Y-88401468D01*
X106439879Y-88391344D01*
X106219353Y-88300000D01*
X105980659Y-88300000D01*
X105760133Y-88391344D01*
X105700003Y-88451474D01*
X105639873Y-88391344D01*
X105419347Y-88300000D01*
X105180653Y-88300000D01*
X104960127Y-88391344D01*
X104791344Y-88560127D01*
X104700000Y-88780653D01*
X89736288Y-88780653D01*
X89673100Y-88717465D01*
X89268804Y-88550000D01*
X88831196Y-88550000D01*
X88426900Y-88717465D01*
X88117465Y-89026900D01*
X87950000Y-89431196D01*
X81609848Y-89431196D01*
X81369103Y-89070897D01*
X80988707Y-88816724D01*
X80653261Y-88750000D01*
X80426739Y-88750000D01*
X80091293Y-88816724D01*
X79710897Y-89070897D01*
X79456724Y-89451293D01*
X79367471Y-89900000D01*
X79172529Y-89900000D01*
X79083276Y-89451293D01*
X78829103Y-89070897D01*
X78448707Y-88816724D01*
X78113261Y-88750000D01*
X77886739Y-88750000D01*
X77551293Y-88816724D01*
X77170897Y-89070897D01*
X76916724Y-89451293D01*
X76827471Y-89900000D01*
X76375000Y-89900000D01*
X76375000Y-87360000D01*
X76827471Y-87360000D01*
X76916724Y-87808707D01*
X77170897Y-88189103D01*
X77551293Y-88443276D01*
X77886739Y-88510000D01*
X78113261Y-88510000D01*
X78448707Y-88443276D01*
X78829103Y-88189103D01*
X79083276Y-87808707D01*
X79172529Y-87360000D01*
X79367471Y-87360000D01*
X79456724Y-87808707D01*
X79710897Y-88189103D01*
X80091293Y-88443276D01*
X80426739Y-88510000D01*
X80653261Y-88510000D01*
X80988707Y-88443276D01*
X81369103Y-88189103D01*
X81623276Y-87808707D01*
X81712529Y-87360000D01*
X109827471Y-87360000D01*
X109916724Y-87808707D01*
X110170897Y-88189103D01*
X110551293Y-88443276D01*
X110886739Y-88510000D01*
X111113261Y-88510000D01*
X111448707Y-88443276D01*
X111829103Y-88189103D01*
X112083276Y-87808707D01*
X112172529Y-87360000D01*
X112367471Y-87360000D01*
X112456724Y-87808707D01*
X112710897Y-88189103D01*
X113091293Y-88443276D01*
X113426739Y-88510000D01*
X113653261Y-88510000D01*
X113988707Y-88443276D01*
X114369103Y-88189103D01*
X114623276Y-87808707D01*
X114712529Y-87360000D01*
X114623276Y-86911293D01*
X114369103Y-86530897D01*
X113988707Y-86276724D01*
X113653261Y-86210000D01*
X113426739Y-86210000D01*
X113091293Y-86276724D01*
X112710897Y-86530897D01*
X112456724Y-86911293D01*
X112367471Y-87360000D01*
X112172529Y-87360000D01*
X112083276Y-86911293D01*
X111829103Y-86530897D01*
X111448707Y-86276724D01*
X111113261Y-86210000D01*
X110886739Y-86210000D01*
X110551293Y-86276724D01*
X110170897Y-86530897D01*
X109916724Y-86911293D01*
X109827471Y-87360000D01*
X81712529Y-87360000D01*
X81623276Y-86911293D01*
X81369103Y-86530897D01*
X80988707Y-86276724D01*
X80653261Y-86210000D01*
X80426739Y-86210000D01*
X80091293Y-86276724D01*
X79710897Y-86530897D01*
X79456724Y-86911293D01*
X79367471Y-87360000D01*
X79172529Y-87360000D01*
X79083276Y-86911293D01*
X78829103Y-86530897D01*
X78448707Y-86276724D01*
X78113261Y-86210000D01*
X77886739Y-86210000D01*
X77551293Y-86276724D01*
X77170897Y-86530897D01*
X76916724Y-86911293D01*
X76827471Y-87360000D01*
X76375000Y-87360000D01*
X76375000Y-84820000D01*
X76827471Y-84820000D01*
X76916724Y-85268707D01*
X77170897Y-85649103D01*
X77551293Y-85903276D01*
X77886739Y-85970000D01*
X78113261Y-85970000D01*
X78448707Y-85903276D01*
X78829103Y-85649103D01*
X79083276Y-85268707D01*
X79172529Y-84820000D01*
X79367471Y-84820000D01*
X79456724Y-85268707D01*
X79710897Y-85649103D01*
X80091293Y-85903276D01*
X80426739Y-85970000D01*
X80653261Y-85970000D01*
X80988707Y-85903276D01*
X81369103Y-85649103D01*
X81623276Y-85268707D01*
X81699266Y-84886674D01*
X92234010Y-84886674D01*
X92305392Y-85058133D01*
X92699509Y-85228223D01*
X93128715Y-85234544D01*
X93527669Y-85076133D01*
X93554608Y-85058133D01*
X93625990Y-84886674D01*
X97234010Y-84886674D01*
X97305392Y-85058133D01*
X97699509Y-85228223D01*
X98128715Y-85234544D01*
X98527669Y-85076133D01*
X98554608Y-85058133D01*
X98625990Y-84886674D01*
X97930000Y-84190684D01*
X97234010Y-84886674D01*
X93625990Y-84886674D01*
X92930000Y-84190684D01*
X92234010Y-84886674D01*
X81699266Y-84886674D01*
X81712529Y-84820000D01*
X81623276Y-84371293D01*
X81369103Y-83990897D01*
X80988707Y-83736724D01*
X80653261Y-83670000D01*
X80426739Y-83670000D01*
X80091293Y-83736724D01*
X79710897Y-83990897D01*
X79456724Y-84371293D01*
X79367471Y-84820000D01*
X79172529Y-84820000D01*
X79083276Y-84371293D01*
X78829103Y-83990897D01*
X78448707Y-83736724D01*
X78113261Y-83670000D01*
X77886739Y-83670000D01*
X77551293Y-83736724D01*
X77170897Y-83990897D01*
X76916724Y-84371293D01*
X76827471Y-84820000D01*
X76375000Y-84820000D01*
X76375000Y-83540870D01*
X88800000Y-83540870D01*
X88800000Y-83859130D01*
X88921793Y-84153164D01*
X89146836Y-84378207D01*
X89440870Y-84500000D01*
X89759130Y-84500000D01*
X90053164Y-84378207D01*
X90080156Y-84351215D01*
X91847956Y-84351215D01*
X92006367Y-84750169D01*
X92024367Y-84777108D01*
X92195826Y-84848490D01*
X92891816Y-84152500D01*
X92968184Y-84152500D01*
X93664174Y-84848490D01*
X93835633Y-84777108D01*
X94005723Y-84382991D01*
X94006190Y-84351215D01*
X96847956Y-84351215D01*
X97006367Y-84750169D01*
X97024367Y-84777108D01*
X97195826Y-84848490D01*
X97891816Y-84152500D01*
X97968184Y-84152500D01*
X98664174Y-84848490D01*
X98732606Y-84820000D01*
X109827471Y-84820000D01*
X109916724Y-85268707D01*
X110170897Y-85649103D01*
X110551293Y-85903276D01*
X110886739Y-85970000D01*
X111113261Y-85970000D01*
X111448707Y-85903276D01*
X111829103Y-85649103D01*
X112083276Y-85268707D01*
X112172529Y-84820000D01*
X112367471Y-84820000D01*
X112456724Y-85268707D01*
X112710897Y-85649103D01*
X113091293Y-85903276D01*
X113426739Y-85970000D01*
X113653261Y-85970000D01*
X113988707Y-85903276D01*
X114369103Y-85649103D01*
X114623276Y-85268707D01*
X114712529Y-84820000D01*
X114623276Y-84371293D01*
X114369103Y-83990897D01*
X113988707Y-83736724D01*
X113653261Y-83670000D01*
X113426739Y-83670000D01*
X113091293Y-83736724D01*
X112710897Y-83990897D01*
X112456724Y-84371293D01*
X112367471Y-84820000D01*
X112172529Y-84820000D01*
X112083276Y-84371293D01*
X111829103Y-83990897D01*
X111448707Y-83736724D01*
X111113261Y-83670000D01*
X110886739Y-83670000D01*
X110551293Y-83736724D01*
X110170897Y-83990897D01*
X109916724Y-84371293D01*
X109827471Y-84820000D01*
X98732606Y-84820000D01*
X98835633Y-84777108D01*
X99005723Y-84382991D01*
X99012044Y-83953785D01*
X98853633Y-83554831D01*
X98835633Y-83527892D01*
X98664174Y-83456510D01*
X97968184Y-84152500D01*
X97891816Y-84152500D01*
X97195826Y-83456510D01*
X97024367Y-83527892D01*
X96854277Y-83922009D01*
X96847956Y-84351215D01*
X94006190Y-84351215D01*
X94012044Y-83953785D01*
X93853633Y-83554831D01*
X93835633Y-83527892D01*
X93664174Y-83456510D01*
X92968184Y-84152500D01*
X92891816Y-84152500D01*
X92195826Y-83456510D01*
X92024367Y-83527892D01*
X91854277Y-83922009D01*
X91847956Y-84351215D01*
X90080156Y-84351215D01*
X90278207Y-84153164D01*
X90400000Y-83859130D01*
X90400000Y-83540870D01*
X90349241Y-83418326D01*
X92234010Y-83418326D01*
X92930000Y-84114316D01*
X93625990Y-83418326D01*
X97234010Y-83418326D01*
X97930000Y-84114316D01*
X98625990Y-83418326D01*
X98554608Y-83246867D01*
X98160491Y-83076777D01*
X97731285Y-83070456D01*
X97332331Y-83228867D01*
X97305392Y-83246867D01*
X97234010Y-83418326D01*
X93625990Y-83418326D01*
X93554608Y-83246867D01*
X93160491Y-83076777D01*
X92731285Y-83070456D01*
X92332331Y-83228867D01*
X92305392Y-83246867D01*
X92234010Y-83418326D01*
X90349241Y-83418326D01*
X90278207Y-83246836D01*
X90053164Y-83021793D01*
X89759130Y-82900000D01*
X89440870Y-82900000D01*
X89146836Y-83021793D01*
X88921793Y-83246836D01*
X88800000Y-83540870D01*
X76375000Y-83540870D01*
X76375000Y-81430000D01*
X76844123Y-81430000D01*
X76844123Y-83130000D01*
X76867407Y-83247054D01*
X76933712Y-83346288D01*
X77032946Y-83412593D01*
X77150000Y-83435877D01*
X78850000Y-83435877D01*
X78967054Y-83412593D01*
X79066288Y-83346288D01*
X79132593Y-83247054D01*
X79155877Y-83130000D01*
X79155877Y-82494967D01*
X79355346Y-82494967D01*
X79363255Y-82534745D01*
X79550316Y-82965674D01*
X79888047Y-83292216D01*
X80325032Y-83464657D01*
X80513000Y-83395200D01*
X80513000Y-82307000D01*
X80567000Y-82307000D01*
X80567000Y-83395200D01*
X80754968Y-83464657D01*
X81191953Y-83292216D01*
X81529684Y-82965674D01*
X81716745Y-82534745D01*
X81724654Y-82494967D01*
X81655173Y-82307000D01*
X80567000Y-82307000D01*
X80513000Y-82307000D01*
X79424827Y-82307000D01*
X79355346Y-82494967D01*
X79155877Y-82494967D01*
X79155877Y-82065033D01*
X79355346Y-82065033D01*
X79424827Y-82253000D01*
X80513000Y-82253000D01*
X80513000Y-81164800D01*
X80567000Y-81164800D01*
X80567000Y-82253000D01*
X81655173Y-82253000D01*
X81724654Y-82065033D01*
X81716745Y-82025255D01*
X81529684Y-81594326D01*
X81370970Y-81440870D01*
X88800000Y-81440870D01*
X88800000Y-81759130D01*
X88921793Y-82053164D01*
X89146836Y-82278207D01*
X89440870Y-82400000D01*
X89759130Y-82400000D01*
X90053164Y-82278207D01*
X90278207Y-82053164D01*
X90400000Y-81759130D01*
X90400000Y-81479500D01*
X90976000Y-81479500D01*
X90976000Y-81829500D01*
X91058951Y-82192525D01*
X91274512Y-82496172D01*
X91589865Y-82694214D01*
X91754154Y-82740154D01*
X91903000Y-82667579D01*
X91903000Y-81479500D01*
X91957000Y-81479500D01*
X91957000Y-82667579D01*
X92105846Y-82740154D01*
X92270135Y-82694214D01*
X92585488Y-82496172D01*
X92801049Y-82192525D01*
X92884000Y-81829500D01*
X92884000Y-81479500D01*
X97976000Y-81479500D01*
X97976000Y-81829500D01*
X98058951Y-82192525D01*
X98274512Y-82496172D01*
X98589865Y-82694214D01*
X98754154Y-82740154D01*
X98903000Y-82667579D01*
X98903000Y-81479500D01*
X98957000Y-81479500D01*
X98957000Y-82667579D01*
X99105846Y-82740154D01*
X99270135Y-82694214D01*
X99585488Y-82496172D01*
X99801049Y-82192525D01*
X99884000Y-81829500D01*
X99884000Y-81479500D01*
X98957000Y-81479500D01*
X98903000Y-81479500D01*
X97976000Y-81479500D01*
X92884000Y-81479500D01*
X91957000Y-81479500D01*
X91903000Y-81479500D01*
X90976000Y-81479500D01*
X90400000Y-81479500D01*
X90400000Y-81440870D01*
X90395498Y-81430000D01*
X109844123Y-81430000D01*
X109844123Y-83130000D01*
X109867407Y-83247054D01*
X109933712Y-83346288D01*
X110032946Y-83412593D01*
X110150000Y-83435877D01*
X111850000Y-83435877D01*
X111967054Y-83412593D01*
X112066288Y-83346288D01*
X112132593Y-83247054D01*
X112155877Y-83130000D01*
X112155877Y-82494967D01*
X112355346Y-82494967D01*
X112363255Y-82534745D01*
X112550316Y-82965674D01*
X112888047Y-83292216D01*
X113325032Y-83464657D01*
X113513000Y-83395200D01*
X113513000Y-82307000D01*
X113567000Y-82307000D01*
X113567000Y-83395200D01*
X113754968Y-83464657D01*
X114191953Y-83292216D01*
X114529684Y-82965674D01*
X114716745Y-82534745D01*
X114724654Y-82494967D01*
X114655173Y-82307000D01*
X113567000Y-82307000D01*
X113513000Y-82307000D01*
X112424827Y-82307000D01*
X112355346Y-82494967D01*
X112155877Y-82494967D01*
X112155877Y-82065033D01*
X112355346Y-82065033D01*
X112424827Y-82253000D01*
X113513000Y-82253000D01*
X113513000Y-81164800D01*
X113567000Y-81164800D01*
X113567000Y-82253000D01*
X114655173Y-82253000D01*
X114724654Y-82065033D01*
X114716745Y-82025255D01*
X114529684Y-81594326D01*
X114191953Y-81267784D01*
X113754968Y-81095343D01*
X113567000Y-81164800D01*
X113513000Y-81164800D01*
X113325032Y-81095343D01*
X112888047Y-81267784D01*
X112550316Y-81594326D01*
X112363255Y-82025255D01*
X112355346Y-82065033D01*
X112155877Y-82065033D01*
X112155877Y-81430000D01*
X112132593Y-81312946D01*
X112066288Y-81213712D01*
X111967054Y-81147407D01*
X111850000Y-81124123D01*
X110150000Y-81124123D01*
X110032946Y-81147407D01*
X109933712Y-81213712D01*
X109867407Y-81312946D01*
X109844123Y-81430000D01*
X90395498Y-81430000D01*
X90278207Y-81146836D01*
X90053164Y-80921793D01*
X89759130Y-80800000D01*
X89440870Y-80800000D01*
X89146836Y-80921793D01*
X88921793Y-81146836D01*
X88800000Y-81440870D01*
X81370970Y-81440870D01*
X81191953Y-81267784D01*
X80754968Y-81095343D01*
X80567000Y-81164800D01*
X80513000Y-81164800D01*
X80325032Y-81095343D01*
X79888047Y-81267784D01*
X79550316Y-81594326D01*
X79363255Y-82025255D01*
X79355346Y-82065033D01*
X79155877Y-82065033D01*
X79155877Y-81430000D01*
X79132593Y-81312946D01*
X79066288Y-81213712D01*
X78967054Y-81147407D01*
X78850000Y-81124123D01*
X77150000Y-81124123D01*
X77032946Y-81147407D01*
X76933712Y-81213712D01*
X76867407Y-81312946D01*
X76844123Y-81430000D01*
X76375000Y-81430000D01*
X76375000Y-81036937D01*
X76429363Y-80763633D01*
X76563253Y-80563253D01*
X76763632Y-80429363D01*
X77036936Y-80375000D01*
X91328378Y-80375000D01*
X91274512Y-80408828D01*
G04 #@! TD*
M02*
