G04 #@! TF.GenerationSoftware,KiCad,Pcbnew,5.0.2-bee76a0~70~ubuntu18.04.1*
G04 #@! TF.CreationDate,2018-12-10T15:17:23+01:00*
G04 #@! TF.ProjectId,sammyultra,73616d6d-7975-46c7-9472-612e6b696361,rev?*
G04 #@! TF.SameCoordinates,Original*
G04 #@! TF.FileFunction,Paste,Top*
G04 #@! TF.FilePolarity,Positive*
%FSLAX46Y46*%
G04 Gerber Fmt 4.6, Leading zero omitted, Abs format (unit mm)*
G04 Created by KiCad (PCBNEW 5.0.2-bee76a0~70~ubuntu18.04.1) date 2018-12-10T15:17:23 CET*
%MOMM*%
%LPD*%
G01*
G04 APERTURE LIST*
%ADD10R,1.600000X2.180000*%
%ADD11R,1.150000X1.000000*%
%ADD12C,0.100000*%
%ADD13C,0.875000*%
%ADD14C,0.590000*%
%ADD15R,0.750000X1.100000*%
%ADD16R,0.850000X1.100000*%
%ADD17R,0.875000X1.100000*%
%ADD18R,1.200000X1.000000*%
%ADD19R,1.900000X1.350000*%
%ADD20R,1.170000X1.800000*%
%ADD21R,1.550000X1.350000*%
%ADD22R,1.500000X1.900000*%
%ADD23R,0.400000X1.350000*%
%ADD24R,0.650000X1.060000*%
%ADD25C,0.320000*%
%ADD26C,0.350000*%
G04 APERTURE END LIST*
D10*
G04 #@! TO.C,SW1*
X105400000Y-100210000D03*
X105400000Y-109390000D03*
G04 #@! TD*
D11*
G04 #@! TO.C,Y1*
X103725000Y-93200000D03*
X105475000Y-93200000D03*
X105475000Y-91800000D03*
X103725000Y-91800000D03*
G04 #@! TD*
D12*
G04 #@! TO.C,C15*
G36*
X107527691Y-89626053D02*
X107548926Y-89629203D01*
X107569750Y-89634419D01*
X107589962Y-89641651D01*
X107609368Y-89650830D01*
X107627781Y-89661866D01*
X107645024Y-89674654D01*
X107660930Y-89689070D01*
X107675346Y-89704976D01*
X107688134Y-89722219D01*
X107699170Y-89740632D01*
X107708349Y-89760038D01*
X107715581Y-89780250D01*
X107720797Y-89801074D01*
X107723947Y-89822309D01*
X107725000Y-89843750D01*
X107725000Y-90356250D01*
X107723947Y-90377691D01*
X107720797Y-90398926D01*
X107715581Y-90419750D01*
X107708349Y-90439962D01*
X107699170Y-90459368D01*
X107688134Y-90477781D01*
X107675346Y-90495024D01*
X107660930Y-90510930D01*
X107645024Y-90525346D01*
X107627781Y-90538134D01*
X107609368Y-90549170D01*
X107589962Y-90558349D01*
X107569750Y-90565581D01*
X107548926Y-90570797D01*
X107527691Y-90573947D01*
X107506250Y-90575000D01*
X107068750Y-90575000D01*
X107047309Y-90573947D01*
X107026074Y-90570797D01*
X107005250Y-90565581D01*
X106985038Y-90558349D01*
X106965632Y-90549170D01*
X106947219Y-90538134D01*
X106929976Y-90525346D01*
X106914070Y-90510930D01*
X106899654Y-90495024D01*
X106886866Y-90477781D01*
X106875830Y-90459368D01*
X106866651Y-90439962D01*
X106859419Y-90419750D01*
X106854203Y-90398926D01*
X106851053Y-90377691D01*
X106850000Y-90356250D01*
X106850000Y-89843750D01*
X106851053Y-89822309D01*
X106854203Y-89801074D01*
X106859419Y-89780250D01*
X106866651Y-89760038D01*
X106875830Y-89740632D01*
X106886866Y-89722219D01*
X106899654Y-89704976D01*
X106914070Y-89689070D01*
X106929976Y-89674654D01*
X106947219Y-89661866D01*
X106965632Y-89650830D01*
X106985038Y-89641651D01*
X107005250Y-89634419D01*
X107026074Y-89629203D01*
X107047309Y-89626053D01*
X107068750Y-89625000D01*
X107506250Y-89625000D01*
X107527691Y-89626053D01*
X107527691Y-89626053D01*
G37*
D13*
X107287500Y-90100000D03*
D12*
G36*
X105952691Y-89626053D02*
X105973926Y-89629203D01*
X105994750Y-89634419D01*
X106014962Y-89641651D01*
X106034368Y-89650830D01*
X106052781Y-89661866D01*
X106070024Y-89674654D01*
X106085930Y-89689070D01*
X106100346Y-89704976D01*
X106113134Y-89722219D01*
X106124170Y-89740632D01*
X106133349Y-89760038D01*
X106140581Y-89780250D01*
X106145797Y-89801074D01*
X106148947Y-89822309D01*
X106150000Y-89843750D01*
X106150000Y-90356250D01*
X106148947Y-90377691D01*
X106145797Y-90398926D01*
X106140581Y-90419750D01*
X106133349Y-90439962D01*
X106124170Y-90459368D01*
X106113134Y-90477781D01*
X106100346Y-90495024D01*
X106085930Y-90510930D01*
X106070024Y-90525346D01*
X106052781Y-90538134D01*
X106034368Y-90549170D01*
X106014962Y-90558349D01*
X105994750Y-90565581D01*
X105973926Y-90570797D01*
X105952691Y-90573947D01*
X105931250Y-90575000D01*
X105493750Y-90575000D01*
X105472309Y-90573947D01*
X105451074Y-90570797D01*
X105430250Y-90565581D01*
X105410038Y-90558349D01*
X105390632Y-90549170D01*
X105372219Y-90538134D01*
X105354976Y-90525346D01*
X105339070Y-90510930D01*
X105324654Y-90495024D01*
X105311866Y-90477781D01*
X105300830Y-90459368D01*
X105291651Y-90439962D01*
X105284419Y-90419750D01*
X105279203Y-90398926D01*
X105276053Y-90377691D01*
X105275000Y-90356250D01*
X105275000Y-89843750D01*
X105276053Y-89822309D01*
X105279203Y-89801074D01*
X105284419Y-89780250D01*
X105291651Y-89760038D01*
X105300830Y-89740632D01*
X105311866Y-89722219D01*
X105324654Y-89704976D01*
X105339070Y-89689070D01*
X105354976Y-89674654D01*
X105372219Y-89661866D01*
X105390632Y-89650830D01*
X105410038Y-89641651D01*
X105430250Y-89634419D01*
X105451074Y-89629203D01*
X105472309Y-89626053D01*
X105493750Y-89625000D01*
X105931250Y-89625000D01*
X105952691Y-89626053D01*
X105952691Y-89626053D01*
G37*
D13*
X105712500Y-90100000D03*
G04 #@! TD*
D12*
G04 #@! TO.C,C16*
G36*
X105952691Y-94976053D02*
X105973926Y-94979203D01*
X105994750Y-94984419D01*
X106014962Y-94991651D01*
X106034368Y-95000830D01*
X106052781Y-95011866D01*
X106070024Y-95024654D01*
X106085930Y-95039070D01*
X106100346Y-95054976D01*
X106113134Y-95072219D01*
X106124170Y-95090632D01*
X106133349Y-95110038D01*
X106140581Y-95130250D01*
X106145797Y-95151074D01*
X106148947Y-95172309D01*
X106150000Y-95193750D01*
X106150000Y-95706250D01*
X106148947Y-95727691D01*
X106145797Y-95748926D01*
X106140581Y-95769750D01*
X106133349Y-95789962D01*
X106124170Y-95809368D01*
X106113134Y-95827781D01*
X106100346Y-95845024D01*
X106085930Y-95860930D01*
X106070024Y-95875346D01*
X106052781Y-95888134D01*
X106034368Y-95899170D01*
X106014962Y-95908349D01*
X105994750Y-95915581D01*
X105973926Y-95920797D01*
X105952691Y-95923947D01*
X105931250Y-95925000D01*
X105493750Y-95925000D01*
X105472309Y-95923947D01*
X105451074Y-95920797D01*
X105430250Y-95915581D01*
X105410038Y-95908349D01*
X105390632Y-95899170D01*
X105372219Y-95888134D01*
X105354976Y-95875346D01*
X105339070Y-95860930D01*
X105324654Y-95845024D01*
X105311866Y-95827781D01*
X105300830Y-95809368D01*
X105291651Y-95789962D01*
X105284419Y-95769750D01*
X105279203Y-95748926D01*
X105276053Y-95727691D01*
X105275000Y-95706250D01*
X105275000Y-95193750D01*
X105276053Y-95172309D01*
X105279203Y-95151074D01*
X105284419Y-95130250D01*
X105291651Y-95110038D01*
X105300830Y-95090632D01*
X105311866Y-95072219D01*
X105324654Y-95054976D01*
X105339070Y-95039070D01*
X105354976Y-95024654D01*
X105372219Y-95011866D01*
X105390632Y-95000830D01*
X105410038Y-94991651D01*
X105430250Y-94984419D01*
X105451074Y-94979203D01*
X105472309Y-94976053D01*
X105493750Y-94975000D01*
X105931250Y-94975000D01*
X105952691Y-94976053D01*
X105952691Y-94976053D01*
G37*
D13*
X105712500Y-95450000D03*
D12*
G36*
X107527691Y-94976053D02*
X107548926Y-94979203D01*
X107569750Y-94984419D01*
X107589962Y-94991651D01*
X107609368Y-95000830D01*
X107627781Y-95011866D01*
X107645024Y-95024654D01*
X107660930Y-95039070D01*
X107675346Y-95054976D01*
X107688134Y-95072219D01*
X107699170Y-95090632D01*
X107708349Y-95110038D01*
X107715581Y-95130250D01*
X107720797Y-95151074D01*
X107723947Y-95172309D01*
X107725000Y-95193750D01*
X107725000Y-95706250D01*
X107723947Y-95727691D01*
X107720797Y-95748926D01*
X107715581Y-95769750D01*
X107708349Y-95789962D01*
X107699170Y-95809368D01*
X107688134Y-95827781D01*
X107675346Y-95845024D01*
X107660930Y-95860930D01*
X107645024Y-95875346D01*
X107627781Y-95888134D01*
X107609368Y-95899170D01*
X107589962Y-95908349D01*
X107569750Y-95915581D01*
X107548926Y-95920797D01*
X107527691Y-95923947D01*
X107506250Y-95925000D01*
X107068750Y-95925000D01*
X107047309Y-95923947D01*
X107026074Y-95920797D01*
X107005250Y-95915581D01*
X106985038Y-95908349D01*
X106965632Y-95899170D01*
X106947219Y-95888134D01*
X106929976Y-95875346D01*
X106914070Y-95860930D01*
X106899654Y-95845024D01*
X106886866Y-95827781D01*
X106875830Y-95809368D01*
X106866651Y-95789962D01*
X106859419Y-95769750D01*
X106854203Y-95748926D01*
X106851053Y-95727691D01*
X106850000Y-95706250D01*
X106850000Y-95193750D01*
X106851053Y-95172309D01*
X106854203Y-95151074D01*
X106859419Y-95130250D01*
X106866651Y-95110038D01*
X106875830Y-95090632D01*
X106886866Y-95072219D01*
X106899654Y-95054976D01*
X106914070Y-95039070D01*
X106929976Y-95024654D01*
X106947219Y-95011866D01*
X106965632Y-95000830D01*
X106985038Y-94991651D01*
X107005250Y-94984419D01*
X107026074Y-94979203D01*
X107047309Y-94976053D01*
X107068750Y-94975000D01*
X107506250Y-94975000D01*
X107527691Y-94976053D01*
X107527691Y-94976053D01*
G37*
D13*
X107287500Y-95450000D03*
G04 #@! TD*
D12*
G04 #@! TO.C,R1*
G36*
X97306958Y-87980710D02*
X97321276Y-87982834D01*
X97335317Y-87986351D01*
X97348946Y-87991228D01*
X97362031Y-87997417D01*
X97374447Y-88004858D01*
X97386073Y-88013481D01*
X97396798Y-88023202D01*
X97406519Y-88033927D01*
X97415142Y-88045553D01*
X97422583Y-88057969D01*
X97428772Y-88071054D01*
X97433649Y-88084683D01*
X97437166Y-88098724D01*
X97439290Y-88113042D01*
X97440000Y-88127500D01*
X97440000Y-88422500D01*
X97439290Y-88436958D01*
X97437166Y-88451276D01*
X97433649Y-88465317D01*
X97428772Y-88478946D01*
X97422583Y-88492031D01*
X97415142Y-88504447D01*
X97406519Y-88516073D01*
X97396798Y-88526798D01*
X97386073Y-88536519D01*
X97374447Y-88545142D01*
X97362031Y-88552583D01*
X97348946Y-88558772D01*
X97335317Y-88563649D01*
X97321276Y-88567166D01*
X97306958Y-88569290D01*
X97292500Y-88570000D01*
X96947500Y-88570000D01*
X96933042Y-88569290D01*
X96918724Y-88567166D01*
X96904683Y-88563649D01*
X96891054Y-88558772D01*
X96877969Y-88552583D01*
X96865553Y-88545142D01*
X96853927Y-88536519D01*
X96843202Y-88526798D01*
X96833481Y-88516073D01*
X96824858Y-88504447D01*
X96817417Y-88492031D01*
X96811228Y-88478946D01*
X96806351Y-88465317D01*
X96802834Y-88451276D01*
X96800710Y-88436958D01*
X96800000Y-88422500D01*
X96800000Y-88127500D01*
X96800710Y-88113042D01*
X96802834Y-88098724D01*
X96806351Y-88084683D01*
X96811228Y-88071054D01*
X96817417Y-88057969D01*
X96824858Y-88045553D01*
X96833481Y-88033927D01*
X96843202Y-88023202D01*
X96853927Y-88013481D01*
X96865553Y-88004858D01*
X96877969Y-87997417D01*
X96891054Y-87991228D01*
X96904683Y-87986351D01*
X96918724Y-87982834D01*
X96933042Y-87980710D01*
X96947500Y-87980000D01*
X97292500Y-87980000D01*
X97306958Y-87980710D01*
X97306958Y-87980710D01*
G37*
D14*
X97120000Y-88275000D03*
D12*
G36*
X97306958Y-88950710D02*
X97321276Y-88952834D01*
X97335317Y-88956351D01*
X97348946Y-88961228D01*
X97362031Y-88967417D01*
X97374447Y-88974858D01*
X97386073Y-88983481D01*
X97396798Y-88993202D01*
X97406519Y-89003927D01*
X97415142Y-89015553D01*
X97422583Y-89027969D01*
X97428772Y-89041054D01*
X97433649Y-89054683D01*
X97437166Y-89068724D01*
X97439290Y-89083042D01*
X97440000Y-89097500D01*
X97440000Y-89392500D01*
X97439290Y-89406958D01*
X97437166Y-89421276D01*
X97433649Y-89435317D01*
X97428772Y-89448946D01*
X97422583Y-89462031D01*
X97415142Y-89474447D01*
X97406519Y-89486073D01*
X97396798Y-89496798D01*
X97386073Y-89506519D01*
X97374447Y-89515142D01*
X97362031Y-89522583D01*
X97348946Y-89528772D01*
X97335317Y-89533649D01*
X97321276Y-89537166D01*
X97306958Y-89539290D01*
X97292500Y-89540000D01*
X96947500Y-89540000D01*
X96933042Y-89539290D01*
X96918724Y-89537166D01*
X96904683Y-89533649D01*
X96891054Y-89528772D01*
X96877969Y-89522583D01*
X96865553Y-89515142D01*
X96853927Y-89506519D01*
X96843202Y-89496798D01*
X96833481Y-89486073D01*
X96824858Y-89474447D01*
X96817417Y-89462031D01*
X96811228Y-89448946D01*
X96806351Y-89435317D01*
X96802834Y-89421276D01*
X96800710Y-89406958D01*
X96800000Y-89392500D01*
X96800000Y-89097500D01*
X96800710Y-89083042D01*
X96802834Y-89068724D01*
X96806351Y-89054683D01*
X96811228Y-89041054D01*
X96817417Y-89027969D01*
X96824858Y-89015553D01*
X96833481Y-89003927D01*
X96843202Y-88993202D01*
X96853927Y-88983481D01*
X96865553Y-88974858D01*
X96877969Y-88967417D01*
X96891054Y-88961228D01*
X96904683Y-88956351D01*
X96918724Y-88952834D01*
X96933042Y-88950710D01*
X96947500Y-88950000D01*
X97292500Y-88950000D01*
X97306958Y-88950710D01*
X97306958Y-88950710D01*
G37*
D14*
X97120000Y-89245000D03*
G04 #@! TD*
D12*
G04 #@! TO.C,R2*
G36*
X96116958Y-88980710D02*
X96131276Y-88982834D01*
X96145317Y-88986351D01*
X96158946Y-88991228D01*
X96172031Y-88997417D01*
X96184447Y-89004858D01*
X96196073Y-89013481D01*
X96206798Y-89023202D01*
X96216519Y-89033927D01*
X96225142Y-89045553D01*
X96232583Y-89057969D01*
X96238772Y-89071054D01*
X96243649Y-89084683D01*
X96247166Y-89098724D01*
X96249290Y-89113042D01*
X96250000Y-89127500D01*
X96250000Y-89422500D01*
X96249290Y-89436958D01*
X96247166Y-89451276D01*
X96243649Y-89465317D01*
X96238772Y-89478946D01*
X96232583Y-89492031D01*
X96225142Y-89504447D01*
X96216519Y-89516073D01*
X96206798Y-89526798D01*
X96196073Y-89536519D01*
X96184447Y-89545142D01*
X96172031Y-89552583D01*
X96158946Y-89558772D01*
X96145317Y-89563649D01*
X96131276Y-89567166D01*
X96116958Y-89569290D01*
X96102500Y-89570000D01*
X95757500Y-89570000D01*
X95743042Y-89569290D01*
X95728724Y-89567166D01*
X95714683Y-89563649D01*
X95701054Y-89558772D01*
X95687969Y-89552583D01*
X95675553Y-89545142D01*
X95663927Y-89536519D01*
X95653202Y-89526798D01*
X95643481Y-89516073D01*
X95634858Y-89504447D01*
X95627417Y-89492031D01*
X95621228Y-89478946D01*
X95616351Y-89465317D01*
X95612834Y-89451276D01*
X95610710Y-89436958D01*
X95610000Y-89422500D01*
X95610000Y-89127500D01*
X95610710Y-89113042D01*
X95612834Y-89098724D01*
X95616351Y-89084683D01*
X95621228Y-89071054D01*
X95627417Y-89057969D01*
X95634858Y-89045553D01*
X95643481Y-89033927D01*
X95653202Y-89023202D01*
X95663927Y-89013481D01*
X95675553Y-89004858D01*
X95687969Y-88997417D01*
X95701054Y-88991228D01*
X95714683Y-88986351D01*
X95728724Y-88982834D01*
X95743042Y-88980710D01*
X95757500Y-88980000D01*
X96102500Y-88980000D01*
X96116958Y-88980710D01*
X96116958Y-88980710D01*
G37*
D14*
X95930000Y-89275000D03*
D12*
G36*
X96116958Y-88010710D02*
X96131276Y-88012834D01*
X96145317Y-88016351D01*
X96158946Y-88021228D01*
X96172031Y-88027417D01*
X96184447Y-88034858D01*
X96196073Y-88043481D01*
X96206798Y-88053202D01*
X96216519Y-88063927D01*
X96225142Y-88075553D01*
X96232583Y-88087969D01*
X96238772Y-88101054D01*
X96243649Y-88114683D01*
X96247166Y-88128724D01*
X96249290Y-88143042D01*
X96250000Y-88157500D01*
X96250000Y-88452500D01*
X96249290Y-88466958D01*
X96247166Y-88481276D01*
X96243649Y-88495317D01*
X96238772Y-88508946D01*
X96232583Y-88522031D01*
X96225142Y-88534447D01*
X96216519Y-88546073D01*
X96206798Y-88556798D01*
X96196073Y-88566519D01*
X96184447Y-88575142D01*
X96172031Y-88582583D01*
X96158946Y-88588772D01*
X96145317Y-88593649D01*
X96131276Y-88597166D01*
X96116958Y-88599290D01*
X96102500Y-88600000D01*
X95757500Y-88600000D01*
X95743042Y-88599290D01*
X95728724Y-88597166D01*
X95714683Y-88593649D01*
X95701054Y-88588772D01*
X95687969Y-88582583D01*
X95675553Y-88575142D01*
X95663927Y-88566519D01*
X95653202Y-88556798D01*
X95643481Y-88546073D01*
X95634858Y-88534447D01*
X95627417Y-88522031D01*
X95621228Y-88508946D01*
X95616351Y-88495317D01*
X95612834Y-88481276D01*
X95610710Y-88466958D01*
X95610000Y-88452500D01*
X95610000Y-88157500D01*
X95610710Y-88143042D01*
X95612834Y-88128724D01*
X95616351Y-88114683D01*
X95621228Y-88101054D01*
X95627417Y-88087969D01*
X95634858Y-88075553D01*
X95643481Y-88063927D01*
X95653202Y-88053202D01*
X95663927Y-88043481D01*
X95675553Y-88034858D01*
X95687969Y-88027417D01*
X95701054Y-88021228D01*
X95714683Y-88016351D01*
X95728724Y-88012834D01*
X95743042Y-88010710D01*
X95757500Y-88010000D01*
X96102500Y-88010000D01*
X96116958Y-88010710D01*
X96116958Y-88010710D01*
G37*
D14*
X95930000Y-88305000D03*
G04 #@! TD*
D15*
G04 #@! TO.C,J2*
X90455000Y-115200000D03*
D16*
X91505000Y-115200000D03*
X92605000Y-115200000D03*
X93705000Y-115200000D03*
X94805000Y-115200000D03*
X95905000Y-115200000D03*
D17*
X97005000Y-115200000D03*
D16*
X98105000Y-115200000D03*
D18*
X100740000Y-109050000D03*
X100740000Y-105350000D03*
D19*
X91270000Y-104375000D03*
X97240000Y-104375000D03*
D20*
X89245000Y-114850000D03*
D21*
X100565000Y-115075000D03*
G04 #@! TD*
D12*
G04 #@! TO.C,C18*
G36*
X101486958Y-89010710D02*
X101501276Y-89012834D01*
X101515317Y-89016351D01*
X101528946Y-89021228D01*
X101542031Y-89027417D01*
X101554447Y-89034858D01*
X101566073Y-89043481D01*
X101576798Y-89053202D01*
X101586519Y-89063927D01*
X101595142Y-89075553D01*
X101602583Y-89087969D01*
X101608772Y-89101054D01*
X101613649Y-89114683D01*
X101617166Y-89128724D01*
X101619290Y-89143042D01*
X101620000Y-89157500D01*
X101620000Y-89452500D01*
X101619290Y-89466958D01*
X101617166Y-89481276D01*
X101613649Y-89495317D01*
X101608772Y-89508946D01*
X101602583Y-89522031D01*
X101595142Y-89534447D01*
X101586519Y-89546073D01*
X101576798Y-89556798D01*
X101566073Y-89566519D01*
X101554447Y-89575142D01*
X101542031Y-89582583D01*
X101528946Y-89588772D01*
X101515317Y-89593649D01*
X101501276Y-89597166D01*
X101486958Y-89599290D01*
X101472500Y-89600000D01*
X101127500Y-89600000D01*
X101113042Y-89599290D01*
X101098724Y-89597166D01*
X101084683Y-89593649D01*
X101071054Y-89588772D01*
X101057969Y-89582583D01*
X101045553Y-89575142D01*
X101033927Y-89566519D01*
X101023202Y-89556798D01*
X101013481Y-89546073D01*
X101004858Y-89534447D01*
X100997417Y-89522031D01*
X100991228Y-89508946D01*
X100986351Y-89495317D01*
X100982834Y-89481276D01*
X100980710Y-89466958D01*
X100980000Y-89452500D01*
X100980000Y-89157500D01*
X100980710Y-89143042D01*
X100982834Y-89128724D01*
X100986351Y-89114683D01*
X100991228Y-89101054D01*
X100997417Y-89087969D01*
X101004858Y-89075553D01*
X101013481Y-89063927D01*
X101023202Y-89053202D01*
X101033927Y-89043481D01*
X101045553Y-89034858D01*
X101057969Y-89027417D01*
X101071054Y-89021228D01*
X101084683Y-89016351D01*
X101098724Y-89012834D01*
X101113042Y-89010710D01*
X101127500Y-89010000D01*
X101472500Y-89010000D01*
X101486958Y-89010710D01*
X101486958Y-89010710D01*
G37*
D14*
X101300000Y-89305000D03*
D12*
G36*
X101486958Y-88040710D02*
X101501276Y-88042834D01*
X101515317Y-88046351D01*
X101528946Y-88051228D01*
X101542031Y-88057417D01*
X101554447Y-88064858D01*
X101566073Y-88073481D01*
X101576798Y-88083202D01*
X101586519Y-88093927D01*
X101595142Y-88105553D01*
X101602583Y-88117969D01*
X101608772Y-88131054D01*
X101613649Y-88144683D01*
X101617166Y-88158724D01*
X101619290Y-88173042D01*
X101620000Y-88187500D01*
X101620000Y-88482500D01*
X101619290Y-88496958D01*
X101617166Y-88511276D01*
X101613649Y-88525317D01*
X101608772Y-88538946D01*
X101602583Y-88552031D01*
X101595142Y-88564447D01*
X101586519Y-88576073D01*
X101576798Y-88586798D01*
X101566073Y-88596519D01*
X101554447Y-88605142D01*
X101542031Y-88612583D01*
X101528946Y-88618772D01*
X101515317Y-88623649D01*
X101501276Y-88627166D01*
X101486958Y-88629290D01*
X101472500Y-88630000D01*
X101127500Y-88630000D01*
X101113042Y-88629290D01*
X101098724Y-88627166D01*
X101084683Y-88623649D01*
X101071054Y-88618772D01*
X101057969Y-88612583D01*
X101045553Y-88605142D01*
X101033927Y-88596519D01*
X101023202Y-88586798D01*
X101013481Y-88576073D01*
X101004858Y-88564447D01*
X100997417Y-88552031D01*
X100991228Y-88538946D01*
X100986351Y-88525317D01*
X100982834Y-88511276D01*
X100980710Y-88496958D01*
X100980000Y-88482500D01*
X100980000Y-88187500D01*
X100980710Y-88173042D01*
X100982834Y-88158724D01*
X100986351Y-88144683D01*
X100991228Y-88131054D01*
X100997417Y-88117969D01*
X101004858Y-88105553D01*
X101013481Y-88093927D01*
X101023202Y-88083202D01*
X101033927Y-88073481D01*
X101045553Y-88064858D01*
X101057969Y-88057417D01*
X101071054Y-88051228D01*
X101084683Y-88046351D01*
X101098724Y-88042834D01*
X101113042Y-88040710D01*
X101127500Y-88040000D01*
X101472500Y-88040000D01*
X101486958Y-88040710D01*
X101486958Y-88040710D01*
G37*
D14*
X101300000Y-88335000D03*
G04 #@! TD*
D12*
G04 #@! TO.C,R4*
G36*
X100386958Y-89010710D02*
X100401276Y-89012834D01*
X100415317Y-89016351D01*
X100428946Y-89021228D01*
X100442031Y-89027417D01*
X100454447Y-89034858D01*
X100466073Y-89043481D01*
X100476798Y-89053202D01*
X100486519Y-89063927D01*
X100495142Y-89075553D01*
X100502583Y-89087969D01*
X100508772Y-89101054D01*
X100513649Y-89114683D01*
X100517166Y-89128724D01*
X100519290Y-89143042D01*
X100520000Y-89157500D01*
X100520000Y-89452500D01*
X100519290Y-89466958D01*
X100517166Y-89481276D01*
X100513649Y-89495317D01*
X100508772Y-89508946D01*
X100502583Y-89522031D01*
X100495142Y-89534447D01*
X100486519Y-89546073D01*
X100476798Y-89556798D01*
X100466073Y-89566519D01*
X100454447Y-89575142D01*
X100442031Y-89582583D01*
X100428946Y-89588772D01*
X100415317Y-89593649D01*
X100401276Y-89597166D01*
X100386958Y-89599290D01*
X100372500Y-89600000D01*
X100027500Y-89600000D01*
X100013042Y-89599290D01*
X99998724Y-89597166D01*
X99984683Y-89593649D01*
X99971054Y-89588772D01*
X99957969Y-89582583D01*
X99945553Y-89575142D01*
X99933927Y-89566519D01*
X99923202Y-89556798D01*
X99913481Y-89546073D01*
X99904858Y-89534447D01*
X99897417Y-89522031D01*
X99891228Y-89508946D01*
X99886351Y-89495317D01*
X99882834Y-89481276D01*
X99880710Y-89466958D01*
X99880000Y-89452500D01*
X99880000Y-89157500D01*
X99880710Y-89143042D01*
X99882834Y-89128724D01*
X99886351Y-89114683D01*
X99891228Y-89101054D01*
X99897417Y-89087969D01*
X99904858Y-89075553D01*
X99913481Y-89063927D01*
X99923202Y-89053202D01*
X99933927Y-89043481D01*
X99945553Y-89034858D01*
X99957969Y-89027417D01*
X99971054Y-89021228D01*
X99984683Y-89016351D01*
X99998724Y-89012834D01*
X100013042Y-89010710D01*
X100027500Y-89010000D01*
X100372500Y-89010000D01*
X100386958Y-89010710D01*
X100386958Y-89010710D01*
G37*
D14*
X100200000Y-89305000D03*
D12*
G36*
X100386958Y-88040710D02*
X100401276Y-88042834D01*
X100415317Y-88046351D01*
X100428946Y-88051228D01*
X100442031Y-88057417D01*
X100454447Y-88064858D01*
X100466073Y-88073481D01*
X100476798Y-88083202D01*
X100486519Y-88093927D01*
X100495142Y-88105553D01*
X100502583Y-88117969D01*
X100508772Y-88131054D01*
X100513649Y-88144683D01*
X100517166Y-88158724D01*
X100519290Y-88173042D01*
X100520000Y-88187500D01*
X100520000Y-88482500D01*
X100519290Y-88496958D01*
X100517166Y-88511276D01*
X100513649Y-88525317D01*
X100508772Y-88538946D01*
X100502583Y-88552031D01*
X100495142Y-88564447D01*
X100486519Y-88576073D01*
X100476798Y-88586798D01*
X100466073Y-88596519D01*
X100454447Y-88605142D01*
X100442031Y-88612583D01*
X100428946Y-88618772D01*
X100415317Y-88623649D01*
X100401276Y-88627166D01*
X100386958Y-88629290D01*
X100372500Y-88630000D01*
X100027500Y-88630000D01*
X100013042Y-88629290D01*
X99998724Y-88627166D01*
X99984683Y-88623649D01*
X99971054Y-88618772D01*
X99957969Y-88612583D01*
X99945553Y-88605142D01*
X99933927Y-88596519D01*
X99923202Y-88586798D01*
X99913481Y-88576073D01*
X99904858Y-88564447D01*
X99897417Y-88552031D01*
X99891228Y-88538946D01*
X99886351Y-88525317D01*
X99882834Y-88511276D01*
X99880710Y-88496958D01*
X99880000Y-88482500D01*
X99880000Y-88187500D01*
X99880710Y-88173042D01*
X99882834Y-88158724D01*
X99886351Y-88144683D01*
X99891228Y-88131054D01*
X99897417Y-88117969D01*
X99904858Y-88105553D01*
X99913481Y-88093927D01*
X99923202Y-88083202D01*
X99933927Y-88073481D01*
X99945553Y-88064858D01*
X99957969Y-88057417D01*
X99971054Y-88051228D01*
X99984683Y-88046351D01*
X99998724Y-88042834D01*
X100013042Y-88040710D01*
X100027500Y-88040000D01*
X100372500Y-88040000D01*
X100386958Y-88040710D01*
X100386958Y-88040710D01*
G37*
D14*
X100200000Y-88335000D03*
G04 #@! TD*
D12*
G04 #@! TO.C,C1*
G36*
X99296958Y-88030710D02*
X99311276Y-88032834D01*
X99325317Y-88036351D01*
X99338946Y-88041228D01*
X99352031Y-88047417D01*
X99364447Y-88054858D01*
X99376073Y-88063481D01*
X99386798Y-88073202D01*
X99396519Y-88083927D01*
X99405142Y-88095553D01*
X99412583Y-88107969D01*
X99418772Y-88121054D01*
X99423649Y-88134683D01*
X99427166Y-88148724D01*
X99429290Y-88163042D01*
X99430000Y-88177500D01*
X99430000Y-88472500D01*
X99429290Y-88486958D01*
X99427166Y-88501276D01*
X99423649Y-88515317D01*
X99418772Y-88528946D01*
X99412583Y-88542031D01*
X99405142Y-88554447D01*
X99396519Y-88566073D01*
X99386798Y-88576798D01*
X99376073Y-88586519D01*
X99364447Y-88595142D01*
X99352031Y-88602583D01*
X99338946Y-88608772D01*
X99325317Y-88613649D01*
X99311276Y-88617166D01*
X99296958Y-88619290D01*
X99282500Y-88620000D01*
X98937500Y-88620000D01*
X98923042Y-88619290D01*
X98908724Y-88617166D01*
X98894683Y-88613649D01*
X98881054Y-88608772D01*
X98867969Y-88602583D01*
X98855553Y-88595142D01*
X98843927Y-88586519D01*
X98833202Y-88576798D01*
X98823481Y-88566073D01*
X98814858Y-88554447D01*
X98807417Y-88542031D01*
X98801228Y-88528946D01*
X98796351Y-88515317D01*
X98792834Y-88501276D01*
X98790710Y-88486958D01*
X98790000Y-88472500D01*
X98790000Y-88177500D01*
X98790710Y-88163042D01*
X98792834Y-88148724D01*
X98796351Y-88134683D01*
X98801228Y-88121054D01*
X98807417Y-88107969D01*
X98814858Y-88095553D01*
X98823481Y-88083927D01*
X98833202Y-88073202D01*
X98843927Y-88063481D01*
X98855553Y-88054858D01*
X98867969Y-88047417D01*
X98881054Y-88041228D01*
X98894683Y-88036351D01*
X98908724Y-88032834D01*
X98923042Y-88030710D01*
X98937500Y-88030000D01*
X99282500Y-88030000D01*
X99296958Y-88030710D01*
X99296958Y-88030710D01*
G37*
D14*
X99110000Y-88325000D03*
D12*
G36*
X99296958Y-89000710D02*
X99311276Y-89002834D01*
X99325317Y-89006351D01*
X99338946Y-89011228D01*
X99352031Y-89017417D01*
X99364447Y-89024858D01*
X99376073Y-89033481D01*
X99386798Y-89043202D01*
X99396519Y-89053927D01*
X99405142Y-89065553D01*
X99412583Y-89077969D01*
X99418772Y-89091054D01*
X99423649Y-89104683D01*
X99427166Y-89118724D01*
X99429290Y-89133042D01*
X99430000Y-89147500D01*
X99430000Y-89442500D01*
X99429290Y-89456958D01*
X99427166Y-89471276D01*
X99423649Y-89485317D01*
X99418772Y-89498946D01*
X99412583Y-89512031D01*
X99405142Y-89524447D01*
X99396519Y-89536073D01*
X99386798Y-89546798D01*
X99376073Y-89556519D01*
X99364447Y-89565142D01*
X99352031Y-89572583D01*
X99338946Y-89578772D01*
X99325317Y-89583649D01*
X99311276Y-89587166D01*
X99296958Y-89589290D01*
X99282500Y-89590000D01*
X98937500Y-89590000D01*
X98923042Y-89589290D01*
X98908724Y-89587166D01*
X98894683Y-89583649D01*
X98881054Y-89578772D01*
X98867969Y-89572583D01*
X98855553Y-89565142D01*
X98843927Y-89556519D01*
X98833202Y-89546798D01*
X98823481Y-89536073D01*
X98814858Y-89524447D01*
X98807417Y-89512031D01*
X98801228Y-89498946D01*
X98796351Y-89485317D01*
X98792834Y-89471276D01*
X98790710Y-89456958D01*
X98790000Y-89442500D01*
X98790000Y-89147500D01*
X98790710Y-89133042D01*
X98792834Y-89118724D01*
X98796351Y-89104683D01*
X98801228Y-89091054D01*
X98807417Y-89077969D01*
X98814858Y-89065553D01*
X98823481Y-89053927D01*
X98833202Y-89043202D01*
X98843927Y-89033481D01*
X98855553Y-89024858D01*
X98867969Y-89017417D01*
X98881054Y-89011228D01*
X98894683Y-89006351D01*
X98908724Y-89002834D01*
X98923042Y-89000710D01*
X98937500Y-89000000D01*
X99282500Y-89000000D01*
X99296958Y-89000710D01*
X99296958Y-89000710D01*
G37*
D14*
X99110000Y-89295000D03*
G04 #@! TD*
D12*
G04 #@! TO.C,C20*
G36*
X108077691Y-85676053D02*
X108098926Y-85679203D01*
X108119750Y-85684419D01*
X108139962Y-85691651D01*
X108159368Y-85700830D01*
X108177781Y-85711866D01*
X108195024Y-85724654D01*
X108210930Y-85739070D01*
X108225346Y-85754976D01*
X108238134Y-85772219D01*
X108249170Y-85790632D01*
X108258349Y-85810038D01*
X108265581Y-85830250D01*
X108270797Y-85851074D01*
X108273947Y-85872309D01*
X108275000Y-85893750D01*
X108275000Y-86331250D01*
X108273947Y-86352691D01*
X108270797Y-86373926D01*
X108265581Y-86394750D01*
X108258349Y-86414962D01*
X108249170Y-86434368D01*
X108238134Y-86452781D01*
X108225346Y-86470024D01*
X108210930Y-86485930D01*
X108195024Y-86500346D01*
X108177781Y-86513134D01*
X108159368Y-86524170D01*
X108139962Y-86533349D01*
X108119750Y-86540581D01*
X108098926Y-86545797D01*
X108077691Y-86548947D01*
X108056250Y-86550000D01*
X107543750Y-86550000D01*
X107522309Y-86548947D01*
X107501074Y-86545797D01*
X107480250Y-86540581D01*
X107460038Y-86533349D01*
X107440632Y-86524170D01*
X107422219Y-86513134D01*
X107404976Y-86500346D01*
X107389070Y-86485930D01*
X107374654Y-86470024D01*
X107361866Y-86452781D01*
X107350830Y-86434368D01*
X107341651Y-86414962D01*
X107334419Y-86394750D01*
X107329203Y-86373926D01*
X107326053Y-86352691D01*
X107325000Y-86331250D01*
X107325000Y-85893750D01*
X107326053Y-85872309D01*
X107329203Y-85851074D01*
X107334419Y-85830250D01*
X107341651Y-85810038D01*
X107350830Y-85790632D01*
X107361866Y-85772219D01*
X107374654Y-85754976D01*
X107389070Y-85739070D01*
X107404976Y-85724654D01*
X107422219Y-85711866D01*
X107440632Y-85700830D01*
X107460038Y-85691651D01*
X107480250Y-85684419D01*
X107501074Y-85679203D01*
X107522309Y-85676053D01*
X107543750Y-85675000D01*
X108056250Y-85675000D01*
X108077691Y-85676053D01*
X108077691Y-85676053D01*
G37*
D13*
X107800000Y-86112500D03*
D12*
G36*
X108077691Y-87251053D02*
X108098926Y-87254203D01*
X108119750Y-87259419D01*
X108139962Y-87266651D01*
X108159368Y-87275830D01*
X108177781Y-87286866D01*
X108195024Y-87299654D01*
X108210930Y-87314070D01*
X108225346Y-87329976D01*
X108238134Y-87347219D01*
X108249170Y-87365632D01*
X108258349Y-87385038D01*
X108265581Y-87405250D01*
X108270797Y-87426074D01*
X108273947Y-87447309D01*
X108275000Y-87468750D01*
X108275000Y-87906250D01*
X108273947Y-87927691D01*
X108270797Y-87948926D01*
X108265581Y-87969750D01*
X108258349Y-87989962D01*
X108249170Y-88009368D01*
X108238134Y-88027781D01*
X108225346Y-88045024D01*
X108210930Y-88060930D01*
X108195024Y-88075346D01*
X108177781Y-88088134D01*
X108159368Y-88099170D01*
X108139962Y-88108349D01*
X108119750Y-88115581D01*
X108098926Y-88120797D01*
X108077691Y-88123947D01*
X108056250Y-88125000D01*
X107543750Y-88125000D01*
X107522309Y-88123947D01*
X107501074Y-88120797D01*
X107480250Y-88115581D01*
X107460038Y-88108349D01*
X107440632Y-88099170D01*
X107422219Y-88088134D01*
X107404976Y-88075346D01*
X107389070Y-88060930D01*
X107374654Y-88045024D01*
X107361866Y-88027781D01*
X107350830Y-88009368D01*
X107341651Y-87989962D01*
X107334419Y-87969750D01*
X107329203Y-87948926D01*
X107326053Y-87927691D01*
X107325000Y-87906250D01*
X107325000Y-87468750D01*
X107326053Y-87447309D01*
X107329203Y-87426074D01*
X107334419Y-87405250D01*
X107341651Y-87385038D01*
X107350830Y-87365632D01*
X107361866Y-87347219D01*
X107374654Y-87329976D01*
X107389070Y-87314070D01*
X107404976Y-87299654D01*
X107422219Y-87286866D01*
X107440632Y-87275830D01*
X107460038Y-87266651D01*
X107480250Y-87259419D01*
X107501074Y-87254203D01*
X107522309Y-87251053D01*
X107543750Y-87250000D01*
X108056250Y-87250000D01*
X108077691Y-87251053D01*
X108077691Y-87251053D01*
G37*
D13*
X107800000Y-87687500D03*
G04 #@! TD*
D12*
G04 #@! TO.C,C19*
G36*
X102527691Y-84626053D02*
X102548926Y-84629203D01*
X102569750Y-84634419D01*
X102589962Y-84641651D01*
X102609368Y-84650830D01*
X102627781Y-84661866D01*
X102645024Y-84674654D01*
X102660930Y-84689070D01*
X102675346Y-84704976D01*
X102688134Y-84722219D01*
X102699170Y-84740632D01*
X102708349Y-84760038D01*
X102715581Y-84780250D01*
X102720797Y-84801074D01*
X102723947Y-84822309D01*
X102725000Y-84843750D01*
X102725000Y-85356250D01*
X102723947Y-85377691D01*
X102720797Y-85398926D01*
X102715581Y-85419750D01*
X102708349Y-85439962D01*
X102699170Y-85459368D01*
X102688134Y-85477781D01*
X102675346Y-85495024D01*
X102660930Y-85510930D01*
X102645024Y-85525346D01*
X102627781Y-85538134D01*
X102609368Y-85549170D01*
X102589962Y-85558349D01*
X102569750Y-85565581D01*
X102548926Y-85570797D01*
X102527691Y-85573947D01*
X102506250Y-85575000D01*
X102068750Y-85575000D01*
X102047309Y-85573947D01*
X102026074Y-85570797D01*
X102005250Y-85565581D01*
X101985038Y-85558349D01*
X101965632Y-85549170D01*
X101947219Y-85538134D01*
X101929976Y-85525346D01*
X101914070Y-85510930D01*
X101899654Y-85495024D01*
X101886866Y-85477781D01*
X101875830Y-85459368D01*
X101866651Y-85439962D01*
X101859419Y-85419750D01*
X101854203Y-85398926D01*
X101851053Y-85377691D01*
X101850000Y-85356250D01*
X101850000Y-84843750D01*
X101851053Y-84822309D01*
X101854203Y-84801074D01*
X101859419Y-84780250D01*
X101866651Y-84760038D01*
X101875830Y-84740632D01*
X101886866Y-84722219D01*
X101899654Y-84704976D01*
X101914070Y-84689070D01*
X101929976Y-84674654D01*
X101947219Y-84661866D01*
X101965632Y-84650830D01*
X101985038Y-84641651D01*
X102005250Y-84634419D01*
X102026074Y-84629203D01*
X102047309Y-84626053D01*
X102068750Y-84625000D01*
X102506250Y-84625000D01*
X102527691Y-84626053D01*
X102527691Y-84626053D01*
G37*
D13*
X102287500Y-85100000D03*
D12*
G36*
X100952691Y-84626053D02*
X100973926Y-84629203D01*
X100994750Y-84634419D01*
X101014962Y-84641651D01*
X101034368Y-84650830D01*
X101052781Y-84661866D01*
X101070024Y-84674654D01*
X101085930Y-84689070D01*
X101100346Y-84704976D01*
X101113134Y-84722219D01*
X101124170Y-84740632D01*
X101133349Y-84760038D01*
X101140581Y-84780250D01*
X101145797Y-84801074D01*
X101148947Y-84822309D01*
X101150000Y-84843750D01*
X101150000Y-85356250D01*
X101148947Y-85377691D01*
X101145797Y-85398926D01*
X101140581Y-85419750D01*
X101133349Y-85439962D01*
X101124170Y-85459368D01*
X101113134Y-85477781D01*
X101100346Y-85495024D01*
X101085930Y-85510930D01*
X101070024Y-85525346D01*
X101052781Y-85538134D01*
X101034368Y-85549170D01*
X101014962Y-85558349D01*
X100994750Y-85565581D01*
X100973926Y-85570797D01*
X100952691Y-85573947D01*
X100931250Y-85575000D01*
X100493750Y-85575000D01*
X100472309Y-85573947D01*
X100451074Y-85570797D01*
X100430250Y-85565581D01*
X100410038Y-85558349D01*
X100390632Y-85549170D01*
X100372219Y-85538134D01*
X100354976Y-85525346D01*
X100339070Y-85510930D01*
X100324654Y-85495024D01*
X100311866Y-85477781D01*
X100300830Y-85459368D01*
X100291651Y-85439962D01*
X100284419Y-85419750D01*
X100279203Y-85398926D01*
X100276053Y-85377691D01*
X100275000Y-85356250D01*
X100275000Y-84843750D01*
X100276053Y-84822309D01*
X100279203Y-84801074D01*
X100284419Y-84780250D01*
X100291651Y-84760038D01*
X100300830Y-84740632D01*
X100311866Y-84722219D01*
X100324654Y-84704976D01*
X100339070Y-84689070D01*
X100354976Y-84674654D01*
X100372219Y-84661866D01*
X100390632Y-84650830D01*
X100410038Y-84641651D01*
X100430250Y-84634419D01*
X100451074Y-84629203D01*
X100472309Y-84626053D01*
X100493750Y-84625000D01*
X100931250Y-84625000D01*
X100952691Y-84626053D01*
X100952691Y-84626053D01*
G37*
D13*
X100712500Y-85100000D03*
G04 #@! TD*
D22*
G04 #@! TO.C,J1*
X94430000Y-81452500D03*
D23*
X96080000Y-84152500D03*
X96730000Y-84152500D03*
X94130000Y-84152500D03*
X94780000Y-84152500D03*
X95430000Y-84152500D03*
D22*
X96430000Y-81452500D03*
G04 #@! TD*
D24*
G04 #@! TO.C,U2*
X105950000Y-85500000D03*
X105000000Y-85500000D03*
X104050000Y-85500000D03*
X104050000Y-87700000D03*
X105950000Y-87700000D03*
G04 #@! TD*
D25*
G04 #@! TO.C,U1*
X98600000Y-91400000D03*
X97800000Y-91400000D03*
X97000000Y-91400000D03*
X96200000Y-91400000D03*
X95400000Y-91400000D03*
X94600000Y-91400000D03*
X93800000Y-91400000D03*
X93000000Y-91400000D03*
X92200000Y-91400000D03*
X91400000Y-91400000D03*
X98600000Y-92200000D03*
X97800000Y-92200000D03*
X97000000Y-92200000D03*
X96200000Y-92200000D03*
X95400000Y-92200000D03*
X94600000Y-92200000D03*
X93800000Y-92200000D03*
X93000000Y-92200000D03*
X92200000Y-92200000D03*
X91400000Y-92200000D03*
X98600000Y-93000000D03*
X97800000Y-93000000D03*
X97000000Y-93000000D03*
X96200000Y-93000000D03*
X95400000Y-93000000D03*
X94600000Y-93000000D03*
X93800000Y-93000000D03*
X93000000Y-93000000D03*
X92200000Y-93000000D03*
X91400000Y-93000000D03*
X98600000Y-93800000D03*
X97800000Y-93800000D03*
X97000000Y-93800000D03*
X96200000Y-93800000D03*
X95400000Y-93800000D03*
X94600000Y-93800000D03*
X93800000Y-93800000D03*
X93000000Y-93800000D03*
X92200000Y-93800000D03*
D26*
X91400000Y-93800000D03*
D25*
X98600000Y-94600000D03*
X97800000Y-94600000D03*
X97000000Y-94600000D03*
X96200000Y-94600000D03*
X95400000Y-94600000D03*
X94600000Y-94600000D03*
X93800000Y-94600000D03*
X93000000Y-94600000D03*
X92200000Y-94600000D03*
X91400000Y-94600000D03*
X98600000Y-95400000D03*
X97800000Y-95400000D03*
X97000000Y-95400000D03*
X96200000Y-95400000D03*
X95400000Y-95400000D03*
X94600000Y-95400000D03*
X93800000Y-95400000D03*
X93000000Y-95400000D03*
X92200000Y-95400000D03*
X91400000Y-95400000D03*
X98600000Y-96200000D03*
X97800000Y-96200000D03*
X97000000Y-96200000D03*
X96200000Y-96200000D03*
X95400000Y-96200000D03*
X94600000Y-96200000D03*
X93800000Y-96200000D03*
X93000000Y-96200000D03*
X92200000Y-96200000D03*
X91400000Y-96200000D03*
X98600000Y-97000000D03*
X97800000Y-97000000D03*
X97000000Y-97000000D03*
X96200000Y-97000000D03*
X95400000Y-97000000D03*
X94600000Y-97000000D03*
X93800000Y-97000000D03*
X93000000Y-97000000D03*
X92200000Y-97000000D03*
X91400000Y-97000000D03*
X98600000Y-97800000D03*
X97800000Y-97800000D03*
X97000000Y-97800000D03*
X96200000Y-97800000D03*
X95400000Y-97800000D03*
X94600000Y-97800000D03*
X93800000Y-97800000D03*
X93000000Y-97800000D03*
X92200000Y-97800000D03*
X91400000Y-97800000D03*
X98600000Y-98600000D03*
X97800000Y-98600000D03*
X97000000Y-98600000D03*
X96200000Y-98600000D03*
X95400000Y-98600000D03*
X94600000Y-98600000D03*
X93800000Y-98600000D03*
X93000000Y-98600000D03*
X92200000Y-98600000D03*
X91400000Y-98600000D03*
G04 #@! TD*
M02*
