G04 #@! TF.GenerationSoftware,KiCad,Pcbnew,5.0.2-bee76a0~70~ubuntu18.04.1*
G04 #@! TF.CreationDate,2018-12-10T15:17:23+01:00*
G04 #@! TF.ProjectId,sammyultra,73616d6d-7975-46c7-9472-612e6b696361,rev?*
G04 #@! TF.SameCoordinates,Original*
G04 #@! TF.FileFunction,Copper,L4,Bot*
G04 #@! TF.FilePolarity,Positive*
%FSLAX46Y46*%
G04 Gerber Fmt 4.6, Leading zero omitted, Abs format (unit mm)*
G04 Created by KiCad (PCBNEW 5.0.2-bee76a0~70~ubuntu18.04.1) date 2018-12-10T15:17:23 CET*
%MOMM*%
%LPD*%
G01*
G04 APERTURE LIST*
G04 #@! TA.AperFunction,BGAPad,CuDef*
%ADD10C,1.000000*%
G04 #@! TD*
G04 #@! TA.AperFunction,ComponentPad*
%ADD11C,1.000000*%
G04 #@! TD*
G04 #@! TA.AperFunction,ComponentPad*
%ADD12O,1.700000X1.700000*%
G04 #@! TD*
G04 #@! TA.AperFunction,ComponentPad*
%ADD13R,1.700000X1.700000*%
G04 #@! TD*
G04 #@! TA.AperFunction,Conductor*
%ADD14C,0.100000*%
G04 #@! TD*
G04 #@! TA.AperFunction,SMDPad,CuDef*
%ADD15C,0.590000*%
G04 #@! TD*
G04 #@! TA.AperFunction,ComponentPad*
%ADD16R,1.000000X1.000000*%
G04 #@! TD*
G04 #@! TA.AperFunction,ComponentPad*
%ADD17O,1.000000X1.000000*%
G04 #@! TD*
G04 #@! TA.AperFunction,ComponentPad*
%ADD18C,1.450000*%
G04 #@! TD*
G04 #@! TA.AperFunction,ComponentPad*
%ADD19O,1.200000X1.900000*%
G04 #@! TD*
G04 #@! TA.AperFunction,SMDPad,CuDef*
%ADD20C,0.875000*%
G04 #@! TD*
G04 #@! TA.AperFunction,ViaPad*
%ADD21C,0.450000*%
G04 #@! TD*
G04 #@! TA.AperFunction,ViaPad*
%ADD22C,0.600000*%
G04 #@! TD*
G04 #@! TA.AperFunction,ViaPad*
%ADD23C,0.800000*%
G04 #@! TD*
G04 #@! TA.AperFunction,Conductor*
%ADD24C,0.088900*%
G04 #@! TD*
G04 #@! TA.AperFunction,Conductor*
%ADD25C,0.400000*%
G04 #@! TD*
G04 #@! TA.AperFunction,Conductor*
%ADD26C,0.200000*%
G04 #@! TD*
G04 APERTURE END LIST*
D10*
G04 #@! TO.P,TP2,1*
G04 #@! TO.N,/MCDA2*
X98100000Y-109200000D03*
G04 #@! TD*
G04 #@! TO.P,TP3,1*
G04 #@! TO.N,/MCDA3*
X99000000Y-106500000D03*
G04 #@! TD*
G04 #@! TO.P,TP4,1*
G04 #@! TO.N,/MCCDA*
X93800000Y-105100000D03*
G04 #@! TD*
G04 #@! TO.P,TP5,1*
G04 #@! TO.N,/MCCK*
X92900000Y-112100000D03*
G04 #@! TD*
G04 #@! TO.P,TP6,1*
G04 #@! TO.N,/MCDA0*
X92300000Y-109000000D03*
G04 #@! TD*
G04 #@! TO.P,TP7,1*
G04 #@! TO.N,/MCDA1*
X95000000Y-107900000D03*
G04 #@! TD*
D11*
G04 #@! TO.P,TP10,1*
G04 #@! TO.N,/USB_D_M*
X89600000Y-81600000D03*
G04 #@! TD*
G04 #@! TO.P,TP9,1*
G04 #@! TO.N,/USB_D_P*
X89600000Y-83700000D03*
G04 #@! TD*
G04 #@! TO.P,TP8,1*
G04 #@! TO.N,/ERASE*
X102500000Y-95200000D03*
G04 #@! TD*
G04 #@! TO.P,TP1,1*
G04 #@! TO.N,+1V8*
X89050000Y-89650000D03*
G04 #@! TD*
D12*
G04 #@! TO.P,J3,28*
G04 #@! TO.N,GND*
X80540000Y-115300000D03*
G04 #@! TO.P,J3,27*
G04 #@! TO.N,+3V3*
X78000000Y-115300000D03*
G04 #@! TO.P,J3,26*
G04 #@! TO.N,/PA2*
X80540000Y-112760000D03*
G04 #@! TO.P,J3,25*
G04 #@! TO.N,/PA1*
X78000000Y-112760000D03*
G04 #@! TO.P,J3,24*
G04 #@! TO.N,/PA0*
X80540000Y-110220000D03*
G04 #@! TO.P,J3,23*
G04 #@! TO.N,/PA25*
X78000000Y-110220000D03*
G04 #@! TO.P,J3,22*
G04 #@! TO.N,/PA26*
X80540000Y-107680000D03*
G04 #@! TO.P,J3,21*
G04 #@! TO.N,/PA23*
X78000000Y-107680000D03*
G04 #@! TO.P,J3,20*
G04 #@! TO.N,/PA21*
X80540000Y-105140000D03*
G04 #@! TO.P,J3,19*
G04 #@! TO.N,/PA20*
X78000000Y-105140000D03*
G04 #@! TO.P,J3,18*
G04 #@! TO.N,/PA17*
X80540000Y-102600000D03*
G04 #@! TO.P,J3,17*
G04 #@! TO.N,/PA19*
X78000000Y-102600000D03*
G04 #@! TO.P,J3,16*
G04 #@! TO.N,/PA14*
X80540000Y-100060000D03*
G04 #@! TO.P,J3,15*
G04 #@! TO.N,/PA16*
X78000000Y-100060000D03*
G04 #@! TO.P,J3,14*
G04 #@! TO.N,/PB4*
X80540000Y-97520000D03*
G04 #@! TO.P,J3,13*
G04 #@! TO.N,/PB3*
X78000000Y-97520000D03*
G04 #@! TO.P,J3,12*
G04 #@! TO.N,/PA30*
X80540000Y-94980000D03*
G04 #@! TO.P,J3,11*
G04 #@! TO.N,/PB8*
X78000000Y-94980000D03*
G04 #@! TO.P,J3,10*
G04 #@! TO.N,/PB5*
X80540000Y-92440000D03*
G04 #@! TO.P,J3,9*
G04 #@! TO.N,/PB7*
X78000000Y-92440000D03*
G04 #@! TO.P,J3,8*
G04 #@! TO.N,/PB6*
X80540000Y-89900000D03*
G04 #@! TO.P,J3,7*
G04 #@! TO.N,/PB2*
X78000000Y-89900000D03*
G04 #@! TO.P,J3,6*
G04 #@! TO.N,/PB11*
X80540000Y-87360000D03*
G04 #@! TO.P,J3,5*
G04 #@! TO.N,/PB12*
X78000000Y-87360000D03*
G04 #@! TO.P,J3,4*
G04 #@! TO.N,/PB1*
X80540000Y-84820000D03*
G04 #@! TO.P,J3,3*
G04 #@! TO.N,/PA29*
X78000000Y-84820000D03*
G04 #@! TO.P,J3,2*
G04 #@! TO.N,GND*
X80540000Y-82280000D03*
D13*
G04 #@! TO.P,J3,1*
G04 #@! TO.N,+3V3*
X78000000Y-82280000D03*
G04 #@! TD*
G04 #@! TO.P,J5,1*
G04 #@! TO.N,+3V3*
X111000000Y-82280000D03*
D12*
G04 #@! TO.P,J5,2*
G04 #@! TO.N,GND*
X113540000Y-82280000D03*
G04 #@! TO.P,J5,3*
G04 #@! TO.N,/PA22*
X111000000Y-84820000D03*
G04 #@! TO.P,J5,4*
G04 #@! TO.N,/PB13*
X113540000Y-84820000D03*
G04 #@! TO.P,J5,5*
G04 #@! TO.N,/PB0*
X111000000Y-87360000D03*
G04 #@! TO.P,J5,6*
G04 #@! TO.N,/PA28*
X113540000Y-87360000D03*
G04 #@! TO.P,J5,7*
G04 #@! TO.N,/PA31*
X111000000Y-89900000D03*
G04 #@! TO.P,J5,8*
G04 #@! TO.N,/PB14*
X113540000Y-89900000D03*
G04 #@! TO.P,J5,9*
G04 #@! TO.N,/PB9*
X111000000Y-92440000D03*
G04 #@! TO.P,J5,10*
G04 #@! TO.N,/PB20*
X113540000Y-92440000D03*
G04 #@! TO.P,J5,11*
G04 #@! TO.N,/PB22*
X111000000Y-94980000D03*
G04 #@! TO.P,J5,12*
G04 #@! TO.N,/PB16*
X113540000Y-94980000D03*
G04 #@! TO.P,J5,13*
G04 #@! TO.N,/PB10*
X111000000Y-97520000D03*
G04 #@! TO.P,J5,14*
G04 #@! TO.N,/PB15*
X113540000Y-97520000D03*
G04 #@! TO.P,J5,15*
G04 #@! TO.N,/PB18*
X111000000Y-100060000D03*
G04 #@! TO.P,J5,16*
G04 #@! TO.N,/PB17*
X113540000Y-100060000D03*
G04 #@! TO.P,J5,17*
G04 #@! TO.N,/PB19*
X111000000Y-102600000D03*
G04 #@! TO.P,J5,18*
G04 #@! TO.N,/PB21*
X113540000Y-102600000D03*
G04 #@! TO.P,J5,19*
G04 #@! TO.N,/PB24*
X111000000Y-105140000D03*
G04 #@! TO.P,J5,20*
G04 #@! TO.N,/PB23*
X113540000Y-105140000D03*
G04 #@! TO.P,J5,21*
G04 #@! TO.N,/PA12*
X111000000Y-107680000D03*
G04 #@! TO.P,J5,22*
G04 #@! TO.N,/PA11*
X113540000Y-107680000D03*
G04 #@! TO.P,J5,23*
G04 #@! TO.N,/PA9*
X111000000Y-110220000D03*
G04 #@! TO.P,J5,24*
G04 #@! TO.N,/PA10*
X113540000Y-110220000D03*
G04 #@! TO.P,J5,25*
G04 #@! TO.N,/PA24*
X111000000Y-112760000D03*
G04 #@! TO.P,J5,26*
G04 #@! TO.N,/PA18*
X113540000Y-112760000D03*
G04 #@! TO.P,J5,27*
G04 #@! TO.N,+3V3*
X111000000Y-115300000D03*
G04 #@! TO.P,J5,28*
G04 #@! TO.N,GND*
X113540000Y-115300000D03*
G04 #@! TD*
D14*
G04 #@! TO.N,+3V3*
G04 #@! TO.C,C17*
G36*
X99676958Y-97380710D02*
X99691276Y-97382834D01*
X99705317Y-97386351D01*
X99718946Y-97391228D01*
X99732031Y-97397417D01*
X99744447Y-97404858D01*
X99756073Y-97413481D01*
X99766798Y-97423202D01*
X99776519Y-97433927D01*
X99785142Y-97445553D01*
X99792583Y-97457969D01*
X99798772Y-97471054D01*
X99803649Y-97484683D01*
X99807166Y-97498724D01*
X99809290Y-97513042D01*
X99810000Y-97527500D01*
X99810000Y-97872500D01*
X99809290Y-97886958D01*
X99807166Y-97901276D01*
X99803649Y-97915317D01*
X99798772Y-97928946D01*
X99792583Y-97942031D01*
X99785142Y-97954447D01*
X99776519Y-97966073D01*
X99766798Y-97976798D01*
X99756073Y-97986519D01*
X99744447Y-97995142D01*
X99732031Y-98002583D01*
X99718946Y-98008772D01*
X99705317Y-98013649D01*
X99691276Y-98017166D01*
X99676958Y-98019290D01*
X99662500Y-98020000D01*
X99367500Y-98020000D01*
X99353042Y-98019290D01*
X99338724Y-98017166D01*
X99324683Y-98013649D01*
X99311054Y-98008772D01*
X99297969Y-98002583D01*
X99285553Y-97995142D01*
X99273927Y-97986519D01*
X99263202Y-97976798D01*
X99253481Y-97966073D01*
X99244858Y-97954447D01*
X99237417Y-97942031D01*
X99231228Y-97928946D01*
X99226351Y-97915317D01*
X99222834Y-97901276D01*
X99220710Y-97886958D01*
X99220000Y-97872500D01*
X99220000Y-97527500D01*
X99220710Y-97513042D01*
X99222834Y-97498724D01*
X99226351Y-97484683D01*
X99231228Y-97471054D01*
X99237417Y-97457969D01*
X99244858Y-97445553D01*
X99253481Y-97433927D01*
X99263202Y-97423202D01*
X99273927Y-97413481D01*
X99285553Y-97404858D01*
X99297969Y-97397417D01*
X99311054Y-97391228D01*
X99324683Y-97386351D01*
X99338724Y-97382834D01*
X99353042Y-97380710D01*
X99367500Y-97380000D01*
X99662500Y-97380000D01*
X99676958Y-97380710D01*
X99676958Y-97380710D01*
G37*
D15*
G04 #@! TD*
G04 #@! TO.P,C17,1*
G04 #@! TO.N,+3V3*
X99515000Y-97700000D03*
D14*
G04 #@! TO.N,GND*
G04 #@! TO.C,C17*
G36*
X100646958Y-97380710D02*
X100661276Y-97382834D01*
X100675317Y-97386351D01*
X100688946Y-97391228D01*
X100702031Y-97397417D01*
X100714447Y-97404858D01*
X100726073Y-97413481D01*
X100736798Y-97423202D01*
X100746519Y-97433927D01*
X100755142Y-97445553D01*
X100762583Y-97457969D01*
X100768772Y-97471054D01*
X100773649Y-97484683D01*
X100777166Y-97498724D01*
X100779290Y-97513042D01*
X100780000Y-97527500D01*
X100780000Y-97872500D01*
X100779290Y-97886958D01*
X100777166Y-97901276D01*
X100773649Y-97915317D01*
X100768772Y-97928946D01*
X100762583Y-97942031D01*
X100755142Y-97954447D01*
X100746519Y-97966073D01*
X100736798Y-97976798D01*
X100726073Y-97986519D01*
X100714447Y-97995142D01*
X100702031Y-98002583D01*
X100688946Y-98008772D01*
X100675317Y-98013649D01*
X100661276Y-98017166D01*
X100646958Y-98019290D01*
X100632500Y-98020000D01*
X100337500Y-98020000D01*
X100323042Y-98019290D01*
X100308724Y-98017166D01*
X100294683Y-98013649D01*
X100281054Y-98008772D01*
X100267969Y-98002583D01*
X100255553Y-97995142D01*
X100243927Y-97986519D01*
X100233202Y-97976798D01*
X100223481Y-97966073D01*
X100214858Y-97954447D01*
X100207417Y-97942031D01*
X100201228Y-97928946D01*
X100196351Y-97915317D01*
X100192834Y-97901276D01*
X100190710Y-97886958D01*
X100190000Y-97872500D01*
X100190000Y-97527500D01*
X100190710Y-97513042D01*
X100192834Y-97498724D01*
X100196351Y-97484683D01*
X100201228Y-97471054D01*
X100207417Y-97457969D01*
X100214858Y-97445553D01*
X100223481Y-97433927D01*
X100233202Y-97423202D01*
X100243927Y-97413481D01*
X100255553Y-97404858D01*
X100267969Y-97397417D01*
X100281054Y-97391228D01*
X100294683Y-97386351D01*
X100308724Y-97382834D01*
X100323042Y-97380710D01*
X100337500Y-97380000D01*
X100632500Y-97380000D01*
X100646958Y-97380710D01*
X100646958Y-97380710D01*
G37*
D15*
G04 #@! TD*
G04 #@! TO.P,C17,2*
G04 #@! TO.N,GND*
X100485000Y-97700000D03*
D14*
G04 #@! TO.N,+3V3*
G04 #@! TO.C,C10*
G36*
X100176958Y-92280710D02*
X100191276Y-92282834D01*
X100205317Y-92286351D01*
X100218946Y-92291228D01*
X100232031Y-92297417D01*
X100244447Y-92304858D01*
X100256073Y-92313481D01*
X100266798Y-92323202D01*
X100276519Y-92333927D01*
X100285142Y-92345553D01*
X100292583Y-92357969D01*
X100298772Y-92371054D01*
X100303649Y-92384683D01*
X100307166Y-92398724D01*
X100309290Y-92413042D01*
X100310000Y-92427500D01*
X100310000Y-92772500D01*
X100309290Y-92786958D01*
X100307166Y-92801276D01*
X100303649Y-92815317D01*
X100298772Y-92828946D01*
X100292583Y-92842031D01*
X100285142Y-92854447D01*
X100276519Y-92866073D01*
X100266798Y-92876798D01*
X100256073Y-92886519D01*
X100244447Y-92895142D01*
X100232031Y-92902583D01*
X100218946Y-92908772D01*
X100205317Y-92913649D01*
X100191276Y-92917166D01*
X100176958Y-92919290D01*
X100162500Y-92920000D01*
X99867500Y-92920000D01*
X99853042Y-92919290D01*
X99838724Y-92917166D01*
X99824683Y-92913649D01*
X99811054Y-92908772D01*
X99797969Y-92902583D01*
X99785553Y-92895142D01*
X99773927Y-92886519D01*
X99763202Y-92876798D01*
X99753481Y-92866073D01*
X99744858Y-92854447D01*
X99737417Y-92842031D01*
X99731228Y-92828946D01*
X99726351Y-92815317D01*
X99722834Y-92801276D01*
X99720710Y-92786958D01*
X99720000Y-92772500D01*
X99720000Y-92427500D01*
X99720710Y-92413042D01*
X99722834Y-92398724D01*
X99726351Y-92384683D01*
X99731228Y-92371054D01*
X99737417Y-92357969D01*
X99744858Y-92345553D01*
X99753481Y-92333927D01*
X99763202Y-92323202D01*
X99773927Y-92313481D01*
X99785553Y-92304858D01*
X99797969Y-92297417D01*
X99811054Y-92291228D01*
X99824683Y-92286351D01*
X99838724Y-92282834D01*
X99853042Y-92280710D01*
X99867500Y-92280000D01*
X100162500Y-92280000D01*
X100176958Y-92280710D01*
X100176958Y-92280710D01*
G37*
D15*
G04 #@! TD*
G04 #@! TO.P,C10,1*
G04 #@! TO.N,+3V3*
X100015000Y-92600000D03*
D14*
G04 #@! TO.N,GND*
G04 #@! TO.C,C10*
G36*
X101146958Y-92280710D02*
X101161276Y-92282834D01*
X101175317Y-92286351D01*
X101188946Y-92291228D01*
X101202031Y-92297417D01*
X101214447Y-92304858D01*
X101226073Y-92313481D01*
X101236798Y-92323202D01*
X101246519Y-92333927D01*
X101255142Y-92345553D01*
X101262583Y-92357969D01*
X101268772Y-92371054D01*
X101273649Y-92384683D01*
X101277166Y-92398724D01*
X101279290Y-92413042D01*
X101280000Y-92427500D01*
X101280000Y-92772500D01*
X101279290Y-92786958D01*
X101277166Y-92801276D01*
X101273649Y-92815317D01*
X101268772Y-92828946D01*
X101262583Y-92842031D01*
X101255142Y-92854447D01*
X101246519Y-92866073D01*
X101236798Y-92876798D01*
X101226073Y-92886519D01*
X101214447Y-92895142D01*
X101202031Y-92902583D01*
X101188946Y-92908772D01*
X101175317Y-92913649D01*
X101161276Y-92917166D01*
X101146958Y-92919290D01*
X101132500Y-92920000D01*
X100837500Y-92920000D01*
X100823042Y-92919290D01*
X100808724Y-92917166D01*
X100794683Y-92913649D01*
X100781054Y-92908772D01*
X100767969Y-92902583D01*
X100755553Y-92895142D01*
X100743927Y-92886519D01*
X100733202Y-92876798D01*
X100723481Y-92866073D01*
X100714858Y-92854447D01*
X100707417Y-92842031D01*
X100701228Y-92828946D01*
X100696351Y-92815317D01*
X100692834Y-92801276D01*
X100690710Y-92786958D01*
X100690000Y-92772500D01*
X100690000Y-92427500D01*
X100690710Y-92413042D01*
X100692834Y-92398724D01*
X100696351Y-92384683D01*
X100701228Y-92371054D01*
X100707417Y-92357969D01*
X100714858Y-92345553D01*
X100723481Y-92333927D01*
X100733202Y-92323202D01*
X100743927Y-92313481D01*
X100755553Y-92304858D01*
X100767969Y-92297417D01*
X100781054Y-92291228D01*
X100794683Y-92286351D01*
X100808724Y-92282834D01*
X100823042Y-92280710D01*
X100837500Y-92280000D01*
X101132500Y-92280000D01*
X101146958Y-92280710D01*
X101146958Y-92280710D01*
G37*
D15*
G04 #@! TD*
G04 #@! TO.P,C10,2*
G04 #@! TO.N,GND*
X100985000Y-92600000D03*
D14*
G04 #@! TO.N,GND*
G04 #@! TO.C,C6*
G36*
X98946958Y-90380710D02*
X98961276Y-90382834D01*
X98975317Y-90386351D01*
X98988946Y-90391228D01*
X99002031Y-90397417D01*
X99014447Y-90404858D01*
X99026073Y-90413481D01*
X99036798Y-90423202D01*
X99046519Y-90433927D01*
X99055142Y-90445553D01*
X99062583Y-90457969D01*
X99068772Y-90471054D01*
X99073649Y-90484683D01*
X99077166Y-90498724D01*
X99079290Y-90513042D01*
X99080000Y-90527500D01*
X99080000Y-90872500D01*
X99079290Y-90886958D01*
X99077166Y-90901276D01*
X99073649Y-90915317D01*
X99068772Y-90928946D01*
X99062583Y-90942031D01*
X99055142Y-90954447D01*
X99046519Y-90966073D01*
X99036798Y-90976798D01*
X99026073Y-90986519D01*
X99014447Y-90995142D01*
X99002031Y-91002583D01*
X98988946Y-91008772D01*
X98975317Y-91013649D01*
X98961276Y-91017166D01*
X98946958Y-91019290D01*
X98932500Y-91020000D01*
X98637500Y-91020000D01*
X98623042Y-91019290D01*
X98608724Y-91017166D01*
X98594683Y-91013649D01*
X98581054Y-91008772D01*
X98567969Y-91002583D01*
X98555553Y-90995142D01*
X98543927Y-90986519D01*
X98533202Y-90976798D01*
X98523481Y-90966073D01*
X98514858Y-90954447D01*
X98507417Y-90942031D01*
X98501228Y-90928946D01*
X98496351Y-90915317D01*
X98492834Y-90901276D01*
X98490710Y-90886958D01*
X98490000Y-90872500D01*
X98490000Y-90527500D01*
X98490710Y-90513042D01*
X98492834Y-90498724D01*
X98496351Y-90484683D01*
X98501228Y-90471054D01*
X98507417Y-90457969D01*
X98514858Y-90445553D01*
X98523481Y-90433927D01*
X98533202Y-90423202D01*
X98543927Y-90413481D01*
X98555553Y-90404858D01*
X98567969Y-90397417D01*
X98581054Y-90391228D01*
X98594683Y-90386351D01*
X98608724Y-90382834D01*
X98623042Y-90380710D01*
X98637500Y-90380000D01*
X98932500Y-90380000D01*
X98946958Y-90380710D01*
X98946958Y-90380710D01*
G37*
D15*
G04 #@! TD*
G04 #@! TO.P,C6,2*
G04 #@! TO.N,GND*
X98785000Y-90700000D03*
D14*
G04 #@! TO.N,+1V8*
G04 #@! TO.C,C6*
G36*
X97976958Y-90380710D02*
X97991276Y-90382834D01*
X98005317Y-90386351D01*
X98018946Y-90391228D01*
X98032031Y-90397417D01*
X98044447Y-90404858D01*
X98056073Y-90413481D01*
X98066798Y-90423202D01*
X98076519Y-90433927D01*
X98085142Y-90445553D01*
X98092583Y-90457969D01*
X98098772Y-90471054D01*
X98103649Y-90484683D01*
X98107166Y-90498724D01*
X98109290Y-90513042D01*
X98110000Y-90527500D01*
X98110000Y-90872500D01*
X98109290Y-90886958D01*
X98107166Y-90901276D01*
X98103649Y-90915317D01*
X98098772Y-90928946D01*
X98092583Y-90942031D01*
X98085142Y-90954447D01*
X98076519Y-90966073D01*
X98066798Y-90976798D01*
X98056073Y-90986519D01*
X98044447Y-90995142D01*
X98032031Y-91002583D01*
X98018946Y-91008772D01*
X98005317Y-91013649D01*
X97991276Y-91017166D01*
X97976958Y-91019290D01*
X97962500Y-91020000D01*
X97667500Y-91020000D01*
X97653042Y-91019290D01*
X97638724Y-91017166D01*
X97624683Y-91013649D01*
X97611054Y-91008772D01*
X97597969Y-91002583D01*
X97585553Y-90995142D01*
X97573927Y-90986519D01*
X97563202Y-90976798D01*
X97553481Y-90966073D01*
X97544858Y-90954447D01*
X97537417Y-90942031D01*
X97531228Y-90928946D01*
X97526351Y-90915317D01*
X97522834Y-90901276D01*
X97520710Y-90886958D01*
X97520000Y-90872500D01*
X97520000Y-90527500D01*
X97520710Y-90513042D01*
X97522834Y-90498724D01*
X97526351Y-90484683D01*
X97531228Y-90471054D01*
X97537417Y-90457969D01*
X97544858Y-90445553D01*
X97553481Y-90433927D01*
X97563202Y-90423202D01*
X97573927Y-90413481D01*
X97585553Y-90404858D01*
X97597969Y-90397417D01*
X97611054Y-90391228D01*
X97624683Y-90386351D01*
X97638724Y-90382834D01*
X97653042Y-90380710D01*
X97667500Y-90380000D01*
X97962500Y-90380000D01*
X97976958Y-90380710D01*
X97976958Y-90380710D01*
G37*
D15*
G04 #@! TD*
G04 #@! TO.P,C6,1*
G04 #@! TO.N,+1V8*
X97815000Y-90700000D03*
D14*
G04 #@! TO.N,+3V3*
G04 #@! TO.C,C5*
G36*
X95186958Y-92290710D02*
X95201276Y-92292834D01*
X95215317Y-92296351D01*
X95228946Y-92301228D01*
X95242031Y-92307417D01*
X95254447Y-92314858D01*
X95266073Y-92323481D01*
X95276798Y-92333202D01*
X95286519Y-92343927D01*
X95295142Y-92355553D01*
X95302583Y-92367969D01*
X95308772Y-92381054D01*
X95313649Y-92394683D01*
X95317166Y-92408724D01*
X95319290Y-92423042D01*
X95320000Y-92437500D01*
X95320000Y-92732500D01*
X95319290Y-92746958D01*
X95317166Y-92761276D01*
X95313649Y-92775317D01*
X95308772Y-92788946D01*
X95302583Y-92802031D01*
X95295142Y-92814447D01*
X95286519Y-92826073D01*
X95276798Y-92836798D01*
X95266073Y-92846519D01*
X95254447Y-92855142D01*
X95242031Y-92862583D01*
X95228946Y-92868772D01*
X95215317Y-92873649D01*
X95201276Y-92877166D01*
X95186958Y-92879290D01*
X95172500Y-92880000D01*
X94827500Y-92880000D01*
X94813042Y-92879290D01*
X94798724Y-92877166D01*
X94784683Y-92873649D01*
X94771054Y-92868772D01*
X94757969Y-92862583D01*
X94745553Y-92855142D01*
X94733927Y-92846519D01*
X94723202Y-92836798D01*
X94713481Y-92826073D01*
X94704858Y-92814447D01*
X94697417Y-92802031D01*
X94691228Y-92788946D01*
X94686351Y-92775317D01*
X94682834Y-92761276D01*
X94680710Y-92746958D01*
X94680000Y-92732500D01*
X94680000Y-92437500D01*
X94680710Y-92423042D01*
X94682834Y-92408724D01*
X94686351Y-92394683D01*
X94691228Y-92381054D01*
X94697417Y-92367969D01*
X94704858Y-92355553D01*
X94713481Y-92343927D01*
X94723202Y-92333202D01*
X94733927Y-92323481D01*
X94745553Y-92314858D01*
X94757969Y-92307417D01*
X94771054Y-92301228D01*
X94784683Y-92296351D01*
X94798724Y-92292834D01*
X94813042Y-92290710D01*
X94827500Y-92290000D01*
X95172500Y-92290000D01*
X95186958Y-92290710D01*
X95186958Y-92290710D01*
G37*
D15*
G04 #@! TD*
G04 #@! TO.P,C5,1*
G04 #@! TO.N,+3V3*
X95000000Y-92585000D03*
D14*
G04 #@! TO.N,GND*
G04 #@! TO.C,C5*
G36*
X95186958Y-91320710D02*
X95201276Y-91322834D01*
X95215317Y-91326351D01*
X95228946Y-91331228D01*
X95242031Y-91337417D01*
X95254447Y-91344858D01*
X95266073Y-91353481D01*
X95276798Y-91363202D01*
X95286519Y-91373927D01*
X95295142Y-91385553D01*
X95302583Y-91397969D01*
X95308772Y-91411054D01*
X95313649Y-91424683D01*
X95317166Y-91438724D01*
X95319290Y-91453042D01*
X95320000Y-91467500D01*
X95320000Y-91762500D01*
X95319290Y-91776958D01*
X95317166Y-91791276D01*
X95313649Y-91805317D01*
X95308772Y-91818946D01*
X95302583Y-91832031D01*
X95295142Y-91844447D01*
X95286519Y-91856073D01*
X95276798Y-91866798D01*
X95266073Y-91876519D01*
X95254447Y-91885142D01*
X95242031Y-91892583D01*
X95228946Y-91898772D01*
X95215317Y-91903649D01*
X95201276Y-91907166D01*
X95186958Y-91909290D01*
X95172500Y-91910000D01*
X94827500Y-91910000D01*
X94813042Y-91909290D01*
X94798724Y-91907166D01*
X94784683Y-91903649D01*
X94771054Y-91898772D01*
X94757969Y-91892583D01*
X94745553Y-91885142D01*
X94733927Y-91876519D01*
X94723202Y-91866798D01*
X94713481Y-91856073D01*
X94704858Y-91844447D01*
X94697417Y-91832031D01*
X94691228Y-91818946D01*
X94686351Y-91805317D01*
X94682834Y-91791276D01*
X94680710Y-91776958D01*
X94680000Y-91762500D01*
X94680000Y-91467500D01*
X94680710Y-91453042D01*
X94682834Y-91438724D01*
X94686351Y-91424683D01*
X94691228Y-91411054D01*
X94697417Y-91397969D01*
X94704858Y-91385553D01*
X94713481Y-91373927D01*
X94723202Y-91363202D01*
X94733927Y-91353481D01*
X94745553Y-91344858D01*
X94757969Y-91337417D01*
X94771054Y-91331228D01*
X94784683Y-91326351D01*
X94798724Y-91322834D01*
X94813042Y-91320710D01*
X94827500Y-91320000D01*
X95172500Y-91320000D01*
X95186958Y-91320710D01*
X95186958Y-91320710D01*
G37*
D15*
G04 #@! TD*
G04 #@! TO.P,C5,2*
G04 #@! TO.N,GND*
X95000000Y-91615000D03*
D14*
G04 #@! TO.N,GND*
G04 #@! TO.C,C4*
G36*
X93186958Y-89335710D02*
X93201276Y-89337834D01*
X93215317Y-89341351D01*
X93228946Y-89346228D01*
X93242031Y-89352417D01*
X93254447Y-89359858D01*
X93266073Y-89368481D01*
X93276798Y-89378202D01*
X93286519Y-89388927D01*
X93295142Y-89400553D01*
X93302583Y-89412969D01*
X93308772Y-89426054D01*
X93313649Y-89439683D01*
X93317166Y-89453724D01*
X93319290Y-89468042D01*
X93320000Y-89482500D01*
X93320000Y-89777500D01*
X93319290Y-89791958D01*
X93317166Y-89806276D01*
X93313649Y-89820317D01*
X93308772Y-89833946D01*
X93302583Y-89847031D01*
X93295142Y-89859447D01*
X93286519Y-89871073D01*
X93276798Y-89881798D01*
X93266073Y-89891519D01*
X93254447Y-89900142D01*
X93242031Y-89907583D01*
X93228946Y-89913772D01*
X93215317Y-89918649D01*
X93201276Y-89922166D01*
X93186958Y-89924290D01*
X93172500Y-89925000D01*
X92827500Y-89925000D01*
X92813042Y-89924290D01*
X92798724Y-89922166D01*
X92784683Y-89918649D01*
X92771054Y-89913772D01*
X92757969Y-89907583D01*
X92745553Y-89900142D01*
X92733927Y-89891519D01*
X92723202Y-89881798D01*
X92713481Y-89871073D01*
X92704858Y-89859447D01*
X92697417Y-89847031D01*
X92691228Y-89833946D01*
X92686351Y-89820317D01*
X92682834Y-89806276D01*
X92680710Y-89791958D01*
X92680000Y-89777500D01*
X92680000Y-89482500D01*
X92680710Y-89468042D01*
X92682834Y-89453724D01*
X92686351Y-89439683D01*
X92691228Y-89426054D01*
X92697417Y-89412969D01*
X92704858Y-89400553D01*
X92713481Y-89388927D01*
X92723202Y-89378202D01*
X92733927Y-89368481D01*
X92745553Y-89359858D01*
X92757969Y-89352417D01*
X92771054Y-89346228D01*
X92784683Y-89341351D01*
X92798724Y-89337834D01*
X92813042Y-89335710D01*
X92827500Y-89335000D01*
X93172500Y-89335000D01*
X93186958Y-89335710D01*
X93186958Y-89335710D01*
G37*
D15*
G04 #@! TD*
G04 #@! TO.P,C4,2*
G04 #@! TO.N,GND*
X93000000Y-89630000D03*
D14*
G04 #@! TO.N,+1V8*
G04 #@! TO.C,C4*
G36*
X93186958Y-90305710D02*
X93201276Y-90307834D01*
X93215317Y-90311351D01*
X93228946Y-90316228D01*
X93242031Y-90322417D01*
X93254447Y-90329858D01*
X93266073Y-90338481D01*
X93276798Y-90348202D01*
X93286519Y-90358927D01*
X93295142Y-90370553D01*
X93302583Y-90382969D01*
X93308772Y-90396054D01*
X93313649Y-90409683D01*
X93317166Y-90423724D01*
X93319290Y-90438042D01*
X93320000Y-90452500D01*
X93320000Y-90747500D01*
X93319290Y-90761958D01*
X93317166Y-90776276D01*
X93313649Y-90790317D01*
X93308772Y-90803946D01*
X93302583Y-90817031D01*
X93295142Y-90829447D01*
X93286519Y-90841073D01*
X93276798Y-90851798D01*
X93266073Y-90861519D01*
X93254447Y-90870142D01*
X93242031Y-90877583D01*
X93228946Y-90883772D01*
X93215317Y-90888649D01*
X93201276Y-90892166D01*
X93186958Y-90894290D01*
X93172500Y-90895000D01*
X92827500Y-90895000D01*
X92813042Y-90894290D01*
X92798724Y-90892166D01*
X92784683Y-90888649D01*
X92771054Y-90883772D01*
X92757969Y-90877583D01*
X92745553Y-90870142D01*
X92733927Y-90861519D01*
X92723202Y-90851798D01*
X92713481Y-90841073D01*
X92704858Y-90829447D01*
X92697417Y-90817031D01*
X92691228Y-90803946D01*
X92686351Y-90790317D01*
X92682834Y-90776276D01*
X92680710Y-90761958D01*
X92680000Y-90747500D01*
X92680000Y-90452500D01*
X92680710Y-90438042D01*
X92682834Y-90423724D01*
X92686351Y-90409683D01*
X92691228Y-90396054D01*
X92697417Y-90382969D01*
X92704858Y-90370553D01*
X92713481Y-90358927D01*
X92723202Y-90348202D01*
X92733927Y-90338481D01*
X92745553Y-90329858D01*
X92757969Y-90322417D01*
X92771054Y-90316228D01*
X92784683Y-90311351D01*
X92798724Y-90307834D01*
X92813042Y-90305710D01*
X92827500Y-90305000D01*
X93172500Y-90305000D01*
X93186958Y-90305710D01*
X93186958Y-90305710D01*
G37*
D15*
G04 #@! TD*
G04 #@! TO.P,C4,1*
G04 #@! TO.N,+1V8*
X93000000Y-90600000D03*
D14*
G04 #@! TO.N,+1V8*
G04 #@! TO.C,C3*
G36*
X96576958Y-92880710D02*
X96591276Y-92882834D01*
X96605317Y-92886351D01*
X96618946Y-92891228D01*
X96632031Y-92897417D01*
X96644447Y-92904858D01*
X96656073Y-92913481D01*
X96666798Y-92923202D01*
X96676519Y-92933927D01*
X96685142Y-92945553D01*
X96692583Y-92957969D01*
X96698772Y-92971054D01*
X96703649Y-92984683D01*
X96707166Y-92998724D01*
X96709290Y-93013042D01*
X96710000Y-93027500D01*
X96710000Y-93372500D01*
X96709290Y-93386958D01*
X96707166Y-93401276D01*
X96703649Y-93415317D01*
X96698772Y-93428946D01*
X96692583Y-93442031D01*
X96685142Y-93454447D01*
X96676519Y-93466073D01*
X96666798Y-93476798D01*
X96656073Y-93486519D01*
X96644447Y-93495142D01*
X96632031Y-93502583D01*
X96618946Y-93508772D01*
X96605317Y-93513649D01*
X96591276Y-93517166D01*
X96576958Y-93519290D01*
X96562500Y-93520000D01*
X96267500Y-93520000D01*
X96253042Y-93519290D01*
X96238724Y-93517166D01*
X96224683Y-93513649D01*
X96211054Y-93508772D01*
X96197969Y-93502583D01*
X96185553Y-93495142D01*
X96173927Y-93486519D01*
X96163202Y-93476798D01*
X96153481Y-93466073D01*
X96144858Y-93454447D01*
X96137417Y-93442031D01*
X96131228Y-93428946D01*
X96126351Y-93415317D01*
X96122834Y-93401276D01*
X96120710Y-93386958D01*
X96120000Y-93372500D01*
X96120000Y-93027500D01*
X96120710Y-93013042D01*
X96122834Y-92998724D01*
X96126351Y-92984683D01*
X96131228Y-92971054D01*
X96137417Y-92957969D01*
X96144858Y-92945553D01*
X96153481Y-92933927D01*
X96163202Y-92923202D01*
X96173927Y-92913481D01*
X96185553Y-92904858D01*
X96197969Y-92897417D01*
X96211054Y-92891228D01*
X96224683Y-92886351D01*
X96238724Y-92882834D01*
X96253042Y-92880710D01*
X96267500Y-92880000D01*
X96562500Y-92880000D01*
X96576958Y-92880710D01*
X96576958Y-92880710D01*
G37*
D15*
G04 #@! TD*
G04 #@! TO.P,C3,1*
G04 #@! TO.N,+1V8*
X96415000Y-93200000D03*
D14*
G04 #@! TO.N,GND*
G04 #@! TO.C,C3*
G36*
X97546958Y-92880710D02*
X97561276Y-92882834D01*
X97575317Y-92886351D01*
X97588946Y-92891228D01*
X97602031Y-92897417D01*
X97614447Y-92904858D01*
X97626073Y-92913481D01*
X97636798Y-92923202D01*
X97646519Y-92933927D01*
X97655142Y-92945553D01*
X97662583Y-92957969D01*
X97668772Y-92971054D01*
X97673649Y-92984683D01*
X97677166Y-92998724D01*
X97679290Y-93013042D01*
X97680000Y-93027500D01*
X97680000Y-93372500D01*
X97679290Y-93386958D01*
X97677166Y-93401276D01*
X97673649Y-93415317D01*
X97668772Y-93428946D01*
X97662583Y-93442031D01*
X97655142Y-93454447D01*
X97646519Y-93466073D01*
X97636798Y-93476798D01*
X97626073Y-93486519D01*
X97614447Y-93495142D01*
X97602031Y-93502583D01*
X97588946Y-93508772D01*
X97575317Y-93513649D01*
X97561276Y-93517166D01*
X97546958Y-93519290D01*
X97532500Y-93520000D01*
X97237500Y-93520000D01*
X97223042Y-93519290D01*
X97208724Y-93517166D01*
X97194683Y-93513649D01*
X97181054Y-93508772D01*
X97167969Y-93502583D01*
X97155553Y-93495142D01*
X97143927Y-93486519D01*
X97133202Y-93476798D01*
X97123481Y-93466073D01*
X97114858Y-93454447D01*
X97107417Y-93442031D01*
X97101228Y-93428946D01*
X97096351Y-93415317D01*
X97092834Y-93401276D01*
X97090710Y-93386958D01*
X97090000Y-93372500D01*
X97090000Y-93027500D01*
X97090710Y-93013042D01*
X97092834Y-92998724D01*
X97096351Y-92984683D01*
X97101228Y-92971054D01*
X97107417Y-92957969D01*
X97114858Y-92945553D01*
X97123481Y-92933927D01*
X97133202Y-92923202D01*
X97143927Y-92913481D01*
X97155553Y-92904858D01*
X97167969Y-92897417D01*
X97181054Y-92891228D01*
X97194683Y-92886351D01*
X97208724Y-92882834D01*
X97223042Y-92880710D01*
X97237500Y-92880000D01*
X97532500Y-92880000D01*
X97546958Y-92880710D01*
X97546958Y-92880710D01*
G37*
D15*
G04 #@! TD*
G04 #@! TO.P,C3,2*
G04 #@! TO.N,GND*
X97385000Y-93200000D03*
D14*
G04 #@! TO.N,GND*
G04 #@! TO.C,C2*
G36*
X94976958Y-94680710D02*
X94991276Y-94682834D01*
X95005317Y-94686351D01*
X95018946Y-94691228D01*
X95032031Y-94697417D01*
X95044447Y-94704858D01*
X95056073Y-94713481D01*
X95066798Y-94723202D01*
X95076519Y-94733927D01*
X95085142Y-94745553D01*
X95092583Y-94757969D01*
X95098772Y-94771054D01*
X95103649Y-94784683D01*
X95107166Y-94798724D01*
X95109290Y-94813042D01*
X95110000Y-94827500D01*
X95110000Y-95172500D01*
X95109290Y-95186958D01*
X95107166Y-95201276D01*
X95103649Y-95215317D01*
X95098772Y-95228946D01*
X95092583Y-95242031D01*
X95085142Y-95254447D01*
X95076519Y-95266073D01*
X95066798Y-95276798D01*
X95056073Y-95286519D01*
X95044447Y-95295142D01*
X95032031Y-95302583D01*
X95018946Y-95308772D01*
X95005317Y-95313649D01*
X94991276Y-95317166D01*
X94976958Y-95319290D01*
X94962500Y-95320000D01*
X94667500Y-95320000D01*
X94653042Y-95319290D01*
X94638724Y-95317166D01*
X94624683Y-95313649D01*
X94611054Y-95308772D01*
X94597969Y-95302583D01*
X94585553Y-95295142D01*
X94573927Y-95286519D01*
X94563202Y-95276798D01*
X94553481Y-95266073D01*
X94544858Y-95254447D01*
X94537417Y-95242031D01*
X94531228Y-95228946D01*
X94526351Y-95215317D01*
X94522834Y-95201276D01*
X94520710Y-95186958D01*
X94520000Y-95172500D01*
X94520000Y-94827500D01*
X94520710Y-94813042D01*
X94522834Y-94798724D01*
X94526351Y-94784683D01*
X94531228Y-94771054D01*
X94537417Y-94757969D01*
X94544858Y-94745553D01*
X94553481Y-94733927D01*
X94563202Y-94723202D01*
X94573927Y-94713481D01*
X94585553Y-94704858D01*
X94597969Y-94697417D01*
X94611054Y-94691228D01*
X94624683Y-94686351D01*
X94638724Y-94682834D01*
X94653042Y-94680710D01*
X94667500Y-94680000D01*
X94962500Y-94680000D01*
X94976958Y-94680710D01*
X94976958Y-94680710D01*
G37*
D15*
G04 #@! TD*
G04 #@! TO.P,C2,2*
G04 #@! TO.N,GND*
X94815000Y-95000000D03*
D14*
G04 #@! TO.N,+3V3*
G04 #@! TO.C,C2*
G36*
X95946958Y-94680710D02*
X95961276Y-94682834D01*
X95975317Y-94686351D01*
X95988946Y-94691228D01*
X96002031Y-94697417D01*
X96014447Y-94704858D01*
X96026073Y-94713481D01*
X96036798Y-94723202D01*
X96046519Y-94733927D01*
X96055142Y-94745553D01*
X96062583Y-94757969D01*
X96068772Y-94771054D01*
X96073649Y-94784683D01*
X96077166Y-94798724D01*
X96079290Y-94813042D01*
X96080000Y-94827500D01*
X96080000Y-95172500D01*
X96079290Y-95186958D01*
X96077166Y-95201276D01*
X96073649Y-95215317D01*
X96068772Y-95228946D01*
X96062583Y-95242031D01*
X96055142Y-95254447D01*
X96046519Y-95266073D01*
X96036798Y-95276798D01*
X96026073Y-95286519D01*
X96014447Y-95295142D01*
X96002031Y-95302583D01*
X95988946Y-95308772D01*
X95975317Y-95313649D01*
X95961276Y-95317166D01*
X95946958Y-95319290D01*
X95932500Y-95320000D01*
X95637500Y-95320000D01*
X95623042Y-95319290D01*
X95608724Y-95317166D01*
X95594683Y-95313649D01*
X95581054Y-95308772D01*
X95567969Y-95302583D01*
X95555553Y-95295142D01*
X95543927Y-95286519D01*
X95533202Y-95276798D01*
X95523481Y-95266073D01*
X95514858Y-95254447D01*
X95507417Y-95242031D01*
X95501228Y-95228946D01*
X95496351Y-95215317D01*
X95492834Y-95201276D01*
X95490710Y-95186958D01*
X95490000Y-95172500D01*
X95490000Y-94827500D01*
X95490710Y-94813042D01*
X95492834Y-94798724D01*
X95496351Y-94784683D01*
X95501228Y-94771054D01*
X95507417Y-94757969D01*
X95514858Y-94745553D01*
X95523481Y-94733927D01*
X95533202Y-94723202D01*
X95543927Y-94713481D01*
X95555553Y-94704858D01*
X95567969Y-94697417D01*
X95581054Y-94691228D01*
X95594683Y-94686351D01*
X95608724Y-94682834D01*
X95623042Y-94680710D01*
X95637500Y-94680000D01*
X95932500Y-94680000D01*
X95946958Y-94680710D01*
X95946958Y-94680710D01*
G37*
D15*
G04 #@! TD*
G04 #@! TO.P,C2,1*
G04 #@! TO.N,+3V3*
X95785000Y-95000000D03*
D16*
G04 #@! TO.P,J4,1*
G04 #@! TO.N,/SWDIO*
X103550000Y-114600000D03*
D17*
G04 #@! TO.P,J4,2*
G04 #@! TO.N,+3V3*
X104820000Y-114600000D03*
G04 #@! TO.P,J4,3*
G04 #@! TO.N,/SWCLK*
X106090000Y-114600000D03*
G04 #@! TO.P,J4,4*
G04 #@! TO.N,GND*
X107360000Y-114600000D03*
G04 #@! TD*
D18*
G04 #@! TO.P,J1,6*
G04 #@! TO.N,GND*
X97930000Y-84152500D03*
X92930000Y-84152500D03*
D19*
X98930000Y-81452500D03*
X91930000Y-81452500D03*
G04 #@! TD*
D14*
G04 #@! TO.N,+3V3*
G04 #@! TO.C,C12*
G36*
X93227691Y-94726053D02*
X93248926Y-94729203D01*
X93269750Y-94734419D01*
X93289962Y-94741651D01*
X93309368Y-94750830D01*
X93327781Y-94761866D01*
X93345024Y-94774654D01*
X93360930Y-94789070D01*
X93375346Y-94804976D01*
X93388134Y-94822219D01*
X93399170Y-94840632D01*
X93408349Y-94860038D01*
X93415581Y-94880250D01*
X93420797Y-94901074D01*
X93423947Y-94922309D01*
X93425000Y-94943750D01*
X93425000Y-95456250D01*
X93423947Y-95477691D01*
X93420797Y-95498926D01*
X93415581Y-95519750D01*
X93408349Y-95539962D01*
X93399170Y-95559368D01*
X93388134Y-95577781D01*
X93375346Y-95595024D01*
X93360930Y-95610930D01*
X93345024Y-95625346D01*
X93327781Y-95638134D01*
X93309368Y-95649170D01*
X93289962Y-95658349D01*
X93269750Y-95665581D01*
X93248926Y-95670797D01*
X93227691Y-95673947D01*
X93206250Y-95675000D01*
X92768750Y-95675000D01*
X92747309Y-95673947D01*
X92726074Y-95670797D01*
X92705250Y-95665581D01*
X92685038Y-95658349D01*
X92665632Y-95649170D01*
X92647219Y-95638134D01*
X92629976Y-95625346D01*
X92614070Y-95610930D01*
X92599654Y-95595024D01*
X92586866Y-95577781D01*
X92575830Y-95559368D01*
X92566651Y-95539962D01*
X92559419Y-95519750D01*
X92554203Y-95498926D01*
X92551053Y-95477691D01*
X92550000Y-95456250D01*
X92550000Y-94943750D01*
X92551053Y-94922309D01*
X92554203Y-94901074D01*
X92559419Y-94880250D01*
X92566651Y-94860038D01*
X92575830Y-94840632D01*
X92586866Y-94822219D01*
X92599654Y-94804976D01*
X92614070Y-94789070D01*
X92629976Y-94774654D01*
X92647219Y-94761866D01*
X92665632Y-94750830D01*
X92685038Y-94741651D01*
X92705250Y-94734419D01*
X92726074Y-94729203D01*
X92747309Y-94726053D01*
X92768750Y-94725000D01*
X93206250Y-94725000D01*
X93227691Y-94726053D01*
X93227691Y-94726053D01*
G37*
D20*
G04 #@! TD*
G04 #@! TO.P,C12,1*
G04 #@! TO.N,+3V3*
X92987500Y-95200000D03*
D14*
G04 #@! TO.N,GND*
G04 #@! TO.C,C12*
G36*
X91652691Y-94726053D02*
X91673926Y-94729203D01*
X91694750Y-94734419D01*
X91714962Y-94741651D01*
X91734368Y-94750830D01*
X91752781Y-94761866D01*
X91770024Y-94774654D01*
X91785930Y-94789070D01*
X91800346Y-94804976D01*
X91813134Y-94822219D01*
X91824170Y-94840632D01*
X91833349Y-94860038D01*
X91840581Y-94880250D01*
X91845797Y-94901074D01*
X91848947Y-94922309D01*
X91850000Y-94943750D01*
X91850000Y-95456250D01*
X91848947Y-95477691D01*
X91845797Y-95498926D01*
X91840581Y-95519750D01*
X91833349Y-95539962D01*
X91824170Y-95559368D01*
X91813134Y-95577781D01*
X91800346Y-95595024D01*
X91785930Y-95610930D01*
X91770024Y-95625346D01*
X91752781Y-95638134D01*
X91734368Y-95649170D01*
X91714962Y-95658349D01*
X91694750Y-95665581D01*
X91673926Y-95670797D01*
X91652691Y-95673947D01*
X91631250Y-95675000D01*
X91193750Y-95675000D01*
X91172309Y-95673947D01*
X91151074Y-95670797D01*
X91130250Y-95665581D01*
X91110038Y-95658349D01*
X91090632Y-95649170D01*
X91072219Y-95638134D01*
X91054976Y-95625346D01*
X91039070Y-95610930D01*
X91024654Y-95595024D01*
X91011866Y-95577781D01*
X91000830Y-95559368D01*
X90991651Y-95539962D01*
X90984419Y-95519750D01*
X90979203Y-95498926D01*
X90976053Y-95477691D01*
X90975000Y-95456250D01*
X90975000Y-94943750D01*
X90976053Y-94922309D01*
X90979203Y-94901074D01*
X90984419Y-94880250D01*
X90991651Y-94860038D01*
X91000830Y-94840632D01*
X91011866Y-94822219D01*
X91024654Y-94804976D01*
X91039070Y-94789070D01*
X91054976Y-94774654D01*
X91072219Y-94761866D01*
X91090632Y-94750830D01*
X91110038Y-94741651D01*
X91130250Y-94734419D01*
X91151074Y-94729203D01*
X91172309Y-94726053D01*
X91193750Y-94725000D01*
X91631250Y-94725000D01*
X91652691Y-94726053D01*
X91652691Y-94726053D01*
G37*
D20*
G04 #@! TD*
G04 #@! TO.P,C12,2*
G04 #@! TO.N,GND*
X91412500Y-95200000D03*
D14*
G04 #@! TO.N,+1V8*
G04 #@! TO.C,C14*
G36*
X98477691Y-97776053D02*
X98498926Y-97779203D01*
X98519750Y-97784419D01*
X98539962Y-97791651D01*
X98559368Y-97800830D01*
X98577781Y-97811866D01*
X98595024Y-97824654D01*
X98610930Y-97839070D01*
X98625346Y-97854976D01*
X98638134Y-97872219D01*
X98649170Y-97890632D01*
X98658349Y-97910038D01*
X98665581Y-97930250D01*
X98670797Y-97951074D01*
X98673947Y-97972309D01*
X98675000Y-97993750D01*
X98675000Y-98431250D01*
X98673947Y-98452691D01*
X98670797Y-98473926D01*
X98665581Y-98494750D01*
X98658349Y-98514962D01*
X98649170Y-98534368D01*
X98638134Y-98552781D01*
X98625346Y-98570024D01*
X98610930Y-98585930D01*
X98595024Y-98600346D01*
X98577781Y-98613134D01*
X98559368Y-98624170D01*
X98539962Y-98633349D01*
X98519750Y-98640581D01*
X98498926Y-98645797D01*
X98477691Y-98648947D01*
X98456250Y-98650000D01*
X97943750Y-98650000D01*
X97922309Y-98648947D01*
X97901074Y-98645797D01*
X97880250Y-98640581D01*
X97860038Y-98633349D01*
X97840632Y-98624170D01*
X97822219Y-98613134D01*
X97804976Y-98600346D01*
X97789070Y-98585930D01*
X97774654Y-98570024D01*
X97761866Y-98552781D01*
X97750830Y-98534368D01*
X97741651Y-98514962D01*
X97734419Y-98494750D01*
X97729203Y-98473926D01*
X97726053Y-98452691D01*
X97725000Y-98431250D01*
X97725000Y-97993750D01*
X97726053Y-97972309D01*
X97729203Y-97951074D01*
X97734419Y-97930250D01*
X97741651Y-97910038D01*
X97750830Y-97890632D01*
X97761866Y-97872219D01*
X97774654Y-97854976D01*
X97789070Y-97839070D01*
X97804976Y-97824654D01*
X97822219Y-97811866D01*
X97840632Y-97800830D01*
X97860038Y-97791651D01*
X97880250Y-97784419D01*
X97901074Y-97779203D01*
X97922309Y-97776053D01*
X97943750Y-97775000D01*
X98456250Y-97775000D01*
X98477691Y-97776053D01*
X98477691Y-97776053D01*
G37*
D20*
G04 #@! TD*
G04 #@! TO.P,C14,1*
G04 #@! TO.N,+1V8*
X98200000Y-98212500D03*
D14*
G04 #@! TO.N,GND*
G04 #@! TO.C,C14*
G36*
X98477691Y-99351053D02*
X98498926Y-99354203D01*
X98519750Y-99359419D01*
X98539962Y-99366651D01*
X98559368Y-99375830D01*
X98577781Y-99386866D01*
X98595024Y-99399654D01*
X98610930Y-99414070D01*
X98625346Y-99429976D01*
X98638134Y-99447219D01*
X98649170Y-99465632D01*
X98658349Y-99485038D01*
X98665581Y-99505250D01*
X98670797Y-99526074D01*
X98673947Y-99547309D01*
X98675000Y-99568750D01*
X98675000Y-100006250D01*
X98673947Y-100027691D01*
X98670797Y-100048926D01*
X98665581Y-100069750D01*
X98658349Y-100089962D01*
X98649170Y-100109368D01*
X98638134Y-100127781D01*
X98625346Y-100145024D01*
X98610930Y-100160930D01*
X98595024Y-100175346D01*
X98577781Y-100188134D01*
X98559368Y-100199170D01*
X98539962Y-100208349D01*
X98519750Y-100215581D01*
X98498926Y-100220797D01*
X98477691Y-100223947D01*
X98456250Y-100225000D01*
X97943750Y-100225000D01*
X97922309Y-100223947D01*
X97901074Y-100220797D01*
X97880250Y-100215581D01*
X97860038Y-100208349D01*
X97840632Y-100199170D01*
X97822219Y-100188134D01*
X97804976Y-100175346D01*
X97789070Y-100160930D01*
X97774654Y-100145024D01*
X97761866Y-100127781D01*
X97750830Y-100109368D01*
X97741651Y-100089962D01*
X97734419Y-100069750D01*
X97729203Y-100048926D01*
X97726053Y-100027691D01*
X97725000Y-100006250D01*
X97725000Y-99568750D01*
X97726053Y-99547309D01*
X97729203Y-99526074D01*
X97734419Y-99505250D01*
X97741651Y-99485038D01*
X97750830Y-99465632D01*
X97761866Y-99447219D01*
X97774654Y-99429976D01*
X97789070Y-99414070D01*
X97804976Y-99399654D01*
X97822219Y-99386866D01*
X97840632Y-99375830D01*
X97860038Y-99366651D01*
X97880250Y-99359419D01*
X97901074Y-99354203D01*
X97922309Y-99351053D01*
X97943750Y-99350000D01*
X98456250Y-99350000D01*
X98477691Y-99351053D01*
X98477691Y-99351053D01*
G37*
D20*
G04 #@! TD*
G04 #@! TO.P,C14,2*
G04 #@! TO.N,GND*
X98200000Y-99787500D03*
D21*
G04 #@! TO.N,+1V8*
X97800000Y-90800000D03*
X93000000Y-90800000D03*
X93400000Y-94200000D03*
X96600000Y-93400000D03*
X98200000Y-98200000D03*
X95000005Y-98200948D03*
X94999058Y-96600011D03*
G04 #@! TO.N,GND*
X95000000Y-95000000D03*
X96600000Y-96600000D03*
X97400000Y-93400000D03*
X95000000Y-91800000D03*
X90600000Y-93000000D03*
X100700000Y-87600000D03*
X98200000Y-91800000D03*
X89800000Y-104400000D03*
X98100000Y-105600000D03*
D22*
X105000000Y-86600000D03*
D21*
X89200000Y-116300000D03*
X92600000Y-116300000D03*
X100600000Y-116300000D03*
X107800000Y-85300000D03*
X108100000Y-95450000D03*
X99100000Y-87600000D03*
X93600000Y-88600000D03*
X99700000Y-90700000D03*
X101800000Y-92600000D03*
X101500000Y-97800000D03*
X106600000Y-93200000D03*
X108100000Y-90100000D03*
X98995188Y-99795188D03*
X104300000Y-105500000D03*
X99700000Y-103600000D03*
G04 #@! TO.N,+3V3*
X88600000Y-92200000D03*
X95000000Y-92600000D03*
X98200000Y-92600000D03*
X95800000Y-95000000D03*
X94400000Y-114000000D03*
D22*
X105300000Y-88900000D03*
X106800000Y-88900000D03*
X106100006Y-88900000D03*
D21*
X99515000Y-97400000D03*
D23*
X100200000Y-100300000D03*
D21*
X103500000Y-109900000D03*
X95000000Y-94200000D03*
D22*
X100000000Y-92566629D03*
D21*
G04 #@! TO.N,/ERASE*
X95800004Y-95800948D03*
G04 #@! TO.N,/SWCLK*
X101900000Y-101550000D03*
X102950000Y-106350000D03*
G04 #@! TO.N,/SWDIO*
X101250000Y-101550000D03*
X102200000Y-106200000D03*
G04 #@! TO.N,/PA28*
X95800000Y-92600000D03*
G04 #@! TO.N,/PB0*
X94200000Y-92600000D03*
G04 #@! TO.N,/PB14*
X97400000Y-94200000D03*
G04 #@! TO.N,/PB9*
X95800000Y-94200000D03*
G04 #@! TO.N,/PA31*
X94200000Y-94200000D03*
G04 #@! TO.N,/PB13*
X93400000Y-93400000D03*
G04 #@! TO.N,/PA22*
X92600000Y-93400000D03*
G04 #@! TO.N,/PB20*
X96600957Y-94999996D03*
G04 #@! TO.N,/PB22*
X97400000Y-95800000D03*
G04 #@! TO.N,/PB16*
X94204931Y-95805949D03*
G04 #@! TO.N,/PB15*
X93400000Y-96600000D03*
G04 #@! TO.N,/PA18*
X92600000Y-96600000D03*
G04 #@! TO.N,/PA10*
X95000000Y-97400000D03*
G04 #@! TO.N,/PA24*
X92600000Y-97400000D03*
G04 #@! TO.N,/~RSTB~*
X96600000Y-97400000D03*
X103400000Y-100600000D03*
G04 #@! TO.N,/DFSDM*
X97100000Y-90000000D03*
X96200000Y-90741640D03*
G04 #@! TO.N,/MCDA1*
X94200000Y-97400000D03*
X90500000Y-113900000D03*
X94200000Y-100700000D03*
X94200000Y-110200000D03*
X95000000Y-109200000D03*
G04 #@! TO.N,/MCDA0*
X91505000Y-109850000D03*
G04 #@! TO.N,/MCCK*
X93400000Y-97400000D03*
X93400000Y-100700000D03*
X92900000Y-112900000D03*
G04 #@! TO.N,/MCCDA*
X93800000Y-106350000D03*
G04 #@! TO.N,/MCDA3*
X99000000Y-105350000D03*
G04 #@! TO.N,/MCDA2*
X98105000Y-110350000D03*
G04 #@! TD*
D24*
G04 #@! TO.N,GND*
X93000000Y-89630000D02*
X93000000Y-89200000D01*
X93000000Y-89200000D02*
X93600000Y-88600000D01*
X98785000Y-90700000D02*
X99700000Y-90700000D01*
X100985000Y-92600000D02*
X101800000Y-92600000D01*
X100887500Y-97800000D02*
X101500000Y-97800000D01*
X98200000Y-99787500D02*
X98987500Y-99787500D01*
X98987500Y-99787500D02*
X98995188Y-99795188D01*
D25*
G04 #@! TO.N,+3V3*
X105300000Y-88900000D02*
X106100006Y-88900000D01*
D24*
X95785000Y-94985000D02*
X95785000Y-95000000D01*
X95000000Y-94200000D02*
X95785000Y-94985000D01*
X99515000Y-97700000D02*
X99515000Y-97400000D01*
X99966629Y-92600000D02*
X100000000Y-92566629D01*
X98200000Y-92600000D02*
X99966629Y-92600000D01*
X95450832Y-95334168D02*
X95785000Y-95000000D01*
X94131315Y-95200000D02*
X94384675Y-95453360D01*
X95331640Y-95453360D02*
X95450832Y-95334168D01*
X92987500Y-95200000D02*
X94131315Y-95200000D01*
X94384675Y-95453360D02*
X95331640Y-95453360D01*
G04 #@! TO.N,/ERASE*
X96931313Y-95200000D02*
X96330365Y-95800948D01*
X96330365Y-95800948D02*
X96118202Y-95800948D01*
X102500000Y-95200000D02*
X96931313Y-95200000D01*
X96118202Y-95800948D02*
X95800004Y-95800948D01*
G04 #@! TO.N,/SWCLK*
X101900000Y-101550000D02*
X101900000Y-105300000D01*
X101900000Y-105300000D02*
X102950000Y-106350000D01*
G04 #@! TO.N,/SWDIO*
X101250000Y-101550000D02*
X101250000Y-105250000D01*
X101250000Y-105250000D02*
X102200000Y-106200000D01*
G04 #@! TO.N,/PA28*
X112500000Y-88400000D02*
X112690001Y-88209999D01*
X99233351Y-92166649D02*
X103000000Y-88400000D01*
X112690001Y-88209999D02*
X113540000Y-87360000D01*
X103000000Y-88400000D02*
X112500000Y-88400000D01*
X95800000Y-92600000D02*
X96233351Y-92166649D01*
X96233351Y-92166649D02*
X99233351Y-92166649D01*
G04 #@! TO.N,/PB0*
X94200000Y-89000000D02*
X101600000Y-89000000D01*
X94200000Y-92600000D02*
X94200000Y-89000000D01*
X103240000Y-87360000D02*
X111000000Y-87360000D01*
X101600000Y-89000000D02*
X103240000Y-87360000D01*
G04 #@! TO.N,/PB14*
X97400000Y-94200000D02*
X101151349Y-94200000D01*
X108740000Y-92440000D02*
X108750000Y-92450000D01*
X102911349Y-92440000D02*
X108740000Y-92440000D01*
X101151349Y-94200000D02*
X102911349Y-92440000D01*
X112690001Y-90749999D02*
X113540000Y-89900000D01*
X112190000Y-91250000D02*
X112690001Y-90749999D01*
X108740000Y-92440000D02*
X109930000Y-91250000D01*
X109930000Y-91250000D02*
X112190000Y-91250000D01*
G04 #@! TO.N,/PB9*
X96602809Y-94602809D02*
X96200000Y-94200000D01*
X101000000Y-94602809D02*
X96602809Y-94602809D01*
X96200000Y-94200000D02*
X95800000Y-94200000D01*
X111000000Y-92440000D02*
X109840000Y-93600000D01*
X102002809Y-93600000D02*
X101000000Y-94602809D01*
X109840000Y-93600000D02*
X102002809Y-93600000D01*
G04 #@! TO.N,/PA31*
X110150001Y-90749999D02*
X111000000Y-89900000D01*
X104250001Y-90749999D02*
X110150001Y-90749999D01*
X101241649Y-93758351D02*
X104250001Y-90749999D01*
X94200000Y-94200000D02*
X94641649Y-93758351D01*
X94641649Y-93758351D02*
X101241649Y-93758351D01*
G04 #@! TO.N,/PB13*
X112556649Y-85803351D02*
X112690001Y-85669999D01*
X93800000Y-93000000D02*
X93800000Y-89148539D01*
X93400000Y-93400000D02*
X93800000Y-93000000D01*
X112690001Y-85669999D02*
X113540000Y-84820000D01*
X93800000Y-89148539D02*
X95915188Y-87033351D01*
X95915188Y-87033351D02*
X109871289Y-87033351D01*
X109871289Y-87033351D02*
X111101289Y-85803351D01*
X111101289Y-85803351D02*
X112556649Y-85803351D01*
G04 #@! TO.N,/PA22*
X109653351Y-86166649D02*
X110150001Y-85669999D01*
X92100000Y-89300000D02*
X95233351Y-86166649D01*
X110150001Y-85669999D02*
X111000000Y-84820000D01*
X92600000Y-93400000D02*
X92100000Y-92900000D01*
X95233351Y-86166649D02*
X109653351Y-86166649D01*
X92100000Y-92900000D02*
X92100000Y-89300000D01*
G04 #@! TO.N,/PB20*
X101400004Y-94999996D02*
X96919155Y-94999996D01*
X96919155Y-94999996D02*
X96600957Y-94999996D01*
X102600000Y-93800000D02*
X101400004Y-94999996D01*
X112180000Y-93800000D02*
X102600000Y-93800000D01*
X113540000Y-92440000D02*
X112180000Y-93800000D01*
G04 #@! TO.N,/PB22*
X97400000Y-95800000D02*
X100900000Y-95800000D01*
X110150001Y-95829999D02*
X111000000Y-94980000D01*
X110030000Y-95950000D02*
X110150001Y-95829999D01*
X101050000Y-95950000D02*
X110030000Y-95950000D01*
X100900000Y-95800000D02*
X101050000Y-95950000D01*
G04 #@! TO.N,/PB16*
X113717809Y-94906349D02*
X113717809Y-95053651D01*
X94598982Y-96200000D02*
X94429930Y-96030948D01*
X94429930Y-96030948D02*
X94204931Y-95805949D01*
X112571460Y-96200000D02*
X94598982Y-96200000D01*
X113717809Y-95053651D02*
X112571460Y-96200000D01*
X113665730Y-94854270D02*
X113717809Y-94906349D01*
G04 #@! TO.N,/PB15*
X93800000Y-97000000D02*
X108000000Y-97000000D01*
X113717809Y-97446349D02*
X113665730Y-97394270D01*
X109800000Y-98800000D02*
X112511460Y-98800000D01*
X112511460Y-98800000D02*
X113717809Y-97593651D01*
X93400000Y-96600000D02*
X93800000Y-97000000D01*
X108000000Y-97000000D02*
X109800000Y-98800000D01*
X113717809Y-97593651D02*
X113717809Y-97446349D01*
G04 #@! TO.N,/PA18*
X112690001Y-111910001D02*
X113540000Y-112760000D01*
X112280000Y-111500000D02*
X112690001Y-111910001D01*
X93000000Y-97000000D02*
X93000000Y-100830360D01*
X93000000Y-100830360D02*
X96969640Y-104800000D01*
X92600000Y-96600000D02*
X93000000Y-97000000D01*
X96969640Y-104800000D02*
X100200000Y-104800000D01*
X100200000Y-104800000D02*
X106900000Y-111500000D01*
X106900000Y-111500000D02*
X112280000Y-111500000D01*
G04 #@! TO.N,/PA10*
X112690001Y-109370001D02*
X113540000Y-110220000D01*
X112556649Y-109236649D02*
X112690001Y-109370001D01*
X95400000Y-97800000D02*
X95400000Y-100200000D01*
X96250000Y-101050000D02*
X102950000Y-101050000D01*
X95000000Y-97400000D02*
X95400000Y-97800000D01*
X95400000Y-100200000D02*
X96250000Y-101050000D01*
X102950000Y-101050000D02*
X111136649Y-109236649D01*
X111136649Y-109236649D02*
X112556649Y-109236649D01*
G04 #@! TO.N,/PA24*
X103960000Y-112760000D02*
X111000000Y-112760000D01*
X92600000Y-97400000D02*
X92600000Y-101400000D01*
X92600000Y-101400000D02*
X103960000Y-112760000D01*
G04 #@! TO.N,/~RSTB~*
X103150000Y-100850000D02*
X103400000Y-100600000D01*
X96750000Y-100850000D02*
X103150000Y-100850000D01*
X96600000Y-97400000D02*
X96600000Y-100700000D01*
X96600000Y-100700000D02*
X96750000Y-100850000D01*
G04 #@! TO.N,/DFSDM*
X97100000Y-90000000D02*
X96358360Y-90741640D01*
X96358360Y-90741640D02*
X96200000Y-90741640D01*
G04 #@! TO.N,/MCDA1*
X94200000Y-97400000D02*
X94200000Y-100700000D01*
X94200000Y-110200000D02*
X93150000Y-110200000D01*
X90500000Y-112850000D02*
X90500000Y-113900000D01*
X93150000Y-110200000D02*
X90500000Y-112850000D01*
X95000000Y-107900000D02*
X95000000Y-109200000D01*
G04 #@! TO.N,/MCDA0*
X92300000Y-109000000D02*
X91505000Y-109795000D01*
X91505000Y-109795000D02*
X91505000Y-109850000D01*
G04 #@! TO.N,/MCCK*
X93400000Y-97400000D02*
X93400000Y-97718198D01*
X93400000Y-100700000D02*
X93400000Y-97400000D01*
X92900000Y-112100000D02*
X92900000Y-112900000D01*
G04 #@! TO.N,/MCCDA*
X93800000Y-105100000D02*
X93800000Y-106350000D01*
G04 #@! TO.N,/MCDA3*
X99000000Y-106500000D02*
X99000000Y-105350000D01*
G04 #@! TO.N,/MCDA2*
X98100000Y-110345000D02*
X98105000Y-110350000D01*
X98100000Y-109200000D02*
X98100000Y-110345000D01*
G04 #@! TD*
D26*
G04 #@! TO.N,GND*
G36*
X91274512Y-80408828D02*
X91058951Y-80712475D01*
X90976000Y-81075500D01*
X90976000Y-81425500D01*
X91903000Y-81425500D01*
X91903000Y-81405500D01*
X91957000Y-81405500D01*
X91957000Y-81425500D01*
X92884000Y-81425500D01*
X92884000Y-81075500D01*
X92801049Y-80712475D01*
X92585488Y-80408828D01*
X92531622Y-80375000D01*
X98328378Y-80375000D01*
X98274512Y-80408828D01*
X98058951Y-80712475D01*
X97976000Y-81075500D01*
X97976000Y-81425500D01*
X98903000Y-81425500D01*
X98903000Y-81405500D01*
X98957000Y-81405500D01*
X98957000Y-81425500D01*
X99884000Y-81425500D01*
X99884000Y-81075500D01*
X99801049Y-80712475D01*
X99585488Y-80408828D01*
X99531622Y-80375000D01*
X114463063Y-80375000D01*
X114736367Y-80429363D01*
X114936747Y-80563253D01*
X115070637Y-80763632D01*
X115125001Y-81036941D01*
X115125000Y-116463064D01*
X115070637Y-116736368D01*
X114936747Y-116936747D01*
X114736367Y-117070637D01*
X114463063Y-117125000D01*
X77036936Y-117125000D01*
X76763632Y-117070637D01*
X76563253Y-116936747D01*
X76429363Y-116736367D01*
X76375000Y-116463063D01*
X76375000Y-115300000D01*
X76827471Y-115300000D01*
X76916724Y-115748707D01*
X77170897Y-116129103D01*
X77551293Y-116383276D01*
X77886739Y-116450000D01*
X78113261Y-116450000D01*
X78448707Y-116383276D01*
X78829103Y-116129103D01*
X79083276Y-115748707D01*
X79129769Y-115514967D01*
X79355346Y-115514967D01*
X79363255Y-115554745D01*
X79550316Y-115985674D01*
X79888047Y-116312216D01*
X80325032Y-116484657D01*
X80513000Y-116415200D01*
X80513000Y-115327000D01*
X80567000Y-115327000D01*
X80567000Y-116415200D01*
X80754968Y-116484657D01*
X81191953Y-116312216D01*
X81529684Y-115985674D01*
X81716745Y-115554745D01*
X81724654Y-115514967D01*
X81655173Y-115327000D01*
X80567000Y-115327000D01*
X80513000Y-115327000D01*
X79424827Y-115327000D01*
X79355346Y-115514967D01*
X79129769Y-115514967D01*
X79172529Y-115300000D01*
X79129770Y-115085033D01*
X79355346Y-115085033D01*
X79424827Y-115273000D01*
X80513000Y-115273000D01*
X80513000Y-114184800D01*
X80567000Y-114184800D01*
X80567000Y-115273000D01*
X81655173Y-115273000D01*
X81724654Y-115085033D01*
X81716745Y-115045255D01*
X81529684Y-114614326D01*
X81191953Y-114287784D01*
X80754968Y-114115343D01*
X80567000Y-114184800D01*
X80513000Y-114184800D01*
X80325032Y-114115343D01*
X79888047Y-114287784D01*
X79550316Y-114614326D01*
X79363255Y-115045255D01*
X79355346Y-115085033D01*
X79129770Y-115085033D01*
X79083276Y-114851293D01*
X78829103Y-114470897D01*
X78448707Y-114216724D01*
X78113261Y-114150000D01*
X77886739Y-114150000D01*
X77551293Y-114216724D01*
X77170897Y-114470897D01*
X76916724Y-114851293D01*
X76827471Y-115300000D01*
X76375000Y-115300000D01*
X76375000Y-112760000D01*
X76827471Y-112760000D01*
X76916724Y-113208707D01*
X77170897Y-113589103D01*
X77551293Y-113843276D01*
X77886739Y-113910000D01*
X78113261Y-113910000D01*
X78448707Y-113843276D01*
X78829103Y-113589103D01*
X79083276Y-113208707D01*
X79172529Y-112760000D01*
X79367471Y-112760000D01*
X79456724Y-113208707D01*
X79710897Y-113589103D01*
X80091293Y-113843276D01*
X80426739Y-113910000D01*
X80653261Y-113910000D01*
X80988707Y-113843276D01*
X81060102Y-113795571D01*
X89975000Y-113795571D01*
X89975000Y-114004429D01*
X90054927Y-114197388D01*
X90202612Y-114345073D01*
X90395571Y-114425000D01*
X90604429Y-114425000D01*
X90797388Y-114345073D01*
X90945073Y-114197388D01*
X91025000Y-114004429D01*
X91025000Y-113895571D01*
X93875000Y-113895571D01*
X93875000Y-114104429D01*
X93954927Y-114297388D01*
X94102612Y-114445073D01*
X94295571Y-114525000D01*
X94504429Y-114525000D01*
X94697388Y-114445073D01*
X94845073Y-114297388D01*
X94925000Y-114104429D01*
X94925000Y-114100000D01*
X102744123Y-114100000D01*
X102744123Y-115100000D01*
X102767407Y-115217054D01*
X102833712Y-115316288D01*
X102932946Y-115382593D01*
X103050000Y-115405877D01*
X104050000Y-115405877D01*
X104167054Y-115382593D01*
X104266288Y-115316288D01*
X104323621Y-115230481D01*
X104507856Y-115353583D01*
X104741211Y-115400000D01*
X104898789Y-115400000D01*
X105132144Y-115353583D01*
X105396767Y-115176767D01*
X105455000Y-115089615D01*
X105513233Y-115176767D01*
X105777856Y-115353583D01*
X106011211Y-115400000D01*
X106168789Y-115400000D01*
X106402144Y-115353583D01*
X106666767Y-115176767D01*
X106701394Y-115124943D01*
X106880124Y-115306428D01*
X107186991Y-115436295D01*
X107199804Y-115438840D01*
X107333000Y-115365024D01*
X107333000Y-114627000D01*
X107387000Y-114627000D01*
X107387000Y-115365024D01*
X107520196Y-115438840D01*
X107533009Y-115436295D01*
X107839876Y-115306428D01*
X107846206Y-115300000D01*
X109827471Y-115300000D01*
X109916724Y-115748707D01*
X110170897Y-116129103D01*
X110551293Y-116383276D01*
X110886739Y-116450000D01*
X111113261Y-116450000D01*
X111448707Y-116383276D01*
X111829103Y-116129103D01*
X112083276Y-115748707D01*
X112129769Y-115514967D01*
X112355346Y-115514967D01*
X112363255Y-115554745D01*
X112550316Y-115985674D01*
X112888047Y-116312216D01*
X113325032Y-116484657D01*
X113513000Y-116415200D01*
X113513000Y-115327000D01*
X113567000Y-115327000D01*
X113567000Y-116415200D01*
X113754968Y-116484657D01*
X114191953Y-116312216D01*
X114529684Y-115985674D01*
X114716745Y-115554745D01*
X114724654Y-115514967D01*
X114655173Y-115327000D01*
X113567000Y-115327000D01*
X113513000Y-115327000D01*
X112424827Y-115327000D01*
X112355346Y-115514967D01*
X112129769Y-115514967D01*
X112172529Y-115300000D01*
X112129770Y-115085033D01*
X112355346Y-115085033D01*
X112424827Y-115273000D01*
X113513000Y-115273000D01*
X113513000Y-114184800D01*
X113567000Y-114184800D01*
X113567000Y-115273000D01*
X114655173Y-115273000D01*
X114724654Y-115085033D01*
X114716745Y-115045255D01*
X114529684Y-114614326D01*
X114191953Y-114287784D01*
X113754968Y-114115343D01*
X113567000Y-114184800D01*
X113513000Y-114184800D01*
X113325032Y-114115343D01*
X112888047Y-114287784D01*
X112550316Y-114614326D01*
X112363255Y-115045255D01*
X112355346Y-115085033D01*
X112129770Y-115085033D01*
X112083276Y-114851293D01*
X111829103Y-114470897D01*
X111448707Y-114216724D01*
X111113261Y-114150000D01*
X110886739Y-114150000D01*
X110551293Y-114216724D01*
X110170897Y-114470897D01*
X109916724Y-114851293D01*
X109827471Y-115300000D01*
X107846206Y-115300000D01*
X108073686Y-115069014D01*
X108198844Y-114760196D01*
X108125077Y-114627000D01*
X107387000Y-114627000D01*
X107333000Y-114627000D01*
X107313000Y-114627000D01*
X107313000Y-114573000D01*
X107333000Y-114573000D01*
X107333000Y-113834976D01*
X107387000Y-113834976D01*
X107387000Y-114573000D01*
X108125077Y-114573000D01*
X108198844Y-114439804D01*
X108073686Y-114130986D01*
X107839876Y-113893572D01*
X107533009Y-113763705D01*
X107520196Y-113761160D01*
X107387000Y-113834976D01*
X107333000Y-113834976D01*
X107199804Y-113761160D01*
X107186991Y-113763705D01*
X106880124Y-113893572D01*
X106701394Y-114075057D01*
X106666767Y-114023233D01*
X106402144Y-113846417D01*
X106168789Y-113800000D01*
X106011211Y-113800000D01*
X105777856Y-113846417D01*
X105513233Y-114023233D01*
X105455000Y-114110385D01*
X105396767Y-114023233D01*
X105132144Y-113846417D01*
X104898789Y-113800000D01*
X104741211Y-113800000D01*
X104507856Y-113846417D01*
X104323621Y-113969519D01*
X104266288Y-113883712D01*
X104167054Y-113817407D01*
X104050000Y-113794123D01*
X103050000Y-113794123D01*
X102932946Y-113817407D01*
X102833712Y-113883712D01*
X102767407Y-113982946D01*
X102744123Y-114100000D01*
X94925000Y-114100000D01*
X94925000Y-113895571D01*
X94845073Y-113702612D01*
X94697388Y-113554927D01*
X94504429Y-113475000D01*
X94295571Y-113475000D01*
X94102612Y-113554927D01*
X93954927Y-113702612D01*
X93875000Y-113895571D01*
X91025000Y-113895571D01*
X91025000Y-113795571D01*
X90945073Y-113602612D01*
X90844450Y-113501989D01*
X90844450Y-112992675D01*
X91896255Y-111940870D01*
X92100000Y-111940870D01*
X92100000Y-112259130D01*
X92221793Y-112553164D01*
X92401126Y-112732497D01*
X92375000Y-112795571D01*
X92375000Y-113004429D01*
X92454927Y-113197388D01*
X92602612Y-113345073D01*
X92795571Y-113425000D01*
X93004429Y-113425000D01*
X93197388Y-113345073D01*
X93345073Y-113197388D01*
X93425000Y-113004429D01*
X93425000Y-112795571D01*
X93398874Y-112732497D01*
X93578207Y-112553164D01*
X93700000Y-112259130D01*
X93700000Y-111940870D01*
X93578207Y-111646836D01*
X93353164Y-111421793D01*
X93059130Y-111300000D01*
X92740870Y-111300000D01*
X92446836Y-111421793D01*
X92221793Y-111646836D01*
X92100000Y-111940870D01*
X91896255Y-111940870D01*
X93292676Y-110544450D01*
X93801989Y-110544450D01*
X93902612Y-110645073D01*
X94095571Y-110725000D01*
X94304429Y-110725000D01*
X94497388Y-110645073D01*
X94645073Y-110497388D01*
X94725000Y-110304429D01*
X94725000Y-110095571D01*
X94645073Y-109902612D01*
X94497388Y-109754927D01*
X94304429Y-109675000D01*
X94095571Y-109675000D01*
X93902612Y-109754927D01*
X93801989Y-109855550D01*
X93183921Y-109855550D01*
X93150000Y-109848803D01*
X93116079Y-109855550D01*
X93116075Y-109855550D01*
X93015602Y-109875535D01*
X92930425Y-109932449D01*
X92930424Y-109932450D01*
X92901666Y-109951666D01*
X92882450Y-109980424D01*
X90280424Y-112582451D01*
X90251666Y-112601667D01*
X90175535Y-112715603D01*
X90155550Y-112816076D01*
X90155550Y-112816079D01*
X90148803Y-112850000D01*
X90155550Y-112883921D01*
X90155551Y-113501988D01*
X90054927Y-113602612D01*
X89975000Y-113795571D01*
X81060102Y-113795571D01*
X81369103Y-113589103D01*
X81623276Y-113208707D01*
X81712529Y-112760000D01*
X81623276Y-112311293D01*
X81369103Y-111930897D01*
X80988707Y-111676724D01*
X80653261Y-111610000D01*
X80426739Y-111610000D01*
X80091293Y-111676724D01*
X79710897Y-111930897D01*
X79456724Y-112311293D01*
X79367471Y-112760000D01*
X79172529Y-112760000D01*
X79083276Y-112311293D01*
X78829103Y-111930897D01*
X78448707Y-111676724D01*
X78113261Y-111610000D01*
X77886739Y-111610000D01*
X77551293Y-111676724D01*
X77170897Y-111930897D01*
X76916724Y-112311293D01*
X76827471Y-112760000D01*
X76375000Y-112760000D01*
X76375000Y-110220000D01*
X76827471Y-110220000D01*
X76916724Y-110668707D01*
X77170897Y-111049103D01*
X77551293Y-111303276D01*
X77886739Y-111370000D01*
X78113261Y-111370000D01*
X78448707Y-111303276D01*
X78829103Y-111049103D01*
X79083276Y-110668707D01*
X79172529Y-110220000D01*
X79367471Y-110220000D01*
X79456724Y-110668707D01*
X79710897Y-111049103D01*
X80091293Y-111303276D01*
X80426739Y-111370000D01*
X80653261Y-111370000D01*
X80988707Y-111303276D01*
X81369103Y-111049103D01*
X81623276Y-110668707D01*
X81712529Y-110220000D01*
X81623276Y-109771293D01*
X81606090Y-109745571D01*
X90980000Y-109745571D01*
X90980000Y-109954429D01*
X91059927Y-110147388D01*
X91207612Y-110295073D01*
X91400571Y-110375000D01*
X91609429Y-110375000D01*
X91802388Y-110295073D01*
X91950073Y-110147388D01*
X92030000Y-109954429D01*
X92030000Y-109757125D01*
X92032156Y-109754969D01*
X92140870Y-109800000D01*
X92459130Y-109800000D01*
X92753164Y-109678207D01*
X92978207Y-109453164D01*
X93100000Y-109159130D01*
X93100000Y-108840870D01*
X92978207Y-108546836D01*
X92753164Y-108321793D01*
X92459130Y-108200000D01*
X92140870Y-108200000D01*
X91846836Y-108321793D01*
X91621793Y-108546836D01*
X91500000Y-108840870D01*
X91500000Y-109159130D01*
X91545031Y-109267844D01*
X91487875Y-109325000D01*
X91400571Y-109325000D01*
X91207612Y-109404927D01*
X91059927Y-109552612D01*
X90980000Y-109745571D01*
X81606090Y-109745571D01*
X81369103Y-109390897D01*
X80988707Y-109136724D01*
X80653261Y-109070000D01*
X80426739Y-109070000D01*
X80091293Y-109136724D01*
X79710897Y-109390897D01*
X79456724Y-109771293D01*
X79367471Y-110220000D01*
X79172529Y-110220000D01*
X79083276Y-109771293D01*
X78829103Y-109390897D01*
X78448707Y-109136724D01*
X78113261Y-109070000D01*
X77886739Y-109070000D01*
X77551293Y-109136724D01*
X77170897Y-109390897D01*
X76916724Y-109771293D01*
X76827471Y-110220000D01*
X76375000Y-110220000D01*
X76375000Y-107680000D01*
X76827471Y-107680000D01*
X76916724Y-108128707D01*
X77170897Y-108509103D01*
X77551293Y-108763276D01*
X77886739Y-108830000D01*
X78113261Y-108830000D01*
X78448707Y-108763276D01*
X78829103Y-108509103D01*
X79083276Y-108128707D01*
X79172529Y-107680000D01*
X79367471Y-107680000D01*
X79456724Y-108128707D01*
X79710897Y-108509103D01*
X80091293Y-108763276D01*
X80426739Y-108830000D01*
X80653261Y-108830000D01*
X80988707Y-108763276D01*
X81369103Y-108509103D01*
X81623276Y-108128707D01*
X81700421Y-107740870D01*
X94200000Y-107740870D01*
X94200000Y-108059130D01*
X94321793Y-108353164D01*
X94546836Y-108578207D01*
X94655551Y-108623238D01*
X94655551Y-108801988D01*
X94554927Y-108902612D01*
X94475000Y-109095571D01*
X94475000Y-109304429D01*
X94554927Y-109497388D01*
X94702612Y-109645073D01*
X94895571Y-109725000D01*
X95104429Y-109725000D01*
X95297388Y-109645073D01*
X95445073Y-109497388D01*
X95525000Y-109304429D01*
X95525000Y-109095571D01*
X95502342Y-109040870D01*
X97300000Y-109040870D01*
X97300000Y-109359130D01*
X97421793Y-109653164D01*
X97646836Y-109878207D01*
X97755551Y-109923238D01*
X97755551Y-109956988D01*
X97659927Y-110052612D01*
X97580000Y-110245571D01*
X97580000Y-110454429D01*
X97659927Y-110647388D01*
X97807612Y-110795073D01*
X98000571Y-110875000D01*
X98209429Y-110875000D01*
X98402388Y-110795073D01*
X98550073Y-110647388D01*
X98630000Y-110454429D01*
X98630000Y-110245571D01*
X98550073Y-110052612D01*
X98444450Y-109946989D01*
X98444450Y-109923238D01*
X98553164Y-109878207D01*
X98778207Y-109653164D01*
X98900000Y-109359130D01*
X98900000Y-109040870D01*
X98778207Y-108746836D01*
X98553164Y-108521793D01*
X98259130Y-108400000D01*
X97940870Y-108400000D01*
X97646836Y-108521793D01*
X97421793Y-108746836D01*
X97300000Y-109040870D01*
X95502342Y-109040870D01*
X95445073Y-108902612D01*
X95344450Y-108801989D01*
X95344450Y-108623238D01*
X95453164Y-108578207D01*
X95678207Y-108353164D01*
X95800000Y-108059130D01*
X95800000Y-107740870D01*
X95678207Y-107446836D01*
X95453164Y-107221793D01*
X95159130Y-107100000D01*
X94840870Y-107100000D01*
X94546836Y-107221793D01*
X94321793Y-107446836D01*
X94200000Y-107740870D01*
X81700421Y-107740870D01*
X81712529Y-107680000D01*
X81623276Y-107231293D01*
X81369103Y-106850897D01*
X80988707Y-106596724D01*
X80653261Y-106530000D01*
X80426739Y-106530000D01*
X80091293Y-106596724D01*
X79710897Y-106850897D01*
X79456724Y-107231293D01*
X79367471Y-107680000D01*
X79172529Y-107680000D01*
X79083276Y-107231293D01*
X78829103Y-106850897D01*
X78448707Y-106596724D01*
X78113261Y-106530000D01*
X77886739Y-106530000D01*
X77551293Y-106596724D01*
X77170897Y-106850897D01*
X76916724Y-107231293D01*
X76827471Y-107680000D01*
X76375000Y-107680000D01*
X76375000Y-105140000D01*
X76827471Y-105140000D01*
X76916724Y-105588707D01*
X77170897Y-105969103D01*
X77551293Y-106223276D01*
X77886739Y-106290000D01*
X78113261Y-106290000D01*
X78448707Y-106223276D01*
X78829103Y-105969103D01*
X79083276Y-105588707D01*
X79172529Y-105140000D01*
X79367471Y-105140000D01*
X79456724Y-105588707D01*
X79710897Y-105969103D01*
X80091293Y-106223276D01*
X80426739Y-106290000D01*
X80653261Y-106290000D01*
X80988707Y-106223276D01*
X81369103Y-105969103D01*
X81623276Y-105588707D01*
X81712529Y-105140000D01*
X81672920Y-104940870D01*
X93000000Y-104940870D01*
X93000000Y-105259130D01*
X93121793Y-105553164D01*
X93346836Y-105778207D01*
X93455551Y-105823238D01*
X93455551Y-105951988D01*
X93354927Y-106052612D01*
X93275000Y-106245571D01*
X93275000Y-106454429D01*
X93354927Y-106647388D01*
X93502612Y-106795073D01*
X93695571Y-106875000D01*
X93904429Y-106875000D01*
X94097388Y-106795073D01*
X94245073Y-106647388D01*
X94325000Y-106454429D01*
X94325000Y-106245571D01*
X94245073Y-106052612D01*
X94144450Y-105951989D01*
X94144450Y-105823238D01*
X94253164Y-105778207D01*
X94478207Y-105553164D01*
X94600000Y-105259130D01*
X94600000Y-104940870D01*
X94478207Y-104646836D01*
X94253164Y-104421793D01*
X93959130Y-104300000D01*
X93640870Y-104300000D01*
X93346836Y-104421793D01*
X93121793Y-104646836D01*
X93000000Y-104940870D01*
X81672920Y-104940870D01*
X81623276Y-104691293D01*
X81369103Y-104310897D01*
X80988707Y-104056724D01*
X80653261Y-103990000D01*
X80426739Y-103990000D01*
X80091293Y-104056724D01*
X79710897Y-104310897D01*
X79456724Y-104691293D01*
X79367471Y-105140000D01*
X79172529Y-105140000D01*
X79083276Y-104691293D01*
X78829103Y-104310897D01*
X78448707Y-104056724D01*
X78113261Y-103990000D01*
X77886739Y-103990000D01*
X77551293Y-104056724D01*
X77170897Y-104310897D01*
X76916724Y-104691293D01*
X76827471Y-105140000D01*
X76375000Y-105140000D01*
X76375000Y-102600000D01*
X76827471Y-102600000D01*
X76916724Y-103048707D01*
X77170897Y-103429103D01*
X77551293Y-103683276D01*
X77886739Y-103750000D01*
X78113261Y-103750000D01*
X78448707Y-103683276D01*
X78829103Y-103429103D01*
X79083276Y-103048707D01*
X79172529Y-102600000D01*
X79367471Y-102600000D01*
X79456724Y-103048707D01*
X79710897Y-103429103D01*
X80091293Y-103683276D01*
X80426739Y-103750000D01*
X80653261Y-103750000D01*
X80988707Y-103683276D01*
X81369103Y-103429103D01*
X81623276Y-103048707D01*
X81712529Y-102600000D01*
X81623276Y-102151293D01*
X81369103Y-101770897D01*
X80988707Y-101516724D01*
X80653261Y-101450000D01*
X80426739Y-101450000D01*
X80091293Y-101516724D01*
X79710897Y-101770897D01*
X79456724Y-102151293D01*
X79367471Y-102600000D01*
X79172529Y-102600000D01*
X79083276Y-102151293D01*
X78829103Y-101770897D01*
X78448707Y-101516724D01*
X78113261Y-101450000D01*
X77886739Y-101450000D01*
X77551293Y-101516724D01*
X77170897Y-101770897D01*
X76916724Y-102151293D01*
X76827471Y-102600000D01*
X76375000Y-102600000D01*
X76375000Y-100060000D01*
X76827471Y-100060000D01*
X76916724Y-100508707D01*
X77170897Y-100889103D01*
X77551293Y-101143276D01*
X77886739Y-101210000D01*
X78113261Y-101210000D01*
X78448707Y-101143276D01*
X78829103Y-100889103D01*
X79083276Y-100508707D01*
X79172529Y-100060000D01*
X79367471Y-100060000D01*
X79456724Y-100508707D01*
X79710897Y-100889103D01*
X80091293Y-101143276D01*
X80426739Y-101210000D01*
X80653261Y-101210000D01*
X80988707Y-101143276D01*
X81369103Y-100889103D01*
X81623276Y-100508707D01*
X81712529Y-100060000D01*
X81623276Y-99611293D01*
X81369103Y-99230897D01*
X80988707Y-98976724D01*
X80653261Y-98910000D01*
X80426739Y-98910000D01*
X80091293Y-98976724D01*
X79710897Y-99230897D01*
X79456724Y-99611293D01*
X79367471Y-100060000D01*
X79172529Y-100060000D01*
X79083276Y-99611293D01*
X78829103Y-99230897D01*
X78448707Y-98976724D01*
X78113261Y-98910000D01*
X77886739Y-98910000D01*
X77551293Y-98976724D01*
X77170897Y-99230897D01*
X76916724Y-99611293D01*
X76827471Y-100060000D01*
X76375000Y-100060000D01*
X76375000Y-97520000D01*
X76827471Y-97520000D01*
X76916724Y-97968707D01*
X77170897Y-98349103D01*
X77551293Y-98603276D01*
X77886739Y-98670000D01*
X78113261Y-98670000D01*
X78448707Y-98603276D01*
X78829103Y-98349103D01*
X79083276Y-97968707D01*
X79172529Y-97520000D01*
X79367471Y-97520000D01*
X79456724Y-97968707D01*
X79710897Y-98349103D01*
X80091293Y-98603276D01*
X80426739Y-98670000D01*
X80653261Y-98670000D01*
X80988707Y-98603276D01*
X81369103Y-98349103D01*
X81623276Y-97968707D01*
X81712529Y-97520000D01*
X81623276Y-97071293D01*
X81369103Y-96690897D01*
X80988707Y-96436724D01*
X80653261Y-96370000D01*
X80426739Y-96370000D01*
X80091293Y-96436724D01*
X79710897Y-96690897D01*
X79456724Y-97071293D01*
X79367471Y-97520000D01*
X79172529Y-97520000D01*
X79083276Y-97071293D01*
X78829103Y-96690897D01*
X78448707Y-96436724D01*
X78113261Y-96370000D01*
X77886739Y-96370000D01*
X77551293Y-96436724D01*
X77170897Y-96690897D01*
X76916724Y-97071293D01*
X76827471Y-97520000D01*
X76375000Y-97520000D01*
X76375000Y-94980000D01*
X76827471Y-94980000D01*
X76916724Y-95428707D01*
X77170897Y-95809103D01*
X77551293Y-96063276D01*
X77886739Y-96130000D01*
X78113261Y-96130000D01*
X78448707Y-96063276D01*
X78829103Y-95809103D01*
X79083276Y-95428707D01*
X79172529Y-94980000D01*
X79367471Y-94980000D01*
X79456724Y-95428707D01*
X79710897Y-95809103D01*
X80091293Y-96063276D01*
X80426739Y-96130000D01*
X80653261Y-96130000D01*
X80988707Y-96063276D01*
X81369103Y-95809103D01*
X81623276Y-95428707D01*
X81645794Y-95315500D01*
X90621000Y-95315500D01*
X90621000Y-95745415D01*
X90674893Y-95875525D01*
X90774475Y-95975107D01*
X90904585Y-96029000D01*
X91297000Y-96029000D01*
X91385500Y-95940500D01*
X91385500Y-95227000D01*
X91439500Y-95227000D01*
X91439500Y-95940500D01*
X91528000Y-96029000D01*
X91920415Y-96029000D01*
X92050525Y-95975107D01*
X92150107Y-95875525D01*
X92204000Y-95745415D01*
X92204000Y-95315500D01*
X92115500Y-95227000D01*
X91439500Y-95227000D01*
X91385500Y-95227000D01*
X90709500Y-95227000D01*
X90621000Y-95315500D01*
X81645794Y-95315500D01*
X81712529Y-94980000D01*
X81647801Y-94654585D01*
X90621000Y-94654585D01*
X90621000Y-95084500D01*
X90709500Y-95173000D01*
X91385500Y-95173000D01*
X91385500Y-94459500D01*
X91439500Y-94459500D01*
X91439500Y-95173000D01*
X92115500Y-95173000D01*
X92204000Y-95084500D01*
X92204000Y-94654585D01*
X92150107Y-94524475D01*
X92050525Y-94424893D01*
X91920415Y-94371000D01*
X91528000Y-94371000D01*
X91439500Y-94459500D01*
X91385500Y-94459500D01*
X91297000Y-94371000D01*
X90904585Y-94371000D01*
X90774475Y-94424893D01*
X90674893Y-94524475D01*
X90621000Y-94654585D01*
X81647801Y-94654585D01*
X81623276Y-94531293D01*
X81369103Y-94150897D01*
X80988707Y-93896724D01*
X80653261Y-93830000D01*
X80426739Y-93830000D01*
X80091293Y-93896724D01*
X79710897Y-94150897D01*
X79456724Y-94531293D01*
X79367471Y-94980000D01*
X79172529Y-94980000D01*
X79083276Y-94531293D01*
X78829103Y-94150897D01*
X78448707Y-93896724D01*
X78113261Y-93830000D01*
X77886739Y-93830000D01*
X77551293Y-93896724D01*
X77170897Y-94150897D01*
X76916724Y-94531293D01*
X76827471Y-94980000D01*
X76375000Y-94980000D01*
X76375000Y-92440000D01*
X76827471Y-92440000D01*
X76916724Y-92888707D01*
X77170897Y-93269103D01*
X77551293Y-93523276D01*
X77886739Y-93590000D01*
X78113261Y-93590000D01*
X78448707Y-93523276D01*
X78829103Y-93269103D01*
X79083276Y-92888707D01*
X79172529Y-92440000D01*
X79367471Y-92440000D01*
X79456724Y-92888707D01*
X79710897Y-93269103D01*
X80091293Y-93523276D01*
X80426739Y-93590000D01*
X80653261Y-93590000D01*
X80988707Y-93523276D01*
X81369103Y-93269103D01*
X81623276Y-92888707D01*
X81712529Y-92440000D01*
X81644019Y-92095571D01*
X88075000Y-92095571D01*
X88075000Y-92304429D01*
X88154927Y-92497388D01*
X88302612Y-92645073D01*
X88495571Y-92725000D01*
X88704429Y-92725000D01*
X88897388Y-92645073D01*
X89045073Y-92497388D01*
X89125000Y-92304429D01*
X89125000Y-92095571D01*
X89045073Y-91902612D01*
X88897388Y-91754927D01*
X88704429Y-91675000D01*
X88495571Y-91675000D01*
X88302612Y-91754927D01*
X88154927Y-91902612D01*
X88075000Y-92095571D01*
X81644019Y-92095571D01*
X81623276Y-91991293D01*
X81369103Y-91610897D01*
X80988707Y-91356724D01*
X80653261Y-91290000D01*
X80426739Y-91290000D01*
X80091293Y-91356724D01*
X79710897Y-91610897D01*
X79456724Y-91991293D01*
X79367471Y-92440000D01*
X79172529Y-92440000D01*
X79083276Y-91991293D01*
X78829103Y-91610897D01*
X78448707Y-91356724D01*
X78113261Y-91290000D01*
X77886739Y-91290000D01*
X77551293Y-91356724D01*
X77170897Y-91610897D01*
X76916724Y-91991293D01*
X76827471Y-92440000D01*
X76375000Y-92440000D01*
X76375000Y-89900000D01*
X76827471Y-89900000D01*
X76916724Y-90348707D01*
X77170897Y-90729103D01*
X77551293Y-90983276D01*
X77886739Y-91050000D01*
X78113261Y-91050000D01*
X78448707Y-90983276D01*
X78829103Y-90729103D01*
X79083276Y-90348707D01*
X79172529Y-89900000D01*
X79367471Y-89900000D01*
X79456724Y-90348707D01*
X79710897Y-90729103D01*
X80091293Y-90983276D01*
X80426739Y-91050000D01*
X80653261Y-91050000D01*
X80988707Y-90983276D01*
X81369103Y-90729103D01*
X81623276Y-90348707D01*
X81712529Y-89900000D01*
X81623276Y-89451293D01*
X81609848Y-89431196D01*
X87950000Y-89431196D01*
X87950000Y-89868804D01*
X88117465Y-90273100D01*
X88426900Y-90582535D01*
X88831196Y-90750000D01*
X89268804Y-90750000D01*
X89673100Y-90582535D01*
X89982535Y-90273100D01*
X90150000Y-89868804D01*
X90150000Y-89431196D01*
X90095657Y-89300000D01*
X91748803Y-89300000D01*
X91755551Y-89333926D01*
X91755550Y-92866079D01*
X91748803Y-92900000D01*
X91755550Y-92933921D01*
X91755550Y-92933924D01*
X91774163Y-93027500D01*
X91775535Y-93034397D01*
X91821116Y-93102612D01*
X91851666Y-93148333D01*
X91880424Y-93167549D01*
X92075000Y-93362125D01*
X92075000Y-93504429D01*
X92154927Y-93697388D01*
X92302612Y-93845073D01*
X92495571Y-93925000D01*
X92704429Y-93925000D01*
X92897388Y-93845073D01*
X93000000Y-93742461D01*
X93057539Y-93800000D01*
X92954927Y-93902612D01*
X92875000Y-94095571D01*
X92875000Y-94304429D01*
X92922508Y-94419123D01*
X92768750Y-94419123D01*
X92567984Y-94459058D01*
X92397783Y-94572783D01*
X92284058Y-94742984D01*
X92244123Y-94943750D01*
X92244123Y-95456250D01*
X92284058Y-95657016D01*
X92397783Y-95827217D01*
X92567984Y-95940942D01*
X92768750Y-95980877D01*
X93206250Y-95980877D01*
X93407016Y-95940942D01*
X93577217Y-95827217D01*
X93690942Y-95657016D01*
X93713333Y-95544450D01*
X93744992Y-95544450D01*
X93679931Y-95701520D01*
X93679931Y-95910378D01*
X93759858Y-96103337D01*
X93907543Y-96251022D01*
X94100502Y-96330949D01*
X94242806Y-96330949D01*
X94331430Y-96419573D01*
X94350648Y-96448334D01*
X94464584Y-96524465D01*
X94474058Y-96526349D01*
X94474058Y-96655550D01*
X93942676Y-96655550D01*
X93925000Y-96637874D01*
X93925000Y-96495571D01*
X93845073Y-96302612D01*
X93697388Y-96154927D01*
X93504429Y-96075000D01*
X93295571Y-96075000D01*
X93102612Y-96154927D01*
X93000000Y-96257539D01*
X92897388Y-96154927D01*
X92704429Y-96075000D01*
X92495571Y-96075000D01*
X92302612Y-96154927D01*
X92154927Y-96302612D01*
X92075000Y-96495571D01*
X92075000Y-96704429D01*
X92154927Y-96897388D01*
X92257539Y-97000000D01*
X92154927Y-97102612D01*
X92075000Y-97295571D01*
X92075000Y-97504429D01*
X92154927Y-97697388D01*
X92255550Y-97798011D01*
X92255551Y-101366074D01*
X92248803Y-101400000D01*
X92275535Y-101534397D01*
X92332449Y-101619574D01*
X92332451Y-101619576D01*
X92351667Y-101648334D01*
X92380424Y-101667549D01*
X103692450Y-112979576D01*
X103711666Y-113008334D01*
X103740424Y-113027550D01*
X103740425Y-113027551D01*
X103825602Y-113084465D01*
X103926075Y-113104450D01*
X103926078Y-113104450D01*
X103959999Y-113111197D01*
X103993920Y-113104450D01*
X109895986Y-113104450D01*
X109916724Y-113208707D01*
X110170897Y-113589103D01*
X110551293Y-113843276D01*
X110886739Y-113910000D01*
X111113261Y-113910000D01*
X111448707Y-113843276D01*
X111829103Y-113589103D01*
X112083276Y-113208707D01*
X112172529Y-112760000D01*
X112083276Y-112311293D01*
X111829103Y-111930897D01*
X111699726Y-111844450D01*
X112137325Y-111844450D01*
X112470426Y-112177552D01*
X112470429Y-112177554D01*
X112515782Y-112222907D01*
X112456724Y-112311293D01*
X112367471Y-112760000D01*
X112456724Y-113208707D01*
X112710897Y-113589103D01*
X113091293Y-113843276D01*
X113426739Y-113910000D01*
X113653261Y-113910000D01*
X113988707Y-113843276D01*
X114369103Y-113589103D01*
X114623276Y-113208707D01*
X114712529Y-112760000D01*
X114623276Y-112311293D01*
X114369103Y-111930897D01*
X113988707Y-111676724D01*
X113653261Y-111610000D01*
X113426739Y-111610000D01*
X113091293Y-111676724D01*
X113002907Y-111735782D01*
X112957554Y-111690429D01*
X112957552Y-111690426D01*
X112547551Y-111280426D01*
X112528334Y-111251666D01*
X112414398Y-111175535D01*
X112313925Y-111155550D01*
X112313921Y-111155550D01*
X112280000Y-111148803D01*
X112246079Y-111155550D01*
X111669794Y-111155550D01*
X111829103Y-111049103D01*
X112083276Y-110668707D01*
X112172529Y-110220000D01*
X112083276Y-109771293D01*
X111956192Y-109581099D01*
X112413974Y-109581099D01*
X112515782Y-109682907D01*
X112456724Y-109771293D01*
X112367471Y-110220000D01*
X112456724Y-110668707D01*
X112710897Y-111049103D01*
X113091293Y-111303276D01*
X113426739Y-111370000D01*
X113653261Y-111370000D01*
X113988707Y-111303276D01*
X114369103Y-111049103D01*
X114623276Y-110668707D01*
X114712529Y-110220000D01*
X114623276Y-109771293D01*
X114369103Y-109390897D01*
X113988707Y-109136724D01*
X113653261Y-109070000D01*
X113426739Y-109070000D01*
X113091293Y-109136724D01*
X113002907Y-109195782D01*
X112824201Y-109017076D01*
X112804983Y-108988315D01*
X112691047Y-108912184D01*
X112590574Y-108892199D01*
X112590570Y-108892199D01*
X112556649Y-108885452D01*
X112522728Y-108892199D01*
X111279325Y-108892199D01*
X111199894Y-108812768D01*
X111448707Y-108763276D01*
X111829103Y-108509103D01*
X112083276Y-108128707D01*
X112172529Y-107680000D01*
X112367471Y-107680000D01*
X112456724Y-108128707D01*
X112710897Y-108509103D01*
X113091293Y-108763276D01*
X113426739Y-108830000D01*
X113653261Y-108830000D01*
X113988707Y-108763276D01*
X114369103Y-108509103D01*
X114623276Y-108128707D01*
X114712529Y-107680000D01*
X114623276Y-107231293D01*
X114369103Y-106850897D01*
X113988707Y-106596724D01*
X113653261Y-106530000D01*
X113426739Y-106530000D01*
X113091293Y-106596724D01*
X112710897Y-106850897D01*
X112456724Y-107231293D01*
X112367471Y-107680000D01*
X112172529Y-107680000D01*
X112083276Y-107231293D01*
X111829103Y-106850897D01*
X111448707Y-106596724D01*
X111113261Y-106530000D01*
X110886739Y-106530000D01*
X110551293Y-106596724D01*
X110170897Y-106850897D01*
X109916724Y-107231293D01*
X109867232Y-107480106D01*
X107527126Y-105140000D01*
X109827471Y-105140000D01*
X109916724Y-105588707D01*
X110170897Y-105969103D01*
X110551293Y-106223276D01*
X110886739Y-106290000D01*
X111113261Y-106290000D01*
X111448707Y-106223276D01*
X111829103Y-105969103D01*
X112083276Y-105588707D01*
X112172529Y-105140000D01*
X112367471Y-105140000D01*
X112456724Y-105588707D01*
X112710897Y-105969103D01*
X113091293Y-106223276D01*
X113426739Y-106290000D01*
X113653261Y-106290000D01*
X113988707Y-106223276D01*
X114369103Y-105969103D01*
X114623276Y-105588707D01*
X114712529Y-105140000D01*
X114623276Y-104691293D01*
X114369103Y-104310897D01*
X113988707Y-104056724D01*
X113653261Y-103990000D01*
X113426739Y-103990000D01*
X113091293Y-104056724D01*
X112710897Y-104310897D01*
X112456724Y-104691293D01*
X112367471Y-105140000D01*
X112172529Y-105140000D01*
X112083276Y-104691293D01*
X111829103Y-104310897D01*
X111448707Y-104056724D01*
X111113261Y-103990000D01*
X110886739Y-103990000D01*
X110551293Y-104056724D01*
X110170897Y-104310897D01*
X109916724Y-104691293D01*
X109827471Y-105140000D01*
X107527126Y-105140000D01*
X104987126Y-102600000D01*
X109827471Y-102600000D01*
X109916724Y-103048707D01*
X110170897Y-103429103D01*
X110551293Y-103683276D01*
X110886739Y-103750000D01*
X111113261Y-103750000D01*
X111448707Y-103683276D01*
X111829103Y-103429103D01*
X112083276Y-103048707D01*
X112172529Y-102600000D01*
X112367471Y-102600000D01*
X112456724Y-103048707D01*
X112710897Y-103429103D01*
X113091293Y-103683276D01*
X113426739Y-103750000D01*
X113653261Y-103750000D01*
X113988707Y-103683276D01*
X114369103Y-103429103D01*
X114623276Y-103048707D01*
X114712529Y-102600000D01*
X114623276Y-102151293D01*
X114369103Y-101770897D01*
X113988707Y-101516724D01*
X113653261Y-101450000D01*
X113426739Y-101450000D01*
X113091293Y-101516724D01*
X112710897Y-101770897D01*
X112456724Y-102151293D01*
X112367471Y-102600000D01*
X112172529Y-102600000D01*
X112083276Y-102151293D01*
X111829103Y-101770897D01*
X111448707Y-101516724D01*
X111113261Y-101450000D01*
X110886739Y-101450000D01*
X110551293Y-101516724D01*
X110170897Y-101770897D01*
X109916724Y-102151293D01*
X109827471Y-102600000D01*
X104987126Y-102600000D01*
X103509871Y-101122746D01*
X103697388Y-101045073D01*
X103845073Y-100897388D01*
X103925000Y-100704429D01*
X103925000Y-100495571D01*
X103845073Y-100302612D01*
X103697388Y-100154927D01*
X103504429Y-100075000D01*
X103295571Y-100075000D01*
X103102612Y-100154927D01*
X102954927Y-100302612D01*
X102875000Y-100495571D01*
X102875000Y-100505550D01*
X100872533Y-100505550D01*
X100900000Y-100439239D01*
X100900000Y-100160761D01*
X100793432Y-99903482D01*
X100596518Y-99706568D01*
X100339239Y-99600000D01*
X100060761Y-99600000D01*
X99803482Y-99706568D01*
X99606568Y-99903482D01*
X99500000Y-100160761D01*
X99500000Y-100439239D01*
X99527467Y-100505550D01*
X98895082Y-100505550D01*
X98975107Y-100425525D01*
X99029000Y-100295415D01*
X99029000Y-99903000D01*
X98940500Y-99814500D01*
X98227000Y-99814500D01*
X98227000Y-99834500D01*
X98173000Y-99834500D01*
X98173000Y-99814500D01*
X97459500Y-99814500D01*
X97371000Y-99903000D01*
X97371000Y-100295415D01*
X97424893Y-100425525D01*
X97504918Y-100505550D01*
X96944450Y-100505550D01*
X96944450Y-99279585D01*
X97371000Y-99279585D01*
X97371000Y-99672000D01*
X97459500Y-99760500D01*
X98173000Y-99760500D01*
X98173000Y-99084500D01*
X98227000Y-99084500D01*
X98227000Y-99760500D01*
X98940500Y-99760500D01*
X99029000Y-99672000D01*
X99029000Y-99279585D01*
X98975107Y-99149475D01*
X98875525Y-99049893D01*
X98745415Y-98996000D01*
X98315500Y-98996000D01*
X98227000Y-99084500D01*
X98173000Y-99084500D01*
X98084500Y-98996000D01*
X97654585Y-98996000D01*
X97524475Y-99049893D01*
X97424893Y-99149475D01*
X97371000Y-99279585D01*
X96944450Y-99279585D01*
X96944450Y-97798011D01*
X97045073Y-97697388D01*
X97125000Y-97504429D01*
X97125000Y-97344450D01*
X98955015Y-97344450D01*
X98948634Y-97354000D01*
X98914123Y-97527500D01*
X98914123Y-97752847D01*
X98827217Y-97622783D01*
X98657016Y-97509058D01*
X98456250Y-97469123D01*
X97943750Y-97469123D01*
X97742984Y-97509058D01*
X97572783Y-97622783D01*
X97459058Y-97792984D01*
X97419123Y-97993750D01*
X97419123Y-98431250D01*
X97459058Y-98632016D01*
X97572783Y-98802217D01*
X97742984Y-98915942D01*
X97943750Y-98955877D01*
X98456250Y-98955877D01*
X98657016Y-98915942D01*
X98827217Y-98802217D01*
X98940942Y-98632016D01*
X98980877Y-98431250D01*
X98980877Y-98094255D01*
X99046914Y-98193086D01*
X99194000Y-98291366D01*
X99367500Y-98325877D01*
X99662500Y-98325877D01*
X99836000Y-98291366D01*
X99910772Y-98241404D01*
X99989475Y-98320107D01*
X100119585Y-98374000D01*
X100369500Y-98374000D01*
X100458000Y-98285500D01*
X100458000Y-97727000D01*
X100512000Y-97727000D01*
X100512000Y-98285500D01*
X100600500Y-98374000D01*
X100850415Y-98374000D01*
X100980525Y-98320107D01*
X101080107Y-98220525D01*
X101134000Y-98090415D01*
X101134000Y-97815500D01*
X101045500Y-97727000D01*
X100512000Y-97727000D01*
X100458000Y-97727000D01*
X100438000Y-97727000D01*
X100438000Y-97673000D01*
X100458000Y-97673000D01*
X100458000Y-97653000D01*
X100512000Y-97653000D01*
X100512000Y-97673000D01*
X101045500Y-97673000D01*
X101134000Y-97584500D01*
X101134000Y-97344450D01*
X107857325Y-97344450D01*
X109532450Y-99019576D01*
X109551666Y-99048334D01*
X109580424Y-99067550D01*
X109580425Y-99067551D01*
X109605791Y-99084500D01*
X109665602Y-99124465D01*
X109766075Y-99144450D01*
X109766079Y-99144450D01*
X109799999Y-99151197D01*
X109833919Y-99144450D01*
X110300274Y-99144450D01*
X110170897Y-99230897D01*
X109916724Y-99611293D01*
X109827471Y-100060000D01*
X109916724Y-100508707D01*
X110170897Y-100889103D01*
X110551293Y-101143276D01*
X110886739Y-101210000D01*
X111113261Y-101210000D01*
X111448707Y-101143276D01*
X111829103Y-100889103D01*
X112083276Y-100508707D01*
X112172529Y-100060000D01*
X112367471Y-100060000D01*
X112456724Y-100508707D01*
X112710897Y-100889103D01*
X113091293Y-101143276D01*
X113426739Y-101210000D01*
X113653261Y-101210000D01*
X113988707Y-101143276D01*
X114369103Y-100889103D01*
X114623276Y-100508707D01*
X114712529Y-100060000D01*
X114623276Y-99611293D01*
X114369103Y-99230897D01*
X113988707Y-98976724D01*
X113653261Y-98910000D01*
X113426739Y-98910000D01*
X113091293Y-98976724D01*
X112710897Y-99230897D01*
X112456724Y-99611293D01*
X112367471Y-100060000D01*
X112172529Y-100060000D01*
X112083276Y-99611293D01*
X111829103Y-99230897D01*
X111699726Y-99144450D01*
X112477539Y-99144450D01*
X112511460Y-99151197D01*
X112545381Y-99144450D01*
X112545385Y-99144450D01*
X112645858Y-99124465D01*
X112759794Y-99048334D01*
X112779011Y-99019574D01*
X113178052Y-98620533D01*
X113426739Y-98670000D01*
X113653261Y-98670000D01*
X113988707Y-98603276D01*
X114369103Y-98349103D01*
X114623276Y-97968707D01*
X114712529Y-97520000D01*
X114623276Y-97071293D01*
X114369103Y-96690897D01*
X113988707Y-96436724D01*
X113653261Y-96370000D01*
X113426739Y-96370000D01*
X113091293Y-96436724D01*
X112710897Y-96690897D01*
X112456724Y-97071293D01*
X112367471Y-97520000D01*
X112456724Y-97968707D01*
X112616503Y-98207832D01*
X112368785Y-98455550D01*
X111669794Y-98455550D01*
X111829103Y-98349103D01*
X112083276Y-97968707D01*
X112172529Y-97520000D01*
X112083276Y-97071293D01*
X111829103Y-96690897D01*
X111609930Y-96544450D01*
X112537539Y-96544450D01*
X112571460Y-96551197D01*
X112605381Y-96544450D01*
X112605385Y-96544450D01*
X112705858Y-96524465D01*
X112819794Y-96448334D01*
X112839011Y-96419574D01*
X113178052Y-96080533D01*
X113426739Y-96130000D01*
X113653261Y-96130000D01*
X113988707Y-96063276D01*
X114369103Y-95809103D01*
X114623276Y-95428707D01*
X114712529Y-94980000D01*
X114623276Y-94531293D01*
X114369103Y-94150897D01*
X113988707Y-93896724D01*
X113653261Y-93830000D01*
X113426739Y-93830000D01*
X113091293Y-93896724D01*
X112710897Y-94150897D01*
X112456724Y-94531293D01*
X112367471Y-94980000D01*
X112456724Y-95428707D01*
X112616503Y-95667832D01*
X112428785Y-95855550D01*
X111759590Y-95855550D01*
X111829103Y-95809103D01*
X112083276Y-95428707D01*
X112172529Y-94980000D01*
X112083276Y-94531293D01*
X111829103Y-94150897D01*
X111819454Y-94144450D01*
X112146079Y-94144450D01*
X112180000Y-94151197D01*
X112213921Y-94144450D01*
X112213925Y-94144450D01*
X112314398Y-94124465D01*
X112428334Y-94048334D01*
X112447551Y-94019574D01*
X113002907Y-93464218D01*
X113091293Y-93523276D01*
X113426739Y-93590000D01*
X113653261Y-93590000D01*
X113988707Y-93523276D01*
X114369103Y-93269103D01*
X114623276Y-92888707D01*
X114712529Y-92440000D01*
X114623276Y-91991293D01*
X114369103Y-91610897D01*
X113988707Y-91356724D01*
X113653261Y-91290000D01*
X113426739Y-91290000D01*
X113091293Y-91356724D01*
X112710897Y-91610897D01*
X112456724Y-91991293D01*
X112367471Y-92440000D01*
X112456724Y-92888707D01*
X112515782Y-92977093D01*
X112037325Y-93455550D01*
X111550066Y-93455550D01*
X111829103Y-93269103D01*
X112083276Y-92888707D01*
X112172529Y-92440000D01*
X112083276Y-91991293D01*
X111829103Y-91610897D01*
X111804488Y-91594450D01*
X112156079Y-91594450D01*
X112190000Y-91601197D01*
X112223921Y-91594450D01*
X112223925Y-91594450D01*
X112324398Y-91574465D01*
X112438334Y-91498334D01*
X112457551Y-91469574D01*
X112957552Y-90969574D01*
X112957554Y-90969571D01*
X113002907Y-90924218D01*
X113091293Y-90983276D01*
X113426739Y-91050000D01*
X113653261Y-91050000D01*
X113988707Y-90983276D01*
X114369103Y-90729103D01*
X114623276Y-90348707D01*
X114712529Y-89900000D01*
X114623276Y-89451293D01*
X114369103Y-89070897D01*
X113988707Y-88816724D01*
X113653261Y-88750000D01*
X113426739Y-88750000D01*
X113091293Y-88816724D01*
X112710897Y-89070897D01*
X112456724Y-89451293D01*
X112367471Y-89900000D01*
X112456724Y-90348707D01*
X112515782Y-90437093D01*
X112470429Y-90482446D01*
X112470426Y-90482448D01*
X112047325Y-90905550D01*
X111565032Y-90905550D01*
X111829103Y-90729103D01*
X112083276Y-90348707D01*
X112172529Y-89900000D01*
X112083276Y-89451293D01*
X111829103Y-89070897D01*
X111448707Y-88816724D01*
X111113261Y-88750000D01*
X110886739Y-88750000D01*
X110551293Y-88816724D01*
X110170897Y-89070897D01*
X109916724Y-89451293D01*
X109827471Y-89900000D01*
X109916724Y-90348707D01*
X109954705Y-90405549D01*
X104283920Y-90405549D01*
X104250000Y-90398802D01*
X104216080Y-90405549D01*
X104216076Y-90405549D01*
X104115603Y-90425534D01*
X104058723Y-90463540D01*
X104030426Y-90482448D01*
X104030425Y-90482449D01*
X104001667Y-90501665D01*
X103982451Y-90530423D01*
X101634000Y-92878875D01*
X101634000Y-92715500D01*
X101545500Y-92627000D01*
X101012000Y-92627000D01*
X101012000Y-93185500D01*
X101100500Y-93274000D01*
X101238875Y-93274000D01*
X101098974Y-93413901D01*
X98034000Y-93413901D01*
X98034000Y-93315500D01*
X97945500Y-93227000D01*
X97412000Y-93227000D01*
X97412000Y-93247000D01*
X97358000Y-93247000D01*
X97358000Y-93227000D01*
X97338000Y-93227000D01*
X97338000Y-93173000D01*
X97358000Y-93173000D01*
X97358000Y-92614500D01*
X97269500Y-92526000D01*
X97019585Y-92526000D01*
X96889475Y-92579893D01*
X96810772Y-92658596D01*
X96736000Y-92608634D01*
X96562500Y-92574123D01*
X96325000Y-92574123D01*
X96325000Y-92562126D01*
X96376027Y-92511099D01*
X97675000Y-92511099D01*
X97675000Y-92526000D01*
X97500500Y-92526000D01*
X97412000Y-92614500D01*
X97412000Y-93173000D01*
X97945500Y-93173000D01*
X98023396Y-93095104D01*
X98095571Y-93125000D01*
X98304429Y-93125000D01*
X98497388Y-93045073D01*
X98598011Y-92944450D01*
X99448326Y-92944450D01*
X99448634Y-92946000D01*
X99546914Y-93093086D01*
X99694000Y-93191366D01*
X99867500Y-93225877D01*
X100162500Y-93225877D01*
X100336000Y-93191366D01*
X100410772Y-93141404D01*
X100489475Y-93220107D01*
X100619585Y-93274000D01*
X100869500Y-93274000D01*
X100958000Y-93185500D01*
X100958000Y-92627000D01*
X100938000Y-92627000D01*
X100938000Y-92573000D01*
X100958000Y-92573000D01*
X100958000Y-92014500D01*
X101012000Y-92014500D01*
X101012000Y-92573000D01*
X101545500Y-92573000D01*
X101634000Y-92484500D01*
X101634000Y-92209585D01*
X101580107Y-92079475D01*
X101480525Y-91979893D01*
X101350415Y-91926000D01*
X101100500Y-91926000D01*
X101012000Y-92014500D01*
X100958000Y-92014500D01*
X100869500Y-91926000D01*
X100619585Y-91926000D01*
X100489475Y-91979893D01*
X100410772Y-92058596D01*
X100336000Y-92008634D01*
X100162500Y-91974123D01*
X100137439Y-91974123D01*
X100119347Y-91966629D01*
X99920496Y-91966629D01*
X103142676Y-88744450D01*
X104714996Y-88744450D01*
X104700000Y-88780653D01*
X104700000Y-89019347D01*
X104791344Y-89239873D01*
X104960127Y-89408656D01*
X105180653Y-89500000D01*
X105419347Y-89500000D01*
X105639873Y-89408656D01*
X105648529Y-89400000D01*
X105751477Y-89400000D01*
X105760133Y-89408656D01*
X105980659Y-89500000D01*
X106219353Y-89500000D01*
X106439879Y-89408656D01*
X106450003Y-89398532D01*
X106460127Y-89408656D01*
X106680653Y-89500000D01*
X106919347Y-89500000D01*
X107139873Y-89408656D01*
X107308656Y-89239873D01*
X107400000Y-89019347D01*
X107400000Y-88780653D01*
X107385004Y-88744450D01*
X112466079Y-88744450D01*
X112500000Y-88751197D01*
X112533921Y-88744450D01*
X112533925Y-88744450D01*
X112634398Y-88724465D01*
X112748334Y-88648334D01*
X112767552Y-88619573D01*
X113002907Y-88384218D01*
X113091293Y-88443276D01*
X113426739Y-88510000D01*
X113653261Y-88510000D01*
X113988707Y-88443276D01*
X114369103Y-88189103D01*
X114623276Y-87808707D01*
X114712529Y-87360000D01*
X114623276Y-86911293D01*
X114369103Y-86530897D01*
X113988707Y-86276724D01*
X113653261Y-86210000D01*
X113426739Y-86210000D01*
X113091293Y-86276724D01*
X112710897Y-86530897D01*
X112456724Y-86911293D01*
X112367471Y-87360000D01*
X112456724Y-87808707D01*
X112515782Y-87897093D01*
X112357325Y-88055550D01*
X111918340Y-88055550D01*
X112083276Y-87808707D01*
X112172529Y-87360000D01*
X112083276Y-86911293D01*
X111829103Y-86530897D01*
X111448707Y-86276724D01*
X111170400Y-86221366D01*
X111243965Y-86147801D01*
X112522728Y-86147801D01*
X112556649Y-86154548D01*
X112590570Y-86147801D01*
X112590574Y-86147801D01*
X112691047Y-86127816D01*
X112804983Y-86051685D01*
X112824201Y-86022924D01*
X113002907Y-85844218D01*
X113091293Y-85903276D01*
X113426739Y-85970000D01*
X113653261Y-85970000D01*
X113988707Y-85903276D01*
X114369103Y-85649103D01*
X114623276Y-85268707D01*
X114712529Y-84820000D01*
X114623276Y-84371293D01*
X114369103Y-83990897D01*
X113988707Y-83736724D01*
X113653261Y-83670000D01*
X113426739Y-83670000D01*
X113091293Y-83736724D01*
X112710897Y-83990897D01*
X112456724Y-84371293D01*
X112367471Y-84820000D01*
X112456724Y-85268707D01*
X112515782Y-85357093D01*
X112413974Y-85458901D01*
X111956192Y-85458901D01*
X112083276Y-85268707D01*
X112172529Y-84820000D01*
X112083276Y-84371293D01*
X111829103Y-83990897D01*
X111448707Y-83736724D01*
X111113261Y-83670000D01*
X110886739Y-83670000D01*
X110551293Y-83736724D01*
X110170897Y-83990897D01*
X109916724Y-84371293D01*
X109827471Y-84820000D01*
X109916724Y-85268707D01*
X109975782Y-85357093D01*
X109930429Y-85402446D01*
X109930426Y-85402448D01*
X109510676Y-85822199D01*
X95267266Y-85822199D01*
X95233350Y-85815453D01*
X95199434Y-85822199D01*
X95199426Y-85822199D01*
X95098953Y-85842184D01*
X95098951Y-85842185D01*
X95098952Y-85842185D01*
X95013776Y-85899098D01*
X95013775Y-85899099D01*
X94985017Y-85918315D01*
X94965801Y-85947073D01*
X91880424Y-89032451D01*
X91851667Y-89051666D01*
X91832451Y-89080424D01*
X91832449Y-89080426D01*
X91775535Y-89165603D01*
X91748803Y-89300000D01*
X90095657Y-89300000D01*
X89982535Y-89026900D01*
X89673100Y-88717465D01*
X89268804Y-88550000D01*
X88831196Y-88550000D01*
X88426900Y-88717465D01*
X88117465Y-89026900D01*
X87950000Y-89431196D01*
X81609848Y-89431196D01*
X81369103Y-89070897D01*
X80988707Y-88816724D01*
X80653261Y-88750000D01*
X80426739Y-88750000D01*
X80091293Y-88816724D01*
X79710897Y-89070897D01*
X79456724Y-89451293D01*
X79367471Y-89900000D01*
X79172529Y-89900000D01*
X79083276Y-89451293D01*
X78829103Y-89070897D01*
X78448707Y-88816724D01*
X78113261Y-88750000D01*
X77886739Y-88750000D01*
X77551293Y-88816724D01*
X77170897Y-89070897D01*
X76916724Y-89451293D01*
X76827471Y-89900000D01*
X76375000Y-89900000D01*
X76375000Y-87360000D01*
X76827471Y-87360000D01*
X76916724Y-87808707D01*
X77170897Y-88189103D01*
X77551293Y-88443276D01*
X77886739Y-88510000D01*
X78113261Y-88510000D01*
X78448707Y-88443276D01*
X78829103Y-88189103D01*
X79083276Y-87808707D01*
X79172529Y-87360000D01*
X79367471Y-87360000D01*
X79456724Y-87808707D01*
X79710897Y-88189103D01*
X80091293Y-88443276D01*
X80426739Y-88510000D01*
X80653261Y-88510000D01*
X80988707Y-88443276D01*
X81369103Y-88189103D01*
X81623276Y-87808707D01*
X81712529Y-87360000D01*
X81623276Y-86911293D01*
X81369103Y-86530897D01*
X80988707Y-86276724D01*
X80653261Y-86210000D01*
X80426739Y-86210000D01*
X80091293Y-86276724D01*
X79710897Y-86530897D01*
X79456724Y-86911293D01*
X79367471Y-87360000D01*
X79172529Y-87360000D01*
X79083276Y-86911293D01*
X78829103Y-86530897D01*
X78448707Y-86276724D01*
X78113261Y-86210000D01*
X77886739Y-86210000D01*
X77551293Y-86276724D01*
X77170897Y-86530897D01*
X76916724Y-86911293D01*
X76827471Y-87360000D01*
X76375000Y-87360000D01*
X76375000Y-84820000D01*
X76827471Y-84820000D01*
X76916724Y-85268707D01*
X77170897Y-85649103D01*
X77551293Y-85903276D01*
X77886739Y-85970000D01*
X78113261Y-85970000D01*
X78448707Y-85903276D01*
X78829103Y-85649103D01*
X79083276Y-85268707D01*
X79172529Y-84820000D01*
X79367471Y-84820000D01*
X79456724Y-85268707D01*
X79710897Y-85649103D01*
X80091293Y-85903276D01*
X80426739Y-85970000D01*
X80653261Y-85970000D01*
X80988707Y-85903276D01*
X81369103Y-85649103D01*
X81623276Y-85268707D01*
X81699266Y-84886674D01*
X92234010Y-84886674D01*
X92305392Y-85058133D01*
X92699509Y-85228223D01*
X93128715Y-85234544D01*
X93527669Y-85076133D01*
X93554608Y-85058133D01*
X93625990Y-84886674D01*
X97234010Y-84886674D01*
X97305392Y-85058133D01*
X97699509Y-85228223D01*
X98128715Y-85234544D01*
X98527669Y-85076133D01*
X98554608Y-85058133D01*
X98625990Y-84886674D01*
X97930000Y-84190684D01*
X97234010Y-84886674D01*
X93625990Y-84886674D01*
X92930000Y-84190684D01*
X92234010Y-84886674D01*
X81699266Y-84886674D01*
X81712529Y-84820000D01*
X81623276Y-84371293D01*
X81369103Y-83990897D01*
X80988707Y-83736724D01*
X80653261Y-83670000D01*
X80426739Y-83670000D01*
X80091293Y-83736724D01*
X79710897Y-83990897D01*
X79456724Y-84371293D01*
X79367471Y-84820000D01*
X79172529Y-84820000D01*
X79083276Y-84371293D01*
X78829103Y-83990897D01*
X78448707Y-83736724D01*
X78113261Y-83670000D01*
X77886739Y-83670000D01*
X77551293Y-83736724D01*
X77170897Y-83990897D01*
X76916724Y-84371293D01*
X76827471Y-84820000D01*
X76375000Y-84820000D01*
X76375000Y-83540870D01*
X88800000Y-83540870D01*
X88800000Y-83859130D01*
X88921793Y-84153164D01*
X89146836Y-84378207D01*
X89440870Y-84500000D01*
X89759130Y-84500000D01*
X90053164Y-84378207D01*
X90080156Y-84351215D01*
X91847956Y-84351215D01*
X92006367Y-84750169D01*
X92024367Y-84777108D01*
X92195826Y-84848490D01*
X92891816Y-84152500D01*
X92968184Y-84152500D01*
X93664174Y-84848490D01*
X93835633Y-84777108D01*
X94005723Y-84382991D01*
X94006190Y-84351215D01*
X96847956Y-84351215D01*
X97006367Y-84750169D01*
X97024367Y-84777108D01*
X97195826Y-84848490D01*
X97891816Y-84152500D01*
X97968184Y-84152500D01*
X98664174Y-84848490D01*
X98835633Y-84777108D01*
X99005723Y-84382991D01*
X99012044Y-83953785D01*
X98853633Y-83554831D01*
X98835633Y-83527892D01*
X98664174Y-83456510D01*
X97968184Y-84152500D01*
X97891816Y-84152500D01*
X97195826Y-83456510D01*
X97024367Y-83527892D01*
X96854277Y-83922009D01*
X96847956Y-84351215D01*
X94006190Y-84351215D01*
X94012044Y-83953785D01*
X93853633Y-83554831D01*
X93835633Y-83527892D01*
X93664174Y-83456510D01*
X92968184Y-84152500D01*
X92891816Y-84152500D01*
X92195826Y-83456510D01*
X92024367Y-83527892D01*
X91854277Y-83922009D01*
X91847956Y-84351215D01*
X90080156Y-84351215D01*
X90278207Y-84153164D01*
X90400000Y-83859130D01*
X90400000Y-83540870D01*
X90349241Y-83418326D01*
X92234010Y-83418326D01*
X92930000Y-84114316D01*
X93625990Y-83418326D01*
X97234010Y-83418326D01*
X97930000Y-84114316D01*
X98625990Y-83418326D01*
X98554608Y-83246867D01*
X98160491Y-83076777D01*
X97731285Y-83070456D01*
X97332331Y-83228867D01*
X97305392Y-83246867D01*
X97234010Y-83418326D01*
X93625990Y-83418326D01*
X93554608Y-83246867D01*
X93160491Y-83076777D01*
X92731285Y-83070456D01*
X92332331Y-83228867D01*
X92305392Y-83246867D01*
X92234010Y-83418326D01*
X90349241Y-83418326D01*
X90278207Y-83246836D01*
X90053164Y-83021793D01*
X89759130Y-82900000D01*
X89440870Y-82900000D01*
X89146836Y-83021793D01*
X88921793Y-83246836D01*
X88800000Y-83540870D01*
X76375000Y-83540870D01*
X76375000Y-81430000D01*
X76844123Y-81430000D01*
X76844123Y-83130000D01*
X76867407Y-83247054D01*
X76933712Y-83346288D01*
X77032946Y-83412593D01*
X77150000Y-83435877D01*
X78850000Y-83435877D01*
X78967054Y-83412593D01*
X79066288Y-83346288D01*
X79132593Y-83247054D01*
X79155877Y-83130000D01*
X79155877Y-82494967D01*
X79355346Y-82494967D01*
X79363255Y-82534745D01*
X79550316Y-82965674D01*
X79888047Y-83292216D01*
X80325032Y-83464657D01*
X80513000Y-83395200D01*
X80513000Y-82307000D01*
X80567000Y-82307000D01*
X80567000Y-83395200D01*
X80754968Y-83464657D01*
X81191953Y-83292216D01*
X81529684Y-82965674D01*
X81716745Y-82534745D01*
X81724654Y-82494967D01*
X81655173Y-82307000D01*
X80567000Y-82307000D01*
X80513000Y-82307000D01*
X79424827Y-82307000D01*
X79355346Y-82494967D01*
X79155877Y-82494967D01*
X79155877Y-82065033D01*
X79355346Y-82065033D01*
X79424827Y-82253000D01*
X80513000Y-82253000D01*
X80513000Y-81164800D01*
X80567000Y-81164800D01*
X80567000Y-82253000D01*
X81655173Y-82253000D01*
X81724654Y-82065033D01*
X81716745Y-82025255D01*
X81529684Y-81594326D01*
X81370970Y-81440870D01*
X88800000Y-81440870D01*
X88800000Y-81759130D01*
X88921793Y-82053164D01*
X89146836Y-82278207D01*
X89440870Y-82400000D01*
X89759130Y-82400000D01*
X90053164Y-82278207D01*
X90278207Y-82053164D01*
X90400000Y-81759130D01*
X90400000Y-81479500D01*
X90976000Y-81479500D01*
X90976000Y-81829500D01*
X91058951Y-82192525D01*
X91274512Y-82496172D01*
X91589865Y-82694214D01*
X91754154Y-82740154D01*
X91903000Y-82667579D01*
X91903000Y-81479500D01*
X91957000Y-81479500D01*
X91957000Y-82667579D01*
X92105846Y-82740154D01*
X92270135Y-82694214D01*
X92585488Y-82496172D01*
X92801049Y-82192525D01*
X92884000Y-81829500D01*
X92884000Y-81479500D01*
X97976000Y-81479500D01*
X97976000Y-81829500D01*
X98058951Y-82192525D01*
X98274512Y-82496172D01*
X98589865Y-82694214D01*
X98754154Y-82740154D01*
X98903000Y-82667579D01*
X98903000Y-81479500D01*
X98957000Y-81479500D01*
X98957000Y-82667579D01*
X99105846Y-82740154D01*
X99270135Y-82694214D01*
X99585488Y-82496172D01*
X99801049Y-82192525D01*
X99884000Y-81829500D01*
X99884000Y-81479500D01*
X98957000Y-81479500D01*
X98903000Y-81479500D01*
X97976000Y-81479500D01*
X92884000Y-81479500D01*
X91957000Y-81479500D01*
X91903000Y-81479500D01*
X90976000Y-81479500D01*
X90400000Y-81479500D01*
X90400000Y-81440870D01*
X90395498Y-81430000D01*
X109844123Y-81430000D01*
X109844123Y-83130000D01*
X109867407Y-83247054D01*
X109933712Y-83346288D01*
X110032946Y-83412593D01*
X110150000Y-83435877D01*
X111850000Y-83435877D01*
X111967054Y-83412593D01*
X112066288Y-83346288D01*
X112132593Y-83247054D01*
X112155877Y-83130000D01*
X112155877Y-82494967D01*
X112355346Y-82494967D01*
X112363255Y-82534745D01*
X112550316Y-82965674D01*
X112888047Y-83292216D01*
X113325032Y-83464657D01*
X113513000Y-83395200D01*
X113513000Y-82307000D01*
X113567000Y-82307000D01*
X113567000Y-83395200D01*
X113754968Y-83464657D01*
X114191953Y-83292216D01*
X114529684Y-82965674D01*
X114716745Y-82534745D01*
X114724654Y-82494967D01*
X114655173Y-82307000D01*
X113567000Y-82307000D01*
X113513000Y-82307000D01*
X112424827Y-82307000D01*
X112355346Y-82494967D01*
X112155877Y-82494967D01*
X112155877Y-82065033D01*
X112355346Y-82065033D01*
X112424827Y-82253000D01*
X113513000Y-82253000D01*
X113513000Y-81164800D01*
X113567000Y-81164800D01*
X113567000Y-82253000D01*
X114655173Y-82253000D01*
X114724654Y-82065033D01*
X114716745Y-82025255D01*
X114529684Y-81594326D01*
X114191953Y-81267784D01*
X113754968Y-81095343D01*
X113567000Y-81164800D01*
X113513000Y-81164800D01*
X113325032Y-81095343D01*
X112888047Y-81267784D01*
X112550316Y-81594326D01*
X112363255Y-82025255D01*
X112355346Y-82065033D01*
X112155877Y-82065033D01*
X112155877Y-81430000D01*
X112132593Y-81312946D01*
X112066288Y-81213712D01*
X111967054Y-81147407D01*
X111850000Y-81124123D01*
X110150000Y-81124123D01*
X110032946Y-81147407D01*
X109933712Y-81213712D01*
X109867407Y-81312946D01*
X109844123Y-81430000D01*
X90395498Y-81430000D01*
X90278207Y-81146836D01*
X90053164Y-80921793D01*
X89759130Y-80800000D01*
X89440870Y-80800000D01*
X89146836Y-80921793D01*
X88921793Y-81146836D01*
X88800000Y-81440870D01*
X81370970Y-81440870D01*
X81191953Y-81267784D01*
X80754968Y-81095343D01*
X80567000Y-81164800D01*
X80513000Y-81164800D01*
X80325032Y-81095343D01*
X79888047Y-81267784D01*
X79550316Y-81594326D01*
X79363255Y-82025255D01*
X79355346Y-82065033D01*
X79155877Y-82065033D01*
X79155877Y-81430000D01*
X79132593Y-81312946D01*
X79066288Y-81213712D01*
X78967054Y-81147407D01*
X78850000Y-81124123D01*
X77150000Y-81124123D01*
X77032946Y-81147407D01*
X76933712Y-81213712D01*
X76867407Y-81312946D01*
X76844123Y-81430000D01*
X76375000Y-81430000D01*
X76375000Y-81036937D01*
X76429363Y-80763633D01*
X76563253Y-80563253D01*
X76763632Y-80429363D01*
X77036936Y-80375000D01*
X91328378Y-80375000D01*
X91274512Y-80408828D01*
X91274512Y-80408828D01*
G37*
X91274512Y-80408828D02*
X91058951Y-80712475D01*
X90976000Y-81075500D01*
X90976000Y-81425500D01*
X91903000Y-81425500D01*
X91903000Y-81405500D01*
X91957000Y-81405500D01*
X91957000Y-81425500D01*
X92884000Y-81425500D01*
X92884000Y-81075500D01*
X92801049Y-80712475D01*
X92585488Y-80408828D01*
X92531622Y-80375000D01*
X98328378Y-80375000D01*
X98274512Y-80408828D01*
X98058951Y-80712475D01*
X97976000Y-81075500D01*
X97976000Y-81425500D01*
X98903000Y-81425500D01*
X98903000Y-81405500D01*
X98957000Y-81405500D01*
X98957000Y-81425500D01*
X99884000Y-81425500D01*
X99884000Y-81075500D01*
X99801049Y-80712475D01*
X99585488Y-80408828D01*
X99531622Y-80375000D01*
X114463063Y-80375000D01*
X114736367Y-80429363D01*
X114936747Y-80563253D01*
X115070637Y-80763632D01*
X115125001Y-81036941D01*
X115125000Y-116463064D01*
X115070637Y-116736368D01*
X114936747Y-116936747D01*
X114736367Y-117070637D01*
X114463063Y-117125000D01*
X77036936Y-117125000D01*
X76763632Y-117070637D01*
X76563253Y-116936747D01*
X76429363Y-116736367D01*
X76375000Y-116463063D01*
X76375000Y-115300000D01*
X76827471Y-115300000D01*
X76916724Y-115748707D01*
X77170897Y-116129103D01*
X77551293Y-116383276D01*
X77886739Y-116450000D01*
X78113261Y-116450000D01*
X78448707Y-116383276D01*
X78829103Y-116129103D01*
X79083276Y-115748707D01*
X79129769Y-115514967D01*
X79355346Y-115514967D01*
X79363255Y-115554745D01*
X79550316Y-115985674D01*
X79888047Y-116312216D01*
X80325032Y-116484657D01*
X80513000Y-116415200D01*
X80513000Y-115327000D01*
X80567000Y-115327000D01*
X80567000Y-116415200D01*
X80754968Y-116484657D01*
X81191953Y-116312216D01*
X81529684Y-115985674D01*
X81716745Y-115554745D01*
X81724654Y-115514967D01*
X81655173Y-115327000D01*
X80567000Y-115327000D01*
X80513000Y-115327000D01*
X79424827Y-115327000D01*
X79355346Y-115514967D01*
X79129769Y-115514967D01*
X79172529Y-115300000D01*
X79129770Y-115085033D01*
X79355346Y-115085033D01*
X79424827Y-115273000D01*
X80513000Y-115273000D01*
X80513000Y-114184800D01*
X80567000Y-114184800D01*
X80567000Y-115273000D01*
X81655173Y-115273000D01*
X81724654Y-115085033D01*
X81716745Y-115045255D01*
X81529684Y-114614326D01*
X81191953Y-114287784D01*
X80754968Y-114115343D01*
X80567000Y-114184800D01*
X80513000Y-114184800D01*
X80325032Y-114115343D01*
X79888047Y-114287784D01*
X79550316Y-114614326D01*
X79363255Y-115045255D01*
X79355346Y-115085033D01*
X79129770Y-115085033D01*
X79083276Y-114851293D01*
X78829103Y-114470897D01*
X78448707Y-114216724D01*
X78113261Y-114150000D01*
X77886739Y-114150000D01*
X77551293Y-114216724D01*
X77170897Y-114470897D01*
X76916724Y-114851293D01*
X76827471Y-115300000D01*
X76375000Y-115300000D01*
X76375000Y-112760000D01*
X76827471Y-112760000D01*
X76916724Y-113208707D01*
X77170897Y-113589103D01*
X77551293Y-113843276D01*
X77886739Y-113910000D01*
X78113261Y-113910000D01*
X78448707Y-113843276D01*
X78829103Y-113589103D01*
X79083276Y-113208707D01*
X79172529Y-112760000D01*
X79367471Y-112760000D01*
X79456724Y-113208707D01*
X79710897Y-113589103D01*
X80091293Y-113843276D01*
X80426739Y-113910000D01*
X80653261Y-113910000D01*
X80988707Y-113843276D01*
X81060102Y-113795571D01*
X89975000Y-113795571D01*
X89975000Y-114004429D01*
X90054927Y-114197388D01*
X90202612Y-114345073D01*
X90395571Y-114425000D01*
X90604429Y-114425000D01*
X90797388Y-114345073D01*
X90945073Y-114197388D01*
X91025000Y-114004429D01*
X91025000Y-113895571D01*
X93875000Y-113895571D01*
X93875000Y-114104429D01*
X93954927Y-114297388D01*
X94102612Y-114445073D01*
X94295571Y-114525000D01*
X94504429Y-114525000D01*
X94697388Y-114445073D01*
X94845073Y-114297388D01*
X94925000Y-114104429D01*
X94925000Y-114100000D01*
X102744123Y-114100000D01*
X102744123Y-115100000D01*
X102767407Y-115217054D01*
X102833712Y-115316288D01*
X102932946Y-115382593D01*
X103050000Y-115405877D01*
X104050000Y-115405877D01*
X104167054Y-115382593D01*
X104266288Y-115316288D01*
X104323621Y-115230481D01*
X104507856Y-115353583D01*
X104741211Y-115400000D01*
X104898789Y-115400000D01*
X105132144Y-115353583D01*
X105396767Y-115176767D01*
X105455000Y-115089615D01*
X105513233Y-115176767D01*
X105777856Y-115353583D01*
X106011211Y-115400000D01*
X106168789Y-115400000D01*
X106402144Y-115353583D01*
X106666767Y-115176767D01*
X106701394Y-115124943D01*
X106880124Y-115306428D01*
X107186991Y-115436295D01*
X107199804Y-115438840D01*
X107333000Y-115365024D01*
X107333000Y-114627000D01*
X107387000Y-114627000D01*
X107387000Y-115365024D01*
X107520196Y-115438840D01*
X107533009Y-115436295D01*
X107839876Y-115306428D01*
X107846206Y-115300000D01*
X109827471Y-115300000D01*
X109916724Y-115748707D01*
X110170897Y-116129103D01*
X110551293Y-116383276D01*
X110886739Y-116450000D01*
X111113261Y-116450000D01*
X111448707Y-116383276D01*
X111829103Y-116129103D01*
X112083276Y-115748707D01*
X112129769Y-115514967D01*
X112355346Y-115514967D01*
X112363255Y-115554745D01*
X112550316Y-115985674D01*
X112888047Y-116312216D01*
X113325032Y-116484657D01*
X113513000Y-116415200D01*
X113513000Y-115327000D01*
X113567000Y-115327000D01*
X113567000Y-116415200D01*
X113754968Y-116484657D01*
X114191953Y-116312216D01*
X114529684Y-115985674D01*
X114716745Y-115554745D01*
X114724654Y-115514967D01*
X114655173Y-115327000D01*
X113567000Y-115327000D01*
X113513000Y-115327000D01*
X112424827Y-115327000D01*
X112355346Y-115514967D01*
X112129769Y-115514967D01*
X112172529Y-115300000D01*
X112129770Y-115085033D01*
X112355346Y-115085033D01*
X112424827Y-115273000D01*
X113513000Y-115273000D01*
X113513000Y-114184800D01*
X113567000Y-114184800D01*
X113567000Y-115273000D01*
X114655173Y-115273000D01*
X114724654Y-115085033D01*
X114716745Y-115045255D01*
X114529684Y-114614326D01*
X114191953Y-114287784D01*
X113754968Y-114115343D01*
X113567000Y-114184800D01*
X113513000Y-114184800D01*
X113325032Y-114115343D01*
X112888047Y-114287784D01*
X112550316Y-114614326D01*
X112363255Y-115045255D01*
X112355346Y-115085033D01*
X112129770Y-115085033D01*
X112083276Y-114851293D01*
X111829103Y-114470897D01*
X111448707Y-114216724D01*
X111113261Y-114150000D01*
X110886739Y-114150000D01*
X110551293Y-114216724D01*
X110170897Y-114470897D01*
X109916724Y-114851293D01*
X109827471Y-115300000D01*
X107846206Y-115300000D01*
X108073686Y-115069014D01*
X108198844Y-114760196D01*
X108125077Y-114627000D01*
X107387000Y-114627000D01*
X107333000Y-114627000D01*
X107313000Y-114627000D01*
X107313000Y-114573000D01*
X107333000Y-114573000D01*
X107333000Y-113834976D01*
X107387000Y-113834976D01*
X107387000Y-114573000D01*
X108125077Y-114573000D01*
X108198844Y-114439804D01*
X108073686Y-114130986D01*
X107839876Y-113893572D01*
X107533009Y-113763705D01*
X107520196Y-113761160D01*
X107387000Y-113834976D01*
X107333000Y-113834976D01*
X107199804Y-113761160D01*
X107186991Y-113763705D01*
X106880124Y-113893572D01*
X106701394Y-114075057D01*
X106666767Y-114023233D01*
X106402144Y-113846417D01*
X106168789Y-113800000D01*
X106011211Y-113800000D01*
X105777856Y-113846417D01*
X105513233Y-114023233D01*
X105455000Y-114110385D01*
X105396767Y-114023233D01*
X105132144Y-113846417D01*
X104898789Y-113800000D01*
X104741211Y-113800000D01*
X104507856Y-113846417D01*
X104323621Y-113969519D01*
X104266288Y-113883712D01*
X104167054Y-113817407D01*
X104050000Y-113794123D01*
X103050000Y-113794123D01*
X102932946Y-113817407D01*
X102833712Y-113883712D01*
X102767407Y-113982946D01*
X102744123Y-114100000D01*
X94925000Y-114100000D01*
X94925000Y-113895571D01*
X94845073Y-113702612D01*
X94697388Y-113554927D01*
X94504429Y-113475000D01*
X94295571Y-113475000D01*
X94102612Y-113554927D01*
X93954927Y-113702612D01*
X93875000Y-113895571D01*
X91025000Y-113895571D01*
X91025000Y-113795571D01*
X90945073Y-113602612D01*
X90844450Y-113501989D01*
X90844450Y-112992675D01*
X91896255Y-111940870D01*
X92100000Y-111940870D01*
X92100000Y-112259130D01*
X92221793Y-112553164D01*
X92401126Y-112732497D01*
X92375000Y-112795571D01*
X92375000Y-113004429D01*
X92454927Y-113197388D01*
X92602612Y-113345073D01*
X92795571Y-113425000D01*
X93004429Y-113425000D01*
X93197388Y-113345073D01*
X93345073Y-113197388D01*
X93425000Y-113004429D01*
X93425000Y-112795571D01*
X93398874Y-112732497D01*
X93578207Y-112553164D01*
X93700000Y-112259130D01*
X93700000Y-111940870D01*
X93578207Y-111646836D01*
X93353164Y-111421793D01*
X93059130Y-111300000D01*
X92740870Y-111300000D01*
X92446836Y-111421793D01*
X92221793Y-111646836D01*
X92100000Y-111940870D01*
X91896255Y-111940870D01*
X93292676Y-110544450D01*
X93801989Y-110544450D01*
X93902612Y-110645073D01*
X94095571Y-110725000D01*
X94304429Y-110725000D01*
X94497388Y-110645073D01*
X94645073Y-110497388D01*
X94725000Y-110304429D01*
X94725000Y-110095571D01*
X94645073Y-109902612D01*
X94497388Y-109754927D01*
X94304429Y-109675000D01*
X94095571Y-109675000D01*
X93902612Y-109754927D01*
X93801989Y-109855550D01*
X93183921Y-109855550D01*
X93150000Y-109848803D01*
X93116079Y-109855550D01*
X93116075Y-109855550D01*
X93015602Y-109875535D01*
X92930425Y-109932449D01*
X92930424Y-109932450D01*
X92901666Y-109951666D01*
X92882450Y-109980424D01*
X90280424Y-112582451D01*
X90251666Y-112601667D01*
X90175535Y-112715603D01*
X90155550Y-112816076D01*
X90155550Y-112816079D01*
X90148803Y-112850000D01*
X90155550Y-112883921D01*
X90155551Y-113501988D01*
X90054927Y-113602612D01*
X89975000Y-113795571D01*
X81060102Y-113795571D01*
X81369103Y-113589103D01*
X81623276Y-113208707D01*
X81712529Y-112760000D01*
X81623276Y-112311293D01*
X81369103Y-111930897D01*
X80988707Y-111676724D01*
X80653261Y-111610000D01*
X80426739Y-111610000D01*
X80091293Y-111676724D01*
X79710897Y-111930897D01*
X79456724Y-112311293D01*
X79367471Y-112760000D01*
X79172529Y-112760000D01*
X79083276Y-112311293D01*
X78829103Y-111930897D01*
X78448707Y-111676724D01*
X78113261Y-111610000D01*
X77886739Y-111610000D01*
X77551293Y-111676724D01*
X77170897Y-111930897D01*
X76916724Y-112311293D01*
X76827471Y-112760000D01*
X76375000Y-112760000D01*
X76375000Y-110220000D01*
X76827471Y-110220000D01*
X76916724Y-110668707D01*
X77170897Y-111049103D01*
X77551293Y-111303276D01*
X77886739Y-111370000D01*
X78113261Y-111370000D01*
X78448707Y-111303276D01*
X78829103Y-111049103D01*
X79083276Y-110668707D01*
X79172529Y-110220000D01*
X79367471Y-110220000D01*
X79456724Y-110668707D01*
X79710897Y-111049103D01*
X80091293Y-111303276D01*
X80426739Y-111370000D01*
X80653261Y-111370000D01*
X80988707Y-111303276D01*
X81369103Y-111049103D01*
X81623276Y-110668707D01*
X81712529Y-110220000D01*
X81623276Y-109771293D01*
X81606090Y-109745571D01*
X90980000Y-109745571D01*
X90980000Y-109954429D01*
X91059927Y-110147388D01*
X91207612Y-110295073D01*
X91400571Y-110375000D01*
X91609429Y-110375000D01*
X91802388Y-110295073D01*
X91950073Y-110147388D01*
X92030000Y-109954429D01*
X92030000Y-109757125D01*
X92032156Y-109754969D01*
X92140870Y-109800000D01*
X92459130Y-109800000D01*
X92753164Y-109678207D01*
X92978207Y-109453164D01*
X93100000Y-109159130D01*
X93100000Y-108840870D01*
X92978207Y-108546836D01*
X92753164Y-108321793D01*
X92459130Y-108200000D01*
X92140870Y-108200000D01*
X91846836Y-108321793D01*
X91621793Y-108546836D01*
X91500000Y-108840870D01*
X91500000Y-109159130D01*
X91545031Y-109267844D01*
X91487875Y-109325000D01*
X91400571Y-109325000D01*
X91207612Y-109404927D01*
X91059927Y-109552612D01*
X90980000Y-109745571D01*
X81606090Y-109745571D01*
X81369103Y-109390897D01*
X80988707Y-109136724D01*
X80653261Y-109070000D01*
X80426739Y-109070000D01*
X80091293Y-109136724D01*
X79710897Y-109390897D01*
X79456724Y-109771293D01*
X79367471Y-110220000D01*
X79172529Y-110220000D01*
X79083276Y-109771293D01*
X78829103Y-109390897D01*
X78448707Y-109136724D01*
X78113261Y-109070000D01*
X77886739Y-109070000D01*
X77551293Y-109136724D01*
X77170897Y-109390897D01*
X76916724Y-109771293D01*
X76827471Y-110220000D01*
X76375000Y-110220000D01*
X76375000Y-107680000D01*
X76827471Y-107680000D01*
X76916724Y-108128707D01*
X77170897Y-108509103D01*
X77551293Y-108763276D01*
X77886739Y-108830000D01*
X78113261Y-108830000D01*
X78448707Y-108763276D01*
X78829103Y-108509103D01*
X79083276Y-108128707D01*
X79172529Y-107680000D01*
X79367471Y-107680000D01*
X79456724Y-108128707D01*
X79710897Y-108509103D01*
X80091293Y-108763276D01*
X80426739Y-108830000D01*
X80653261Y-108830000D01*
X80988707Y-108763276D01*
X81369103Y-108509103D01*
X81623276Y-108128707D01*
X81700421Y-107740870D01*
X94200000Y-107740870D01*
X94200000Y-108059130D01*
X94321793Y-108353164D01*
X94546836Y-108578207D01*
X94655551Y-108623238D01*
X94655551Y-108801988D01*
X94554927Y-108902612D01*
X94475000Y-109095571D01*
X94475000Y-109304429D01*
X94554927Y-109497388D01*
X94702612Y-109645073D01*
X94895571Y-109725000D01*
X95104429Y-109725000D01*
X95297388Y-109645073D01*
X95445073Y-109497388D01*
X95525000Y-109304429D01*
X95525000Y-109095571D01*
X95502342Y-109040870D01*
X97300000Y-109040870D01*
X97300000Y-109359130D01*
X97421793Y-109653164D01*
X97646836Y-109878207D01*
X97755551Y-109923238D01*
X97755551Y-109956988D01*
X97659927Y-110052612D01*
X97580000Y-110245571D01*
X97580000Y-110454429D01*
X97659927Y-110647388D01*
X97807612Y-110795073D01*
X98000571Y-110875000D01*
X98209429Y-110875000D01*
X98402388Y-110795073D01*
X98550073Y-110647388D01*
X98630000Y-110454429D01*
X98630000Y-110245571D01*
X98550073Y-110052612D01*
X98444450Y-109946989D01*
X98444450Y-109923238D01*
X98553164Y-109878207D01*
X98778207Y-109653164D01*
X98900000Y-109359130D01*
X98900000Y-109040870D01*
X98778207Y-108746836D01*
X98553164Y-108521793D01*
X98259130Y-108400000D01*
X97940870Y-108400000D01*
X97646836Y-108521793D01*
X97421793Y-108746836D01*
X97300000Y-109040870D01*
X95502342Y-109040870D01*
X95445073Y-108902612D01*
X95344450Y-108801989D01*
X95344450Y-108623238D01*
X95453164Y-108578207D01*
X95678207Y-108353164D01*
X95800000Y-108059130D01*
X95800000Y-107740870D01*
X95678207Y-107446836D01*
X95453164Y-107221793D01*
X95159130Y-107100000D01*
X94840870Y-107100000D01*
X94546836Y-107221793D01*
X94321793Y-107446836D01*
X94200000Y-107740870D01*
X81700421Y-107740870D01*
X81712529Y-107680000D01*
X81623276Y-107231293D01*
X81369103Y-106850897D01*
X80988707Y-106596724D01*
X80653261Y-106530000D01*
X80426739Y-106530000D01*
X80091293Y-106596724D01*
X79710897Y-106850897D01*
X79456724Y-107231293D01*
X79367471Y-107680000D01*
X79172529Y-107680000D01*
X79083276Y-107231293D01*
X78829103Y-106850897D01*
X78448707Y-106596724D01*
X78113261Y-106530000D01*
X77886739Y-106530000D01*
X77551293Y-106596724D01*
X77170897Y-106850897D01*
X76916724Y-107231293D01*
X76827471Y-107680000D01*
X76375000Y-107680000D01*
X76375000Y-105140000D01*
X76827471Y-105140000D01*
X76916724Y-105588707D01*
X77170897Y-105969103D01*
X77551293Y-106223276D01*
X77886739Y-106290000D01*
X78113261Y-106290000D01*
X78448707Y-106223276D01*
X78829103Y-105969103D01*
X79083276Y-105588707D01*
X79172529Y-105140000D01*
X79367471Y-105140000D01*
X79456724Y-105588707D01*
X79710897Y-105969103D01*
X80091293Y-106223276D01*
X80426739Y-106290000D01*
X80653261Y-106290000D01*
X80988707Y-106223276D01*
X81369103Y-105969103D01*
X81623276Y-105588707D01*
X81712529Y-105140000D01*
X81672920Y-104940870D01*
X93000000Y-104940870D01*
X93000000Y-105259130D01*
X93121793Y-105553164D01*
X93346836Y-105778207D01*
X93455551Y-105823238D01*
X93455551Y-105951988D01*
X93354927Y-106052612D01*
X93275000Y-106245571D01*
X93275000Y-106454429D01*
X93354927Y-106647388D01*
X93502612Y-106795073D01*
X93695571Y-106875000D01*
X93904429Y-106875000D01*
X94097388Y-106795073D01*
X94245073Y-106647388D01*
X94325000Y-106454429D01*
X94325000Y-106245571D01*
X94245073Y-106052612D01*
X94144450Y-105951989D01*
X94144450Y-105823238D01*
X94253164Y-105778207D01*
X94478207Y-105553164D01*
X94600000Y-105259130D01*
X94600000Y-104940870D01*
X94478207Y-104646836D01*
X94253164Y-104421793D01*
X93959130Y-104300000D01*
X93640870Y-104300000D01*
X93346836Y-104421793D01*
X93121793Y-104646836D01*
X93000000Y-104940870D01*
X81672920Y-104940870D01*
X81623276Y-104691293D01*
X81369103Y-104310897D01*
X80988707Y-104056724D01*
X80653261Y-103990000D01*
X80426739Y-103990000D01*
X80091293Y-104056724D01*
X79710897Y-104310897D01*
X79456724Y-104691293D01*
X79367471Y-105140000D01*
X79172529Y-105140000D01*
X79083276Y-104691293D01*
X78829103Y-104310897D01*
X78448707Y-104056724D01*
X78113261Y-103990000D01*
X77886739Y-103990000D01*
X77551293Y-104056724D01*
X77170897Y-104310897D01*
X76916724Y-104691293D01*
X76827471Y-105140000D01*
X76375000Y-105140000D01*
X76375000Y-102600000D01*
X76827471Y-102600000D01*
X76916724Y-103048707D01*
X77170897Y-103429103D01*
X77551293Y-103683276D01*
X77886739Y-103750000D01*
X78113261Y-103750000D01*
X78448707Y-103683276D01*
X78829103Y-103429103D01*
X79083276Y-103048707D01*
X79172529Y-102600000D01*
X79367471Y-102600000D01*
X79456724Y-103048707D01*
X79710897Y-103429103D01*
X80091293Y-103683276D01*
X80426739Y-103750000D01*
X80653261Y-103750000D01*
X80988707Y-103683276D01*
X81369103Y-103429103D01*
X81623276Y-103048707D01*
X81712529Y-102600000D01*
X81623276Y-102151293D01*
X81369103Y-101770897D01*
X80988707Y-101516724D01*
X80653261Y-101450000D01*
X80426739Y-101450000D01*
X80091293Y-101516724D01*
X79710897Y-101770897D01*
X79456724Y-102151293D01*
X79367471Y-102600000D01*
X79172529Y-102600000D01*
X79083276Y-102151293D01*
X78829103Y-101770897D01*
X78448707Y-101516724D01*
X78113261Y-101450000D01*
X77886739Y-101450000D01*
X77551293Y-101516724D01*
X77170897Y-101770897D01*
X76916724Y-102151293D01*
X76827471Y-102600000D01*
X76375000Y-102600000D01*
X76375000Y-100060000D01*
X76827471Y-100060000D01*
X76916724Y-100508707D01*
X77170897Y-100889103D01*
X77551293Y-101143276D01*
X77886739Y-101210000D01*
X78113261Y-101210000D01*
X78448707Y-101143276D01*
X78829103Y-100889103D01*
X79083276Y-100508707D01*
X79172529Y-100060000D01*
X79367471Y-100060000D01*
X79456724Y-100508707D01*
X79710897Y-100889103D01*
X80091293Y-101143276D01*
X80426739Y-101210000D01*
X80653261Y-101210000D01*
X80988707Y-101143276D01*
X81369103Y-100889103D01*
X81623276Y-100508707D01*
X81712529Y-100060000D01*
X81623276Y-99611293D01*
X81369103Y-99230897D01*
X80988707Y-98976724D01*
X80653261Y-98910000D01*
X80426739Y-98910000D01*
X80091293Y-98976724D01*
X79710897Y-99230897D01*
X79456724Y-99611293D01*
X79367471Y-100060000D01*
X79172529Y-100060000D01*
X79083276Y-99611293D01*
X78829103Y-99230897D01*
X78448707Y-98976724D01*
X78113261Y-98910000D01*
X77886739Y-98910000D01*
X77551293Y-98976724D01*
X77170897Y-99230897D01*
X76916724Y-99611293D01*
X76827471Y-100060000D01*
X76375000Y-100060000D01*
X76375000Y-97520000D01*
X76827471Y-97520000D01*
X76916724Y-97968707D01*
X77170897Y-98349103D01*
X77551293Y-98603276D01*
X77886739Y-98670000D01*
X78113261Y-98670000D01*
X78448707Y-98603276D01*
X78829103Y-98349103D01*
X79083276Y-97968707D01*
X79172529Y-97520000D01*
X79367471Y-97520000D01*
X79456724Y-97968707D01*
X79710897Y-98349103D01*
X80091293Y-98603276D01*
X80426739Y-98670000D01*
X80653261Y-98670000D01*
X80988707Y-98603276D01*
X81369103Y-98349103D01*
X81623276Y-97968707D01*
X81712529Y-97520000D01*
X81623276Y-97071293D01*
X81369103Y-96690897D01*
X80988707Y-96436724D01*
X80653261Y-96370000D01*
X80426739Y-96370000D01*
X80091293Y-96436724D01*
X79710897Y-96690897D01*
X79456724Y-97071293D01*
X79367471Y-97520000D01*
X79172529Y-97520000D01*
X79083276Y-97071293D01*
X78829103Y-96690897D01*
X78448707Y-96436724D01*
X78113261Y-96370000D01*
X77886739Y-96370000D01*
X77551293Y-96436724D01*
X77170897Y-96690897D01*
X76916724Y-97071293D01*
X76827471Y-97520000D01*
X76375000Y-97520000D01*
X76375000Y-94980000D01*
X76827471Y-94980000D01*
X76916724Y-95428707D01*
X77170897Y-95809103D01*
X77551293Y-96063276D01*
X77886739Y-96130000D01*
X78113261Y-96130000D01*
X78448707Y-96063276D01*
X78829103Y-95809103D01*
X79083276Y-95428707D01*
X79172529Y-94980000D01*
X79367471Y-94980000D01*
X79456724Y-95428707D01*
X79710897Y-95809103D01*
X80091293Y-96063276D01*
X80426739Y-96130000D01*
X80653261Y-96130000D01*
X80988707Y-96063276D01*
X81369103Y-95809103D01*
X81623276Y-95428707D01*
X81645794Y-95315500D01*
X90621000Y-95315500D01*
X90621000Y-95745415D01*
X90674893Y-95875525D01*
X90774475Y-95975107D01*
X90904585Y-96029000D01*
X91297000Y-96029000D01*
X91385500Y-95940500D01*
X91385500Y-95227000D01*
X91439500Y-95227000D01*
X91439500Y-95940500D01*
X91528000Y-96029000D01*
X91920415Y-96029000D01*
X92050525Y-95975107D01*
X92150107Y-95875525D01*
X92204000Y-95745415D01*
X92204000Y-95315500D01*
X92115500Y-95227000D01*
X91439500Y-95227000D01*
X91385500Y-95227000D01*
X90709500Y-95227000D01*
X90621000Y-95315500D01*
X81645794Y-95315500D01*
X81712529Y-94980000D01*
X81647801Y-94654585D01*
X90621000Y-94654585D01*
X90621000Y-95084500D01*
X90709500Y-95173000D01*
X91385500Y-95173000D01*
X91385500Y-94459500D01*
X91439500Y-94459500D01*
X91439500Y-95173000D01*
X92115500Y-95173000D01*
X92204000Y-95084500D01*
X92204000Y-94654585D01*
X92150107Y-94524475D01*
X92050525Y-94424893D01*
X91920415Y-94371000D01*
X91528000Y-94371000D01*
X91439500Y-94459500D01*
X91385500Y-94459500D01*
X91297000Y-94371000D01*
X90904585Y-94371000D01*
X90774475Y-94424893D01*
X90674893Y-94524475D01*
X90621000Y-94654585D01*
X81647801Y-94654585D01*
X81623276Y-94531293D01*
X81369103Y-94150897D01*
X80988707Y-93896724D01*
X80653261Y-93830000D01*
X80426739Y-93830000D01*
X80091293Y-93896724D01*
X79710897Y-94150897D01*
X79456724Y-94531293D01*
X79367471Y-94980000D01*
X79172529Y-94980000D01*
X79083276Y-94531293D01*
X78829103Y-94150897D01*
X78448707Y-93896724D01*
X78113261Y-93830000D01*
X77886739Y-93830000D01*
X77551293Y-93896724D01*
X77170897Y-94150897D01*
X76916724Y-94531293D01*
X76827471Y-94980000D01*
X76375000Y-94980000D01*
X76375000Y-92440000D01*
X76827471Y-92440000D01*
X76916724Y-92888707D01*
X77170897Y-93269103D01*
X77551293Y-93523276D01*
X77886739Y-93590000D01*
X78113261Y-93590000D01*
X78448707Y-93523276D01*
X78829103Y-93269103D01*
X79083276Y-92888707D01*
X79172529Y-92440000D01*
X79367471Y-92440000D01*
X79456724Y-92888707D01*
X79710897Y-93269103D01*
X80091293Y-93523276D01*
X80426739Y-93590000D01*
X80653261Y-93590000D01*
X80988707Y-93523276D01*
X81369103Y-93269103D01*
X81623276Y-92888707D01*
X81712529Y-92440000D01*
X81644019Y-92095571D01*
X88075000Y-92095571D01*
X88075000Y-92304429D01*
X88154927Y-92497388D01*
X88302612Y-92645073D01*
X88495571Y-92725000D01*
X88704429Y-92725000D01*
X88897388Y-92645073D01*
X89045073Y-92497388D01*
X89125000Y-92304429D01*
X89125000Y-92095571D01*
X89045073Y-91902612D01*
X88897388Y-91754927D01*
X88704429Y-91675000D01*
X88495571Y-91675000D01*
X88302612Y-91754927D01*
X88154927Y-91902612D01*
X88075000Y-92095571D01*
X81644019Y-92095571D01*
X81623276Y-91991293D01*
X81369103Y-91610897D01*
X80988707Y-91356724D01*
X80653261Y-91290000D01*
X80426739Y-91290000D01*
X80091293Y-91356724D01*
X79710897Y-91610897D01*
X79456724Y-91991293D01*
X79367471Y-92440000D01*
X79172529Y-92440000D01*
X79083276Y-91991293D01*
X78829103Y-91610897D01*
X78448707Y-91356724D01*
X78113261Y-91290000D01*
X77886739Y-91290000D01*
X77551293Y-91356724D01*
X77170897Y-91610897D01*
X76916724Y-91991293D01*
X76827471Y-92440000D01*
X76375000Y-92440000D01*
X76375000Y-89900000D01*
X76827471Y-89900000D01*
X76916724Y-90348707D01*
X77170897Y-90729103D01*
X77551293Y-90983276D01*
X77886739Y-91050000D01*
X78113261Y-91050000D01*
X78448707Y-90983276D01*
X78829103Y-90729103D01*
X79083276Y-90348707D01*
X79172529Y-89900000D01*
X79367471Y-89900000D01*
X79456724Y-90348707D01*
X79710897Y-90729103D01*
X80091293Y-90983276D01*
X80426739Y-91050000D01*
X80653261Y-91050000D01*
X80988707Y-90983276D01*
X81369103Y-90729103D01*
X81623276Y-90348707D01*
X81712529Y-89900000D01*
X81623276Y-89451293D01*
X81609848Y-89431196D01*
X87950000Y-89431196D01*
X87950000Y-89868804D01*
X88117465Y-90273100D01*
X88426900Y-90582535D01*
X88831196Y-90750000D01*
X89268804Y-90750000D01*
X89673100Y-90582535D01*
X89982535Y-90273100D01*
X90150000Y-89868804D01*
X90150000Y-89431196D01*
X90095657Y-89300000D01*
X91748803Y-89300000D01*
X91755551Y-89333926D01*
X91755550Y-92866079D01*
X91748803Y-92900000D01*
X91755550Y-92933921D01*
X91755550Y-92933924D01*
X91774163Y-93027500D01*
X91775535Y-93034397D01*
X91821116Y-93102612D01*
X91851666Y-93148333D01*
X91880424Y-93167549D01*
X92075000Y-93362125D01*
X92075000Y-93504429D01*
X92154927Y-93697388D01*
X92302612Y-93845073D01*
X92495571Y-93925000D01*
X92704429Y-93925000D01*
X92897388Y-93845073D01*
X93000000Y-93742461D01*
X93057539Y-93800000D01*
X92954927Y-93902612D01*
X92875000Y-94095571D01*
X92875000Y-94304429D01*
X92922508Y-94419123D01*
X92768750Y-94419123D01*
X92567984Y-94459058D01*
X92397783Y-94572783D01*
X92284058Y-94742984D01*
X92244123Y-94943750D01*
X92244123Y-95456250D01*
X92284058Y-95657016D01*
X92397783Y-95827217D01*
X92567984Y-95940942D01*
X92768750Y-95980877D01*
X93206250Y-95980877D01*
X93407016Y-95940942D01*
X93577217Y-95827217D01*
X93690942Y-95657016D01*
X93713333Y-95544450D01*
X93744992Y-95544450D01*
X93679931Y-95701520D01*
X93679931Y-95910378D01*
X93759858Y-96103337D01*
X93907543Y-96251022D01*
X94100502Y-96330949D01*
X94242806Y-96330949D01*
X94331430Y-96419573D01*
X94350648Y-96448334D01*
X94464584Y-96524465D01*
X94474058Y-96526349D01*
X94474058Y-96655550D01*
X93942676Y-96655550D01*
X93925000Y-96637874D01*
X93925000Y-96495571D01*
X93845073Y-96302612D01*
X93697388Y-96154927D01*
X93504429Y-96075000D01*
X93295571Y-96075000D01*
X93102612Y-96154927D01*
X93000000Y-96257539D01*
X92897388Y-96154927D01*
X92704429Y-96075000D01*
X92495571Y-96075000D01*
X92302612Y-96154927D01*
X92154927Y-96302612D01*
X92075000Y-96495571D01*
X92075000Y-96704429D01*
X92154927Y-96897388D01*
X92257539Y-97000000D01*
X92154927Y-97102612D01*
X92075000Y-97295571D01*
X92075000Y-97504429D01*
X92154927Y-97697388D01*
X92255550Y-97798011D01*
X92255551Y-101366074D01*
X92248803Y-101400000D01*
X92275535Y-101534397D01*
X92332449Y-101619574D01*
X92332451Y-101619576D01*
X92351667Y-101648334D01*
X92380424Y-101667549D01*
X103692450Y-112979576D01*
X103711666Y-113008334D01*
X103740424Y-113027550D01*
X103740425Y-113027551D01*
X103825602Y-113084465D01*
X103926075Y-113104450D01*
X103926078Y-113104450D01*
X103959999Y-113111197D01*
X103993920Y-113104450D01*
X109895986Y-113104450D01*
X109916724Y-113208707D01*
X110170897Y-113589103D01*
X110551293Y-113843276D01*
X110886739Y-113910000D01*
X111113261Y-113910000D01*
X111448707Y-113843276D01*
X111829103Y-113589103D01*
X112083276Y-113208707D01*
X112172529Y-112760000D01*
X112083276Y-112311293D01*
X111829103Y-111930897D01*
X111699726Y-111844450D01*
X112137325Y-111844450D01*
X112470426Y-112177552D01*
X112470429Y-112177554D01*
X112515782Y-112222907D01*
X112456724Y-112311293D01*
X112367471Y-112760000D01*
X112456724Y-113208707D01*
X112710897Y-113589103D01*
X113091293Y-113843276D01*
X113426739Y-113910000D01*
X113653261Y-113910000D01*
X113988707Y-113843276D01*
X114369103Y-113589103D01*
X114623276Y-113208707D01*
X114712529Y-112760000D01*
X114623276Y-112311293D01*
X114369103Y-111930897D01*
X113988707Y-111676724D01*
X113653261Y-111610000D01*
X113426739Y-111610000D01*
X113091293Y-111676724D01*
X113002907Y-111735782D01*
X112957554Y-111690429D01*
X112957552Y-111690426D01*
X112547551Y-111280426D01*
X112528334Y-111251666D01*
X112414398Y-111175535D01*
X112313925Y-111155550D01*
X112313921Y-111155550D01*
X112280000Y-111148803D01*
X112246079Y-111155550D01*
X111669794Y-111155550D01*
X111829103Y-111049103D01*
X112083276Y-110668707D01*
X112172529Y-110220000D01*
X112083276Y-109771293D01*
X111956192Y-109581099D01*
X112413974Y-109581099D01*
X112515782Y-109682907D01*
X112456724Y-109771293D01*
X112367471Y-110220000D01*
X112456724Y-110668707D01*
X112710897Y-111049103D01*
X113091293Y-111303276D01*
X113426739Y-111370000D01*
X113653261Y-111370000D01*
X113988707Y-111303276D01*
X114369103Y-111049103D01*
X114623276Y-110668707D01*
X114712529Y-110220000D01*
X114623276Y-109771293D01*
X114369103Y-109390897D01*
X113988707Y-109136724D01*
X113653261Y-109070000D01*
X113426739Y-109070000D01*
X113091293Y-109136724D01*
X113002907Y-109195782D01*
X112824201Y-109017076D01*
X112804983Y-108988315D01*
X112691047Y-108912184D01*
X112590574Y-108892199D01*
X112590570Y-108892199D01*
X112556649Y-108885452D01*
X112522728Y-108892199D01*
X111279325Y-108892199D01*
X111199894Y-108812768D01*
X111448707Y-108763276D01*
X111829103Y-108509103D01*
X112083276Y-108128707D01*
X112172529Y-107680000D01*
X112367471Y-107680000D01*
X112456724Y-108128707D01*
X112710897Y-108509103D01*
X113091293Y-108763276D01*
X113426739Y-108830000D01*
X113653261Y-108830000D01*
X113988707Y-108763276D01*
X114369103Y-108509103D01*
X114623276Y-108128707D01*
X114712529Y-107680000D01*
X114623276Y-107231293D01*
X114369103Y-106850897D01*
X113988707Y-106596724D01*
X113653261Y-106530000D01*
X113426739Y-106530000D01*
X113091293Y-106596724D01*
X112710897Y-106850897D01*
X112456724Y-107231293D01*
X112367471Y-107680000D01*
X112172529Y-107680000D01*
X112083276Y-107231293D01*
X111829103Y-106850897D01*
X111448707Y-106596724D01*
X111113261Y-106530000D01*
X110886739Y-106530000D01*
X110551293Y-106596724D01*
X110170897Y-106850897D01*
X109916724Y-107231293D01*
X109867232Y-107480106D01*
X107527126Y-105140000D01*
X109827471Y-105140000D01*
X109916724Y-105588707D01*
X110170897Y-105969103D01*
X110551293Y-106223276D01*
X110886739Y-106290000D01*
X111113261Y-106290000D01*
X111448707Y-106223276D01*
X111829103Y-105969103D01*
X112083276Y-105588707D01*
X112172529Y-105140000D01*
X112367471Y-105140000D01*
X112456724Y-105588707D01*
X112710897Y-105969103D01*
X113091293Y-106223276D01*
X113426739Y-106290000D01*
X113653261Y-106290000D01*
X113988707Y-106223276D01*
X114369103Y-105969103D01*
X114623276Y-105588707D01*
X114712529Y-105140000D01*
X114623276Y-104691293D01*
X114369103Y-104310897D01*
X113988707Y-104056724D01*
X113653261Y-103990000D01*
X113426739Y-103990000D01*
X113091293Y-104056724D01*
X112710897Y-104310897D01*
X112456724Y-104691293D01*
X112367471Y-105140000D01*
X112172529Y-105140000D01*
X112083276Y-104691293D01*
X111829103Y-104310897D01*
X111448707Y-104056724D01*
X111113261Y-103990000D01*
X110886739Y-103990000D01*
X110551293Y-104056724D01*
X110170897Y-104310897D01*
X109916724Y-104691293D01*
X109827471Y-105140000D01*
X107527126Y-105140000D01*
X104987126Y-102600000D01*
X109827471Y-102600000D01*
X109916724Y-103048707D01*
X110170897Y-103429103D01*
X110551293Y-103683276D01*
X110886739Y-103750000D01*
X111113261Y-103750000D01*
X111448707Y-103683276D01*
X111829103Y-103429103D01*
X112083276Y-103048707D01*
X112172529Y-102600000D01*
X112367471Y-102600000D01*
X112456724Y-103048707D01*
X112710897Y-103429103D01*
X113091293Y-103683276D01*
X113426739Y-103750000D01*
X113653261Y-103750000D01*
X113988707Y-103683276D01*
X114369103Y-103429103D01*
X114623276Y-103048707D01*
X114712529Y-102600000D01*
X114623276Y-102151293D01*
X114369103Y-101770897D01*
X113988707Y-101516724D01*
X113653261Y-101450000D01*
X113426739Y-101450000D01*
X113091293Y-101516724D01*
X112710897Y-101770897D01*
X112456724Y-102151293D01*
X112367471Y-102600000D01*
X112172529Y-102600000D01*
X112083276Y-102151293D01*
X111829103Y-101770897D01*
X111448707Y-101516724D01*
X111113261Y-101450000D01*
X110886739Y-101450000D01*
X110551293Y-101516724D01*
X110170897Y-101770897D01*
X109916724Y-102151293D01*
X109827471Y-102600000D01*
X104987126Y-102600000D01*
X103509871Y-101122746D01*
X103697388Y-101045073D01*
X103845073Y-100897388D01*
X103925000Y-100704429D01*
X103925000Y-100495571D01*
X103845073Y-100302612D01*
X103697388Y-100154927D01*
X103504429Y-100075000D01*
X103295571Y-100075000D01*
X103102612Y-100154927D01*
X102954927Y-100302612D01*
X102875000Y-100495571D01*
X102875000Y-100505550D01*
X100872533Y-100505550D01*
X100900000Y-100439239D01*
X100900000Y-100160761D01*
X100793432Y-99903482D01*
X100596518Y-99706568D01*
X100339239Y-99600000D01*
X100060761Y-99600000D01*
X99803482Y-99706568D01*
X99606568Y-99903482D01*
X99500000Y-100160761D01*
X99500000Y-100439239D01*
X99527467Y-100505550D01*
X98895082Y-100505550D01*
X98975107Y-100425525D01*
X99029000Y-100295415D01*
X99029000Y-99903000D01*
X98940500Y-99814500D01*
X98227000Y-99814500D01*
X98227000Y-99834500D01*
X98173000Y-99834500D01*
X98173000Y-99814500D01*
X97459500Y-99814500D01*
X97371000Y-99903000D01*
X97371000Y-100295415D01*
X97424893Y-100425525D01*
X97504918Y-100505550D01*
X96944450Y-100505550D01*
X96944450Y-99279585D01*
X97371000Y-99279585D01*
X97371000Y-99672000D01*
X97459500Y-99760500D01*
X98173000Y-99760500D01*
X98173000Y-99084500D01*
X98227000Y-99084500D01*
X98227000Y-99760500D01*
X98940500Y-99760500D01*
X99029000Y-99672000D01*
X99029000Y-99279585D01*
X98975107Y-99149475D01*
X98875525Y-99049893D01*
X98745415Y-98996000D01*
X98315500Y-98996000D01*
X98227000Y-99084500D01*
X98173000Y-99084500D01*
X98084500Y-98996000D01*
X97654585Y-98996000D01*
X97524475Y-99049893D01*
X97424893Y-99149475D01*
X97371000Y-99279585D01*
X96944450Y-99279585D01*
X96944450Y-97798011D01*
X97045073Y-97697388D01*
X97125000Y-97504429D01*
X97125000Y-97344450D01*
X98955015Y-97344450D01*
X98948634Y-97354000D01*
X98914123Y-97527500D01*
X98914123Y-97752847D01*
X98827217Y-97622783D01*
X98657016Y-97509058D01*
X98456250Y-97469123D01*
X97943750Y-97469123D01*
X97742984Y-97509058D01*
X97572783Y-97622783D01*
X97459058Y-97792984D01*
X97419123Y-97993750D01*
X97419123Y-98431250D01*
X97459058Y-98632016D01*
X97572783Y-98802217D01*
X97742984Y-98915942D01*
X97943750Y-98955877D01*
X98456250Y-98955877D01*
X98657016Y-98915942D01*
X98827217Y-98802217D01*
X98940942Y-98632016D01*
X98980877Y-98431250D01*
X98980877Y-98094255D01*
X99046914Y-98193086D01*
X99194000Y-98291366D01*
X99367500Y-98325877D01*
X99662500Y-98325877D01*
X99836000Y-98291366D01*
X99910772Y-98241404D01*
X99989475Y-98320107D01*
X100119585Y-98374000D01*
X100369500Y-98374000D01*
X100458000Y-98285500D01*
X100458000Y-97727000D01*
X100512000Y-97727000D01*
X100512000Y-98285500D01*
X100600500Y-98374000D01*
X100850415Y-98374000D01*
X100980525Y-98320107D01*
X101080107Y-98220525D01*
X101134000Y-98090415D01*
X101134000Y-97815500D01*
X101045500Y-97727000D01*
X100512000Y-97727000D01*
X100458000Y-97727000D01*
X100438000Y-97727000D01*
X100438000Y-97673000D01*
X100458000Y-97673000D01*
X100458000Y-97653000D01*
X100512000Y-97653000D01*
X100512000Y-97673000D01*
X101045500Y-97673000D01*
X101134000Y-97584500D01*
X101134000Y-97344450D01*
X107857325Y-97344450D01*
X109532450Y-99019576D01*
X109551666Y-99048334D01*
X109580424Y-99067550D01*
X109580425Y-99067551D01*
X109605791Y-99084500D01*
X109665602Y-99124465D01*
X109766075Y-99144450D01*
X109766079Y-99144450D01*
X109799999Y-99151197D01*
X109833919Y-99144450D01*
X110300274Y-99144450D01*
X110170897Y-99230897D01*
X109916724Y-99611293D01*
X109827471Y-100060000D01*
X109916724Y-100508707D01*
X110170897Y-100889103D01*
X110551293Y-101143276D01*
X110886739Y-101210000D01*
X111113261Y-101210000D01*
X111448707Y-101143276D01*
X111829103Y-100889103D01*
X112083276Y-100508707D01*
X112172529Y-100060000D01*
X112367471Y-100060000D01*
X112456724Y-100508707D01*
X112710897Y-100889103D01*
X113091293Y-101143276D01*
X113426739Y-101210000D01*
X113653261Y-101210000D01*
X113988707Y-101143276D01*
X114369103Y-100889103D01*
X114623276Y-100508707D01*
X114712529Y-100060000D01*
X114623276Y-99611293D01*
X114369103Y-99230897D01*
X113988707Y-98976724D01*
X113653261Y-98910000D01*
X113426739Y-98910000D01*
X113091293Y-98976724D01*
X112710897Y-99230897D01*
X112456724Y-99611293D01*
X112367471Y-100060000D01*
X112172529Y-100060000D01*
X112083276Y-99611293D01*
X111829103Y-99230897D01*
X111699726Y-99144450D01*
X112477539Y-99144450D01*
X112511460Y-99151197D01*
X112545381Y-99144450D01*
X112545385Y-99144450D01*
X112645858Y-99124465D01*
X112759794Y-99048334D01*
X112779011Y-99019574D01*
X113178052Y-98620533D01*
X113426739Y-98670000D01*
X113653261Y-98670000D01*
X113988707Y-98603276D01*
X114369103Y-98349103D01*
X114623276Y-97968707D01*
X114712529Y-97520000D01*
X114623276Y-97071293D01*
X114369103Y-96690897D01*
X113988707Y-96436724D01*
X113653261Y-96370000D01*
X113426739Y-96370000D01*
X113091293Y-96436724D01*
X112710897Y-96690897D01*
X112456724Y-97071293D01*
X112367471Y-97520000D01*
X112456724Y-97968707D01*
X112616503Y-98207832D01*
X112368785Y-98455550D01*
X111669794Y-98455550D01*
X111829103Y-98349103D01*
X112083276Y-97968707D01*
X112172529Y-97520000D01*
X112083276Y-97071293D01*
X111829103Y-96690897D01*
X111609930Y-96544450D01*
X112537539Y-96544450D01*
X112571460Y-96551197D01*
X112605381Y-96544450D01*
X112605385Y-96544450D01*
X112705858Y-96524465D01*
X112819794Y-96448334D01*
X112839011Y-96419574D01*
X113178052Y-96080533D01*
X113426739Y-96130000D01*
X113653261Y-96130000D01*
X113988707Y-96063276D01*
X114369103Y-95809103D01*
X114623276Y-95428707D01*
X114712529Y-94980000D01*
X114623276Y-94531293D01*
X114369103Y-94150897D01*
X113988707Y-93896724D01*
X113653261Y-93830000D01*
X113426739Y-93830000D01*
X113091293Y-93896724D01*
X112710897Y-94150897D01*
X112456724Y-94531293D01*
X112367471Y-94980000D01*
X112456724Y-95428707D01*
X112616503Y-95667832D01*
X112428785Y-95855550D01*
X111759590Y-95855550D01*
X111829103Y-95809103D01*
X112083276Y-95428707D01*
X112172529Y-94980000D01*
X112083276Y-94531293D01*
X111829103Y-94150897D01*
X111819454Y-94144450D01*
X112146079Y-94144450D01*
X112180000Y-94151197D01*
X112213921Y-94144450D01*
X112213925Y-94144450D01*
X112314398Y-94124465D01*
X112428334Y-94048334D01*
X112447551Y-94019574D01*
X113002907Y-93464218D01*
X113091293Y-93523276D01*
X113426739Y-93590000D01*
X113653261Y-93590000D01*
X113988707Y-93523276D01*
X114369103Y-93269103D01*
X114623276Y-92888707D01*
X114712529Y-92440000D01*
X114623276Y-91991293D01*
X114369103Y-91610897D01*
X113988707Y-91356724D01*
X113653261Y-91290000D01*
X113426739Y-91290000D01*
X113091293Y-91356724D01*
X112710897Y-91610897D01*
X112456724Y-91991293D01*
X112367471Y-92440000D01*
X112456724Y-92888707D01*
X112515782Y-92977093D01*
X112037325Y-93455550D01*
X111550066Y-93455550D01*
X111829103Y-93269103D01*
X112083276Y-92888707D01*
X112172529Y-92440000D01*
X112083276Y-91991293D01*
X111829103Y-91610897D01*
X111804488Y-91594450D01*
X112156079Y-91594450D01*
X112190000Y-91601197D01*
X112223921Y-91594450D01*
X112223925Y-91594450D01*
X112324398Y-91574465D01*
X112438334Y-91498334D01*
X112457551Y-91469574D01*
X112957552Y-90969574D01*
X112957554Y-90969571D01*
X113002907Y-90924218D01*
X113091293Y-90983276D01*
X113426739Y-91050000D01*
X113653261Y-91050000D01*
X113988707Y-90983276D01*
X114369103Y-90729103D01*
X114623276Y-90348707D01*
X114712529Y-89900000D01*
X114623276Y-89451293D01*
X114369103Y-89070897D01*
X113988707Y-88816724D01*
X113653261Y-88750000D01*
X113426739Y-88750000D01*
X113091293Y-88816724D01*
X112710897Y-89070897D01*
X112456724Y-89451293D01*
X112367471Y-89900000D01*
X112456724Y-90348707D01*
X112515782Y-90437093D01*
X112470429Y-90482446D01*
X112470426Y-90482448D01*
X112047325Y-90905550D01*
X111565032Y-90905550D01*
X111829103Y-90729103D01*
X112083276Y-90348707D01*
X112172529Y-89900000D01*
X112083276Y-89451293D01*
X111829103Y-89070897D01*
X111448707Y-88816724D01*
X111113261Y-88750000D01*
X110886739Y-88750000D01*
X110551293Y-88816724D01*
X110170897Y-89070897D01*
X109916724Y-89451293D01*
X109827471Y-89900000D01*
X109916724Y-90348707D01*
X109954705Y-90405549D01*
X104283920Y-90405549D01*
X104250000Y-90398802D01*
X104216080Y-90405549D01*
X104216076Y-90405549D01*
X104115603Y-90425534D01*
X104058723Y-90463540D01*
X104030426Y-90482448D01*
X104030425Y-90482449D01*
X104001667Y-90501665D01*
X103982451Y-90530423D01*
X101634000Y-92878875D01*
X101634000Y-92715500D01*
X101545500Y-92627000D01*
X101012000Y-92627000D01*
X101012000Y-93185500D01*
X101100500Y-93274000D01*
X101238875Y-93274000D01*
X101098974Y-93413901D01*
X98034000Y-93413901D01*
X98034000Y-93315500D01*
X97945500Y-93227000D01*
X97412000Y-93227000D01*
X97412000Y-93247000D01*
X97358000Y-93247000D01*
X97358000Y-93227000D01*
X97338000Y-93227000D01*
X97338000Y-93173000D01*
X97358000Y-93173000D01*
X97358000Y-92614500D01*
X97269500Y-92526000D01*
X97019585Y-92526000D01*
X96889475Y-92579893D01*
X96810772Y-92658596D01*
X96736000Y-92608634D01*
X96562500Y-92574123D01*
X96325000Y-92574123D01*
X96325000Y-92562126D01*
X96376027Y-92511099D01*
X97675000Y-92511099D01*
X97675000Y-92526000D01*
X97500500Y-92526000D01*
X97412000Y-92614500D01*
X97412000Y-93173000D01*
X97945500Y-93173000D01*
X98023396Y-93095104D01*
X98095571Y-93125000D01*
X98304429Y-93125000D01*
X98497388Y-93045073D01*
X98598011Y-92944450D01*
X99448326Y-92944450D01*
X99448634Y-92946000D01*
X99546914Y-93093086D01*
X99694000Y-93191366D01*
X99867500Y-93225877D01*
X100162500Y-93225877D01*
X100336000Y-93191366D01*
X100410772Y-93141404D01*
X100489475Y-93220107D01*
X100619585Y-93274000D01*
X100869500Y-93274000D01*
X100958000Y-93185500D01*
X100958000Y-92627000D01*
X100938000Y-92627000D01*
X100938000Y-92573000D01*
X100958000Y-92573000D01*
X100958000Y-92014500D01*
X101012000Y-92014500D01*
X101012000Y-92573000D01*
X101545500Y-92573000D01*
X101634000Y-92484500D01*
X101634000Y-92209585D01*
X101580107Y-92079475D01*
X101480525Y-91979893D01*
X101350415Y-91926000D01*
X101100500Y-91926000D01*
X101012000Y-92014500D01*
X100958000Y-92014500D01*
X100869500Y-91926000D01*
X100619585Y-91926000D01*
X100489475Y-91979893D01*
X100410772Y-92058596D01*
X100336000Y-92008634D01*
X100162500Y-91974123D01*
X100137439Y-91974123D01*
X100119347Y-91966629D01*
X99920496Y-91966629D01*
X103142676Y-88744450D01*
X104714996Y-88744450D01*
X104700000Y-88780653D01*
X104700000Y-89019347D01*
X104791344Y-89239873D01*
X104960127Y-89408656D01*
X105180653Y-89500000D01*
X105419347Y-89500000D01*
X105639873Y-89408656D01*
X105648529Y-89400000D01*
X105751477Y-89400000D01*
X105760133Y-89408656D01*
X105980659Y-89500000D01*
X106219353Y-89500000D01*
X106439879Y-89408656D01*
X106450003Y-89398532D01*
X106460127Y-89408656D01*
X106680653Y-89500000D01*
X106919347Y-89500000D01*
X107139873Y-89408656D01*
X107308656Y-89239873D01*
X107400000Y-89019347D01*
X107400000Y-88780653D01*
X107385004Y-88744450D01*
X112466079Y-88744450D01*
X112500000Y-88751197D01*
X112533921Y-88744450D01*
X112533925Y-88744450D01*
X112634398Y-88724465D01*
X112748334Y-88648334D01*
X112767552Y-88619573D01*
X113002907Y-88384218D01*
X113091293Y-88443276D01*
X113426739Y-88510000D01*
X113653261Y-88510000D01*
X113988707Y-88443276D01*
X114369103Y-88189103D01*
X114623276Y-87808707D01*
X114712529Y-87360000D01*
X114623276Y-86911293D01*
X114369103Y-86530897D01*
X113988707Y-86276724D01*
X113653261Y-86210000D01*
X113426739Y-86210000D01*
X113091293Y-86276724D01*
X112710897Y-86530897D01*
X112456724Y-86911293D01*
X112367471Y-87360000D01*
X112456724Y-87808707D01*
X112515782Y-87897093D01*
X112357325Y-88055550D01*
X111918340Y-88055550D01*
X112083276Y-87808707D01*
X112172529Y-87360000D01*
X112083276Y-86911293D01*
X111829103Y-86530897D01*
X111448707Y-86276724D01*
X111170400Y-86221366D01*
X111243965Y-86147801D01*
X112522728Y-86147801D01*
X112556649Y-86154548D01*
X112590570Y-86147801D01*
X112590574Y-86147801D01*
X112691047Y-86127816D01*
X112804983Y-86051685D01*
X112824201Y-86022924D01*
X113002907Y-85844218D01*
X113091293Y-85903276D01*
X113426739Y-85970000D01*
X113653261Y-85970000D01*
X113988707Y-85903276D01*
X114369103Y-85649103D01*
X114623276Y-85268707D01*
X114712529Y-84820000D01*
X114623276Y-84371293D01*
X114369103Y-83990897D01*
X113988707Y-83736724D01*
X113653261Y-83670000D01*
X113426739Y-83670000D01*
X113091293Y-83736724D01*
X112710897Y-83990897D01*
X112456724Y-84371293D01*
X112367471Y-84820000D01*
X112456724Y-85268707D01*
X112515782Y-85357093D01*
X112413974Y-85458901D01*
X111956192Y-85458901D01*
X112083276Y-85268707D01*
X112172529Y-84820000D01*
X112083276Y-84371293D01*
X111829103Y-83990897D01*
X111448707Y-83736724D01*
X111113261Y-83670000D01*
X110886739Y-83670000D01*
X110551293Y-83736724D01*
X110170897Y-83990897D01*
X109916724Y-84371293D01*
X109827471Y-84820000D01*
X109916724Y-85268707D01*
X109975782Y-85357093D01*
X109930429Y-85402446D01*
X109930426Y-85402448D01*
X109510676Y-85822199D01*
X95267266Y-85822199D01*
X95233350Y-85815453D01*
X95199434Y-85822199D01*
X95199426Y-85822199D01*
X95098953Y-85842184D01*
X95098951Y-85842185D01*
X95098952Y-85842185D01*
X95013776Y-85899098D01*
X95013775Y-85899099D01*
X94985017Y-85918315D01*
X94965801Y-85947073D01*
X91880424Y-89032451D01*
X91851667Y-89051666D01*
X91832451Y-89080424D01*
X91832449Y-89080426D01*
X91775535Y-89165603D01*
X91748803Y-89300000D01*
X90095657Y-89300000D01*
X89982535Y-89026900D01*
X89673100Y-88717465D01*
X89268804Y-88550000D01*
X88831196Y-88550000D01*
X88426900Y-88717465D01*
X88117465Y-89026900D01*
X87950000Y-89431196D01*
X81609848Y-89431196D01*
X81369103Y-89070897D01*
X80988707Y-88816724D01*
X80653261Y-88750000D01*
X80426739Y-88750000D01*
X80091293Y-88816724D01*
X79710897Y-89070897D01*
X79456724Y-89451293D01*
X79367471Y-89900000D01*
X79172529Y-89900000D01*
X79083276Y-89451293D01*
X78829103Y-89070897D01*
X78448707Y-88816724D01*
X78113261Y-88750000D01*
X77886739Y-88750000D01*
X77551293Y-88816724D01*
X77170897Y-89070897D01*
X76916724Y-89451293D01*
X76827471Y-89900000D01*
X76375000Y-89900000D01*
X76375000Y-87360000D01*
X76827471Y-87360000D01*
X76916724Y-87808707D01*
X77170897Y-88189103D01*
X77551293Y-88443276D01*
X77886739Y-88510000D01*
X78113261Y-88510000D01*
X78448707Y-88443276D01*
X78829103Y-88189103D01*
X79083276Y-87808707D01*
X79172529Y-87360000D01*
X79367471Y-87360000D01*
X79456724Y-87808707D01*
X79710897Y-88189103D01*
X80091293Y-88443276D01*
X80426739Y-88510000D01*
X80653261Y-88510000D01*
X80988707Y-88443276D01*
X81369103Y-88189103D01*
X81623276Y-87808707D01*
X81712529Y-87360000D01*
X81623276Y-86911293D01*
X81369103Y-86530897D01*
X80988707Y-86276724D01*
X80653261Y-86210000D01*
X80426739Y-86210000D01*
X80091293Y-86276724D01*
X79710897Y-86530897D01*
X79456724Y-86911293D01*
X79367471Y-87360000D01*
X79172529Y-87360000D01*
X79083276Y-86911293D01*
X78829103Y-86530897D01*
X78448707Y-86276724D01*
X78113261Y-86210000D01*
X77886739Y-86210000D01*
X77551293Y-86276724D01*
X77170897Y-86530897D01*
X76916724Y-86911293D01*
X76827471Y-87360000D01*
X76375000Y-87360000D01*
X76375000Y-84820000D01*
X76827471Y-84820000D01*
X76916724Y-85268707D01*
X77170897Y-85649103D01*
X77551293Y-85903276D01*
X77886739Y-85970000D01*
X78113261Y-85970000D01*
X78448707Y-85903276D01*
X78829103Y-85649103D01*
X79083276Y-85268707D01*
X79172529Y-84820000D01*
X79367471Y-84820000D01*
X79456724Y-85268707D01*
X79710897Y-85649103D01*
X80091293Y-85903276D01*
X80426739Y-85970000D01*
X80653261Y-85970000D01*
X80988707Y-85903276D01*
X81369103Y-85649103D01*
X81623276Y-85268707D01*
X81699266Y-84886674D01*
X92234010Y-84886674D01*
X92305392Y-85058133D01*
X92699509Y-85228223D01*
X93128715Y-85234544D01*
X93527669Y-85076133D01*
X93554608Y-85058133D01*
X93625990Y-84886674D01*
X97234010Y-84886674D01*
X97305392Y-85058133D01*
X97699509Y-85228223D01*
X98128715Y-85234544D01*
X98527669Y-85076133D01*
X98554608Y-85058133D01*
X98625990Y-84886674D01*
X97930000Y-84190684D01*
X97234010Y-84886674D01*
X93625990Y-84886674D01*
X92930000Y-84190684D01*
X92234010Y-84886674D01*
X81699266Y-84886674D01*
X81712529Y-84820000D01*
X81623276Y-84371293D01*
X81369103Y-83990897D01*
X80988707Y-83736724D01*
X80653261Y-83670000D01*
X80426739Y-83670000D01*
X80091293Y-83736724D01*
X79710897Y-83990897D01*
X79456724Y-84371293D01*
X79367471Y-84820000D01*
X79172529Y-84820000D01*
X79083276Y-84371293D01*
X78829103Y-83990897D01*
X78448707Y-83736724D01*
X78113261Y-83670000D01*
X77886739Y-83670000D01*
X77551293Y-83736724D01*
X77170897Y-83990897D01*
X76916724Y-84371293D01*
X76827471Y-84820000D01*
X76375000Y-84820000D01*
X76375000Y-83540870D01*
X88800000Y-83540870D01*
X88800000Y-83859130D01*
X88921793Y-84153164D01*
X89146836Y-84378207D01*
X89440870Y-84500000D01*
X89759130Y-84500000D01*
X90053164Y-84378207D01*
X90080156Y-84351215D01*
X91847956Y-84351215D01*
X92006367Y-84750169D01*
X92024367Y-84777108D01*
X92195826Y-84848490D01*
X92891816Y-84152500D01*
X92968184Y-84152500D01*
X93664174Y-84848490D01*
X93835633Y-84777108D01*
X94005723Y-84382991D01*
X94006190Y-84351215D01*
X96847956Y-84351215D01*
X97006367Y-84750169D01*
X97024367Y-84777108D01*
X97195826Y-84848490D01*
X97891816Y-84152500D01*
X97968184Y-84152500D01*
X98664174Y-84848490D01*
X98835633Y-84777108D01*
X99005723Y-84382991D01*
X99012044Y-83953785D01*
X98853633Y-83554831D01*
X98835633Y-83527892D01*
X98664174Y-83456510D01*
X97968184Y-84152500D01*
X97891816Y-84152500D01*
X97195826Y-83456510D01*
X97024367Y-83527892D01*
X96854277Y-83922009D01*
X96847956Y-84351215D01*
X94006190Y-84351215D01*
X94012044Y-83953785D01*
X93853633Y-83554831D01*
X93835633Y-83527892D01*
X93664174Y-83456510D01*
X92968184Y-84152500D01*
X92891816Y-84152500D01*
X92195826Y-83456510D01*
X92024367Y-83527892D01*
X91854277Y-83922009D01*
X91847956Y-84351215D01*
X90080156Y-84351215D01*
X90278207Y-84153164D01*
X90400000Y-83859130D01*
X90400000Y-83540870D01*
X90349241Y-83418326D01*
X92234010Y-83418326D01*
X92930000Y-84114316D01*
X93625990Y-83418326D01*
X97234010Y-83418326D01*
X97930000Y-84114316D01*
X98625990Y-83418326D01*
X98554608Y-83246867D01*
X98160491Y-83076777D01*
X97731285Y-83070456D01*
X97332331Y-83228867D01*
X97305392Y-83246867D01*
X97234010Y-83418326D01*
X93625990Y-83418326D01*
X93554608Y-83246867D01*
X93160491Y-83076777D01*
X92731285Y-83070456D01*
X92332331Y-83228867D01*
X92305392Y-83246867D01*
X92234010Y-83418326D01*
X90349241Y-83418326D01*
X90278207Y-83246836D01*
X90053164Y-83021793D01*
X89759130Y-82900000D01*
X89440870Y-82900000D01*
X89146836Y-83021793D01*
X88921793Y-83246836D01*
X88800000Y-83540870D01*
X76375000Y-83540870D01*
X76375000Y-81430000D01*
X76844123Y-81430000D01*
X76844123Y-83130000D01*
X76867407Y-83247054D01*
X76933712Y-83346288D01*
X77032946Y-83412593D01*
X77150000Y-83435877D01*
X78850000Y-83435877D01*
X78967054Y-83412593D01*
X79066288Y-83346288D01*
X79132593Y-83247054D01*
X79155877Y-83130000D01*
X79155877Y-82494967D01*
X79355346Y-82494967D01*
X79363255Y-82534745D01*
X79550316Y-82965674D01*
X79888047Y-83292216D01*
X80325032Y-83464657D01*
X80513000Y-83395200D01*
X80513000Y-82307000D01*
X80567000Y-82307000D01*
X80567000Y-83395200D01*
X80754968Y-83464657D01*
X81191953Y-83292216D01*
X81529684Y-82965674D01*
X81716745Y-82534745D01*
X81724654Y-82494967D01*
X81655173Y-82307000D01*
X80567000Y-82307000D01*
X80513000Y-82307000D01*
X79424827Y-82307000D01*
X79355346Y-82494967D01*
X79155877Y-82494967D01*
X79155877Y-82065033D01*
X79355346Y-82065033D01*
X79424827Y-82253000D01*
X80513000Y-82253000D01*
X80513000Y-81164800D01*
X80567000Y-81164800D01*
X80567000Y-82253000D01*
X81655173Y-82253000D01*
X81724654Y-82065033D01*
X81716745Y-82025255D01*
X81529684Y-81594326D01*
X81370970Y-81440870D01*
X88800000Y-81440870D01*
X88800000Y-81759130D01*
X88921793Y-82053164D01*
X89146836Y-82278207D01*
X89440870Y-82400000D01*
X89759130Y-82400000D01*
X90053164Y-82278207D01*
X90278207Y-82053164D01*
X90400000Y-81759130D01*
X90400000Y-81479500D01*
X90976000Y-81479500D01*
X90976000Y-81829500D01*
X91058951Y-82192525D01*
X91274512Y-82496172D01*
X91589865Y-82694214D01*
X91754154Y-82740154D01*
X91903000Y-82667579D01*
X91903000Y-81479500D01*
X91957000Y-81479500D01*
X91957000Y-82667579D01*
X92105846Y-82740154D01*
X92270135Y-82694214D01*
X92585488Y-82496172D01*
X92801049Y-82192525D01*
X92884000Y-81829500D01*
X92884000Y-81479500D01*
X97976000Y-81479500D01*
X97976000Y-81829500D01*
X98058951Y-82192525D01*
X98274512Y-82496172D01*
X98589865Y-82694214D01*
X98754154Y-82740154D01*
X98903000Y-82667579D01*
X98903000Y-81479500D01*
X98957000Y-81479500D01*
X98957000Y-82667579D01*
X99105846Y-82740154D01*
X99270135Y-82694214D01*
X99585488Y-82496172D01*
X99801049Y-82192525D01*
X99884000Y-81829500D01*
X99884000Y-81479500D01*
X98957000Y-81479500D01*
X98903000Y-81479500D01*
X97976000Y-81479500D01*
X92884000Y-81479500D01*
X91957000Y-81479500D01*
X91903000Y-81479500D01*
X90976000Y-81479500D01*
X90400000Y-81479500D01*
X90400000Y-81440870D01*
X90395498Y-81430000D01*
X109844123Y-81430000D01*
X109844123Y-83130000D01*
X109867407Y-83247054D01*
X109933712Y-83346288D01*
X110032946Y-83412593D01*
X110150000Y-83435877D01*
X111850000Y-83435877D01*
X111967054Y-83412593D01*
X112066288Y-83346288D01*
X112132593Y-83247054D01*
X112155877Y-83130000D01*
X112155877Y-82494967D01*
X112355346Y-82494967D01*
X112363255Y-82534745D01*
X112550316Y-82965674D01*
X112888047Y-83292216D01*
X113325032Y-83464657D01*
X113513000Y-83395200D01*
X113513000Y-82307000D01*
X113567000Y-82307000D01*
X113567000Y-83395200D01*
X113754968Y-83464657D01*
X114191953Y-83292216D01*
X114529684Y-82965674D01*
X114716745Y-82534745D01*
X114724654Y-82494967D01*
X114655173Y-82307000D01*
X113567000Y-82307000D01*
X113513000Y-82307000D01*
X112424827Y-82307000D01*
X112355346Y-82494967D01*
X112155877Y-82494967D01*
X112155877Y-82065033D01*
X112355346Y-82065033D01*
X112424827Y-82253000D01*
X113513000Y-82253000D01*
X113513000Y-81164800D01*
X113567000Y-81164800D01*
X113567000Y-82253000D01*
X114655173Y-82253000D01*
X114724654Y-82065033D01*
X114716745Y-82025255D01*
X114529684Y-81594326D01*
X114191953Y-81267784D01*
X113754968Y-81095343D01*
X113567000Y-81164800D01*
X113513000Y-81164800D01*
X113325032Y-81095343D01*
X112888047Y-81267784D01*
X112550316Y-81594326D01*
X112363255Y-82025255D01*
X112355346Y-82065033D01*
X112155877Y-82065033D01*
X112155877Y-81430000D01*
X112132593Y-81312946D01*
X112066288Y-81213712D01*
X111967054Y-81147407D01*
X111850000Y-81124123D01*
X110150000Y-81124123D01*
X110032946Y-81147407D01*
X109933712Y-81213712D01*
X109867407Y-81312946D01*
X109844123Y-81430000D01*
X90395498Y-81430000D01*
X90278207Y-81146836D01*
X90053164Y-80921793D01*
X89759130Y-80800000D01*
X89440870Y-80800000D01*
X89146836Y-80921793D01*
X88921793Y-81146836D01*
X88800000Y-81440870D01*
X81370970Y-81440870D01*
X81191953Y-81267784D01*
X80754968Y-81095343D01*
X80567000Y-81164800D01*
X80513000Y-81164800D01*
X80325032Y-81095343D01*
X79888047Y-81267784D01*
X79550316Y-81594326D01*
X79363255Y-82025255D01*
X79355346Y-82065033D01*
X79155877Y-82065033D01*
X79155877Y-81430000D01*
X79132593Y-81312946D01*
X79066288Y-81213712D01*
X78967054Y-81147407D01*
X78850000Y-81124123D01*
X77150000Y-81124123D01*
X77032946Y-81147407D01*
X76933712Y-81213712D01*
X76867407Y-81312946D01*
X76844123Y-81430000D01*
X76375000Y-81430000D01*
X76375000Y-81036937D01*
X76429363Y-80763633D01*
X76563253Y-80563253D01*
X76763632Y-80429363D01*
X77036936Y-80375000D01*
X91328378Y-80375000D01*
X91274512Y-80408828D01*
G36*
X110550277Y-109137403D02*
X110170897Y-109390897D01*
X109916724Y-109771293D01*
X109827471Y-110220000D01*
X109916724Y-110668707D01*
X110170897Y-111049103D01*
X110330206Y-111155550D01*
X107042676Y-111155550D01*
X102703119Y-106815994D01*
X102845571Y-106875000D01*
X103054429Y-106875000D01*
X103247388Y-106795073D01*
X103395073Y-106647388D01*
X103475000Y-106454429D01*
X103475000Y-106245571D01*
X103395073Y-106052612D01*
X103247388Y-105904927D01*
X103054429Y-105825000D01*
X102912126Y-105825000D01*
X102244450Y-105157325D01*
X102244450Y-101948011D01*
X102345073Y-101847388D01*
X102425000Y-101654429D01*
X102425000Y-101445571D01*
X102403825Y-101394450D01*
X102807325Y-101394450D01*
X110550277Y-109137403D01*
X110550277Y-109137403D01*
G37*
X110550277Y-109137403D02*
X110170897Y-109390897D01*
X109916724Y-109771293D01*
X109827471Y-110220000D01*
X109916724Y-110668707D01*
X110170897Y-111049103D01*
X110330206Y-111155550D01*
X107042676Y-111155550D01*
X102703119Y-106815994D01*
X102845571Y-106875000D01*
X103054429Y-106875000D01*
X103247388Y-106795073D01*
X103395073Y-106647388D01*
X103475000Y-106454429D01*
X103475000Y-106245571D01*
X103395073Y-106052612D01*
X103247388Y-105904927D01*
X103054429Y-105825000D01*
X102912126Y-105825000D01*
X102244450Y-105157325D01*
X102244450Y-101948011D01*
X102345073Y-101847388D01*
X102425000Y-101654429D01*
X102425000Y-101445571D01*
X102403825Y-101394450D01*
X102807325Y-101394450D01*
X110550277Y-109137403D01*
G36*
X96821979Y-105115603D02*
X96835242Y-105124465D01*
X96935715Y-105144450D01*
X96935719Y-105144450D01*
X96969640Y-105151197D01*
X97003561Y-105144450D01*
X98516886Y-105144450D01*
X98475000Y-105245571D01*
X98475000Y-105454429D01*
X98554927Y-105647388D01*
X98655551Y-105748012D01*
X98655551Y-105776762D01*
X98546836Y-105821793D01*
X98321793Y-106046836D01*
X98200000Y-106340870D01*
X98200000Y-106512875D01*
X96763962Y-105076837D01*
X96821979Y-105115603D01*
X96821979Y-105115603D01*
G37*
X96821979Y-105115603D02*
X96835242Y-105124465D01*
X96935715Y-105144450D01*
X96935719Y-105144450D01*
X96969640Y-105151197D01*
X97003561Y-105144450D01*
X98516886Y-105144450D01*
X98475000Y-105245571D01*
X98475000Y-105454429D01*
X98554927Y-105647388D01*
X98655551Y-105748012D01*
X98655551Y-105776762D01*
X98546836Y-105821793D01*
X98321793Y-106046836D01*
X98200000Y-106340870D01*
X98200000Y-106512875D01*
X96763962Y-105076837D01*
X96821979Y-105115603D01*
G36*
X94554932Y-98498336D02*
X94702617Y-98646021D01*
X94895576Y-98725948D01*
X95055550Y-98725948D01*
X95055551Y-100166074D01*
X95048803Y-100200000D01*
X95075535Y-100334397D01*
X95132449Y-100419574D01*
X95132451Y-100419576D01*
X95151667Y-100448334D01*
X95180425Y-100467550D01*
X95982448Y-101269573D01*
X96001666Y-101298334D01*
X96115602Y-101374465D01*
X96216075Y-101394450D01*
X96216079Y-101394450D01*
X96250000Y-101401197D01*
X96283921Y-101394450D01*
X100746175Y-101394450D01*
X100725000Y-101445571D01*
X100725000Y-101654429D01*
X100804927Y-101847388D01*
X100905550Y-101948011D01*
X100905551Y-105018426D01*
X100467552Y-104580426D01*
X100448334Y-104551666D01*
X100334398Y-104475535D01*
X100233925Y-104455550D01*
X100233921Y-104455550D01*
X100200000Y-104448803D01*
X100166079Y-104455550D01*
X97112316Y-104455550D01*
X93749613Y-101092848D01*
X93800000Y-101042461D01*
X93902612Y-101145073D01*
X94095571Y-101225000D01*
X94304429Y-101225000D01*
X94497388Y-101145073D01*
X94645073Y-100997388D01*
X94725000Y-100804429D01*
X94725000Y-100595571D01*
X94645073Y-100402612D01*
X94544450Y-100301989D01*
X94544450Y-98473030D01*
X94554932Y-98498336D01*
X94554932Y-98498336D01*
G37*
X94554932Y-98498336D02*
X94702617Y-98646021D01*
X94895576Y-98725948D01*
X95055550Y-98725948D01*
X95055551Y-100166074D01*
X95048803Y-100200000D01*
X95075535Y-100334397D01*
X95132449Y-100419574D01*
X95132451Y-100419576D01*
X95151667Y-100448334D01*
X95180425Y-100467550D01*
X95982448Y-101269573D01*
X96001666Y-101298334D01*
X96115602Y-101374465D01*
X96216075Y-101394450D01*
X96216079Y-101394450D01*
X96250000Y-101401197D01*
X96283921Y-101394450D01*
X100746175Y-101394450D01*
X100725000Y-101445571D01*
X100725000Y-101654429D01*
X100804927Y-101847388D01*
X100905550Y-101948011D01*
X100905551Y-105018426D01*
X100467552Y-104580426D01*
X100448334Y-104551666D01*
X100334398Y-104475535D01*
X100233925Y-104455550D01*
X100233921Y-104455550D01*
X100200000Y-104448803D01*
X100166079Y-104455550D01*
X97112316Y-104455550D01*
X93749613Y-101092848D01*
X93800000Y-101042461D01*
X93902612Y-101145073D01*
X94095571Y-101225000D01*
X94304429Y-101225000D01*
X94497388Y-101145073D01*
X94645073Y-100997388D01*
X94725000Y-100804429D01*
X94725000Y-100595571D01*
X94645073Y-100402612D01*
X94544450Y-100301989D01*
X94544450Y-98473030D01*
X94554932Y-98498336D01*
G36*
X110170897Y-96690897D02*
X109916724Y-97071293D01*
X109827471Y-97520000D01*
X109916724Y-97968707D01*
X110170897Y-98349103D01*
X110330206Y-98455550D01*
X109942676Y-98455550D01*
X108267551Y-96780426D01*
X108248334Y-96751666D01*
X108134398Y-96675535D01*
X108033925Y-96655550D01*
X108033921Y-96655550D01*
X108000000Y-96648803D01*
X107966079Y-96655550D01*
X95524058Y-96655550D01*
X95524058Y-96544450D01*
X110390070Y-96544450D01*
X110170897Y-96690897D01*
X110170897Y-96690897D01*
G37*
X110170897Y-96690897D02*
X109916724Y-97071293D01*
X109827471Y-97520000D01*
X109916724Y-97968707D01*
X110170897Y-98349103D01*
X110330206Y-98455550D01*
X109942676Y-98455550D01*
X108267551Y-96780426D01*
X108248334Y-96751666D01*
X108134398Y-96675535D01*
X108033925Y-96655550D01*
X108033921Y-96655550D01*
X108000000Y-96648803D01*
X107966079Y-96655550D01*
X95524058Y-96655550D01*
X95524058Y-96544450D01*
X110390070Y-96544450D01*
X110170897Y-96690897D01*
G36*
X110170897Y-94150897D02*
X109916724Y-94531293D01*
X109827471Y-94980000D01*
X109916724Y-95428707D01*
X109975782Y-95517093D01*
X109887325Y-95605550D01*
X103197929Y-95605550D01*
X103300000Y-95359130D01*
X103300000Y-95040870D01*
X103178207Y-94746836D01*
X102953164Y-94521793D01*
X102659130Y-94400000D01*
X102487126Y-94400000D01*
X102742676Y-94144450D01*
X110180546Y-94144450D01*
X110170897Y-94150897D01*
X110170897Y-94150897D01*
G37*
X110170897Y-94150897D02*
X109916724Y-94531293D01*
X109827471Y-94980000D01*
X109916724Y-95428707D01*
X109975782Y-95517093D01*
X109887325Y-95605550D01*
X103197929Y-95605550D01*
X103300000Y-95359130D01*
X103300000Y-95040870D01*
X103178207Y-94746836D01*
X102953164Y-94521793D01*
X102659130Y-94400000D01*
X102487126Y-94400000D01*
X102742676Y-94144450D01*
X110180546Y-94144450D01*
X110170897Y-94150897D01*
G36*
X94842000Y-94973000D02*
X94862000Y-94973000D01*
X94862000Y-95027000D01*
X94842000Y-95027000D01*
X94842000Y-95047000D01*
X94788000Y-95047000D01*
X94788000Y-95027000D01*
X94768000Y-95027000D01*
X94768000Y-94973000D01*
X94788000Y-94973000D01*
X94788000Y-94953000D01*
X94842000Y-94953000D01*
X94842000Y-94973000D01*
X94842000Y-94973000D01*
G37*
X94842000Y-94973000D02*
X94862000Y-94973000D01*
X94862000Y-95027000D01*
X94842000Y-95027000D01*
X94842000Y-95047000D01*
X94788000Y-95047000D01*
X94788000Y-95027000D01*
X94768000Y-95027000D01*
X94768000Y-94973000D01*
X94788000Y-94973000D01*
X94788000Y-94953000D01*
X94842000Y-94953000D01*
X94842000Y-94973000D01*
G36*
X110170897Y-91610897D02*
X109916724Y-91991293D01*
X109827471Y-92440000D01*
X109916724Y-92888707D01*
X109975782Y-92977093D01*
X109697325Y-93255550D01*
X102582925Y-93255550D01*
X103054025Y-92784450D01*
X108665803Y-92784450D01*
X108749999Y-92801197D01*
X108884397Y-92774465D01*
X108998334Y-92698334D01*
X109057825Y-92609300D01*
X110072676Y-91594450D01*
X110195512Y-91594450D01*
X110170897Y-91610897D01*
X110170897Y-91610897D01*
G37*
X110170897Y-91610897D02*
X109916724Y-91991293D01*
X109827471Y-92440000D01*
X109916724Y-92888707D01*
X109975782Y-92977093D01*
X109697325Y-93255550D01*
X102582925Y-93255550D01*
X103054025Y-92784450D01*
X108665803Y-92784450D01*
X108749999Y-92801197D01*
X108884397Y-92774465D01*
X108998334Y-92698334D01*
X109057825Y-92609300D01*
X110072676Y-91594450D01*
X110195512Y-91594450D01*
X110170897Y-91610897D01*
G36*
X101568035Y-89344839D02*
X99090676Y-91822199D01*
X96267272Y-91822199D01*
X96233351Y-91815452D01*
X96199430Y-91822199D01*
X96199426Y-91822199D01*
X96098953Y-91842184D01*
X96013776Y-91899098D01*
X96013775Y-91899099D01*
X95985017Y-91918315D01*
X95965801Y-91947073D01*
X95837874Y-92075000D01*
X95695571Y-92075000D01*
X95622240Y-92105375D01*
X95674000Y-91980415D01*
X95674000Y-91730500D01*
X95585500Y-91642000D01*
X95027000Y-91642000D01*
X95027000Y-91662000D01*
X94973000Y-91662000D01*
X94973000Y-91642000D01*
X94953000Y-91642000D01*
X94953000Y-91588000D01*
X94973000Y-91588000D01*
X94973000Y-91054500D01*
X95027000Y-91054500D01*
X95027000Y-91588000D01*
X95585500Y-91588000D01*
X95674000Y-91499500D01*
X95674000Y-91249585D01*
X95620107Y-91119475D01*
X95520525Y-91019893D01*
X95390415Y-90966000D01*
X95115500Y-90966000D01*
X95027000Y-91054500D01*
X94973000Y-91054500D01*
X94884500Y-90966000D01*
X94609585Y-90966000D01*
X94544450Y-90992980D01*
X94544450Y-90637211D01*
X95675000Y-90637211D01*
X95675000Y-90846069D01*
X95754927Y-91039028D01*
X95902612Y-91186713D01*
X96095571Y-91266640D01*
X96304429Y-91266640D01*
X96497388Y-91186713D01*
X96645073Y-91039028D01*
X96713646Y-90873479D01*
X97062126Y-90525000D01*
X97204429Y-90525000D01*
X97215535Y-90520400D01*
X97214123Y-90527500D01*
X97214123Y-90872500D01*
X97248634Y-91046000D01*
X97346914Y-91193086D01*
X97494000Y-91291366D01*
X97667500Y-91325877D01*
X97962500Y-91325877D01*
X98136000Y-91291366D01*
X98210772Y-91241404D01*
X98289475Y-91320107D01*
X98419585Y-91374000D01*
X98669500Y-91374000D01*
X98758000Y-91285500D01*
X98758000Y-90727000D01*
X98812000Y-90727000D01*
X98812000Y-91285500D01*
X98900500Y-91374000D01*
X99150415Y-91374000D01*
X99280525Y-91320107D01*
X99380107Y-91220525D01*
X99434000Y-91090415D01*
X99434000Y-90815500D01*
X99345500Y-90727000D01*
X98812000Y-90727000D01*
X98758000Y-90727000D01*
X98738000Y-90727000D01*
X98738000Y-90673000D01*
X98758000Y-90673000D01*
X98758000Y-90114500D01*
X98812000Y-90114500D01*
X98812000Y-90673000D01*
X99345500Y-90673000D01*
X99434000Y-90584500D01*
X99434000Y-90309585D01*
X99380107Y-90179475D01*
X99280525Y-90079893D01*
X99150415Y-90026000D01*
X98900500Y-90026000D01*
X98812000Y-90114500D01*
X98758000Y-90114500D01*
X98669500Y-90026000D01*
X98419585Y-90026000D01*
X98289475Y-90079893D01*
X98210772Y-90158596D01*
X98136000Y-90108634D01*
X97962500Y-90074123D01*
X97667500Y-90074123D01*
X97625000Y-90082577D01*
X97625000Y-89895571D01*
X97545073Y-89702612D01*
X97397388Y-89554927D01*
X97204429Y-89475000D01*
X96995571Y-89475000D01*
X96802612Y-89554927D01*
X96654927Y-89702612D01*
X96575000Y-89895571D01*
X96575000Y-90037874D01*
X96369345Y-90243529D01*
X96304429Y-90216640D01*
X96095571Y-90216640D01*
X95902612Y-90296567D01*
X95754927Y-90444252D01*
X95675000Y-90637211D01*
X94544450Y-90637211D01*
X94544450Y-89344450D01*
X101566079Y-89344450D01*
X101568035Y-89344839D01*
X101568035Y-89344839D01*
G37*
X101568035Y-89344839D02*
X99090676Y-91822199D01*
X96267272Y-91822199D01*
X96233351Y-91815452D01*
X96199430Y-91822199D01*
X96199426Y-91822199D01*
X96098953Y-91842184D01*
X96013776Y-91899098D01*
X96013775Y-91899099D01*
X95985017Y-91918315D01*
X95965801Y-91947073D01*
X95837874Y-92075000D01*
X95695571Y-92075000D01*
X95622240Y-92105375D01*
X95674000Y-91980415D01*
X95674000Y-91730500D01*
X95585500Y-91642000D01*
X95027000Y-91642000D01*
X95027000Y-91662000D01*
X94973000Y-91662000D01*
X94973000Y-91642000D01*
X94953000Y-91642000D01*
X94953000Y-91588000D01*
X94973000Y-91588000D01*
X94973000Y-91054500D01*
X95027000Y-91054500D01*
X95027000Y-91588000D01*
X95585500Y-91588000D01*
X95674000Y-91499500D01*
X95674000Y-91249585D01*
X95620107Y-91119475D01*
X95520525Y-91019893D01*
X95390415Y-90966000D01*
X95115500Y-90966000D01*
X95027000Y-91054500D01*
X94973000Y-91054500D01*
X94884500Y-90966000D01*
X94609585Y-90966000D01*
X94544450Y-90992980D01*
X94544450Y-90637211D01*
X95675000Y-90637211D01*
X95675000Y-90846069D01*
X95754927Y-91039028D01*
X95902612Y-91186713D01*
X96095571Y-91266640D01*
X96304429Y-91266640D01*
X96497388Y-91186713D01*
X96645073Y-91039028D01*
X96713646Y-90873479D01*
X97062126Y-90525000D01*
X97204429Y-90525000D01*
X97215535Y-90520400D01*
X97214123Y-90527500D01*
X97214123Y-90872500D01*
X97248634Y-91046000D01*
X97346914Y-91193086D01*
X97494000Y-91291366D01*
X97667500Y-91325877D01*
X97962500Y-91325877D01*
X98136000Y-91291366D01*
X98210772Y-91241404D01*
X98289475Y-91320107D01*
X98419585Y-91374000D01*
X98669500Y-91374000D01*
X98758000Y-91285500D01*
X98758000Y-90727000D01*
X98812000Y-90727000D01*
X98812000Y-91285500D01*
X98900500Y-91374000D01*
X99150415Y-91374000D01*
X99280525Y-91320107D01*
X99380107Y-91220525D01*
X99434000Y-91090415D01*
X99434000Y-90815500D01*
X99345500Y-90727000D01*
X98812000Y-90727000D01*
X98758000Y-90727000D01*
X98738000Y-90727000D01*
X98738000Y-90673000D01*
X98758000Y-90673000D01*
X98758000Y-90114500D01*
X98812000Y-90114500D01*
X98812000Y-90673000D01*
X99345500Y-90673000D01*
X99434000Y-90584500D01*
X99434000Y-90309585D01*
X99380107Y-90179475D01*
X99280525Y-90079893D01*
X99150415Y-90026000D01*
X98900500Y-90026000D01*
X98812000Y-90114500D01*
X98758000Y-90114500D01*
X98669500Y-90026000D01*
X98419585Y-90026000D01*
X98289475Y-90079893D01*
X98210772Y-90158596D01*
X98136000Y-90108634D01*
X97962500Y-90074123D01*
X97667500Y-90074123D01*
X97625000Y-90082577D01*
X97625000Y-89895571D01*
X97545073Y-89702612D01*
X97397388Y-89554927D01*
X97204429Y-89475000D01*
X96995571Y-89475000D01*
X96802612Y-89554927D01*
X96654927Y-89702612D01*
X96575000Y-89895571D01*
X96575000Y-90037874D01*
X96369345Y-90243529D01*
X96304429Y-90216640D01*
X96095571Y-90216640D01*
X95902612Y-90296567D01*
X95754927Y-90444252D01*
X95675000Y-90637211D01*
X94544450Y-90637211D01*
X94544450Y-89344450D01*
X101566079Y-89344450D01*
X101568035Y-89344839D01*
G36*
X110529080Y-85888434D02*
X109728614Y-86688901D01*
X95949109Y-86688901D01*
X95915188Y-86682154D01*
X95881267Y-86688901D01*
X95881263Y-86688901D01*
X95780790Y-86708886D01*
X95695613Y-86765800D01*
X95695612Y-86765801D01*
X95666854Y-86785017D01*
X95647638Y-86813775D01*
X93580424Y-88880990D01*
X93551667Y-88900205D01*
X93532451Y-88928963D01*
X93532449Y-88928965D01*
X93475535Y-89014142D01*
X93475146Y-89016097D01*
X93390415Y-88981000D01*
X93115500Y-88981000D01*
X93027000Y-89069500D01*
X93027000Y-89603000D01*
X93047000Y-89603000D01*
X93047000Y-89657000D01*
X93027000Y-89657000D01*
X93027000Y-89677000D01*
X92973000Y-89677000D01*
X92973000Y-89657000D01*
X92953000Y-89657000D01*
X92953000Y-89603000D01*
X92973000Y-89603000D01*
X92973000Y-89069500D01*
X92895313Y-88991813D01*
X95376027Y-86511099D01*
X109619430Y-86511099D01*
X109653351Y-86517846D01*
X109687272Y-86511099D01*
X109687276Y-86511099D01*
X109787749Y-86491114D01*
X109901685Y-86414983D01*
X109920902Y-86386223D01*
X110417552Y-85889574D01*
X110417554Y-85889571D01*
X110462907Y-85844218D01*
X110529080Y-85888434D01*
X110529080Y-85888434D01*
G37*
X110529080Y-85888434D02*
X109728614Y-86688901D01*
X95949109Y-86688901D01*
X95915188Y-86682154D01*
X95881267Y-86688901D01*
X95881263Y-86688901D01*
X95780790Y-86708886D01*
X95695613Y-86765800D01*
X95695612Y-86765801D01*
X95666854Y-86785017D01*
X95647638Y-86813775D01*
X93580424Y-88880990D01*
X93551667Y-88900205D01*
X93532451Y-88928963D01*
X93532449Y-88928965D01*
X93475535Y-89014142D01*
X93475146Y-89016097D01*
X93390415Y-88981000D01*
X93115500Y-88981000D01*
X93027000Y-89069500D01*
X93027000Y-89603000D01*
X93047000Y-89603000D01*
X93047000Y-89657000D01*
X93027000Y-89657000D01*
X93027000Y-89677000D01*
X92973000Y-89677000D01*
X92973000Y-89657000D01*
X92953000Y-89657000D01*
X92953000Y-89603000D01*
X92973000Y-89603000D01*
X92973000Y-89069500D01*
X92895313Y-88991813D01*
X95376027Y-86511099D01*
X109619430Y-86511099D01*
X109653351Y-86517846D01*
X109687272Y-86511099D01*
X109687276Y-86511099D01*
X109787749Y-86491114D01*
X109901685Y-86414983D01*
X109920902Y-86386223D01*
X110417552Y-85889574D01*
X110417554Y-85889571D01*
X110462907Y-85844218D01*
X110529080Y-85888434D01*
G36*
X101457325Y-88655550D02*
X94780114Y-88655550D01*
X96057864Y-87377801D01*
X102735073Y-87377801D01*
X101457325Y-88655550D01*
X101457325Y-88655550D01*
G37*
X101457325Y-88655550D02*
X94780114Y-88655550D01*
X96057864Y-87377801D01*
X102735073Y-87377801D01*
X101457325Y-88655550D01*
G04 #@! TD*
M02*
