M48
;DRILL file {KiCad 5.0.2-bee76a0~70~ubuntu18.04.1} date 2018-12-10T15:17:28 CET
;FORMAT={-:-/ absolute / inch / decimal}
FMAT,2
INCH,TZ
T1C0.0118
T2C0.0157
T3C0.0197
T4C0.0236
T5C0.0256
T6C0.0335
T7C0.0394
%
G90
G05
T1
X3.4882Y-3.6299
X3.5118Y-4.5787
X3.5354Y-4.1102
X3.563Y-4.4843
X3.5669Y-3.6614
X3.6026Y-4.3248
X3.6457Y-3.6772
X3.6457Y-3.8031
X3.6457Y-3.8346
X3.6457Y-4.5787
X3.6575Y-4.4449
X3.6614Y-3.5748
X3.6772Y-3.6772
X3.6772Y-3.7087
X3.6772Y-3.8031
X3.6772Y-3.8346
X3.6772Y-3.9646
X3.685Y-3.4882
X3.6929Y-4.187
X3.7087Y-3.6457
X3.7087Y-3.7087
X3.7087Y-3.8346
X3.7087Y-3.9646
X3.7087Y-4.3386
X3.7089Y-3.7719
X3.7165Y-4.4882
X3.7401Y-3.8032
X3.7402Y-3.6142
X3.7402Y-3.6457
X3.7402Y-3.7087
X3.7402Y-3.7402
X3.7402Y-3.8346
X3.7402Y-4.2992
X3.7402Y-3.8662
X3.7717Y-3.6457
X3.7717Y-3.7087
X3.7717Y-3.7402
X3.7717Y-3.7717
X3.7874Y-3.5725
X3.8031Y-3.6772
X3.8031Y-3.8031
X3.8031Y-3.8346
X3.8032Y-3.7402
X3.8228Y-3.5433
X3.8346Y-3.6772
X3.8346Y-3.7087
X3.8346Y-3.7717
X3.8504Y-3.5748
X3.8622Y-4.1575
X3.8624Y-4.3445
X3.8661Y-3.6142
X3.8661Y-3.6457
X3.8661Y-3.8661
X3.8974Y-3.9289
X3.8976Y-4.1476
X3.9016Y-3.4488
X3.9179Y-3.8346
X3.9252Y-3.5709
X3.9252Y-4.0787
X3.937Y-3.6444
X3.9606Y-4.5787
X3.9646Y-3.4488
X3.9862Y-3.998
X3.9961Y-3.8504
X4.0079Y-3.6457
X4.0118Y-3.998
X4.0236Y-4.1811
X4.0531Y-4.187
X4.0709Y-3.9606
X4.0748Y-4.3268
X4.1063Y-4.1535
X4.1339Y-3.4094
X4.1457Y-3.5
X4.1772Y-3.5
X4.1969Y-3.6693
X4.2047Y-3.5
X4.2441Y-3.3583
X4.2559Y-3.5472
X4.2559Y-3.7579
T2
X3.9449Y-3.9488
T3
X3.5276Y-3.2953
X3.5276Y-3.2126
X4.0354Y-3.748
X3.5059Y-3.5295
T5
X4.0768Y-4.5118
X4.1268Y-4.5118
X4.1768Y-4.5118
X4.2268Y-4.5118
T6
X3.6587Y-3.3131
X3.8555Y-3.3131
T7
X3.0709Y-3.2394
X3.0709Y-3.3394
X3.0709Y-3.4394
X3.0709Y-3.5394
X3.0709Y-3.6394
X3.0709Y-3.7394
X3.0709Y-3.8394
X3.0709Y-3.9394
X3.0709Y-4.0394
X3.0709Y-4.1394
X3.0709Y-4.2394
X3.0709Y-4.3394
X3.0709Y-4.4394
X3.0709Y-4.5394
X3.1709Y-3.2394
X3.1709Y-3.3394
X3.1709Y-3.4394
X3.1709Y-3.5394
X3.1709Y-3.6394
X3.1709Y-3.7394
X3.1709Y-3.8394
X3.1709Y-3.9394
X3.1709Y-4.0394
X3.1709Y-4.1394
X3.1709Y-4.2394
X3.1709Y-4.3394
X3.1709Y-4.4394
X3.1709Y-4.5394
X4.3701Y-3.2394
X4.3701Y-3.3394
X4.3701Y-3.4394
X4.3701Y-3.5394
X4.3701Y-3.6394
X4.3701Y-3.7394
X4.3701Y-3.8394
X4.3701Y-3.9394
X4.3701Y-4.0394
X4.3701Y-4.1394
X4.3701Y-4.2394
X4.3701Y-4.3394
X4.3701Y-4.4394
X4.3701Y-4.5394
X4.4701Y-3.2394
X4.4701Y-3.3394
X4.4701Y-3.4394
X4.4701Y-3.5394
X4.4701Y-3.6394
X4.4701Y-3.7394
X4.4701Y-3.8394
X4.4701Y-3.9394
X4.4701Y-4.0394
X4.4701Y-4.1394
X4.4701Y-4.2394
X4.4701Y-4.3394
X4.4701Y-4.4394
X4.4701Y-4.5394
T4
X3.6193Y-3.2206G85X3.6193Y-3.193
G05
X3.8949Y-3.193G85X3.8949Y-3.2206
G05
T0
M30
